<svg xmlns="http://www.w3.org/2000/svg" viewBox="0 0 800 633"><style>.st0{display:none;} .st1{display:inline;} .st2{fill:#FFFFFF;} .st3{fill:none;stroke:#9882CE;stroke-width:4;stroke-miterlimit:10;} .st4{fill:#FFFFFF;stroke:#404040;stroke-width:4;stroke-linecap:round;stroke-linejoin:round;stroke-miterlimit:10;} .st5{fill:#FFFFFF;stroke:#404040;stroke-width:4;stroke-miterlimit:10;} .st6{fill:#B3E3FF;stroke:#404040;stroke-width:4;stroke-miterlimit:10;} .st7{fill:#B18BE8;stroke:#404040;stroke-width:4;stroke-miterlimit:10;} .st8{fill:#FFFFFF;stroke:#404040;stroke-width:6;stroke-miterlimit:10;} .st9{fill:#B3E3FF;stroke:#404040;stroke-width:6;stroke-miterlimit:10;} .st10{fill:#404040;} .st11{fill:none;stroke:#404040;stroke-width:4;stroke-linecap:round;stroke-linejoin:round;stroke-miterlimit:10;} .st12{fill:#B18BE8;stroke:#404040;stroke-width:4;stroke-linecap:round;stroke-linejoin:round;stroke-miterlimit:10;} .st13{fill:#444444;} .st14{fill:none;stroke:#404040;stroke-width:4;stroke-miterlimit:10;} .st15{fill:#4ED1A1;stroke:#404040;stroke-width:4;stroke-miterlimit:10;} .st16{fill:none;stroke:#CCCCCC;stroke-width:7;stroke-linecap:round;stroke-linejoin:round;stroke-miterlimit:10;} .st17{fill:#FFFFFF;stroke:#CCCCCC;stroke-width:7;stroke-linecap:round;stroke-linejoin:round;stroke-miterlimit:10;} .st18{fill:none;stroke:#404040;stroke-width:7;stroke-miterlimit:10;} .st19{fill:#B3E3FF;stroke:#404040;stroke-width:7;stroke-miterlimit:10;} .st20{fill:none;stroke:#CCCCCC;stroke-width:8;stroke-linecap:round;stroke-miterlimit:10;} .st21{fill:none;stroke:#404040;stroke-width:8;stroke-linecap:round;stroke-miterlimit:10;} .st22{fill:#FFFFFF;stroke:#404040;stroke-width:4;stroke-linejoin:round;stroke-miterlimit:10;} .st23{fill:#B3E3FF;stroke:#404040;stroke-width:4;stroke-linejoin:round;stroke-miterlimit:10;} .st24{fill:none;stroke:#CCCCCC;stroke-linecap:round;stroke-linejoin:round;stroke-miterlimit:10;} .st25{fill:#999999;} .st26{fill:#4ED1A1;stroke:#404040;stroke-width:4;stroke-linecap:round;stroke-linejoin:round;stroke-miterlimit:10;} .st27{fill:#4CD3D6;stroke:#404040;stroke-width:4;stroke-linejoin:round;stroke-miterlimit:10;} .st28{fill:none;stroke:#59AFE1;stroke-width:4;stroke-miterlimit:10;} .st29{fill:#59AFE1;stroke:#404040;stroke-width:4;stroke-linejoin:round;stroke-miterlimit:10;} .st30{fill:none;stroke:#404040;stroke-width:8;stroke-linecap:round;stroke-linejoin:round;stroke-miterlimit:10;stroke-dasharray:0,30;} .st31{fill:#FFFFFF;stroke:#59AFE1;stroke-width:4;stroke-miterlimit:10;} .st32{fill:#FC8363;stroke:#404040;stroke-width:4;stroke-linecap:round;stroke-linejoin:round;stroke-miterlimit:10;} .st33{fill:#CCCCCC;stroke:#404040;stroke-width:4;stroke-miterlimit:10;} .st34{fill:#FFFFFF;stroke:#6693ED;stroke-width:4;stroke-miterlimit:10;} .st35{fill:none;stroke:#A97CDD;stroke-width:4;stroke-linecap:round;stroke-linejoin:round;stroke-miterlimit:10;} .st36{fill:none;stroke:#B3E3FF;stroke-width:4;stroke-linecap:round;stroke-linejoin:round;stroke-miterlimit:10;} .st37{fill:none;stroke:#4ED1A1;stroke-width:4;stroke-linecap:round;stroke-miterlimit:10;} .st38{fill:none;stroke:#4ED1A1;stroke-width:4;stroke-linecap:round;stroke-linejoin:round;stroke-miterlimit:10;} .st39{fill:#E24B88;stroke:#404040;stroke-width:4;stroke-linecap:round;stroke-linejoin:round;stroke-miterlimit:10;} .st40{fill:none;stroke:#DEEFF8;stroke-width:4;stroke-miterlimit:10;} .st41{fill:none;stroke:#CCCCCC;stroke-width:4;stroke-linecap:round;stroke-linejoin:round;} .st42{fill:none;stroke:#CCCCCC;stroke-width:4;stroke-linecap:round;stroke-linejoin:round;stroke-dasharray:0,14.3051;} .st43{fill:none;stroke:#CCCCCC;stroke-width:4;stroke-linecap:round;stroke-linejoin:round;stroke-dasharray:0,14.1689;} .st44{fill:none;stroke:#CCCCCC;stroke-width:4;stroke-linecap:round;stroke-linejoin:round;stroke-dasharray:0,13.9788;} .st45{fill:none;stroke:#CCCCCC;stroke-width:4;stroke-linecap:round;stroke-linejoin:round;stroke-dasharray:0,14.7877;} .st46{fill:none;stroke:#CCCCCC;stroke-width:4;stroke-linecap:round;stroke-linejoin:round;stroke-dasharray:0,14.9632;} .st47{fill:#B3E3FF;stroke:#404040;stroke-width:4;stroke-linecap:round;stroke-linejoin:round;stroke-miterlimit:10;} .st48{fill:none;stroke:#CCCCCC;stroke-width:4;stroke-linecap:round;stroke-linejoin:round;stroke-dasharray:0,12.543;} .st49{fill:none;stroke:#CCCCCC;stroke-width:4;stroke-linecap:round;stroke-linejoin:round;stroke-dasharray:0,13.6844;} .st50{fill:none;stroke:#CCCCCC;stroke-width:4;stroke-linecap:round;stroke-linejoin:round;stroke-dasharray:0,13.7717;} .st51{fill:none;stroke:#CCCCCC;stroke-width:4;stroke-linecap:round;stroke-linejoin:round;stroke-dasharray:0,13.6492;} .st52{fill:none;stroke:#CCCCCC;stroke-width:4;stroke-linecap:round;stroke-linejoin:round;stroke-dasharray:0,13.907;} .st53{fill:#4CD3D6;stroke:#404040;stroke-width:4;stroke-linecap:round;stroke-linejoin:round;stroke-miterlimit:10;} .st54{fill:none;stroke:#CCCCCC;stroke-width:4;stroke-linecap:round;stroke-linejoin:round;stroke-dasharray:0,14.9858;} .st55{fill:none;stroke:#CCCCCC;stroke-width:4;stroke-linecap:round;stroke-linejoin:round;stroke-dasharray:0,14.0118;} .st56{fill:none;stroke:#CCCCCC;stroke-width:4;stroke-linecap:round;stroke-linejoin:round;stroke-dasharray:0,14.1243;} .st57{fill:none;} .st58{fill:#FFFFFF;stroke:#404040;stroke-width:7;stroke-linecap:round;stroke-linejoin:round;stroke-miterlimit:10;} .st59{fill:#59AFE1;stroke:#404040;stroke-width:7;stroke-linejoin:round;stroke-miterlimit:10;} .st60{fill:#E24B88;stroke:#404040;stroke-width:7;stroke-linecap:round;stroke-linejoin:round;stroke-miterlimit:10;} .st61{fill:none;stroke:#404040;stroke-width:7;stroke-linecap:round;stroke-linejoin:round;stroke-miterlimit:10;} .st62{fill:none;stroke:#CCCCCC;stroke-width:4;stroke-linecap:round;stroke-linejoin:round;stroke-miterlimit:10;} .st63{fill:#FFFFFF;stroke:#CCCCCC;stroke-width:4;stroke-linecap:round;stroke-linejoin:round;stroke-miterlimit:10;} .st64{fill:#F5F5F5;} .st65{fill:#3873AE;} .st66{fill:#75706C;} .st67{fill:none;stroke:#B3E3FF;stroke-width:4;stroke-miterlimit:10;} .st68{fill:#6F6F6F;} .st69{fill:none;stroke:#6F6F6F;stroke-width:2;stroke-miterlimit:10;} .st70{fill:none;stroke:#6F6F6F;stroke-width:3;stroke-miterlimit:10;}</style><g id="migrating_x5F_overview_x5F_4"><path class="st4" d="M134.5 528.7c3.1 6.8 9.9 11.2 17.3 11.2 7.5 0 14.3-4.4 17.4-11.3"/><path class="st6" d="M151.9 573s27.4.8 37.7-5.2c17-9.9-.3-30.2-13.7-33.6-4.1 7.7-13.3 13-24 13h.3c-10.7 0-19.8-5.4-24-13-13.4 3.4-30.7 23.8-13.7 33.6 10.3 6 37.7 5.2 37.7 5.2"/><circle class="st6" cx="151.8" cy="503.3" r="23"/><path class="st4" d="M161.9 482.6c-6.7 17.2-19.4.5-32.6 25.5 2.2 10.4 11.4 18.2 22.5 18.2 12.7 0 23-10.3 23-23 0-1.3-11.1-5.9-12.9-20.7zm2.4 40v11.6m-24.6 0v-11.3"/><path class="st6" d="M128.8 503.8s0 10.6 4.6 14.5c-3.6 1.7-11.6-.9-10.5-1.7 4.5-3.2 5.9-12.8 5.9-12.8zm46-.5s-.2 11.1-4.8 15c3.6 1.7 11.6-.9 10.5-1.7-4.5-3.2-5.7-13.3-5.7-13.3z"/><path class="st10" d="M127.4 602.9v-8.3l-3.6 8.3h-1.3l-3.6-8.3v8.3h-1.5v-10.6h2l3.8 8.7 3.8-8.7h2v10.6h-1.6zm5.4-10.9c.6 0 1 .4 1 1s-.5 1-1 1c-.6 0-1-.5-1-1 0-.6.4-1 1-1zm-.7 10.9v-7.2h1.4v7.2h-1.4zm5.4.1c.1 1 .9 1.8 2 1.8 1.5 0 2.2-.8 2.2-2.3v-1c-.3.7-1.1 1.2-2.2 1.2-1.9 0-3.3-1.5-3.3-3.5s1.3-3.5 3.3-3.5c1.1 0 1.9.4 2.2 1.1v-1h1.4v6.7c0 1.8-.9 3.6-3.6 3.6-1.8 0-3.2-1.1-3.3-2.7l1.3-.4zm4.2-3.9c0-1.4-.8-2.3-2.1-2.3-1.2 0-2.1.9-2.1 2.3s.8 2.3 2.1 2.3 2.1-.9 2.1-2.3zm8.4-2h-.6c-1.2 0-2 .6-2 2.2v3.6h-1.4v-7.2h1.4v1.3c.5-1.1 1.4-1.4 2.2-1.4h.5v1.5zm4 1.7l2-.3c.4-.1.6-.3.6-.5 0-.7-.5-1.3-1.6-1.3-1 0-1.5.6-1.6 1.5l-1.4-.3c.2-1.4 1.4-2.3 3-2.3 2.2 0 3 1.2 3 2.6v3.6c0 .6.1 1 .1 1.2h-1.4c0-.2-.1-.5-.1-1-.3.5-1 1.2-2.3 1.2-1.5 0-2.4-1-2.4-2.2-.1-1.3.8-2 2.1-2.2zm2.5 1v-.3l-2.2.3c-.6.1-1.1.4-1.1 1.1 0 .5.5 1 1.2 1 1.1.1 2.1-.5 2.1-2.1zm6.2-4.1h1.6v1.3h-1.6v3.8c0 .7.3 1 1 1 .2 0 .4 0 .6-.1v1.2c-.1 0-.5.1-1 .1-1.2 0-2-.8-2-2.1v-4h-1.4v-1.3h.4c.8 0 1.1-.5 1.1-1.1v-1.2h1.3v2.4zm4.9-3.7c.6 0 1 .4 1 1s-.5 1-1 1c-.6 0-1-.5-1-1 0-.6.4-1 1-1zm-.7 10.9v-7.2h1.4v7.2h-1.4zm11.3-3.6c0 2.2-1.5 3.8-3.7 3.8s-3.7-1.6-3.7-3.8c0-2.2 1.5-3.8 3.7-3.8s3.7 1.6 3.7 3.8zm-1.4 0c0-1.7-1-2.6-2.2-2.6-1.2 0-2.2.9-2.2 2.6 0 1.7 1.1 2.6 2.2 2.6s2.2-.9 2.2-2.6zm5.4 3.6h-1.4v-7.2h1.4v1c.5-.9 1.4-1.2 2.2-1.2 1.7 0 2.6 1.2 2.6 2.8v4.6h-1.4v-4.3c0-1-.4-1.8-1.7-1.8-1.1 0-1.7.9-1.7 2v4.1zm-44.5 18v-10.9h1.4v10.9h-1.4zm10.9-2c-.4 1.3-1.6 2.3-3.2 2.3-1.9 0-3.6-1.4-3.6-3.9 0-2.3 1.6-3.8 3.5-3.8 2.2 0 3.5 1.5 3.5 3.8v.4h-5.4c0 1.3 1 2.2 2.2 2.2 1.2 0 1.8-.6 2-1.5l1 .5zm-1.5-2.3c0-1-.7-1.8-2-1.8-1.2 0-1.9.9-2 1.8h4zm5.8.2l2-.3c.4-.1.6-.3.6-.5 0-.7-.5-1.3-1.6-1.3-1 0-1.5.6-1.6 1.5l-1.3-.3c.1-1.4 1.4-2.3 3-2.3 2.2 0 3 1.2 3 2.6v3.6c0 .6.1 1 .1 1.2h-1.4c0-.2-.1-.5-.1-1-.3.5-1 1.2-2.3 1.2-1.5 0-2.4-1-2.4-2.2-.2-1.3.7-2 2-2.2zm2.5 1v-.3l-2.2.3c-.6.1-1.1.4-1.1 1.1 0 .5.5 1 1.2 1 1.2.1 2.1-.5 2.1-2.1zm9.4 2c-.3.7-1.1 1.3-2.2 1.3-2.1 0-3.4-1.7-3.4-3.8 0-2 1.4-3.8 3.4-3.8 1.3 0 2 .6 2.2 1.2v-4.7h1.4v9.5c0 .7.1 1.2.1 1.3h-1.4c0-.2-.1-.5-.1-1zm-2.1.1c1.3 0 2.1-1.1 2.1-2.6s-.8-2.5-2.1-2.5-2.1 1.1-2.1 2.5.7 2.6 2.1 2.6zm158.4-17v-10.6h1.5v9.3h5v1.4h-6.5zm15.5-3.6c0 2.2-1.5 3.8-3.7 3.8s-3.7-1.6-3.7-3.8c0-2.2 1.5-3.8 3.7-3.8s3.7 1.6 3.7 3.8zm-1.4 0c0-1.7-1.1-2.6-2.2-2.6-1.2 0-2.2.9-2.2 2.6 0 1.7 1 2.6 2.2 2.6 1.1 0 2.2-.9 2.2-2.6zm4.8 0c0 1.6 1 2.5 2.2 2.5 1.3 0 1.8-.9 2-1.5l1.2.5c-.3 1-1.4 2.2-3.3 2.2-2.1 0-3.6-1.7-3.6-3.8 0-2.2 1.6-3.8 3.6-3.8 1.9 0 2.9 1.2 3.2 2.3l-1.3.5c-.2-.7-.7-1.5-1.9-1.5-1 .1-2.1.9-2.1 2.6zm9.5-.5l1.9-.3c.4-.1.6-.3.6-.5 0-.7-.5-1.3-1.6-1.3-1 0-1.5.6-1.6 1.5l-1.4-.3c.2-1.4 1.4-2.3 3-2.3 2.2 0 3 1.2 3 2.6v3.6c0 .6.1 1 .1 1.2h-1.4c0-.2-.1-.5-.1-1-.3.5-1 1.2-2.3 1.2-1.5 0-2.4-1-2.4-2.2 0-1.3 1-2 2.2-2.2zm2.5 1v-.3l-2.2.3c-.6.1-1 .4-1 1.1 0 .5.4 1 1.2 1 1.1.1 2-.5 2-2.1zm4.4 3.1v-10.9h1.4v10.9h-1.4zm-38 18l-.1-1.5c-.5.8-1.6 1.7-3.4 1.7-2.7 0-5.2-2-5.2-5.6s2.6-5.5 5.3-5.5c2.3 0 4.1 1.3 4.7 3.2l-1.3.6c-.5-1.5-1.7-2.4-3.4-2.4-1.9 0-3.8 1.4-3.8 4.2 0 2.8 1.8 4.2 3.7 4.2 2.4 0 3.2-1.7 3.3-2.8h-3.7v-1.3h5.1v5.2h-1.2zm4.8-10.9c.6 0 1 .4 1 1s-.5 1-1 1c-.6 0-1-.5-1-1 0-.6.4-1 1-1zm-.7 10.9v-7.2h1.4v7.2h-1.4zm6.4-7.2h1.6v1.3h-1.6v3.8c0 .7.3 1 1 1 .2 0 .4 0 .6-.1v1.2c-.1 0-.5.1-1 .1-1.2 0-2-.8-2-2.1v-4h-1.4v-1.3h.4c.8 0 1.1-.5 1.1-1.1v-1.2h1.3v2.4zm12.7 1.4h-.6c-1.2 0-2 .6-2 2.2v3.6h-1.4v-7.2h1.4v1.3c.5-1.1 1.4-1.4 2.2-1.4h.5v1.5zm8.5 3.8c-.4 1.3-1.6 2.3-3.2 2.3-1.9 0-3.6-1.4-3.6-3.9 0-2.3 1.6-3.8 3.4-3.8 2.2 0 3.5 1.5 3.5 3.8v.4h-5.4c0 1.3 1 2.2 2.2 2.2 1.2 0 1.8-.6 2-1.5l1.1.5zm-1.5-2.3c0-1-.7-1.8-2-1.8-1.2 0-1.9.9-2 1.8h4zm4.1 7.2v-10.1h1.4v1.1c.4-.7 1.2-1.3 2.4-1.3 2.2 0 3.3 1.7 3.3 3.8 0 2.1-1.2 3.8-3.4 3.8-1.1 0-1.9-.5-2.3-1.2v3.8h-1.4zm3.5-9c-1.3 0-2.1 1.1-2.1 2.5 0 1.5.9 2.5 2.1 2.5 1.3 0 2.1-1.1 2.1-2.5s-.8-2.5-2.1-2.5zm12.9 2.5c0 2.2-1.5 3.8-3.7 3.8s-3.7-1.6-3.7-3.8c0-2.2 1.5-3.8 3.7-3.8s3.7 1.6 3.7 3.8zm-1.5 0c0-1.7-1-2.6-2.2-2.6-1.2 0-2.2.9-2.2 2.6 0 1.7 1.1 2.6 2.2 2.6 1.2 0 2.2-.9 2.2-2.6z"/><path id="repo1_298_" class="st6" d="M307.6 545.4c0-6.3 14.2-11.3 31.8-11.3s31.8 5.1 31.8 11.3m-63.6 0v14.1c0 1.5.9 3 2.4 4.3 4.8 4.1 16.2 7 29.5 7s24.7-2.9 29.5-7c1.5-1.3 2.4-2.8 2.4-4.3v-14.1"/><path class="st31" d="M371.3 545.4c0 6.3-14.2 11.3-31.8 11.3s-31.8-5.1-31.8-11.3c0-6.3 14.2-11.3 31.8-11.3 17.5-.1 31.8 5 31.8 11.3z"/><path id="repo1_297_" class="st6" d="M307.6 531.3c0-6.3 14.2-11.3 31.8-11.3s31.8 5.1 31.8 11.3m-63.6 0v14.1c0 1.5.9 3 2.4 4.3 4.8 4.1 16.2 7 29.5 7s24.7-2.9 29.5-7c1.5-1.3 2.4-2.8 2.4-4.3v-14.1"/><path class="st31" d="M371.3 531.3c0 6.3-14.2 11.3-31.8 11.3s-31.8-5.1-31.8-11.3c0-6.3 14.2-11.3 31.8-11.3 17.5-.1 31.8 5 31.8 11.3z"/><path id="repo1_290_" class="st6" d="M307.6 517.2c0-6.3 14.2-11.3 31.8-11.3s31.8 5.1 31.8 11.3m-63.6 0v14.1c0 1.5.9 3 2.4 4.3 4.8 4.1 16.2 7 29.5 7s24.7-2.9 29.5-7c1.5-1.3 2.4-2.8 2.4-4.3v-14.1"/><path class="st5" d="M371.3 517.2c0 6.3-14.2 11.3-31.8 11.3s-31.8-5.1-31.8-11.3c0-6.3 14.2-11.3 31.8-11.3 17.5-.1 31.8 5 31.8 11.3z"/><path class="st10" d="M313 367.6c0-3.6 2.6-5.5 5.3-5.5 2.4 0 4.1 1.3 4.7 3.4l-1.4.5c-.4-1.6-1.6-2.5-3.3-2.5-1.9 0-3.8 1.4-3.8 4.2 0 2.8 1.8 4.2 3.8 4.2 1.8 0 3-1.1 3.4-2.5l1.3.5c-.6 2-2.2 3.4-4.7 3.4-2.8-.1-5.3-2.1-5.3-5.7zm18.5 3.3c-.4 1.3-1.6 2.3-3.2 2.3-1.9 0-3.6-1.4-3.6-3.9 0-2.3 1.6-3.8 3.5-3.8 2.2 0 3.5 1.5 3.5 3.8v.4h-5.4c0 1.3 1 2.2 2.2 2.2 1.2 0 1.8-.6 2-1.5l1 .5zm-1.4-2.3c0-1-.7-1.8-2-1.8-1.2 0-1.9.9-2 1.8h4zm5.4 4.3h-1.4v-7.2h1.4v1c.5-.9 1.4-1.2 2.2-1.2 1.7 0 2.6 1.2 2.6 2.8v4.6h-1.4v-4.3c0-1-.4-1.8-1.7-1.8-1.1 0-1.7.9-1.7 2v4.1zm9.6-7.2h1.6v1.3h-1.6v3.8c0 .7.3 1 1 1 .2 0 .4 0 .6-.1v1.2c-.1 0-.5.1-1 .1-1.2 0-2-.8-2-2.1v-4h-1.4v-1.3h.4c.8 0 1.1-.5 1.1-1.1v-1.2h1.3v2.4zm8.1 1.4h-.6c-1.2 0-2 .6-2 2.2v3.6h-1.4v-7.2h1.4v1.3c.5-1.1 1.4-1.4 2.2-1.4h.5v1.5zm4 1.7l1.9-.3c.4-.1.6-.3.6-.5 0-.7-.5-1.3-1.6-1.3-1 0-1.5.6-1.6 1.5l-1.4-.3c.2-1.4 1.4-2.3 3-2.3 2.2 0 3 1.2 3 2.6v3.6c0 .6.1 1 .1 1.2h-1.4c0-.2-.1-.5-.1-1-.3.5-1 1.2-2.3 1.2-1.5 0-2.4-1-2.4-2.2 0-1.3.9-2 2.2-2.2zm2.5 1v-.3l-2.2.3c-.6.1-1 .4-1 1.1 0 .5.4 1 1.2 1 1 .1 2-.5 2-2.1zm4.3 3.1v-10.9h1.4v10.9h-1.4zm-52.8 10.3c-.1-.8-.8-1.8-2.2-1.8-1.2 0-2.1.8-2.1 1.8 0 .8.5 1.3 1.4 1.5l1.6.3c1.8.4 2.8 1.5 2.8 3 0 1.7-1.4 3.2-3.7 3.2-2.6 0-3.8-1.7-4-3.2l1.4-.4c.1 1.2.9 2.3 2.5 2.3 1.5 0 2.2-.8 2.2-1.7 0-.8-.5-1.4-1.6-1.6l-1.5-.3c-1.5-.3-2.6-1.3-2.6-2.9 0-1.7 1.5-3.2 3.5-3.2 2.4 0 3.4 1.5 3.6 2.6l-1.3.4zm11-2.9h1.5l-4.1 10.6h-1.5l-4-10.6h1.6l3.2 8.7 3.3-8.7zm11 10.6l-5.7-8.7v8.7h-1.5v-10.6h2l5.3 8.2v-8.2h1.5v10.6h-1.6zm13.3-5.8h-.6c-1.2 0-2 .6-2 2.2v3.6h-1.4v-7.2h1.4v1.3c.5-1.1 1.4-1.4 2.2-1.4h.5v1.5zm8.5 3.8c-.4 1.3-1.6 2.3-3.2 2.3-1.9 0-3.6-1.4-3.6-3.9 0-2.3 1.6-3.8 3.5-3.8 2.2 0 3.5 1.5 3.5 3.8v.4h-5.4c0 1.3 1 2.2 2.2 2.2 1.2 0 1.8-.6 2-1.5l1 .5zm-1.5-2.3c0-1-.7-1.8-2-1.8-1.2 0-1.9.9-2 1.8h4zm4.1 7.2v-10.1h1.4v1.1c.4-.7 1.2-1.3 2.4-1.3 2.2 0 3.3 1.7 3.3 3.8 0 2.1-1.2 3.8-3.4 3.8-1.1 0-2-.5-2.3-1.2v3.8h-1.4zm3.5-9c-1.3 0-2.1 1.1-2.1 2.5 0 1.5.9 2.5 2.1 2.5 1.3 0 2.1-1.1 2.1-2.5s-.8-2.5-2.1-2.5zm12.9 2.5c0 2.2-1.5 3.8-3.7 3.8s-3.7-1.6-3.7-3.8c0-2.2 1.5-3.8 3.7-3.8s3.7 1.6 3.7 3.8zm-1.5 0c0-1.7-1-2.6-2.2-2.6s-2.2.9-2.2 2.6c0 1.7 1 2.6 2.2 2.6s2.2-.9 2.2-2.6zm-101.3-245.7v-10.6h3.7c2.7 0 5.1 1.8 5.1 5.3s-2.4 5.3-5.1 5.3h-3.7zm3.6-1.3c2 0 3.6-1.3 3.6-4s-1.6-4-3.6-4h-2.2v8h2.2zm14-.8c-.4 1.3-1.6 2.3-3.2 2.3-1.9 0-3.6-1.4-3.6-3.9 0-2.3 1.6-3.8 3.5-3.8 2.2 0 3.5 1.5 3.5 3.8v.5h-5.4c0 1.3 1 2.2 2.2 2.2 1.2 0 1.8-.6 2-1.5l1 .4zm-1.4-2.2c0-1-.7-1.8-2-1.8-1.2 0-1.9.9-2 1.8h4zm7.2 4.3h-1.4l-2.9-7.2h1.6l2.1 5.6 2.1-5.6h1.5l-3 7.2zm11-2.1c-.4 1.3-1.6 2.3-3.2 2.3-1.9 0-3.6-1.4-3.6-3.9 0-2.3 1.6-3.8 3.5-3.8 2.2 0 3.5 1.5 3.5 3.8v.5h-5.4c0 1.3 1 2.2 2.2 2.2 1.2 0 1.8-.6 2-1.5l1 .4zm-1.4-2.2c0-1-.7-1.8-2-1.8-1.2 0-1.9.9-2 1.8h4zm4 4.3v-10.9h1.4v10.9h-1.4zm11.4-3.6c0 2.2-1.5 3.8-3.7 3.8s-3.7-1.6-3.7-3.8c0-2.2 1.5-3.8 3.7-3.8s3.7 1.6 3.7 3.8zm-1.5 0c0-1.7-1.1-2.6-2.2-2.6-1.2 0-2.2.9-2.2 2.6 0 1.7 1 2.6 2.2 2.6 1.2 0 2.2-.9 2.2-2.6zm4 6.5v-10.1h1.4v1.1c.4-.7 1.2-1.3 2.4-1.3 2.2 0 3.3 1.7 3.3 3.8 0 2.1-1.2 3.8-3.4 3.8-1.1 0-2-.5-2.3-1.2v3.8h-1.4zm3.5-9c-1.3 0-2.1 1.1-2.1 2.5 0 1.5.9 2.6 2.1 2.6 1.3 0 2.1-1.1 2.1-2.6.1-1.5-.7-2.5-2.1-2.5zm6.2 6.1v-7.2h1.3v1c.5-.8 1.3-1.2 2.2-1.2.9 0 1.8.4 2.2 1.4.6-1 1.5-1.4 2.4-1.4 1.3 0 2.5.9 2.5 2.7v4.7h-1.4v-4.5c0-.9-.5-1.7-1.5-1.7s-1.7.8-1.7 1.8v4.4h-1.4v-4.5c0-.9-.5-1.7-1.5-1.7s-1.7.8-1.7 1.8v4.3h-1.4zm19.8-2.1c-.4 1.3-1.6 2.3-3.2 2.3-1.9 0-3.6-1.4-3.6-3.9 0-2.3 1.6-3.8 3.5-3.8 2.2 0 3.5 1.5 3.5 3.8v.5h-5.4c0 1.3 1 2.2 2.2 2.2 1.2 0 1.8-.6 2-1.5l1 .4zm-1.4-2.2c0-1-.7-1.8-2-1.8-1.2 0-1.9.9-2 1.8h4zm5.5 4.3h-1.4v-7.2h1.4v1c.5-.9 1.4-1.2 2.2-1.2 1.7 0 2.6 1.2 2.6 2.9v4.6h-1.5v-4.3c0-1-.4-1.8-1.7-1.8-1.1 0-1.7.9-1.7 2v4zm9.6-7.2h1.6v1.3h-1.6v3.8c0 .7.3 1 1 1 .2 0 .4 0 .6-.1v1.2c-.1 0-.5.1-1 .1-1.2 0-2-.8-2-2.1v-4h-1.4v-1.3h.4c.8 0 1.1-.5 1.1-1.1v-1.2h1.3v2.4zm10.6 0h1.6v1.3h-1.6v3.8c0 .7.3 1 1 1 .2 0 .4 0 .6-.1v1.2c-.1 0-.5.1-1 .1-1.2 0-2-.8-2-2.1v-4h-1.4v-1.3h.4c.8 0 1.1-.5 1.1-1.1v-1.2h1.3v2.4zm10.4 5.1c-.4 1.3-1.6 2.3-3.2 2.3-1.9 0-3.6-1.4-3.6-3.9 0-2.3 1.6-3.8 3.5-3.8 2.2 0 3.5 1.5 3.5 3.8v.5h-5.4c0 1.3 1 2.2 2.2 2.2 1.2 0 1.8-.6 2-1.5l1 .4zm-1.4-2.2c0-1-.7-1.8-2-1.8-1.2 0-1.9.9-2 1.8h4zm5.7.2l2-.3c.4-.1.6-.3.6-.5 0-.7-.5-1.3-1.6-1.3-1 0-1.5.6-1.6 1.5l-1.4-.3c.2-1.4 1.4-2.3 3-2.3 2.2 0 3 1.2 3 2.6v3.6c0 .6.1 1 .1 1.2h-1.4c0-.2-.1-.5-.1-1-.3.5-1 1.2-2.3 1.2-1.5 0-2.4-1-2.4-2.2-.1-1.3.9-2 2.1-2.2zm2.5 1v-.3l-2.2.3c-.6.1-1 .4-1 1.1 0 .5.5 1 1.2 1 1.1 0 2-.5 2-2.1zm4.4 3.1v-7.2h1.3v1c.4-.8 1.3-1.2 2.2-1.2.9 0 1.8.4 2.2 1.4.6-1 1.5-1.4 2.4-1.4 1.3 0 2.5.9 2.5 2.7v4.7h-1.4v-4.5c0-.9-.5-1.7-1.5-1.7s-1.7.8-1.7 1.8v4.4h-1.4v-4.5c0-.9-.5-1.7-1.5-1.7s-1.7.8-1.7 1.8v4.3h-1.4zm-81.6 6.1l.9.8c-1.5 1.7-2.5 3.8-2.5 6.4s1 4.7 2.5 6.4l-.9.8c-1.6-1.6-2.9-3.9-2.9-7.2s1.3-5.6 2.9-7.2zm4.5 7.8l2-.3c.4-.1.6-.3.6-.5 0-.7-.5-1.3-1.6-1.3-1 0-1.5.6-1.6 1.5l-1.3-.3c.2-1.4 1.4-2.3 3-2.3 2.2 0 3 1.2 3 2.6v3.6c0 .6.1 1 .1 1.2h-1.6c0-.2-.1-.5-.1-1-.3.5-1 1.2-2.3 1.2-1.5 0-2.4-1-2.4-2.2 0-1.3.9-2 2.2-2.2zm2.5 1v-.3l-2.2.3c-.6.1-1 .4-1 1.1 0 .5.5 1 1.2 1 1.1 0 2-.5 2-2.1zm5.2-.5c0 1.7 1 2.5 2.2 2.5 1.3 0 1.8-.9 2-1.5l1.2.5c-.3 1-1.4 2.2-3.3 2.2-2.1 0-3.6-1.6-3.6-3.8 0-2.2 1.6-3.8 3.6-3.8 1.9 0 2.9 1.2 3.2 2.3l-1.3.5c-.2-.7-.7-1.5-1.9-1.5-1.1.1-2.1.9-2.1 2.6zm9.7-3.6h1.6v1.3h-1.6v3.8c0 .7.3 1 1 1 .2 0 .4 0 .6-.1v1.2c-.1 0-.5.1-1 .1-1.2 0-2-.8-2-2.1v-4h-1.4v-1.3h.4c.8 0 1.1-.5 1.1-1.1v-1.2h1.3v2.4zm4.9-3.8c.6 0 1 .5 1 1 0 .6-.5 1-1 1-.6 0-1-.5-1-1s.5-1 1-1zm-.7 11v-7.2h1.4v7.2h-1.4zm7.9 0h-1.4l-2.9-7.2h1.6l2.1 5.6 2.1-5.6h1.5l-3 7.2zm11-2.1c-.4 1.3-1.6 2.3-3.2 2.3-1.9 0-3.6-1.4-3.6-3.9 0-2.3 1.6-3.8 3.5-3.8 2.2 0 3.5 1.5 3.5 3.8v.5h-5.4c0 1.3 1 2.2 2.2 2.2 1.2 0 1.8-.6 2-1.5l1 .4zm-1.4-2.2c0-1-.7-1.8-2-1.8-1.2 0-1.9.9-2 1.8h4zm3.5 6.7l-.9-.8c1.5-1.7 2.5-3.8 2.5-6.4s-1-4.7-2.5-6.4l.9-.8c1.6 1.6 2.8 3.9 2.8 7.2s-1.2 5.6-2.8 7.2z"/><path id="repo1_289_" class="st15" d="M307.6 315.4c0-6.3 14.2-11.3 31.8-11.3s31.8 5.1 31.8 11.3m-63.6 0v14.1c0 1.5.9 3 2.4 4.3 4.8 4.1 16.2 7 29.5 7s24.7-2.9 29.5-7c1.5-1.3 2.4-2.8 2.4-4.3v-14.1"/><path class="st31" d="M371.3 315.4c0 6.3-14.2 11.3-31.8 11.3s-31.8-5.1-31.8-11.3c0-6.3 14.2-11.3 31.8-11.3 17.5 0 31.8 5 31.8 11.3z"/><path id="repo1_288_" class="st15" d="M307.6 301.3c0-6.3 14.2-11.3 31.8-11.3s31.8 5.1 31.8 11.3m-63.6 0v14.1c0 1.5.9 3 2.4 4.3 4.8 4.1 16.2 7 29.5 7s24.7-2.9 29.5-7c1.5-1.3 2.4-2.8 2.4-4.3v-14.1"/><path class="st31" d="M371.3 301.3c0 6.3-14.2 11.3-31.8 11.3s-31.8-5.1-31.8-11.3c0-6.3 14.2-11.3 31.8-11.3 17.5 0 31.8 5 31.8 11.3z"/><path id="repo1_287_" class="st15" d="M307.6 287.2c0-6.3 14.2-11.3 31.8-11.3s31.8 5.1 31.8 11.3m-63.6 0v14.1c0 1.5.9 3 2.4 4.3 4.8 4.1 16.2 7 29.5 7s24.7-2.9 29.5-7c1.5-1.3 2.4-2.8 2.4-4.3v-14.1"/><path class="st5" d="M371.3 287.2c0 6.3-14.2 11.3-31.8 11.3s-31.8-5.1-31.8-11.3c0-6.3 14.2-11.3 31.8-11.3 17.5 0 31.8 5 31.8 11.3z"/><path class="st11" d="M339.5 469.9v-43.5m10.8 34.8l-10.8 10.9-10.9-10.9m-56.9 78.1h-43.5m34.8-10.8l10.8 10.9-10.8 10.8m76.5-309.6v-43.5m10.8 34.8l-10.8 10.8-10.9-10.8m0-27.4l10.9-10.9 10.8 10.9m-1-145.8c3.1 6.8 9.9 11.2 17.3 11.2 7.5 0 14.3-4.4 17.4-11.3"/><path class="st15" d="M366.2 102.9s27.4.8 37.7-5.2c17-9.9-.3-30.2-13.7-33.6-4.1 7.7-13.3 13-24 13h.3c-10.7 0-19.8-5.4-24-13-13.4 3.4-30.7 23.8-13.7 33.6 10.3 6 37.7 5.2 37.7 5.2"/><circle class="st15" cx="366.6" cy="33.2" r="23"/><path class="st5" d="M377.3 21.1c2.6 20 7.9 2.4 11.8 17-2.2 10.4-11.4 18.2-22.5 18.2-12.7 0-23-10.3-23-23 0-1.3.1-2.6.3-3.9 1.1 0 26.2 11 33.4-8.3z"/><path class="st11" d="M379.2 53.5v10.6m-24.6 0v-10.3m-78.8 11.8c3.1 6.8 9.9 11.2 17.3 11.2 7.5 0 14.3-4.4 17.4-11.3"/><path class="st15" d="M292.7 109.9s27.4.8 37.7-5.2c17-9.9-.3-30.2-13.7-33.6-4.1 7.7-13.3 13-24 13h.3c-10.7 0-19.8-5.4-24-13-13.4 3.4-30.7 23.8-13.7 33.6 10.3 6 37.7 5.2 37.7 5.2"/><circle class="st15" cx="293.1" cy="40.2" r="23"/><path class="st5" d="M277.6 23.2c2.6 20 34.1 7.2 38 21.8-2.2 10.4-11.4 18.2-22.5 18.2-12.7 0-23-10.3-23-23 0-1.3.1-2.6.3-3.9 1.1 0 8.1 3.9 7.2-13.1z"/><path class="st11" d="M305.7 60.4v10.6m-24.6.1v-10.3"/><path class="st10" d="M590.8 362.3c2 0 3.2 1.2 3.2 2.9 0 1.1-.7 2-1.6 2.3 1.2.3 1.9 1.4 1.9 2.6 0 1.7-1.3 2.9-3.3 2.9h-3.7v-10.6h3.5zm-.2 4.7c1.2 0 1.9-.7 1.9-1.7s-.7-1.7-1.9-1.7h-1.8v3.4h1.8zm.3 4.6c1.2 0 2-.7 2-1.7s-.6-1.7-1.9-1.7h-2.1v3.4h2zm6.8-9.6c.6 0 1 .4 1 1s-.5 1-1 1c-.6 0-1-.5-1-1 0-.6.4-1 1-1zm-.7 10.9v-7.2h1.4v7.2h-1.4zm6.4-7.2h1.6v1.3h-1.6v3.8c0 .7.3 1 1 1 .2 0 .4 0 .6-.1v1.2c-.1 0-.5.1-1 .1-1.2 0-2-.8-2-2.1v-4h-1.4v-1.3h.4c.8 0 1.1-.5 1.1-1.1v-1.2h1.3v2.4zm7.8-3.4c2 0 3.2 1.2 3.2 2.9 0 1.1-.7 2-1.6 2.3 1.2.3 1.9 1.4 1.9 2.6 0 1.7-1.3 2.9-3.3 2.9h-3.7v-10.6h3.5zm-.2 4.7c1.2 0 1.9-.7 1.9-1.7s-.7-1.7-2-1.7h-1.8v3.4h1.9zm.3 4.6c1.2 0 2-.7 2-1.7s-.6-1.7-1.9-1.7h-2.1v3.4h2zm8.4 1.6c-1.7 0-2.7-1.3-2.7-2.9v-4.5h1.4v4.3c0 1 .5 1.9 1.6 1.9s1.7-.8 1.7-1.8v-4.4h1.4v5.9c0 .6 0 1.1.1 1.3h-1.3c0-.2-.1-.6-.1-.9-.4.7-1.3 1.1-2.1 1.1zm7.4-3.9c0 1.6 1 2.5 2.2 2.5 1.3 0 1.8-.9 2-1.5l1.2.5c-.3 1-1.4 2.2-3.3 2.2-2.1 0-3.6-1.7-3.6-3.8 0-2.2 1.6-3.8 3.6-3.8 1.9 0 2.9 1.2 3.2 2.3l-1.3.5c-.2-.7-.7-1.5-1.9-1.5-1.1.1-2.1.9-2.1 2.6zm11.2-.5l3.1 4.2h-1.8l-2.4-3.2-1 1v2.2h-1.4v-10.9h1.4v6.8l3.1-3.2h2l-3 3.1zm11.2 2.1c-.4 1.3-1.6 2.3-3.2 2.3-1.9 0-3.6-1.4-3.6-3.9 0-2.3 1.6-3.8 3.5-3.8 2.2 0 3.5 1.5 3.5 3.8v.4h-5.4c0 1.3 1 2.2 2.2 2.2 1.2 0 1.8-.6 2-1.5l1 .5zm-1.5-2.3c0-1-.7-1.8-2-1.8-1.2 0-1.9.9-2 1.8h4zm6-2.9h1.6v1.3h-1.6v3.8c0 .7.3 1 1 1 .2 0 .4 0 .6-.1v1.2c-.1 0-.5.1-1 .1-1.2 0-2-.8-2-2.1v-4h-1.4v-1.3h.4c.8 0 1.1-.5 1.1-1.1v-1.2h1.3v2.4zm-53.8 25.2l-.1-1.5c-.5.8-1.6 1.7-3.4 1.7-2.7 0-5.2-2-5.2-5.6s2.6-5.5 5.3-5.5c2.3 0 4.1 1.3 4.7 3.2l-1.3.6c-.5-1.5-1.7-2.4-3.4-2.4-1.9 0-3.8 1.4-3.8 4.2 0 2.8 1.8 4.2 3.7 4.2 2.4 0 3.2-1.7 3.3-2.8h-3.7v-1.3h5.1v5.2h-1.2zm4.7-10.9c.6 0 1 .4 1 1s-.5 1-1 1c-.6 0-1-.5-1-1 0-.6.4-1 1-1zm-.7 10.9v-7.2h1.4v7.2h-1.4zm6.4-7.2h1.6v1.3h-1.6v3.8c0 .7.3 1 1 1 .2 0 .4 0 .6-.1v1.2c-.1 0-.5.1-1 .1-1.2 0-2-.8-2-2.1v-4h-1.4v-1.3h.4c.8 0 1.1-.5 1.1-1.1v-1.2h1.3v2.4zm12.7 1.4h-.6c-1.2 0-2 .6-2 2.2v3.6h-1.4v-7.2h1.4v1.3c.5-1.1 1.4-1.4 2.2-1.4h.5v1.5zm8.5 3.8c-.4 1.3-1.6 2.3-3.2 2.3-1.9 0-3.6-1.4-3.6-3.9 0-2.3 1.6-3.8 3.5-3.8 2.2 0 3.5 1.5 3.5 3.8v.4h-5.4c0 1.3 1 2.2 2.2 2.2 1.2 0 1.8-.6 2-1.5l1 .5zm-1.4-2.3c0-1-.7-1.8-2-1.8-1.2 0-1.9.9-2 1.8h4zm4 7.2v-10.1h1.4v1.1c.4-.7 1.2-1.3 2.4-1.3 2.2 0 3.3 1.7 3.3 3.8 0 2.1-1.2 3.8-3.4 3.8-1.1 0-2-.5-2.3-1.2v3.8h-1.4zm3.5-9c-1.3 0-2.1 1.1-2.1 2.5 0 1.5.9 2.5 2.1 2.5 1.3 0 2.1-1.1 2.1-2.5s-.8-2.5-2.1-2.5zm12.9 2.5c0 2.2-1.5 3.8-3.7 3.8s-3.7-1.6-3.7-3.8c0-2.2 1.5-3.8 3.7-3.8s3.7 1.6 3.7 3.8zm-1.4 0c0-1.7-1-2.6-2.2-2.6s-2.2.9-2.2 2.6c0 1.7 1 2.6 2.2 2.6s2.2-.9 2.2-2.6zm-96.6-245.7v-10.6h3.7c2.7 0 5.1 1.8 5.1 5.3s-2.4 5.3-5.1 5.3h-3.7zm3.6-1.3c2 0 3.6-1.3 3.6-4s-1.6-4-3.6-4h-2.2v8h2.2zm14.1-.8c-.4 1.3-1.6 2.3-3.2 2.3-1.9 0-3.6-1.4-3.6-3.9 0-2.3 1.6-3.8 3.4-3.8 2.2 0 3.5 1.5 3.5 3.8v.5h-5.4c0 1.3 1 2.2 2.2 2.2 1.2 0 1.8-.6 2-1.5l1.1.4zm-1.5-2.2c0-1-.7-1.8-2-1.8-1.2 0-1.9.9-2 1.8h4zm7.2 4.3h-1.4l-2.9-7.2h1.6l2.1 5.6 2.1-5.6h1.5l-3 7.2zm11.1-2.1c-.4 1.3-1.6 2.3-3.2 2.3-1.9 0-3.6-1.4-3.6-3.9 0-2.3 1.6-3.8 3.5-3.8 2.2 0 3.5 1.5 3.5 3.8v.5h-5.4c0 1.3 1 2.2 2.2 2.2 1.2 0 1.8-.6 2-1.5l1 .4zm-1.5-2.2c0-1-.7-1.8-2-1.8-1.2 0-1.9.9-2 1.8h4zm4 4.3v-10.9h1.4v10.9h-1.4zm11.4-3.6c0 2.2-1.5 3.8-3.7 3.8s-3.7-1.6-3.7-3.8c0-2.2 1.5-3.8 3.7-3.8s3.7 1.6 3.7 3.8zm-1.5 0c0-1.7-1-2.6-2.2-2.6s-2.2.9-2.2 2.6c0 1.7 1 2.6 2.2 2.6s2.2-.9 2.2-2.6zm4 6.5v-10.1h1.4v1.1c.4-.7 1.2-1.3 2.4-1.3 2.2 0 3.3 1.7 3.3 3.8 0 2.1-1.2 3.8-3.4 3.8-1.1 0-2-.5-2.3-1.2v3.8h-1.4zm3.6-9c-1.3 0-2.1 1.1-2.1 2.5 0 1.5.9 2.6 2.1 2.6 1.3 0 2.1-1.1 2.1-2.6s-.8-2.5-2.1-2.5zm6.1 6.1v-7.2h1.3v1c.5-.8 1.4-1.2 2.2-1.2.9 0 1.8.4 2.2 1.4.6-1 1.5-1.4 2.4-1.4 1.3 0 2.5.9 2.5 2.7v4.7h-1.4v-4.5c0-.9-.5-1.7-1.5-1.7s-1.7.8-1.7 1.8v4.4h-1.4v-4.5c0-.9-.5-1.7-1.5-1.7s-1.7.8-1.7 1.8v4.3h-1.4zm19.9-2.1c-.4 1.3-1.6 2.3-3.2 2.3-1.9 0-3.6-1.4-3.6-3.9 0-2.3 1.6-3.8 3.5-3.8 2.2 0 3.5 1.5 3.5 3.8v.5h-5.4c0 1.3 1 2.2 2.2 2.2 1.2 0 1.8-.6 2-1.5l1 .4zm-1.5-2.2c0-1-.7-1.8-2-1.8-1.2 0-1.9.9-2 1.8h4zm5.5 4.3h-1.4v-7.2h1.4v1c.5-.9 1.4-1.2 2.2-1.2 1.7 0 2.6 1.2 2.6 2.9v4.6h-1.4v-4.3c0-1-.4-1.8-1.7-1.8-1.1 0-1.7.9-1.7 2v4zm9.6-7.2h1.6v1.3h-1.6v3.8c0 .7.3 1 1 1 .2 0 .4 0 .6-.1v1.2c-.1 0-.5.1-1 .1-1.2 0-2-.8-2-2.1v-4h-1.4v-1.3h.4c.8 0 1.1-.5 1.1-1.1v-1.2h1.3v2.4zm10.6 0h1.6v1.3h-1.6v3.8c0 .7.3 1 1 1 .2 0 .4 0 .6-.1v1.2c-.1 0-.5.1-1 .1-1.2 0-2-.8-2-2.1v-4h-1.4v-1.3h.4c.8 0 1.1-.5 1.1-1.1v-1.2h1.3v2.4zm10.4 5.1c-.4 1.3-1.6 2.3-3.2 2.3-1.9 0-3.6-1.4-3.6-3.9 0-2.3 1.6-3.8 3.5-3.8 2.2 0 3.5 1.5 3.5 3.8v.5h-5.4c0 1.3 1 2.2 2.2 2.2 1.2 0 1.8-.6 2-1.5l1 .4zm-1.4-2.2c0-1-.7-1.8-2-1.8-1.2 0-1.9.9-2 1.8h4zm5.7.2l2-.3c.4-.1.6-.3.6-.5 0-.7-.5-1.3-1.6-1.3-1 0-1.5.6-1.6 1.5l-1.3-.3c.2-1.4 1.4-2.3 3-2.3 2.2 0 3 1.2 3 2.6v3.6c0 .6.1 1 .1 1.2h-1.4c0-.2-.1-.5-.1-1-.3.5-1 1.2-2.3 1.2-1.5 0-2.4-1-2.4-2.2-.2-1.3.8-2 2-2.2zm2.5 1v-.3l-2.2.3c-.6.1-1 .4-1 1.1 0 .5.5 1 1.2 1 1.1 0 2-.5 2-2.1zm4.4 3.1v-7.2h1.4v1c.5-.8 1.3-1.2 2.2-1.2.9 0 1.8.4 2.2 1.4.6-1 1.5-1.4 2.4-1.4 1.3 0 2.5.9 2.5 2.7v4.7h-1.4v-4.5c0-.9-.5-1.7-1.5-1.7s-1.7.8-1.7 1.8v4.4h-1.4v-4.5c0-.9-.5-1.7-1.5-1.7s-1.7.8-1.7 1.8v4.3h-1.5zm-121.9 6.1l.9.8c-1.5 1.7-2.5 3.8-2.5 6.4s1 4.7 2.5 6.4l-.9.8c-1.6-1.6-2.9-3.9-2.9-7.2s1.3-5.6 2.9-7.2zm6.8 6.1h-.6c-1.2 0-2 .6-2 2.2v3.6h-1.4v-7.2h1.4v1.3c.5-1.1 1.4-1.4 2.2-1.4h.5v1.5zm8.5 3.7c-.4 1.3-1.6 2.3-3.2 2.3-1.9 0-3.6-1.4-3.6-3.9 0-2.3 1.6-3.8 3.5-3.8 2.2 0 3.5 1.5 3.5 3.8v.5h-5.7c0 1.3 1 2.2 2.2 2.2 1.2 0 1.8-.6 2-1.5l1.3.4zm-1.5-2.2c0-1-.7-1.8-2-1.8-1.2 0-1.9.9-2 1.8h4zm5.8.2l2-.3c.4-.1.6-.3.6-.5 0-.7-.5-1.3-1.6-1.3-1 0-1.5.6-1.6 1.5l-1.4-.3c.2-1.4 1.4-2.3 3-2.3 2.2 0 3 1.2 3 2.6v3.6c0 .6.1 1 .1 1.2h-1.4c0-.2-.1-.5-.1-1-.3.5-1 1.2-2.3 1.2-1.5 0-2.4-1-2.4-2.2-.1-1.3.9-2 2.1-2.2zm2.5 1v-.3l-2.2.3c-.6.1-1 .4-1 1.1 0 .5.5 1 1.2 1 1.1 0 2-.5 2-2.1zm9.4 2c-.3.7-1.1 1.3-2.2 1.3-2.1 0-3.4-1.7-3.4-3.8 0-2 1.4-3.8 3.4-3.8 1.3 0 2 .6 2.2 1.2v-4.7h1.4v9.5c0 .7.1 1.2.1 1.3h-1.4c0-.2-.1-.5-.1-1zm-2.1.1c1.3 0 2.1-1.1 2.1-2.6s-.8-2.5-2.1-2.5-2.1 1-2.1 2.5.8 2.6 2.1 2.6zm6.1-2.7v-1.2h4.1v1.2h-4.1zm13.5.1c0 2.2-1.5 3.8-3.7 3.8s-3.7-1.6-3.7-3.8c0-2.2 1.5-3.8 3.7-3.8s3.7 1.6 3.7 3.8zm-1.5 0c0-1.7-1-2.6-2.2-2.6s-2.2.9-2.2 2.6c0 1.7 1 2.6 2.2 2.6s2.2-.9 2.2-2.6zm5.4 3.6h-1.4v-7.2h1.4v1c.5-.9 1.4-1.2 2.2-1.2 1.7 0 2.6 1.2 2.6 2.9v4.6h-1.4v-4.3c0-1-.4-1.8-1.7-1.8-1.1 0-1.7.9-1.7 2v4zm7.8 0v-10.9h1.4v10.9h-1.4zm4.8 3l1.8-3.8-3.1-6.4h1.6l2.2 5 2.2-5h1.5l-4.7 10.2h-1.5zm14.6-7.1l2-.3c.4-.1.6-.3.6-.5 0-.7-.5-1.3-1.6-1.3-1 0-1.5.6-1.6 1.5l-1.3-.3c.1-1.4 1.4-2.3 3-2.3 2.2 0 3 1.2 3 2.6v3.6c0 .6.1 1 .1 1.2h-1.4c0-.2-.1-.5-.1-1-.3.5-1 1.2-2.3 1.2-1.5 0-2.4-1-2.4-2.2-.2-1.3.7-2 2-2.2zm2.5 1v-.3l-2.2.3c-.6.1-1.1.4-1.1 1.1 0 .5.5 1 1.2 1 1.2 0 2.1-.5 2.1-2.1zm5.2-.5c0 1.7 1 2.5 2.2 2.5 1.3 0 1.8-.9 2-1.5l1.2.5c-.3 1-1.4 2.2-3.3 2.2-2.1 0-3.6-1.6-3.6-3.8 0-2.2 1.6-3.8 3.6-3.8 1.9 0 2.9 1.2 3.2 2.3l-1.3.5c-.2-.7-.7-1.5-1.9-1.5-1.1.1-2.1.9-2.1 2.6zm8.6 0c0 1.7 1 2.5 2.2 2.5 1.3 0 1.8-.9 2-1.5l1.2.5c-.3 1-1.4 2.2-3.3 2.2-2.1 0-3.6-1.6-3.6-3.8 0-2.2 1.6-3.8 3.6-3.8 1.9 0 2.9 1.2 3.2 2.3l-1.3.5c-.2-.7-.7-1.5-1.9-1.5-1 .1-2.1.9-2.1 2.6zm14.1 1.5c-.4 1.3-1.6 2.3-3.2 2.3-1.9 0-3.6-1.4-3.6-3.9 0-2.3 1.6-3.8 3.5-3.8 2.2 0 3.5 1.5 3.5 3.8v.5h-5.4c0 1.3 1 2.2 2.2 2.2 1.2 0 1.8-.6 2-1.5l1 .4zm-1.4-2.2c0-1-.7-1.8-2-1.8-1.2 0-1.9.9-2 1.8h4zm4.6 2c.1.8.7 1.3 1.7 1.3.8 0 1.2-.5 1.2-1 0-.4-.3-.8-.9-.9l-1.2-.3c-1.1-.2-1.8-1-1.8-2 0-1.2 1.2-2.3 2.6-2.3 2 0 2.6 1.3 2.7 1.9l-1.2.5c-.1-.4-.4-1.2-1.5-1.2-.7 0-1.2.5-1.2 1 0 .4.3.8.8.9l1.2.3c1.3.3 2 1.1 2 2.1s-.9 2.2-2.6 2.2c-2 0-2.8-1.3-2.9-2.1l1.1-.4zm7.5 0c.1.8.7 1.3 1.7 1.3.8 0 1.2-.5 1.2-1 0-.4-.3-.8-.9-.9l-1.2-.3c-1.1-.2-1.8-1-1.8-2 0-1.2 1.2-2.3 2.6-2.3 2 0 2.6 1.3 2.7 1.9l-1.2.5c-.1-.4-.4-1.2-1.5-1.2-.7 0-1.2.5-1.2 1 0 .4.3.8.8.9l1.2.3c1.3.3 2 1.1 2 2.1s-.9 2.2-2.6 2.2c-2 0-2.8-1.3-2.9-2.1l1.1-.4zm6.6 4.7l-.9-.8c1.5-1.7 2.5-3.8 2.5-6.4s-1-4.7-2.5-6.4l.9-.8c1.6 1.6 2.9 3.9 2.9 7.2s-1.3 5.6-2.9 7.2z"/><path id="repo1_301_" class="st6" d="M589.3 315.4c0-6.3 14.2-11.3 31.8-11.3s31.8 5.1 31.8 11.3m-63.6 0v14.1c0 1.5.9 3 2.4 4.3 4.8 4.1 16.2 7 29.5 7s24.7-2.9 29.5-7c1.5-1.3 2.4-2.8 2.4-4.3v-14.1"/><path class="st31" d="M652.9 315.4c0 6.3-14.2 11.3-31.8 11.3s-31.8-5.1-31.8-11.3c0-6.3 14.2-11.3 31.8-11.3s31.8 5 31.8 11.3z"/><path id="repo1_300_" class="st6" d="M589.3 301.3c0-6.3 14.2-11.3 31.8-11.3s31.8 5.1 31.8 11.3m-63.6 0v14.1c0 1.5.9 3 2.4 4.3 4.8 4.1 16.2 7 29.5 7s24.7-2.9 29.5-7c1.5-1.3 2.4-2.8 2.4-4.3v-14.1"/><path class="st31" d="M652.9 301.3c0 6.3-14.2 11.3-31.8 11.3s-31.8-5.1-31.8-11.3c0-6.3 14.2-11.3 31.8-11.3s31.8 5 31.8 11.3z"/><path id="repo1_299_" class="st6" d="M589.3 287.2c0-6.3 14.2-11.3 31.8-11.3s31.8 5.1 31.8 11.3m-63.6 0v14.1c0 1.5.9 3 2.4 4.3 4.8 4.1 16.2 7 29.5 7s24.7-2.9 29.5-7c1.5-1.3 2.4-2.8 2.4-4.3v-14.1"/><path class="st5" d="M652.9 287.2c0 6.3-14.2 11.3-31.8 11.3s-31.8-5.1-31.8-11.3c0-6.3 14.2-11.3 31.8-11.3s31.8 5 31.8 11.3z"/><path class="st11" d="M621.1 240.6v-43.5m-10.9 7.4l10.9-10.9 10.9 10.9m-1.1-145.8c3.1 6.8 9.9 11.2 17.3 11.2 7.5 0 14.3-4.4 17.4-11.3"/><path class="st6" d="M647.8 102.9s27.4.8 37.7-5.2c17-9.9-.3-30.2-13.7-33.6-4.1 7.7-13.3 13-24 13h.3c-10.7 0-19.8-5.4-24-13-13.4 3.4-30.7 23.8-13.7 33.6 10.3 6 37.7 5.2 37.7 5.2"/><circle class="st6" cx="648.2" cy="33.2" r="23"/><path class="st5" d="M658.9 21.1c2.6 20 7.9 2.4 11.8 17-2.2 10.4-11.4 18.2-22.5 18.2-12.7 0-23-10.3-23-23 0-1.3.1-2.6.3-3.9 1.1 0 26.3 11 33.4-8.3z"/><path class="st11" d="M660.8 53.5v10.6m-24.6 0v-10.3m-78.8 11.8c3.1 6.8 9.9 11.2 17.3 11.2 7.5 0 14.3-4.4 17.4-11.3"/><path class="st6" d="M574.3 109.9s27.4.8 37.7-5.2c17-9.9-.3-30.2-13.7-33.6-4.1 7.7-13.3 13-24 13h.3c-10.7 0-19.8-5.4-24-13-13.4 3.4-30.7 23.8-13.7 33.6 10.3 6 37.7 5.2 37.7 5.2"/><circle class="st6" cx="574.7" cy="40.2" r="23"/><path class="st5" d="M559.2 23.2c2.6 20 34.1 7.2 38 21.8-2.2 10.4-11.4 18.2-22.5 18.2-12.7 0-23-10.3-23-23 0-1.3.1-2.6.3-3.9 1.1 0 8.1 3.9 7.2-13.1z"/><path class="st11" d="M587.3 60.4v10.6m-24.6.1v-10.3m-145.3 453.6c54.4-11.3 101.7-42.1 134.3-84.7m-14 1.1l15.1-2.4 2.4 15.1"/></g></svg>