<svg xmlns="http://www.w3.org/2000/svg" viewBox="0 0 800 348"><style>.st0{display:none;} .st1{display:inline;} .st2{fill:#FFFFFF;} .st3{fill:none;stroke:#9882CE;stroke-width:4;stroke-miterlimit:10;} .st4{fill:#FFFFFF;stroke:#404040;stroke-width:4;stroke-linecap:round;stroke-linejoin:round;stroke-miterlimit:10;} .st5{fill:#FFFFFF;stroke:#404040;stroke-width:4;stroke-miterlimit:10;} .st6{fill:#B3E3FF;stroke:#404040;stroke-width:4;stroke-miterlimit:10;} .st7{fill:#B18BE8;stroke:#404040;stroke-width:4;stroke-miterlimit:10;} .st8{fill:#FFFFFF;stroke:#404040;stroke-width:6;stroke-miterlimit:10;} .st9{fill:#B3E3FF;stroke:#404040;stroke-width:6;stroke-miterlimit:10;} .st10{fill:#404040;} .st11{fill:none;stroke:#404040;stroke-width:4;stroke-linecap:round;stroke-linejoin:round;stroke-miterlimit:10;} .st12{fill:#B18BE8;stroke:#404040;stroke-width:4;stroke-linecap:round;stroke-linejoin:round;stroke-miterlimit:10;} .st13{fill:#444444;} .st14{fill:none;stroke:#404040;stroke-width:4;stroke-miterlimit:10;} .st15{fill:#4ED1A1;stroke:#404040;stroke-width:4;stroke-miterlimit:10;} .st16{fill:none;stroke:#CCCCCC;stroke-width:7;stroke-linecap:round;stroke-linejoin:round;stroke-miterlimit:10;} .st17{fill:#FFFFFF;stroke:#CCCCCC;stroke-width:7;stroke-linecap:round;stroke-linejoin:round;stroke-miterlimit:10;} .st18{fill:none;stroke:#404040;stroke-width:7;stroke-miterlimit:10;} .st19{fill:#B3E3FF;stroke:#404040;stroke-width:7;stroke-miterlimit:10;} .st20{fill:none;stroke:#CCCCCC;stroke-width:8;stroke-linecap:round;stroke-miterlimit:10;} .st21{fill:none;stroke:#404040;stroke-width:8;stroke-linecap:round;stroke-miterlimit:10;} .st22{fill:#FFFFFF;stroke:#404040;stroke-width:4;stroke-linejoin:round;stroke-miterlimit:10;} .st23{fill:#B3E3FF;stroke:#404040;stroke-width:4;stroke-linejoin:round;stroke-miterlimit:10;} .st24{fill:none;stroke:#CCCCCC;stroke-linecap:round;stroke-linejoin:round;stroke-miterlimit:10;} .st25{fill:#999999;} .st26{fill:#4ED1A1;stroke:#404040;stroke-width:4;stroke-linecap:round;stroke-linejoin:round;stroke-miterlimit:10;} .st27{fill:#4CD3D6;stroke:#404040;stroke-width:4;stroke-linejoin:round;stroke-miterlimit:10;} .st28{fill:none;stroke:#59AFE1;stroke-width:4;stroke-miterlimit:10;} .st29{fill:#59AFE1;stroke:#404040;stroke-width:4;stroke-linejoin:round;stroke-miterlimit:10;} .st30{fill:none;stroke:#404040;stroke-width:8;stroke-linecap:round;stroke-linejoin:round;stroke-miterlimit:10;stroke-dasharray:0,30;} .st31{fill:#FFFFFF;stroke:#59AFE1;stroke-width:4;stroke-miterlimit:10;} .st32{fill:#FC8363;stroke:#404040;stroke-width:4;stroke-linecap:round;stroke-linejoin:round;stroke-miterlimit:10;} .st33{fill:#CCCCCC;stroke:#404040;stroke-width:4;stroke-miterlimit:10;} .st34{fill:#FFFFFF;stroke:#6693ED;stroke-width:4;stroke-miterlimit:10;} .st35{fill:none;stroke:#A97CDD;stroke-width:4;stroke-linecap:round;stroke-linejoin:round;stroke-miterlimit:10;} .st36{fill:none;stroke:#B3E3FF;stroke-width:4;stroke-linecap:round;stroke-linejoin:round;stroke-miterlimit:10;} .st37{fill:none;stroke:#4ED1A1;stroke-width:4;stroke-linecap:round;stroke-miterlimit:10;} .st38{fill:none;stroke:#4ED1A1;stroke-width:4;stroke-linecap:round;stroke-linejoin:round;stroke-miterlimit:10;} .st39{fill:#E24B88;stroke:#404040;stroke-width:4;stroke-linecap:round;stroke-linejoin:round;stroke-miterlimit:10;} .st40{fill:none;stroke:#DEEFF8;stroke-width:4;stroke-miterlimit:10;} .st41{fill:none;stroke:#CCCCCC;stroke-width:4;stroke-linecap:round;stroke-linejoin:round;} .st42{fill:none;stroke:#CCCCCC;stroke-width:4;stroke-linecap:round;stroke-linejoin:round;stroke-dasharray:0,14.3051;} .st43{fill:none;stroke:#CCCCCC;stroke-width:4;stroke-linecap:round;stroke-linejoin:round;stroke-dasharray:0,14.1689;} .st44{fill:none;stroke:#CCCCCC;stroke-width:4;stroke-linecap:round;stroke-linejoin:round;stroke-dasharray:0,13.9788;} .st45{fill:none;stroke:#CCCCCC;stroke-width:4;stroke-linecap:round;stroke-linejoin:round;stroke-dasharray:0,14.7877;} .st46{fill:none;stroke:#CCCCCC;stroke-width:4;stroke-linecap:round;stroke-linejoin:round;stroke-dasharray:0,14.9632;} .st47{fill:#B3E3FF;stroke:#404040;stroke-width:4;stroke-linecap:round;stroke-linejoin:round;stroke-miterlimit:10;} .st48{fill:none;stroke:#CCCCCC;stroke-width:4;stroke-linecap:round;stroke-linejoin:round;stroke-dasharray:0,12.543;} .st49{fill:none;stroke:#CCCCCC;stroke-width:4;stroke-linecap:round;stroke-linejoin:round;stroke-dasharray:0,13.6844;} .st50{fill:none;stroke:#CCCCCC;stroke-width:4;stroke-linecap:round;stroke-linejoin:round;stroke-dasharray:0,13.7717;} .st51{fill:none;stroke:#CCCCCC;stroke-width:4;stroke-linecap:round;stroke-linejoin:round;stroke-dasharray:0,13.6492;} .st52{fill:none;stroke:#CCCCCC;stroke-width:4;stroke-linecap:round;stroke-linejoin:round;stroke-dasharray:0,13.907;} .st53{fill:#4CD3D6;stroke:#404040;stroke-width:4;stroke-linecap:round;stroke-linejoin:round;stroke-miterlimit:10;} .st54{fill:none;stroke:#CCCCCC;stroke-width:4;stroke-linecap:round;stroke-linejoin:round;stroke-dasharray:0,14.9858;} .st55{fill:none;stroke:#CCCCCC;stroke-width:4;stroke-linecap:round;stroke-linejoin:round;stroke-dasharray:0,14.0118;} .st56{fill:none;stroke:#CCCCCC;stroke-width:4;stroke-linecap:round;stroke-linejoin:round;stroke-dasharray:0,14.1243;} .st57{fill:none;} .st58{fill:#FFFFFF;stroke:#404040;stroke-width:7;stroke-linecap:round;stroke-linejoin:round;stroke-miterlimit:10;} .st59{fill:#59AFE1;stroke:#404040;stroke-width:7;stroke-linejoin:round;stroke-miterlimit:10;} .st60{fill:#E24B88;stroke:#404040;stroke-width:7;stroke-linecap:round;stroke-linejoin:round;stroke-miterlimit:10;} .st61{fill:none;stroke:#404040;stroke-width:7;stroke-linecap:round;stroke-linejoin:round;stroke-miterlimit:10;} .st62{fill:none;stroke:#CCCCCC;stroke-width:4;stroke-linecap:round;stroke-linejoin:round;stroke-miterlimit:10;} .st63{fill:#FFFFFF;stroke:#CCCCCC;stroke-width:4;stroke-linecap:round;stroke-linejoin:round;stroke-miterlimit:10;} .st64{fill:#F5F5F5;} .st65{fill:#3873AE;} .st66{fill:#75706C;} .st67{fill:none;stroke:#B3E3FF;stroke-width:4;stroke-miterlimit:10;} .st68{fill:#6F6F6F;} .st69{fill:none;stroke:#6F6F6F;stroke-width:2;stroke-miterlimit:10;} .st70{fill:none;stroke:#6F6F6F;stroke-width:3;stroke-miterlimit:10;}</style><g id="workflow_x5F_4"><path class="st26" d="M484.9 143.7h177.2v108.3h-177.2z"/><path class="st6" d="M501.7 160.4h143.8v74.8h-143.8z"/><path class="st11" d="M519.9 198h-11.2"/><path class="st26" d="M670.9 301.6h-194.8l8.8-37.9h177.2zm-151-125.6h107.3v44h-107.3z"/><circle class="st4" cx="573.5" cy="198.1" r="8.8"/><circle class="st4" cx="542.7" cy="198.1" r="8.8"/><path class="st11" d="M638.4 198h-11.2m-310.9 0h50.4c10.2 0 18.5-8.3 18.5-18.5v-87m-249.8 105.5h-56.8c-10.2 0-18.5-8.3-18.5-18.5v-51.8m422.5 70.3h-50.4c-10.2 0-18.5-8.3-18.5-18.5v-87m251.2 105.5h56.8c10.2 0 18.5-8.3 18.5-18.5v-51.8"/><circle class="st4" cx="604.3" cy="198.1" r="8.8"/><path id="repo1_179_" class="st6" d="M32.1 103.1c0-5.5 12.5-10 28-10s28 4.4 28 10m-56 0v12.4c0 1.3.8 2.6 2.1 3.8 4.2 3.6 14.2 6.2 25.9 6.2s21.7-2.6 25.9-6.2c1.3-1.2 2.1-2.4 2.1-3.8v-12.4"/><path class="st31" d="M88.2 103.1c0 5.5-12.5 10-28 10s-28-4.4-28-10c0-5.5 12.5-10 28-10s28 4.5 28 10z"/><path id="repo1_178_" class="st6" d="M32.1 90.7c0-5.5 12.5-10 28-10s28 4.4 28 10m-56 0v12.4c0 1.3.8 2.6 2.1 3.8 4.2 3.6 14.2 6.2 25.9 6.2s21.7-2.6 25.9-6.2c1.3-1.2 2.1-2.4 2.1-3.8v-12.4"/><path class="st31" d="M88.2 90.7c0 5.5-12.5 10-28 10s-28-4.4-28-10c0-5.5 12.5-10 28-10s28 4.5 28 10z"/><path id="repo1_177_" class="st6" d="M32.1 78.3c0-5.5 12.5-10 28-10s28 4.4 28 10m-56 0v12.4c0 1.3.8 2.6 2.1 3.8 4.2 3.6 14.2 6.2 25.9 6.2s21.7-2.6 25.9-6.2c1.3-1.2 2.1-2.4 2.1-3.8v-12.4"/><path class="st5" d="M88.2 78.3c0 5.5-12.5 10-28 10s-28-4.4-28-10c0-5.5 12.5-10 28-10s28 4.5 28 10z"/><path id="repo1_176_" class="st6" d="M711 103.1c0-5.5 12.5-10 28-10s28 4.4 28 10m-56 0v12.4c0 1.3.8 2.6 2.1 3.8 4.2 3.6 14.2 6.2 25.9 6.2s21.7-2.6 25.9-6.2c1.3-1.2 2.1-2.4 2.1-3.8v-12.4"/><path class="st31" d="M767.1 103.1c0 5.5-12.5 10-28 10s-28-4.4-28-10c0-5.5 12.5-10 28-10 15.4.1 28 4.5 28 10z"/><path id="repo1_175_" class="st6" d="M711 90.7c0-5.5 12.5-10 28-10s28 4.4 28 10m-56 0v12.4c0 1.3.8 2.6 2.1 3.8 4.2 3.6 14.2 6.2 25.9 6.2s21.7-2.6 25.9-6.2c1.3-1.2 2.1-2.4 2.1-3.8v-12.4"/><path class="st31" d="M767.1 90.7c0 5.5-12.5 10-28 10s-28-4.4-28-10c0-5.5 12.5-10 28-10 15.4.1 28 4.5 28 10z"/><path id="repo1_174_" class="st6" d="M711 78.3c0-5.5 12.5-10 28-10s28 4.4 28 10m-56 0v12.4c0 1.3.8 2.6 2.1 3.8 4.2 3.6 14.2 6.2 25.9 6.2s21.7-2.6 25.9-6.2c1.3-1.2 2.1-2.4 2.1-3.8v-12.4"/><path class="st5" d="M767.1 78.3c0 5.5-12.5 10-28 10s-28-4.4-28-10c0-5.5 12.5-10 28-10 15.4.1 28 4.5 28 10z"/><path class="st12" d="M137.2 143.7h177.2v108.3h-177.2z"/><path class="st6" d="M153.9 160.4h143.8v74.8h-143.8z"/><path class="st12" d="M323.2 301.6h-194.8l8.8-37.9h177.2zm-119.4-125.8h44v44h-44z"/><circle class="st4" cx="225.8" cy="198" r="8.8"/><path class="st11" d="M203.8 197.8h-42.9m129.8 0h-42.9"/><circle class="st4" cx="399.6" cy="53.7" r="43.5"/><path class="st11" d="M399.6 60v-22.2m-8.4 5.2l8.4-8.4 8.4 8.4m-17.7 7.2h-9.7c-1.5 0-2.8 1.2-2.8 2.8v12.2c0 1.5 1.2 2.8 2.8 2.8h38.1c1.5 0 2.8-1.2 2.8-2.8v-12.2c0-1.5-1.2-2.8-2.8-2.8h-9.7"/><path class="st10" d="M171.3 339.1v-10.6h6.5v1.4h-5v3.4h4.5v1.4h-4.5v4.5h-1.5zm14.6-2.1c-.4 1.3-1.6 2.3-3.2 2.3-1.9 0-3.6-1.4-3.6-3.9 0-2.3 1.6-3.8 3.4-3.8 2.2 0 3.5 1.5 3.5 3.8v.5h-5.4c0 1.3 1 2.2 2.2 2.2 1.2 0 1.8-.6 2-1.5l1.1.4zm-1.4-2.3c0-1-.7-1.8-2-1.8-1.2 0-1.9.9-2 1.8h4zm5.7.3l1.9-.3c.4-.1.6-.3.6-.5 0-.7-.5-1.3-1.6-1.3-1 0-1.5.6-1.6 1.5l-1.4-.3c.2-1.4 1.4-2.3 3-2.3 2.2 0 3 1.2 3 2.6v3.6c0 .6.1 1 .1 1.2h-1.4c0-.2-.1-.4-.1-1-.3.5-1 1.2-2.3 1.2-1.5 0-2.4-1-2.4-2.2.1-1.3 1-2 2.2-2.2zm2.6 1v-.3l-2.2.3c-.6.1-1.1.4-1.1 1.1 0 .5.4 1.1 1.2 1.1 1.1-.1 2.1-.6 2.1-2.2zm6.2-4.1h1.6v1.3h-1.6v3.8c0 .7.3 1 1 1 .2 0 .4 0 .6-.1v1.2c-.1 0-.5.1-1 .1-1.2 0-2-.8-2-2.1v-4h-1.4v-1.3h.4c.8 0 1.1-.5 1.1-1.1v-1.2h1.3v2.4zm6.8 7.4c-1.7 0-2.7-1.3-2.7-2.9v-4.5h1.4v4.3c0 1 .4 1.9 1.6 1.9 1.1 0 1.7-.8 1.7-1.8v-4.4h1.4v5.9c0 .6 0 1.1.1 1.3h-1.3c0-.2-.1-.6-.1-.9-.4.8-1.3 1.1-2.1 1.1zm10.6-6h-.6c-1.2 0-2 .6-2 2.2v3.6h-1.4v-7.2h1.4v1.3c.5-1.1 1.4-1.4 2.2-1.4h.5v1.5zm8.5 3.7c-.4 1.3-1.6 2.3-3.2 2.3-1.9 0-3.6-1.4-3.6-3.9 0-2.3 1.6-3.8 3.4-3.8 2.2 0 3.5 1.5 3.5 3.8v.5h-5.4c0 1.3 1 2.2 2.2 2.2 1.2 0 1.8-.6 2-1.5l1.1.4zm-1.4-2.3c0-1-.7-1.8-2-1.8-1.2 0-1.9.9-2 1.8h4zm12.1-6.2c2 0 3.2 1.2 3.2 2.9 0 1.1-.7 1.9-1.6 2.3 1.2.3 1.9 1.4 1.9 2.6 0 1.7-1.3 2.9-3.3 2.9h-3.7v-10.6h3.5zm-.2 4.6c1.2 0 1.9-.7 1.9-1.7s-.7-1.7-1.9-1.7h-1.8v3.4h1.8zm.2 4.7c1.2 0 2-.7 2-1.7s-.6-1.7-1.9-1.7h-2.1v3.4h2zm10.1-4.5h-.6c-1.2 0-2 .6-2 2.2v3.6h-1.4v-7.2h1.4v1.3c.5-1.1 1.4-1.4 2.2-1.4h.5v1.5zm4 1.7l1.9-.3c.4-.1.6-.3.6-.5 0-.7-.5-1.3-1.6-1.3-1 0-1.5.6-1.6 1.5l-1.4-.3c.2-1.4 1.4-2.3 3-2.3 2.2 0 3 1.2 3 2.6v3.6c0 .6.1 1 .1 1.2h-1.4c0-.2-.1-.4-.1-1-.3.5-1 1.2-2.3 1.2-1.5 0-2.4-1-2.4-2.2 0-1.3.9-2 2.2-2.2zm2.5 1v-.3l-2.2.3c-.6.1-1.1.4-1.1 1.1 0 .5.4 1.1 1.2 1.1 1.2-.1 2.1-.6 2.1-2.2zm5.7 3.1h-1.4v-7.2h1.4v1c.5-.9 1.4-1.2 2.2-1.2 1.7 0 2.6 1.2 2.6 2.8v4.6h-1.4v-4.3c0-1-.4-1.8-1.7-1.8-1.1 0-1.7.9-1.7 2v4.1zm8.7-3.6c0 1.6 1 2.5 2.2 2.5 1.3 0 1.8-.9 2-1.5l1.2.5c-.3 1-1.4 2.2-3.3 2.2-2.1 0-3.6-1.6-3.6-3.8 0-2.2 1.6-3.8 3.6-3.8 1.9 0 2.9 1.2 3.2 2.3l-1.3.5c-.2-.7-.7-1.5-1.9-1.5-1.1.1-2.1.9-2.1 2.6zm9.2 3.6h-1.4v-10.9h1.4v4.5c.5-.8 1.4-1 2.2-1 1.7 0 2.6 1.2 2.6 2.8v4.6h-1.4v-4.3c0-1-.4-1.8-1.7-1.8-1.1 0-1.6.8-1.7 1.9v4.2zm255.4 0v-8.3l-3.6 8.3h-1.3l-3.6-8.3v8.3h-1.5v-10.6h2l3.7 8.7 3.8-8.7h2v10.6h-1.5zm6.4-4.1l1.9-.3c.4-.1.6-.3.6-.5 0-.7-.5-1.3-1.6-1.3-1 0-1.5.6-1.6 1.5l-1.4-.3c.2-1.4 1.4-2.3 3-2.3 2.2 0 3 1.2 3 2.6v3.6c0 .6.1 1 .1 1.2h-1.4c0-.2-.1-.5-.1-1-.3.5-1 1.2-2.3 1.2-1.5 0-2.4-1-2.4-2.2 0-1.3.9-2 2.2-2.2zm2.5 1v-.3l-2.2.3c-.6.1-1 .4-1 1.1 0 .5.4 1 1.2 1 1.1 0 2-.5 2-2.1zm4.9.8c.1.8.7 1.3 1.7 1.3.8 0 1.2-.4 1.2-1 0-.5-.3-.8-.9-.9l-1.2-.3c-1.1-.2-1.8-1-1.8-2 0-1.2 1.2-2.3 2.6-2.3 2 0 2.6 1.3 2.7 1.9l-1.2.5c-.1-.4-.4-1.2-1.5-1.2-.7 0-1.2.5-1.2 1 0 .4.3.8.8.9l1.2.3c1.3.3 2 1.1 2 2.1s-.9 2.2-2.6 2.2c-2 0-2.8-1.3-2.9-2.1l1.1-.4zm8.9-4.9h1.6v1.3h-1.6v3.8c0 .7.3 1 1 1 .2 0 .4 0 .6-.1v1.2c-.1 0-.5.1-1 .1-1.2 0-2-.8-2-2.1v-4h-1.4v-1.3h.4c.8 0 1.1-.5 1.1-1.1v-1.2h1.3v2.4zm10.4 5.1c-.4 1.3-1.6 2.3-3.2 2.3-1.9 0-3.6-1.4-3.6-3.9 0-2.3 1.6-3.8 3.4-3.8 2.2 0 3.5 1.5 3.5 3.8v.4h-5.4c0 1.3 1 2.2 2.2 2.2 1.2 0 1.8-.6 2-1.5l1.1.5zm-1.5-2.3c0-1-.7-1.8-2-1.8-1.2 0-1.9.9-2 1.8h4zm8.1-1.4h-.6c-1.2 0-2 .6-2 2.2v3.6h-1.4v-7.2h1.4v1.3c.5-1.1 1.4-1.4 2.2-1.4h.5v1.5zm10.3-4.8c2 0 3.2 1.2 3.2 2.9 0 1.1-.7 2-1.6 2.3 1.2.3 1.9 1.4 1.9 2.6 0 1.7-1.3 2.9-3.3 2.9h-3.7v-10.6h3.5zm-.1 4.6c1.2 0 1.9-.7 1.9-1.7s-.7-1.7-1.9-1.7h-1.8v3.4h1.8zm.2 4.7c1.2 0 2-.7 2-1.7s-.6-1.7-1.9-1.7h-2.1v3.4h2zm10-4.5h-.6c-1.2 0-2 .6-2 2.2v3.6h-1.4v-7.2h1.4v1.3c.5-1.1 1.4-1.4 2.2-1.4h.5v1.5zm4 1.7l1.9-.3c.4-.1.6-.3.6-.5 0-.7-.5-1.3-1.6-1.3-1 0-1.5.6-1.6 1.5l-1.4-.3c.2-1.4 1.4-2.3 3-2.3 2.2 0 3 1.2 3 2.6v3.6c0 .6.1 1 .1 1.2h-1.4c0-.2-.1-.5-.1-1-.3.5-1 1.2-2.3 1.2-1.5 0-2.4-1-2.4-2.2 0-1.3 1-2 2.2-2.2zm2.5 1v-.3l-2.2.3c-.6.1-1.1.4-1.1 1.1 0 .5.4 1 1.2 1 1.2 0 2.1-.5 2.1-2.1zm5.8 3.1h-1.4v-7.2h1.4v1c.5-.9 1.4-1.2 2.2-1.2 1.7 0 2.6 1.2 2.6 2.8v4.6h-1.4v-4.3c0-1-.4-1.8-1.7-1.8-1.1 0-1.7.9-1.7 2v4.1zm8.6-3.6c0 1.6 1 2.5 2.2 2.5 1.3 0 1.8-.9 2-1.5l1.2.5c-.3 1-1.4 2.2-3.3 2.2-2.1 0-3.6-1.7-3.6-3.8 0-2.2 1.6-3.8 3.6-3.8 1.9 0 2.9 1.2 3.2 2.3l-1.3.5c-.2-.7-.7-1.5-1.9-1.5-1.1.1-2.1.9-2.1 2.6zm9.3 3.6h-1.5v-10.9h1.4v4.5c.5-.8 1.4-1.1 2.2-1.1 1.7 0 2.6 1.2 2.6 2.8v4.6h-1.4v-4.3c0-1-.4-1.8-1.7-1.8-1.1 0-1.6.8-1.7 1.9v4.3zm-580.2-323.8c-.1-.8-.8-1.8-2.2-1.8-1.2 0-2.1.8-2.1 1.8 0 .8.5 1.3 1.4 1.5l1.6.3c1.8.4 2.8 1.5 2.8 3 0 1.6-1.4 3.1-3.7 3.1-2.6 0-3.8-1.6-4-3.2l1.4-.4c.1 1.2.9 2.3 2.5 2.3 1.5 0 2.2-.8 2.2-1.7 0-.8-.5-1.4-1.6-1.6l-1.5-.3c-1.5-.3-2.6-1.3-2.6-2.9 0-1.7 1.5-3.2 3.5-3.2 2.4 0 3.4 1.5 3.6 2.6l-1.3.5zm5.4 7.7h-1.4v-10.8h1.4v4.5c.5-.8 1.4-1 2.2-1 1.7 0 2.6 1.2 2.6 2.8v4.5h-1.4v-4.3c0-1-.4-1.8-1.7-1.8-1.1 0-1.6.8-1.7 1.9v4.2zm9.5-4.1l1.9-.3c.4-.1.6-.3.6-.5 0-.7-.5-1.3-1.6-1.3-1 0-1.5.6-1.6 1.5l-1.4-.3c.2-1.4 1.4-2.3 3-2.3 2.2 0 3 1.2 3 2.6v3.6c0 .6.1 1 .1 1.2h-1.4c0-.2-.1-.4-.1-1-.3.5-1 1.2-2.3 1.2-1.5 0-2.4-1-2.4-2.2 0-1.3 1-2 2.2-2.2zm2.5 1v-.3l-2.2.3c-.6.1-1 .4-1 1.1 0 .5.4 1.1 1.2 1.1 1.1 0 2-.6 2-2.2zm8.4-2.7h-.6c-1.2 0-2 .6-2 2.2v3.6h-1.4v-7.2h1.4v1.3c.5-1.1 1.4-1.4 2.2-1.4h.5v1.5zm8.4 3.8c-.4 1.3-1.6 2.3-3.2 2.3-1.9 0-3.6-1.4-3.6-3.9 0-2.3 1.6-3.8 3.4-3.8 2.2 0 3.5 1.5 3.5 3.8v.5h-5.4c0 1.3 1 2.2 2.2 2.2 1.2 0 1.8-.6 2-1.5l1.1.4zm-1.4-2.3c0-1-.7-1.8-2-1.8-1.2 0-1.9.9-2 1.8h4zm9.1 3.2c-.3.7-1.1 1.3-2.2 1.3-2.1 0-3.4-1.7-3.4-3.8 0-2 1.4-3.8 3.4-3.8 1.3 0 2 .6 2.2 1.2v-4.7h1.4v9.5c0 .7.1 1.2.1 1.3h-1.4c0-.2-.1-.5-.1-1zm-2.1.1c1.3 0 2.1-1.1 2.1-2.6s-.8-2.5-2.1-2.5-2.1 1-2.1 2.5.7 2.6 2.1 2.6zm-72.3 8.4c2 0 3.2 1.2 3.2 2.9 0 1.1-.7 1.9-1.6 2.3 1.2.3 1.9 1.4 1.9 2.6 0 1.6-1.3 2.8-3.3 2.8h-3.7v-10.6h3.5zm-.2 4.6c1.2 0 1.9-.7 1.9-1.7s-.7-1.7-1.9-1.7h-1.8v3.4h1.8zm.2 4.7c1.2 0 2-.7 2-1.7s-.6-1.7-1.9-1.7h-2.1v3.4h2zm6.8-9.6c.6 0 1 .5 1 1 0 .6-.4 1-1 1s-1-.4-1-1 .5-1 1-1zm-.7 10.9v-7.2h1.4v7.2h-1.4zm6.5-7.2h1.6v1.3h-1.6v3.8c0 .7.3 1 1 1 .2 0 .4 0 .6-.1v1.2c-.1 0-.5.1-1 .1-1.2 0-2-.8-2-2.1v-4h-1.4v-1.3h.4c.8 0 1.1-.5 1.1-1.1v-1.2h1.3v2.4zm4.2 7.2v-10.8h1.4v4.7c.3-.6 1.2-1.2 2.4-1.2 2.2 0 3.3 1.7 3.3 3.8 0 2.1-1.2 3.8-3.4 3.8-1.1 0-1.9-.5-2.3-1.2v1h-1.4zm3.5-6.2c-1.2 0-2.1 1-2.1 2.5 0 1.6.9 2.6 2.1 2.6 1.3 0 2.1-1 2.1-2.6 0-1.5-.8-2.5-2.1-2.5zm8.7 6.4c-1.7 0-2.7-1.3-2.7-2.9v-4.5h1.4v4.3c0 1 .4 1.9 1.6 1.9 1.1 0 1.7-.8 1.7-1.8v-4.4h1.4v5.9c0 .6 0 1.1.1 1.3h-1.4c0-.2-.1-.6-.1-.9-.3.8-1.2 1.1-2 1.1zm7.3-3.8c0 1.6 1 2.5 2.2 2.5 1.3 0 1.8-.9 2-1.5l1.2.5c-.3 1-1.4 2.2-3.3 2.2-2.1 0-3.6-1.6-3.6-3.8 0-2.2 1.6-3.8 3.6-3.8 1.9 0 2.9 1.2 3.2 2.3l-1.3.5c-.2-.7-.7-1.5-1.9-1.5-1 .1-2.1.9-2.1 2.6zm11.3-.6l3.1 4.2h-1.8l-2.4-3.2-1 1v2.2h-1.3v-10.8h1.4v6.8l3.1-3.2h1.9l-3 3zm11.1 2.2c-.4 1.3-1.6 2.3-3.2 2.3-1.9 0-3.6-1.4-3.6-3.9 0-2.3 1.6-3.8 3.4-3.8 2.2 0 3.5 1.5 3.5 3.8v.5h-5.4c0 1.3 1 2.2 2.2 2.2 1.2 0 1.8-.6 2-1.5l1.1.4zm-1.4-2.3c0-1-.7-1.8-2-1.8-1.2 0-1.9.9-2 1.8h4zm5.9-2.9h1.6v1.3h-1.6v3.8c0 .7.3 1 1 1 .2 0 .4 0 .6-.1v1.2c-.1 0-.5.1-1 .1-1.2 0-2-.8-2-2.1v-4h-1.4v-1.3h.4c.8 0 1.1-.5 1.1-1.1v-1.2h1.3v2.4zm11.9 2.9h-1.6v4.3h-1.5v-10.6h4c2 0 3.3 1.4 3.3 3.2 0 1.5-1 2.7-2.6 3l2.5 4.5h-1.7l-2.4-4.4zm.7-1.4c1.2 0 2-.7 2-1.8s-.8-1.8-2-1.8h-2.2v3.6h2.2zm12.1 3.7c-.4 1.3-1.6 2.3-3.2 2.3-1.9 0-3.6-1.4-3.6-3.9 0-2.3 1.6-3.8 3.4-3.8 2.2 0 3.5 1.5 3.5 3.8v.5h-5.4c0 1.3 1 2.2 2.2 2.2 1.2 0 1.8-.6 2-1.5l1.1.4zm-1.4-2.3c0-1-.7-1.8-2-1.8-1.2 0-1.9.9-2 1.8h4zm4 7.2v-10.1h1.4v1.1c.4-.7 1.2-1.3 2.4-1.3 2.2 0 3.3 1.7 3.3 3.8 0 2.1-1.2 3.8-3.4 3.8-1.1 0-1.9-.5-2.3-1.2v3.8h-1.4zm3.5-9c-1.3 0-2.1 1.1-2.1 2.5 0 1.5.9 2.5 2.1 2.5 1.3 0 2.1-1.1 2.1-2.5.1-1.4-.7-2.5-2.1-2.5zm12.9 2.5c0 2.2-1.5 3.8-3.7 3.8s-3.7-1.6-3.7-3.8c0-2.2 1.5-3.8 3.7-3.8s3.7 1.6 3.7 3.8zm-1.4 0c0-1.7-1.1-2.6-2.2-2.6s-2.2.9-2.2 2.6c0 1.7 1.1 2.6 2.2 2.6s2.2-.9 2.2-2.6zm606-22.1c-.1-.8-.8-1.8-2.2-1.8-1.2 0-2.1.8-2.1 1.8 0 .8.5 1.3 1.4 1.5l1.6.3c1.8.4 2.8 1.5 2.8 3 0 1.6-1.4 3.1-3.7 3.1-2.6 0-3.8-1.6-4-3.2l1.4-.4c.1 1.2.9 2.3 2.5 2.3 1.5 0 2.2-.8 2.2-1.7 0-.8-.5-1.4-1.6-1.6l-1.5-.3c-1.5-.3-2.6-1.3-2.6-2.9 0-1.7 1.5-3.2 3.5-3.2 2.4 0 3.4 1.5 3.6 2.6l-1.3.5zm5.3 7.7h-1.4v-10.8h1.4v4.5c.5-.8 1.4-1 2.2-1 1.7 0 2.6 1.2 2.6 2.8v4.5h-1.4v-4.3c0-1-.4-1.8-1.7-1.8-1.1 0-1.6.8-1.7 1.9v4.2zm9.5-4.1l1.9-.3c.4-.1.6-.3.6-.5 0-.7-.5-1.3-1.6-1.3-1 0-1.5.6-1.6 1.5l-1.4-.3c.2-1.4 1.4-2.3 3-2.3 2.2 0 3 1.2 3 2.6v3.6c0 .6.1 1 .1 1.2h-1.4c0-.2-.1-.4-.1-1-.3.5-1 1.2-2.3 1.2-1.5 0-2.4-1-2.4-2.2 0-1.3 1-2 2.2-2.2zm2.5 1v-.3l-2.2.3c-.6.1-1 .4-1 1.1 0 .5.4 1.1 1.2 1.1 1.1 0 2-.6 2-2.2zm8.4-2.7h-.6c-1.2 0-2 .6-2 2.2v3.6h-1.4v-7.2h1.4v1.3c.5-1.1 1.4-1.4 2.2-1.4h.5v1.5zm8.5 3.8c-.4 1.3-1.6 2.3-3.2 2.3-1.9 0-3.6-1.4-3.6-3.9 0-2.3 1.6-3.8 3.4-3.8 2.2 0 3.5 1.5 3.5 3.8v.5h-5.6c0 1.3 1 2.2 2.2 2.2 1.2 0 1.8-.6 2-1.5l1.3.4zm-1.5-2.3c0-1-.7-1.8-2-1.8-1.2 0-1.9.9-2 1.8h4zm9.1 3.2c-.3.7-1.1 1.3-2.2 1.3-2.1 0-3.4-1.7-3.4-3.8 0-2 1.4-3.8 3.4-3.8 1.3 0 2 .6 2.2 1.2v-4.7h1.4v9.5c0 .7.1 1.2.1 1.3h-1.4c0-.2-.1-.5-.1-1zm-2.1.1c1.3 0 2.1-1.1 2.1-2.6s-.8-2.5-2.1-2.5-2.1 1-2.1 2.5.8 2.6 2.1 2.6zm-72.3 8.4c2 0 3.2 1.2 3.2 2.9 0 1.1-.7 1.9-1.6 2.3 1.2.3 1.9 1.4 1.9 2.6 0 1.7-1.3 2.9-3.3 2.9h-3.7v-10.7h3.5zm-.2 4.6c1.2 0 1.9-.7 1.9-1.7s-.7-1.7-1.9-1.7h-1.8v3.4h1.8zm.2 4.7c1.2 0 2-.7 2-1.7s-.6-1.7-1.9-1.7h-2.1v3.4h2zm6.8-9.6c.6 0 1 .5 1 1 0 .6-.4 1-1 1s-1-.4-1-1 .5-1 1-1zm-.7 10.9v-7.2h1.4v7.2h-1.4zm6.5-7.2h1.6v1.3h-1.6v3.8c0 .7.3 1 1 1 .2 0 .4 0 .6-.1v1.2c-.1 0-.5.1-1 .1-1.2 0-2-.8-2-2.1v-4h-1.4v-1.3h.4c.8 0 1.1-.5 1.1-1.1v-1.2h1.3v2.4zm4.2 7.2v-10.8h1.4v4.7c.3-.6 1.2-1.2 2.4-1.2 2.2 0 3.3 1.7 3.3 3.8 0 2.1-1.2 3.8-3.4 3.8-1.1 0-1.9-.5-2.3-1.2v1h-1.4zm3.5-6.2c-1.2 0-2.1 1-2.1 2.5 0 1.6.9 2.6 2.1 2.6 1.3 0 2.1-1 2.1-2.6 0-1.5-.8-2.5-2.1-2.5zm8.7 6.4c-1.7 0-2.7-1.3-2.7-2.9v-4.5h1.4v4.3c0 1 .4 1.9 1.6 1.9 1.1 0 1.7-.8 1.7-1.8v-4.4h1.4v5.9c0 .6 0 1.1.1 1.3h-1.4c0-.2-.1-.6-.1-.9-.3.8-1.2 1.1-2 1.1zm7.3-3.8c0 1.6 1 2.5 2.2 2.5 1.3 0 1.8-.9 2-1.5l1.2.5c-.3 1-1.4 2.2-3.3 2.2-2.1 0-3.6-1.6-3.6-3.8 0-2.2 1.6-3.8 3.6-3.8 1.9 0 2.9 1.2 3.2 2.3l-1.3.5c-.2-.7-.7-1.5-1.9-1.5-1 .1-2.1.9-2.1 2.6zm11.3-.6l3.1 4.2h-1.8l-2.4-3.2-1 1v2.2h-1.4v-10.8h1.4v6.8l3.1-3.2h1.9l-2.9 3zm11.1 2.2c-.4 1.3-1.6 2.3-3.2 2.3-1.9 0-3.6-1.4-3.6-3.9 0-2.3 1.6-3.8 3.4-3.8 2.2 0 3.5 1.5 3.5 3.8v.5h-5.5c0 1.3 1 2.2 2.2 2.2 1.2 0 1.8-.6 2-1.5l1.2.4zm-1.4-2.3c0-1-.7-1.8-2-1.8-1.2 0-1.9.9-2 1.8h4zm5.9-2.9h1.6v1.3h-1.6v3.8c0 .7.3 1 1 1 .2 0 .4 0 .6-.1v1.2c-.1 0-.5.1-1 .1-1.2 0-2-.8-2-2.1v-4h-1.4v-1.3h.4c.8 0 1.1-.5 1.1-1.1v-1.2h1.3v2.4zm11.9 2.9h-1.6v4.3h-1.5v-10.6h4c2 0 3.3 1.4 3.3 3.2 0 1.5-1 2.7-2.6 3l2.6 4.4h-1.7l-2.5-4.3zm.7-1.4c1.2 0 2-.7 2-1.8s-.8-1.8-2-1.8h-2.2v3.6h2.2zm12.1 3.7c-.4 1.3-1.6 2.3-3.2 2.3-1.9 0-3.6-1.4-3.6-3.9 0-2.3 1.6-3.8 3.4-3.8 2.2 0 3.5 1.5 3.5 3.8v.5h-5.4c0 1.3 1 2.2 2.2 2.2 1.2 0 1.8-.6 2-1.5l1.1.4zm-1.4-2.3c0-1-.7-1.8-2-1.8-1.2 0-1.9.9-2 1.8h4zm4 7.2v-10.1h1.4v1.1c.4-.7 1.2-1.3 2.4-1.3 2.2 0 3.3 1.7 3.3 3.8 0 2.1-1.2 3.8-3.4 3.8-1.1 0-1.9-.5-2.3-1.2v3.8h-1.4zm3.5-9c-1.3 0-2.1 1.1-2.1 2.5 0 1.5.9 2.5 2.1 2.5 1.3 0 2.1-1.1 2.1-2.5.1-1.4-.7-2.5-2.1-2.5zm12.9 2.5c0 2.2-1.5 3.8-3.7 3.8s-3.7-1.6-3.7-3.8c0-2.2 1.5-3.8 3.7-3.8s3.7 1.6 3.7 3.8zm-1.4 0c0-1.7-1.1-2.6-2.2-2.6s-2.2.9-2.2 2.6c0 1.7 1.1 2.6 2.2 2.6s2.2-.9 2.2-2.6z"/></g></svg>