<svg xmlns="http://www.w3.org/2000/svg" viewBox="0 0 800 268"><style>.st0{display:none;} .st1{display:inline;} .st2{fill:#FFFFFF;} .st3{fill:none;stroke:#9882CE;stroke-width:4;stroke-miterlimit:10;} .st4{fill:#B3E3FF;stroke:#404040;stroke-width:4;stroke-miterlimit:10;} .st5{fill:#FFFFFF;stroke:#404040;stroke-width:4;stroke-miterlimit:10;} .st6{fill:none;stroke:#404040;stroke-width:4;stroke-linecap:round;stroke-linejoin:round;stroke-miterlimit:10;} .st7{fill:#B18BE8;stroke:#404040;stroke-width:4;stroke-linecap:round;stroke-linejoin:round;stroke-miterlimit:10;} .st8{fill:#404040;} .st9{fill:none;stroke:#404040;stroke-width:4;stroke-miterlimit:10;} .st10{fill:#B18BE8;stroke:#404040;stroke-width:4;stroke-miterlimit:10;} .st11{fill:#4ED1A1;stroke:#404040;stroke-width:4;stroke-miterlimit:10;} .st12{fill:none;stroke:#CCCCCC;stroke-width:7;stroke-linecap:round;stroke-linejoin:round;stroke-miterlimit:10;} .st13{fill:#FFFFFF;stroke:#CCCCCC;stroke-width:7;stroke-linecap:round;stroke-linejoin:round;stroke-miterlimit:10;} .st14{fill:none;stroke:#404040;stroke-width:7;stroke-miterlimit:10;} .st15{fill:#B3E3FF;stroke:#404040;stroke-width:7;stroke-miterlimit:10;} .st16{fill:#CCCCCC;} .st17{fill:#FFFFFF;stroke:#404040;stroke-width:4;stroke-linejoin:round;stroke-miterlimit:10;} .st18{fill:#FFFFFF;stroke:#404040;stroke-width:4;stroke-linecap:round;stroke-linejoin:round;stroke-miterlimit:10;} .st19{fill:#B3E3FF;stroke:#404040;stroke-width:4;stroke-linejoin:round;stroke-miterlimit:10;} .st20{fill:none;stroke:#CCCCCC;stroke-linecap:round;stroke-linejoin:round;stroke-miterlimit:10;} .st21{fill:#999999;} .st22{fill:#4ED1A1;stroke:#404040;stroke-width:4;stroke-linecap:round;stroke-linejoin:round;stroke-miterlimit:10;} .st23{fill:#4CD3D6;stroke:#404040;stroke-width:4;stroke-linejoin:round;stroke-miterlimit:10;} .st24{fill:none;stroke:#59AFE1;stroke-width:4;stroke-miterlimit:10;} .st25{fill:#59AFE1;stroke:#404040;stroke-width:4;stroke-linejoin:round;stroke-miterlimit:10;} .st26{fill:#FFFFFF;stroke:#59AFE1;stroke-width:4;stroke-miterlimit:10;} .st27{fill:#B3E3FF;stroke:#404040;stroke-width:4;stroke-linecap:round;stroke-linejoin:round;stroke-miterlimit:10;} .st28{fill:#FC8363;stroke:#404040;stroke-width:4;stroke-linecap:round;stroke-linejoin:round;stroke-miterlimit:10;} .st29{fill:#CCCCCC;stroke:#404040;stroke-width:4;stroke-miterlimit:10;} .st30{fill:#FFFFFF;stroke:#6693ED;stroke-width:4;stroke-miterlimit:10;} .st31{fill:none;stroke:#A97CDD;stroke-width:4;stroke-linecap:round;stroke-linejoin:round;stroke-miterlimit:10;} .st32{fill:none;stroke:#B3E3FF;stroke-width:4;stroke-linecap:round;stroke-linejoin:round;stroke-miterlimit:10;} .st33{fill:none;stroke:#4ED1A1;stroke-width:4;stroke-linecap:round;stroke-miterlimit:10;} .st34{fill:none;stroke:#4ED1A1;stroke-width:4;stroke-linecap:round;stroke-linejoin:round;stroke-miterlimit:10;} .st35{fill:#E24B88;stroke:#404040;stroke-width:4;stroke-linecap:round;stroke-linejoin:round;stroke-miterlimit:10;} .st36{fill:none;stroke:#DEEFF8;stroke-width:4;stroke-miterlimit:10;} .st37{fill:none;stroke:#CCCCCC;stroke-width:4;stroke-linecap:round;stroke-linejoin:round;} .st38{fill:none;stroke:#CCCCCC;stroke-width:4;stroke-linecap:round;stroke-linejoin:round;stroke-dasharray:0,14.3051;} .st39{fill:none;stroke:#CCCCCC;stroke-width:4;stroke-linecap:round;stroke-linejoin:round;stroke-dasharray:0,14.1689;} .st40{fill:none;stroke:#CCCCCC;stroke-width:4;stroke-linecap:round;stroke-linejoin:round;stroke-dasharray:0,13.9788;} .st41{fill:none;stroke:#CCCCCC;stroke-width:4;stroke-linecap:round;stroke-linejoin:round;stroke-dasharray:0,14.7877;} .st42{fill:none;stroke:#CCCCCC;stroke-width:4;stroke-linecap:round;stroke-linejoin:round;stroke-dasharray:0,14.9632;} .st43{fill:none;stroke:#CCCCCC;stroke-width:4;stroke-linecap:round;stroke-linejoin:round;stroke-dasharray:0,12.543;} .st44{fill:none;stroke:#CCCCCC;stroke-width:4;stroke-linecap:round;stroke-linejoin:round;stroke-dasharray:0,13.6844;} .st45{fill:none;stroke:#CCCCCC;stroke-width:4;stroke-linecap:round;stroke-linejoin:round;stroke-dasharray:0,13.7717;} .st46{fill:none;stroke:#CCCCCC;stroke-width:4;stroke-linecap:round;stroke-linejoin:round;stroke-dasharray:0,13.6492;} .st47{fill:none;stroke:#CCCCCC;stroke-width:4;stroke-linecap:round;stroke-linejoin:round;stroke-dasharray:0,13.907;} .st48{fill:#4CD3D6;stroke:#404040;stroke-width:4;stroke-linecap:round;stroke-linejoin:round;stroke-miterlimit:10;} .st49{fill:none;stroke:#CCCCCC;stroke-width:4;stroke-linecap:round;stroke-linejoin:round;stroke-dasharray:0,14.9858;} .st50{fill:none;stroke:#CCCCCC;stroke-width:4;stroke-linecap:round;stroke-linejoin:round;stroke-dasharray:0,14.0118;} .st51{fill:none;stroke:#CCCCCC;stroke-width:4;stroke-linecap:round;stroke-linejoin:round;stroke-dasharray:0,14.1243;} .st52{fill:none;} .st53{fill:#FFFFFF;stroke:#404040;stroke-width:7;stroke-linecap:round;stroke-linejoin:round;stroke-miterlimit:10;} .st54{fill:#59AFE1;stroke:#404040;stroke-width:7;stroke-linejoin:round;stroke-miterlimit:10;} .st55{fill:#E24B88;stroke:#404040;stroke-width:7;stroke-linecap:round;stroke-linejoin:round;stroke-miterlimit:10;} .st56{fill:none;stroke:#404040;stroke-width:7;stroke-linecap:round;stroke-linejoin:round;stroke-miterlimit:10;} .st57{fill:none;stroke:#CCCCCC;stroke-width:4;stroke-linecap:round;stroke-linejoin:round;stroke-miterlimit:10;} .st58{fill:#FFFFFF;stroke:#CCCCCC;stroke-width:4;stroke-linecap:round;stroke-linejoin:round;stroke-miterlimit:10;} .st59{fill:#F5F5F5;} .st60{fill:#3873AE;} .st61{fill:#75706C;} .st62{fill:none;stroke:#B3E3FF;stroke-width:4;stroke-miterlimit:10;} .st63{fill:#6F6F6F;} .st64{fill:none;stroke:#6F6F6F;stroke-width:2;stroke-miterlimit:10;} .st65{fill:none;stroke:#6F6F6F;stroke-width:3;stroke-miterlimit:10;} .st66{fill:#FFFFFF;stroke:#404040;stroke-width:6;stroke-miterlimit:10;} .st67{fill:#B3E3FF;stroke:#404040;stroke-width:6;stroke-miterlimit:10;}</style><g id="workflow_x5F_6"><path class="st8" d="M44.6,13.1c-0.1-0.8-0.8-1.8-2.2-1.8c-1.2,0-2.1,0.8-2.1,1.8c0,0.8,0.5,1.3,1.4,1.5l1.6,0.3 c1.8,0.4,2.8,1.5,2.8,3c0,1.6-1.4,3.1-3.7,3.1c-2.6,0-3.8-1.6-4-3.2l1.4-0.4c0.1,1.2,0.9,2.3,2.5,2.3c1.5,0,2.2-0.8,2.2-1.7 c0-0.8-0.5-1.4-1.6-1.6l-1.5-0.3c-1.5-0.3-2.6-1.3-2.6-2.9c0-1.7,1.5-3.2,3.5-3.2c2.4,0,3.4,1.5,3.6,2.6L44.6,13.1zM50,20.9h-1.4V10H50v4.5c0.5-0.8,1.4-1,2.2-1c1.7,0,2.6,1.2,2.6,2.8v4.6h-1.4v-4.3c0-1-0.4-1.8-1.7-1.8 c-1.1,0-1.6,0.8-1.7,1.9V20.9zM59.5,16.7l1.9-0.3c0.4-0.1,0.6-0.3,0.6-0.5c0-0.7-0.5-1.3-1.6-1.3c-1,0-1.5,0.6-1.6,1.5l-1.4-0.3 c0.2-1.4,1.4-2.3,3-2.3c2.2,0,3,1.2,3,2.6v3.6c0,0.6,0.1,1,0.1,1.2h-1.4c0-0.2-0.1-0.4-0.1-1c-0.3,0.5-1,1.2-2.3,1.2 c-1.5,0-2.4-1-2.4-2.2C57.3,17.6,58.2,16.9,59.5,16.7z M62,17.8v-0.3l-2.2,0.3c-0.6,0.1-1,0.4-1,1.1c0,0.5,0.4,1.1,1.2,1.1 C61.1,19.9,62,19.3,62,17.8zM70.3,15.1c-0.2,0-0.4,0-0.6,0c-1.2,0-2,0.6-2,2.2v3.6h-1.4v-7.2h1.4v1.3c0.5-1.1,1.4-1.4,2.2-1.4 c0.2,0,0.4,0,0.5,0V15.1zM78.8,18.8c-0.4,1.3-1.6,2.3-3.2,2.3c-1.9,0-3.6-1.4-3.6-3.9c0-2.3,1.6-3.8,3.4-3.8c2.2,0,3.5,1.5,3.5,3.8 c0,0.2,0,0.4,0,0.5h-5.4c0,1.3,1,2.2,2.2,2.2c1.2,0,1.8-0.6,2-1.5L78.8,18.8z M77.4,16.5c0-1-0.7-1.8-2-1.8c-1.2,0-1.9,0.9-2,1.8 H77.4zM86.5,19.8c-0.3,0.7-1.1,1.3-2.2,1.3c-2.1,0-3.4-1.7-3.4-3.8c0-2,1.4-3.8,3.4-3.8c1.3,0,2,0.6,2.2,1.2V10 h1.4v9.5c0,0.7,0.1,1.2,0.1,1.3h-1.4c0-0.2-0.1-0.5-0.1-1V19.8z M84.4,19.8c1.3,0,2.1-1.1,2.1-2.6s-0.8-2.5-2.1-2.5 c-1.3,0-2.1,1-2.1,2.5C82.2,18.7,83,19.8,84.4,19.8zM12,28.2c2,0,3.2,1.2,3.2,2.9c0,1.1-0.7,1.9-1.6,2.3c1.2,0.3,1.9,1.4,1.9,2.6c0,1.7-1.3,2.9-3.3,2.9H8.6 V28.2H12z M11.9,32.9c1.2,0,1.9-0.7,1.9-1.7c0-1-0.7-1.7-1.9-1.7H10v3.4H11.9z M12.1,37.6c1.2,0,2-0.7,2-1.7c0-1-0.6-1.7-1.9-1.7 H10v3.4H12.1zM18.9,27.9c0.6,0,1,0.5,1,1c0,0.6-0.4,1-1,1c-0.6,0-1-0.4-1-1C17.9,28.3,18.3,27.9,18.9,27.9z M18.2,38.9 v-7.2h1.4v7.2H18.2zM24.6,31.6h1.6v1.3h-1.6v3.8c0,0.7,0.3,1,1,1c0.2,0,0.4,0,0.6-0.1v1.2c-0.1,0-0.5,0.1-1,0.1 c-1.2,0-2-0.8-2-2.1v-4h-1.4v-1.3h0.4c0.8,0,1.1-0.5,1.1-1.1v-1.2h1.3V31.6zM28.8,38.9V28h1.4v4.7c0.3-0.6,1.2-1.2,2.4-1.2c2.2,0,3.3,1.7,3.3,3.8c0,2.1-1.2,3.8-3.4,3.8 c-1.1,0-1.9-0.5-2.3-1.2v1H28.8z M32.3,32.7c-1.2,0-2.1,1-2.1,2.5c0,1.6,0.9,2.6,2.1,2.6c1.3,0,2.1-1,2.1-2.6 C34.5,33.7,33.6,32.7,32.3,32.7zM41,39.1c-1.7,0-2.7-1.3-2.7-2.9v-4.5h1.4V36c0,1,0.4,1.9,1.6,1.9c1.1,0,1.7-0.8,1.7-1.8v-4.4h1.4v5.9 c0,0.6,0,1.1,0.1,1.3h-1.4c0-0.2-0.1-0.6-0.1-0.9C42.8,38.7,41.9,39.1,41,39.1zM48.4,35.2c0,1.6,1,2.5,2.2,2.5c1.3,0,1.8-0.9,2-1.5l1.2,0.5c-0.3,1-1.4,2.2-3.3,2.2c-2.1,0-3.6-1.6-3.6-3.8 c0-2.2,1.6-3.8,3.6-3.8c1.9,0,2.9,1.2,3.2,2.3l-1.3,0.5c-0.2-0.7-0.7-1.5-1.9-1.5C49.4,32.7,48.4,33.6,48.4,35.2zM59.6,34.7l3.1,4.2H61l-2.4-3.2l-1,1v2.2h-1.4V28h1.4v6.8l3.1-3.2h1.9L59.6,34.7zM70.8,36.8c-0.4,1.3-1.6,2.3-3.2,2.3c-1.9,0-3.6-1.4-3.6-3.9c0-2.3,1.6-3.8,3.4-3.8c2.2,0,3.5,1.5,3.5,3.8 c0,0.2,0,0.4,0,0.5h-5.4c0,1.3,1,2.2,2.2,2.2c1.2,0,1.8-0.6,2-1.5L70.8,36.8z M69.4,34.5c0-1-0.7-1.8-2-1.8c-1.2,0-1.9,0.9-2,1.8 H69.4zM75.3,31.6h1.6v1.3h-1.6v3.8c0,0.7,0.3,1,1,1c0.2,0,0.4,0,0.6-0.1v1.2c-0.1,0-0.5,0.1-1,0.1 c-1.2,0-2-0.8-2-2.1v-4h-1.4v-1.3h0.4c0.8,0,1.1-0.5,1.1-1.1v-1.2h1.3V31.6zM87.2,34.5h-1.6v4.3h-1.5V28.2h4c2,0,3.3,1.4,3.3,3.2c0,1.5-1,2.7-2.6,3l2.5,4.5h-1.7L87.2,34.5z M87.8,33.2 c1.2,0,2-0.7,2-1.8c0-1.1-0.8-1.8-2-1.8h-2.2v3.6H87.8zM100,36.8c-0.4,1.3-1.6,2.3-3.2,2.3c-1.9,0-3.6-1.4-3.6-3.9c0-2.3,1.6-3.8,3.4-3.8c2.2,0,3.5,1.5,3.5,3.8 c0,0.2,0,0.4,0,0.5h-5.4c0,1.3,1,2.2,2.2,2.2c1.2,0,1.8-0.6,2-1.5L100,36.8z M98.6,34.5c0-1-0.7-1.8-2-1.8c-1.2,0-1.9,0.9-2,1.8 H98.6zM102.6,41.7V31.6h1.4v1.1c0.4-0.7,1.2-1.3,2.4-1.3c2.2,0,3.3,1.7,3.3,3.8c0,2.1-1.2,3.8-3.4,3.8 c-1.1,0-1.9-0.5-2.3-1.2v3.8H102.6z M106.1,32.7c-1.3,0-2.1,1.1-2.1,2.5c0,1.5,0.9,2.5,2.1,2.5c1.3,0,2.1-1.1,2.1-2.5 C108.2,33.8,107.4,32.7,106.1,32.7zM119,35.2c0,2.2-1.5,3.8-3.7,3.8s-3.7-1.6-3.7-3.8c0-2.2,1.5-3.8,3.7-3.8S119,33.1,119,35.2z M117.6,35.2 c0-1.7-1.1-2.6-2.2-2.6s-2.2,0.9-2.2,2.6c0,1.7,1.1,2.6,2.2,2.6S117.6,36.9,117.6,35.2zM719.1,13.1c-0.1-0.8-0.8-1.8-2.2-1.8c-1.2,0-2.1,0.8-2.1,1.8c0,0.8,0.5,1.3,1.4,1.5l1.6,0.3 c1.8,0.4,2.8,1.5,2.8,3c0,1.6-1.4,3.1-3.7,3.1c-2.6,0-3.8-1.6-4-3.2l1.4-0.4c0.1,1.2,0.9,2.3,2.5,2.3c1.5,0,2.2-0.8,2.2-1.7 c0-0.8-0.5-1.4-1.6-1.6l-1.5-0.3c-1.5-0.3-2.6-1.3-2.6-2.9c0-1.7,1.5-3.2,3.5-3.2c2.4,0,3.4,1.5,3.6,2.6L719.1,13.1zM724.5,20.9h-1.4V10h1.4v4.5c0.5-0.8,1.4-1,2.2-1c1.7,0,2.6,1.2,2.6,2.8v4.6h-1.4v-4.3c0-1-0.4-1.8-1.7-1.8 c-1.1,0-1.6,0.8-1.7,1.9V20.9zM734,16.7l1.9-0.3c0.4-0.1,0.6-0.3,0.6-0.5c0-0.7-0.5-1.3-1.6-1.3c-1,0-1.5,0.6-1.6,1.5l-1.4-0.3 c0.2-1.4,1.4-2.3,3-2.3c2.2,0,3,1.2,3,2.6v3.6c0,0.6,0.1,1,0.1,1.2h-1.4c0-0.2-0.1-0.4-0.1-1c-0.3,0.5-1,1.2-2.3,1.2 c-1.5,0-2.4-1-2.4-2.2C731.8,17.6,732.8,16.9,734,16.7z M736.5,17.8v-0.3l-2.2,0.3c-0.6,0.1-1,0.4-1,1.1c0,0.5,0.4,1.1,1.2,1.1 C735.6,19.9,736.5,19.3,736.5,17.8zM744.9,15.1c-0.2,0-0.4,0-0.6,0c-1.2,0-2,0.6-2,2.2v3.6h-1.4v-7.2h1.4v1.3c0.5-1.1,1.4-1.4,2.2-1.4 c0.2,0,0.4,0,0.5,0V15.1zM753.3,18.8c-0.4,1.3-1.6,2.3-3.2,2.3c-1.9,0-3.6-1.4-3.6-3.9c0-2.3,1.6-3.8,3.4-3.8c2.2,0,3.5,1.5,3.5,3.8 c0,0.2,0,0.4,0,0.5h-5.4c0,1.3,1,2.2,2.2,2.2c1.2,0,1.8-0.6,2-1.5L753.3,18.8z M751.9,16.5c0-1-0.7-1.8-2-1.8 c-1.2,0-1.9,0.9-2,1.8H751.9zM761,19.8c-0.3,0.7-1.1,1.3-2.2,1.3c-2.1,0-3.4-1.7-3.4-3.8c0-2,1.4-3.8,3.4-3.8c1.3,0,2,0.6,2.2,1.2V10h1.4 v9.5c0,0.7,0.1,1.2,0.1,1.3h-1.4c0-0.2-0.1-0.5-0.1-1V19.8z M758.9,19.8c1.3,0,2.1-1.1,2.1-2.6s-0.8-2.5-2.1-2.5 c-1.3,0-2.1,1-2.1,2.5C756.8,18.7,757.5,19.8,758.9,19.8zM686.6,28.2c2,0,3.2,1.2,3.2,2.9c0,1.1-0.7,1.9-1.6,2.3c1.2,0.3,1.9,1.4,1.9,2.6c0,1.7-1.3,2.9-3.3,2.9h-3.7 V28.2H686.6z M686.4,32.9c1.2,0,1.9-0.7,1.9-1.7c0-1-0.7-1.7-1.9-1.7h-1.8v3.4H686.4z M686.6,37.6c1.2,0,2-0.7,2-1.7 c0-1-0.6-1.7-1.9-1.7h-2.1v3.4H686.6zM693.4,27.9c0.6,0,1,0.5,1,1c0,0.6-0.4,1-1,1c-0.6,0-1-0.4-1-1C692.4,28.3,692.9,27.9,693.4,27.9z M692.7,38.9v-7.2h1.4v7.2H692.7zM699.2,31.6h1.6v1.3h-1.6v3.8c0,0.7,0.3,1,1,1c0.2,0,0.4,0,0.6-0.1v1.2c-0.1,0-0.5,0.1-1,0.1 c-1.2,0-2-0.8-2-2.1v-4h-1.4v-1.3h0.4c0.8,0,1.1-0.5,1.1-1.1v-1.2h1.3V31.6zM703.4,38.9V28h1.4v4.7c0.3-0.6,1.2-1.2,2.4-1.2c2.2,0,3.3,1.7,3.3,3.8c0,2.1-1.2,3.8-3.4,3.8 c-1.1,0-1.9-0.5-2.3-1.2v1H703.4z M706.9,32.7c-1.2,0-2.1,1-2.1,2.5c0,1.6,0.9,2.6,2.1,2.6c1.3,0,2.1-1,2.1-2.6 C709,33.7,708.2,32.7,706.9,32.7zM715.5,39.1c-1.7,0-2.7-1.3-2.7-2.9v-4.5h1.4V36c0,1,0.4,1.9,1.6,1.9c1.1,0,1.7-0.8,1.7-1.8v-4.4h1.4v5.9 c0,0.6,0,1.1,0.1,1.3h-1.4c0-0.2-0.1-0.6-0.1-0.9C717.3,38.7,716.4,39.1,715.5,39.1zM722.9,35.2c0,1.6,1,2.5,2.2,2.5c1.3,0,1.8-0.9,2-1.5l1.2,0.5c-0.3,1-1.4,2.2-3.3,2.2 c-2.1,0-3.6-1.6-3.6-3.8c0-2.2,1.6-3.8,3.6-3.8c1.9,0,2.9,1.2,3.2,2.3l-1.3,0.5c-0.2-0.7-0.7-1.5-1.9-1.5 C724,32.7,722.9,33.6,722.9,35.2zM734.2,34.7l3.1,4.2h-1.8l-2.4-3.2l-1,1v2.2h-1.4V28h1.4v6.8l3.1-3.2h1.9L734.2,34.7zM745.3,36.8c-0.4,1.3-1.6,2.3-3.2,2.3c-1.9,0-3.6-1.4-3.6-3.9c0-2.3,1.6-3.8,3.4-3.8c2.2,0,3.5,1.5,3.5,3.8 c0,0.2,0,0.4,0,0.5h-5.4c0,1.3,1,2.2,2.2,2.2c1.2,0,1.8-0.6,2-1.5L745.3,36.8z M743.9,34.5c0-1-0.7-1.8-2-1.8 c-1.2,0-1.9,0.9-2,1.8H743.9zM749.8,31.6h1.6v1.3h-1.6v3.8c0,0.7,0.3,1,1,1c0.2,0,0.4,0,0.6-0.1v1.2c-0.1,0-0.5,0.1-1,0.1 c-1.2,0-2-0.8-2-2.1v-4H747v-1.3h0.4c0.8,0,1.1-0.5,1.1-1.1v-1.2h1.3V31.6zM761.7,34.5h-1.6v4.3h-1.5V28.2h4c2,0,3.3,1.4,3.3,3.2c0,1.5-1,2.7-2.6,3l2.5,4.5h-1.7L761.7,34.5z M762.4,33.2c1.2,0,2-0.7,2-1.8c0-1.1-0.8-1.8-2-1.8h-2.2v3.6H762.4zM774.5,36.8c-0.4,1.3-1.6,2.3-3.2,2.3c-1.9,0-3.6-1.4-3.6-3.9c0-2.3,1.6-3.8,3.4-3.8c2.2,0,3.5,1.5,3.5,3.8 c0,0.2,0,0.4,0,0.5h-5.4c0,1.3,1,2.2,2.2,2.2c1.2,0,1.8-0.6,2-1.5L774.5,36.8z M773.1,34.5c0-1-0.7-1.8-2-1.8 c-1.2,0-1.9,0.9-2,1.8H773.1zM777.1,41.7V31.6h1.4v1.1c0.4-0.7,1.2-1.3,2.4-1.3c2.2,0,3.3,1.7,3.3,3.8c0,2.1-1.2,3.8-3.4,3.8 c-1.1,0-1.9-0.5-2.3-1.2v3.8H777.1z M780.6,32.7c-1.3,0-2.1,1.1-2.1,2.5c0,1.5,0.9,2.5,2.1,2.5c1.3,0,2.1-1.1,2.1-2.5 C782.8,33.8,782,32.7,780.6,32.7zM793.5,35.2c0,2.2-1.5,3.8-3.7,3.8s-3.7-1.6-3.7-3.8c0-2.2,1.5-3.8,3.7-3.8S793.5,33.1,793.5,35.2z M792.1,35.2c0-1.7-1.1-2.6-2.2-2.6s-2.2,0.9-2.2,2.6c0,1.7,1.1,2.6,2.2,2.6S792.1,36.9,792.1,35.2z"/><path class="st6" d="M141.6,193.2H84.4c-11.6,0-21-9.4-21-21v-38.9"/><path id="repo1_185_" class="st4" d="M31.6,105.4c0-6.3,14.3-11.3,31.8-11.3s31.8,5.1,31.8,11.3 M31.6,105.4v14.1 c0,1.5,0.9,3,2.4,4.3c4.8,4.1,16.2,7,29.5,7c13.3,0,24.7-2.9,29.5-7c1.5-1.3,2.4-2.8,2.4-4.3v-14.1"/><path class="st26" d="M95.2,105.4c0,6.3-14.2,11.3-31.8,11.3s-31.8-5.1-31.8-11.3c0-6.3,14.3-11.3,31.8-11.3S95.2,99.1,95.2,105.4z"/><path id="repo1_184_" class="st4" d="M31.6,91.3c0-6.3,14.3-11.3,31.8-11.3S95.2,85,95.2,91.3 M31.6,91.3v14.1c0,1.5,0.9,3,2.4,4.3 c4.8,4.1,16.2,7,29.5,7c13.3,0,24.7-2.9,29.5-7c1.5-1.3,2.4-2.8,2.4-4.3V91.3"/><path class="st26" d="M95.2,91.3c0,6.3-14.2,11.3-31.8,11.3s-31.8-5.1-31.8-11.3c0-6.3,14.3-11.3,31.8-11.3S95.2,85,95.2,91.3z"/><path id="repo1_183_" class="st4" d="M31.6,77.2c0-6.3,14.3-11.3,31.8-11.3s31.8,5.1,31.8,11.3 M31.6,77.2v14.1 c0,1.5,0.9,3,2.4,4.3c4.8,4.1,16.2,7,29.5,7c13.3,0,24.7-2.9,29.5-7c1.5-1.3,2.4-2.8,2.4-4.3V77.2"/><path class="st5" d="M95.2,77.2c0,6.3-14.2,11.3-31.8,11.3s-31.8-5.1-31.8-11.3c0-6.3,14.3-11.3,31.8-11.3S95.2,70.9,95.2,77.2z"/><path class="st28" d="M183.6 126.2H279.6V176.2H183.6z"/><path class="st8" d="M217.7,157.2v-4.7h-5.4v4.7h-1.5v-10.6h1.5v4.5h5.4v-4.5h1.5v10.6H217.7zM229.3,153.5c0,2.2-1.5,3.8-3.7,3.8s-3.7-1.6-3.7-3.8c0-2.2,1.5-3.8,3.7-3.8S229.3,151.4,229.3,153.5z M227.8,153.5c0-1.7-1.1-2.6-2.2-2.6s-2.2,0.9-2.2,2.6c0,1.7,1.1,2.6,2.2,2.6S227.8,155.2,227.8,153.5zM233.7,149.9h1.6v1.3h-1.6v3.8c0,0.7,0.3,1,1,1c0.2,0,0.4,0,0.6-0.1v1.2c-0.1,0-0.5,0.1-1,0.1 c-1.2,0-2-0.8-2-2.1v-4h-1.4v-1.3h0.4c0.8,0,1.1-0.5,1.1-1.1v-1.2h1.3V149.9zM241.5,146.4v1.3c-0.1,0-0.3-0.1-0.6-0.1c-0.5,0-1.1,0.2-1.1,1.2v1.2h4.8v7.2h-1.4v-5.9h-3.4v5.9h-1.5v-5.9 h-1.3v-1.3h1.3v-1.2c0-1.6,1.1-2.5,2.4-2.5C241.1,146.3,241.4,146.4,241.5,146.4z M243.8,146.2c0.6,0,1,0.4,1,1c0,0.6-0.4,1-1,1 c-0.6,0-1-0.5-1-1C242.8,146.6,243.2,146.2,243.8,146.2zM249.3,153.5l-2.6-3.5h1.7l1.8,2.5l1.7-2.5h1.7l-2.6,3.5c0.4,0.6,2.2,3.1,2.7,3.7H252l-1.9-2.7l-1.8,2.7 h-1.7L249.3,153.5z"/><path class="st23" d="M183.6 210.2H279.6V260.2H183.6z"/><path class="st8" d="M208,236.8h-1.6v4.3h-1.5v-10.6h4c2,0,3.3,1.4,3.3,3.2c0,1.5-1,2.7-2.6,3l2.5,4.5h-1.7L208,236.8z M208.6,235.5c1.2,0,2-0.7,2-1.8c0-1.1-0.8-1.8-2-1.8h-2.2v3.6H208.6zM220.8,239.1c-0.4,1.3-1.6,2.3-3.2,2.3c-1.9,0-3.6-1.4-3.6-3.9c0-2.3,1.6-3.8,3.4-3.8c2.2,0,3.5,1.5,3.5,3.8 c0,0.2,0,0.4,0,0.5h-5.4c0,1.3,1,2.2,2.2,2.2c1.2,0,1.8-0.6,2-1.5L220.8,239.1z M219.3,236.8c0-1-0.7-1.8-2-1.8 c-1.2,0-1.9,0.9-2,1.8H219.3zM223.3,241.2v-10.9h1.4v10.9H223.3zM234.2,239.1c-0.4,1.3-1.6,2.3-3.2,2.3c-1.9,0-3.6-1.4-3.6-3.9c0-2.3,1.6-3.8,3.4-3.8c2.2,0,3.5,1.5,3.5,3.8 c0,0.2,0,0.4,0,0.5h-5.4c0,1.3,1,2.2,2.2,2.2c1.2,0,1.8-0.6,2-1.5L234.2,239.1z M232.8,236.8c0-1-0.7-1.8-2-1.8 c-1.2,0-1.9,0.9-2,1.8H232.8zM238.5,237l1.9-0.3c0.4-0.1,0.6-0.3,0.6-0.5c0-0.7-0.5-1.3-1.6-1.3c-1,0-1.5,0.6-1.6,1.5l-1.4-0.3 c0.2-1.4,1.4-2.3,3-2.3c2.2,0,3,1.2,3,2.6v3.6c0,0.6,0.1,1,0.1,1.2h-1.4c0-0.2-0.1-0.4-0.1-1c-0.3,0.5-1,1.2-2.3,1.2 c-1.5,0-2.4-1-2.4-2.2C236.3,237.9,237.3,237.2,238.5,237z M241,238.1v-0.3l-2.2,0.3c-0.6,0.1-1,0.4-1,1.1c0,0.5,0.4,1.1,1.2,1.1 C240.1,240.2,241,239.6,241,238.1zM246,238.8c0.1,0.8,0.7,1.3,1.7,1.3c0.8,0,1.2-0.4,1.2-1c0-0.5-0.3-0.8-0.9-0.9l-1.2-0.3 c-1.1-0.2-1.8-1-1.8-2c0-1.2,1.2-2.3,2.6-2.3c2,0,2.6,1.3,2.7,1.9l-1.2,0.5c-0.1-0.4-0.4-1.2-1.5-1.2c-0.7,0-1.2,0.5-1.2,1 c0,0.4,0.3,0.8,0.8,0.9l1.2,0.3c1.3,0.3,2,1.1,2,2.1c0,1-0.9,2.2-2.6,2.2c-2,0-2.8-1.3-2.9-2.1L246,238.8zM259.1,239.1c-0.4,1.3-1.6,2.3-3.2,2.3c-1.9,0-3.6-1.4-3.6-3.9c0-2.3,1.6-3.8,3.4-3.8c2.2,0,3.5,1.5,3.5,3.8 c0,0.2,0,0.4,0,0.5h-5.4c0,1.3,1,2.2,2.2,2.2c1.2,0,1.8-0.6,2-1.5L259.1,239.1z M257.7,236.8c0-1-0.7-1.8-2-1.8 c-1.2,0-1.9,0.9-2,1.8H257.7z"/><path class="st6" d="M162.6,172.2c0-11.6,9.4-21,21-21M162.6,172.2c0,11.6-9.4,21-21,21M162.6,214.2c0-11.6-9.4-21-21-21M162.6,214.2c0,11.6,9.4,21,21,21M321.7,194.5M300.7,215.5c0,11.6-9.4,21-21,21M300.7,215.5c0-11.6,9.4-21,21-21M300.7,173.5c0,11.6,9.4,21,21,21M300.7,173.5c0-11.6-9.4-21-21-21M500.7,173.5c0-11.6,9.4-21,21-21M500.7,173.5c0,11.6-9.4,21-21,21M500.7,215.5c0-11.6-9.4-21-21-21M500.7,215.5c0,11.6,9.4,21,21,21M659.7,193.4h57.2c11.6,0,21-9.4,21-21v-38.9"/><path id="repo1_182_" class="st4" d="M706.1,105.6c0-6.3,14.2-11.3,31.8-11.3s31.8,5.1,31.8,11.3 M706.1,105.6v14.1 c0,1.5,0.9,3,2.4,4.3c4.8,4.1,16.1,7,29.5,7c13.3,0,24.7-2.9,29.5-7c1.5-1.3,2.4-2.8,2.4-4.3v-14.1"/><path class="st26" d="M706.1,105.6c0,6.3,14.2,11.3,31.8,11.3s31.8-5.1,31.8-11.3c0-6.3-14.2-11.3-31.8-11.3 S706.1,99.3,706.1,105.6z"/><path id="repo1_181_" class="st4" d="M706.1,91.5c0-6.3,14.2-11.3,31.8-11.3s31.8,5.1,31.8,11.3 M706.1,91.5v14.1 c0,1.5,0.9,3,2.4,4.3c4.8,4.1,16.1,7,29.5,7c13.3,0,24.7-2.9,29.5-7c1.5-1.3,2.4-2.8,2.4-4.3V91.5"/><path class="st26" d="M706.1,91.5c0,6.3,14.2,11.3,31.8,11.3s31.8-5.1,31.8-11.3c0-6.3-14.2-11.3-31.8-11.3S706.1,85.2,706.1,91.5z"/><path id="repo1_180_" class="st4" d="M706.1,77.4c0-6.3,14.2-11.3,31.8-11.3s31.8,5.1,31.8,11.3 M706.1,77.4v14.1 c0,1.5,0.9,3,2.4,4.3c4.8,4.1,16.1,7,29.5,7c13.3,0,24.7-2.9,29.5-7c1.5-1.3,2.4-2.8,2.4-4.3V77.4"/><path class="st5" d="M706.1,77.4c0,6.3,14.2,11.3,31.8,11.3s31.8-5.1,31.8-11.3c0-6.3-14.2-11.3-31.8-11.3S706.1,71.1,706.1,77.4z"/><path class="st22" d="M521.7 126.4H617.7V176.4H521.7z"/><path class="st19" d="M521.7 210.4H617.7V260.4H521.7z"/><path class="st6" d="M638.7,172.4c0-11.6-9.4-21-21-21M638.7,172.4c0,11.6,9.4,21,21,21M638.7,214.4c0-11.6,9.4-21,21-21M638.7,214.4c0,11.6-9.4,21-21,21"/><path class="st8" d="M541,157.4v-10.6h3.7c2.7,0,5.1,1.8,5.1,5.3c0,3.5-2.4,5.3-5.1,5.3H541z M544.7,156.1c2,0,3.6-1.3,3.6-4 c0-2.7-1.6-4-3.6-4h-2.2v8H544.7zM558.7,155.3c-0.4,1.3-1.6,2.3-3.2,2.3c-1.9,0-3.6-1.4-3.6-3.9c0-2.3,1.6-3.8,3.4-3.8c2.2,0,3.5,1.5,3.5,3.8 c0,0.2,0,0.4,0,0.4h-5.4c0,1.3,1,2.2,2.2,2.2c1.2,0,1.8-0.6,2-1.5L558.7,155.3z M557.3,153c0-1-0.7-1.8-2-1.8 c-1.2,0-1.9,0.9-2,1.8H557.3zM564.5,157.4h-1.4l-2.9-7.2h1.6l2.1,5.6l2.1-5.6h1.5L564.5,157.4zM575.5,155.3c-0.4,1.3-1.6,2.3-3.2,2.3c-1.9,0-3.6-1.4-3.6-3.9c0-2.3,1.6-3.8,3.4-3.8c2.2,0,3.5,1.5,3.5,3.8 c0,0.2,0,0.4,0,0.4h-5.4c0,1.3,1,2.2,2.2,2.2c1.2,0,1.8-0.6,2-1.5L575.5,155.3z M574.1,153c0-1-0.7-1.8-2-1.8 c-1.2,0-1.9,0.9-2,1.8H574.1zM578.1,157.4v-10.9h1.4v10.9H578.1zM589.5,153.8c0,2.2-1.5,3.8-3.7,3.8s-3.7-1.6-3.7-3.8c0-2.2,1.5-3.8,3.7-3.8S589.5,151.6,589.5,153.8z M588,153.8c0-1.7-1.1-2.6-2.2-2.6s-2.2,0.9-2.2,2.6c0,1.7,1.1,2.6,2.2,2.6S588,155.4,588,153.8zM592,160.2v-10.1h1.4v1.1c0.4-0.7,1.2-1.3,2.4-1.3c2.2,0,3.3,1.7,3.3,3.8c0,2.1-1.2,3.8-3.4,3.8 c-1.1,0-1.9-0.5-2.3-1.2v3.8H592z M595.5,151.2c-1.3,0-2.1,1.1-2.1,2.5c0,1.5,0.9,2.5,2.1,2.5c1.3,0,2.1-1.1,2.1-2.5 C597.7,152.3,596.8,151.2,595.5,151.2zM555.4,241.4v-8.3l-3.6,8.3h-1.3l-3.6-8.3v8.3h-1.5v-10.6h2l3.7,8.7l3.8-8.7h2v10.6H555.4zM561.8,237.3l1.9-0.3c0.4-0.1,0.6-0.3,0.6-0.5c0-0.7-0.5-1.3-1.6-1.3c-1,0-1.5,0.6-1.6,1.5l-1.4-0.3 c0.2-1.4,1.4-2.3,3-2.3c2.2,0,3,1.2,3,2.6v3.6c0,0.6,0.1,1,0.1,1.2h-1.4c0-0.2-0.1-0.5-0.1-1c-0.3,0.5-1,1.2-2.3,1.2 c-1.5,0-2.4-1-2.4-2.2C559.6,238.2,560.6,237.4,561.8,237.3z M564.3,238.3V238l-2.2,0.3c-0.6,0.1-1,0.4-1,1.1c0,0.5,0.4,1,1.2,1 C563.4,240.4,564.3,239.9,564.3,238.3zM569.3,239.1c0.1,0.8,0.7,1.3,1.7,1.3c0.8,0,1.2-0.5,1.2-1c0-0.4-0.3-0.8-0.9-0.9l-1.2-0.3 c-1.1-0.2-1.8-1-1.8-2c0-1.2,1.2-2.3,2.6-2.3c2,0,2.6,1.3,2.7,1.9l-1.2,0.5c-0.1-0.4-0.4-1.2-1.5-1.2c-0.7,0-1.2,0.5-1.2,1 c0,0.4,0.3,0.8,0.8,0.9l1.2,0.3c1.3,0.3,2,1.1,2,2.1c0,1-0.9,2.2-2.6,2.2c-2,0-2.8-1.3-2.9-2.1L569.3,239.1zM578.1,234.2h1.6v1.3h-1.6v3.8c0,0.7,0.3,1,1,1c0.2,0,0.4,0,0.6-0.1v1.2c-0.1,0-0.5,0.1-1,0.1 c-1.2,0-2-0.8-2-2.1v-4h-1.4v-1.3h0.4c0.8,0,1.1-0.5,1.1-1.1v-1.2h1.3V234.2zM588.5,239.3c-0.4,1.3-1.6,2.3-3.2,2.3c-1.9,0-3.6-1.4-3.6-3.9c0-2.3,1.6-3.8,3.4-3.8c2.2,0,3.5,1.5,3.5,3.8 c0,0.2,0,0.4,0,0.5h-5.4c0,1.3,1,2.2,2.2,2.2c1.2,0,1.8-0.6,2-1.5L588.5,239.3z M587.1,237c0-1-0.7-1.8-2-1.8 c-1.2,0-1.9,0.9-2,1.8H587.1zM595.1,235.6c-0.2,0-0.4,0-0.6,0c-1.2,0-2,0.6-2,2.2v3.6h-1.4v-7.2h1.4v1.3c0.5-1.1,1.4-1.4,2.2-1.4 c0.2,0,0.4,0,0.5,0V235.6z"/><path class="st6" d="M321.7,194.5h47.2c11.6,0,21-9.4,21-21v-44.7M479.7,194.5h-47.2c-11.6,0-21-9.4-21-21v-44.7"/><circle class="st18" cx="401.4" cy="80.5" r="49.5"/><path class="st6" d="M401.4 87.7L401.4 62.5M391.8 68.4L401.4 58.9 410.9 68.4M390.7,76.6h-11c-1.7,0-3.1,1.4-3.1,3.1v13.9c0,1.7,1.4,3.1,3.1,3.1H423c1.7,0,3.1-1.4,3.1-3.1V79.8 c0-1.7-1.4-3.1-3.1-3.1h-11"/></g></svg>