<svg xmlns="http://www.w3.org/2000/svg" viewBox="0 0 800 224"><style>.st0{display:none;} .st1{display:inline;} .st2{fill:#FFFFFF;} .st3{fill:none;stroke:#9882CE;stroke-width:4;stroke-miterlimit:10;} .st4{fill:#B3E3FF;stroke:#404040;stroke-width:4;stroke-miterlimit:10;} .st5{fill:#FFFFFF;stroke:#404040;stroke-width:4;stroke-miterlimit:10;} .st6{fill:none;stroke:#404040;stroke-width:4;stroke-linecap:round;stroke-linejoin:round;stroke-miterlimit:10;} .st7{fill:#B18BE8;stroke:#404040;stroke-width:4;stroke-linecap:round;stroke-linejoin:round;stroke-miterlimit:10;} .st8{fill:#404040;} .st9{fill:none;stroke:#404040;stroke-width:4;stroke-miterlimit:10;} .st10{fill:#B18BE8;stroke:#404040;stroke-width:4;stroke-miterlimit:10;} .st11{fill:#4ED1A1;stroke:#404040;stroke-width:4;stroke-miterlimit:10;} .st12{fill:none;stroke:#CCCCCC;stroke-width:7;stroke-linecap:round;stroke-linejoin:round;stroke-miterlimit:10;} .st13{fill:#FFFFFF;stroke:#CCCCCC;stroke-width:7;stroke-linecap:round;stroke-linejoin:round;stroke-miterlimit:10;} .st14{fill:none;stroke:#404040;stroke-width:7;stroke-miterlimit:10;} .st15{fill:#B3E3FF;stroke:#404040;stroke-width:7;stroke-miterlimit:10;} .st16{fill:#CCCCCC;} .st17{fill:#FFFFFF;stroke:#404040;stroke-width:4;stroke-linejoin:round;stroke-miterlimit:10;} .st18{fill:#FFFFFF;stroke:#404040;stroke-width:4;stroke-linecap:round;stroke-linejoin:round;stroke-miterlimit:10;} .st19{fill:#B3E3FF;stroke:#404040;stroke-width:4;stroke-linejoin:round;stroke-miterlimit:10;} .st20{fill:none;stroke:#CCCCCC;stroke-linecap:round;stroke-linejoin:round;stroke-miterlimit:10;} .st21{fill:#999999;} .st22{fill:#4ED1A1;stroke:#404040;stroke-width:4;stroke-linecap:round;stroke-linejoin:round;stroke-miterlimit:10;} .st23{fill:#4CD3D6;stroke:#404040;stroke-width:4;stroke-linejoin:round;stroke-miterlimit:10;} .st24{fill:none;stroke:#59AFE1;stroke-width:4;stroke-miterlimit:10;} .st25{fill:#59AFE1;stroke:#404040;stroke-width:4;stroke-linejoin:round;stroke-miterlimit:10;} .st26{fill:#FFFFFF;stroke:#59AFE1;stroke-width:4;stroke-miterlimit:10;} .st27{fill:#B3E3FF;stroke:#404040;stroke-width:4;stroke-linecap:round;stroke-linejoin:round;stroke-miterlimit:10;} .st28{fill:#FC8363;stroke:#404040;stroke-width:4;stroke-linecap:round;stroke-linejoin:round;stroke-miterlimit:10;} .st29{fill:#CCCCCC;stroke:#404040;stroke-width:4;stroke-miterlimit:10;} .st30{fill:#FFFFFF;stroke:#6693ED;stroke-width:4;stroke-miterlimit:10;} .st31{fill:none;stroke:#A97CDD;stroke-width:4;stroke-linecap:round;stroke-linejoin:round;stroke-miterlimit:10;} .st32{fill:none;stroke:#B3E3FF;stroke-width:4;stroke-linecap:round;stroke-linejoin:round;stroke-miterlimit:10;} .st33{fill:none;stroke:#4ED1A1;stroke-width:4;stroke-linecap:round;stroke-miterlimit:10;} .st34{fill:none;stroke:#4ED1A1;stroke-width:4;stroke-linecap:round;stroke-linejoin:round;stroke-miterlimit:10;} .st35{fill:#E24B88;stroke:#404040;stroke-width:4;stroke-linecap:round;stroke-linejoin:round;stroke-miterlimit:10;} .st36{fill:none;stroke:#DEEFF8;stroke-width:4;stroke-miterlimit:10;} .st37{fill:none;stroke:#CCCCCC;stroke-width:4;stroke-linecap:round;stroke-linejoin:round;} .st38{fill:none;stroke:#CCCCCC;stroke-width:4;stroke-linecap:round;stroke-linejoin:round;stroke-dasharray:0,14.3051;} .st39{fill:none;stroke:#CCCCCC;stroke-width:4;stroke-linecap:round;stroke-linejoin:round;stroke-dasharray:0,14.1689;} .st40{fill:none;stroke:#CCCCCC;stroke-width:4;stroke-linecap:round;stroke-linejoin:round;stroke-dasharray:0,13.9788;} .st41{fill:none;stroke:#CCCCCC;stroke-width:4;stroke-linecap:round;stroke-linejoin:round;stroke-dasharray:0,14.7877;} .st42{fill:none;stroke:#CCCCCC;stroke-width:4;stroke-linecap:round;stroke-linejoin:round;stroke-dasharray:0,14.9632;} .st43{fill:none;stroke:#CCCCCC;stroke-width:4;stroke-linecap:round;stroke-linejoin:round;stroke-dasharray:0,12.543;} .st44{fill:none;stroke:#CCCCCC;stroke-width:4;stroke-linecap:round;stroke-linejoin:round;stroke-dasharray:0,13.6844;} .st45{fill:none;stroke:#CCCCCC;stroke-width:4;stroke-linecap:round;stroke-linejoin:round;stroke-dasharray:0,13.7717;} .st46{fill:none;stroke:#CCCCCC;stroke-width:4;stroke-linecap:round;stroke-linejoin:round;stroke-dasharray:0,13.6492;} .st47{fill:none;stroke:#CCCCCC;stroke-width:4;stroke-linecap:round;stroke-linejoin:round;stroke-dasharray:0,13.907;} .st48{fill:#4CD3D6;stroke:#404040;stroke-width:4;stroke-linecap:round;stroke-linejoin:round;stroke-miterlimit:10;} .st49{fill:none;stroke:#CCCCCC;stroke-width:4;stroke-linecap:round;stroke-linejoin:round;stroke-dasharray:0,14.9858;} .st50{fill:none;stroke:#CCCCCC;stroke-width:4;stroke-linecap:round;stroke-linejoin:round;stroke-dasharray:0,14.0118;} .st51{fill:none;stroke:#CCCCCC;stroke-width:4;stroke-linecap:round;stroke-linejoin:round;stroke-dasharray:0,14.1243;} .st52{fill:none;} .st53{fill:#FFFFFF;stroke:#404040;stroke-width:7;stroke-linecap:round;stroke-linejoin:round;stroke-miterlimit:10;} .st54{fill:#59AFE1;stroke:#404040;stroke-width:7;stroke-linejoin:round;stroke-miterlimit:10;} .st55{fill:#E24B88;stroke:#404040;stroke-width:7;stroke-linecap:round;stroke-linejoin:round;stroke-miterlimit:10;} .st56{fill:none;stroke:#404040;stroke-width:7;stroke-linecap:round;stroke-linejoin:round;stroke-miterlimit:10;} .st57{fill:none;stroke:#CCCCCC;stroke-width:4;stroke-linecap:round;stroke-linejoin:round;stroke-miterlimit:10;} .st58{fill:#FFFFFF;stroke:#CCCCCC;stroke-width:4;stroke-linecap:round;stroke-linejoin:round;stroke-miterlimit:10;} .st59{fill:#F5F5F5;} .st60{fill:#3873AE;} .st61{fill:#75706C;} .st62{fill:none;stroke:#B3E3FF;stroke-width:4;stroke-miterlimit:10;} .st63{fill:#6F6F6F;} .st64{fill:none;stroke:#6F6F6F;stroke-width:2;stroke-miterlimit:10;} .st65{fill:none;stroke:#6F6F6F;stroke-width:3;stroke-miterlimit:10;} .st66{fill:#FFFFFF;stroke:#404040;stroke-width:6;stroke-miterlimit:10;} .st67{fill:#B3E3FF;stroke:#404040;stroke-width:6;stroke-miterlimit:10;}</style><g id="workflow_x5F_7"><path class="st8" d="M49.5,19.2V8.5h3.7c2.7,0,5.1,1.8,5.1,5.3c0,3.5-2.4,5.3-5.1,5.3H49.5z M53.1,17.9c2,0,3.6-1.3,3.6-4 c0-2.7-1.6-4-3.6-4H51v8H53.1zM67.2,17.1c-0.4,1.3-1.6,2.3-3.2,2.3c-1.9,0-3.6-1.4-3.6-3.9c0-2.3,1.6-3.8,3.4-3.8c2.2,0,3.5,1.5,3.5,3.8 c0,0.2,0,0.4,0,0.5h-5.4c0,1.3,1,2.2,2.2,2.2c1.2,0,1.8-0.6,2-1.5L67.2,17.1z M65.8,14.8c0-1-0.7-1.8-2-1.8c-1.2,0-1.9,0.9-2,1.8 H65.8zM72.9,19.2h-1.4l-2.9-7.2h1.6l2.1,5.6l2.1-5.6h1.5L72.9,19.2zM84,17.1c-0.4,1.3-1.6,2.3-3.2,2.3c-1.9,0-3.6-1.4-3.6-3.9c0-2.3,1.6-3.8,3.4-3.8c2.2,0,3.5,1.5,3.5,3.8 c0,0.2,0,0.4,0,0.5h-5.4c0,1.3,1,2.2,2.2,2.2c1.2,0,1.8-0.6,2-1.5L84,17.1z M82.5,14.8c0-1-0.7-1.8-2-1.8c-1.2,0-1.9,0.9-2,1.8 H82.5zM86.6,19.2V8.3H88v10.9H86.6zM97.9,15.5c0,2.2-1.5,3.8-3.7,3.8s-3.7-1.6-3.7-3.8c0-2.2,1.5-3.8,3.7-3.8S97.9,13.4,97.9,15.5z M96.5,15.5 c0-1.7-1.1-2.6-2.2-2.6S92,13.9,92,15.5c0,1.7,1,2.6,2.2,2.6S96.5,17.2,96.5,15.5zM100.5,22V11.9h1.4v1.1c0.4-0.7,1.2-1.3,2.4-1.3c2.2,0,3.3,1.7,3.3,3.8c0,2.1-1.2,3.8-3.4,3.8 c-1.1,0-1.9-0.5-2.3-1.2V22H100.5z M104,13c-1.3,0-2.1,1.1-2.1,2.5c0,1.5,0.9,2.6,2.1,2.6c1.3,0,2.1-1.1,2.1-2.6 C106.1,14.1,105.3,13,104,13zM116.4,17.1c-0.4,1.3-1.6,2.3-3.2,2.3c-1.9,0-3.6-1.4-3.6-3.9c0-2.3,1.6-3.8,3.4-3.8c2.2,0,3.5,1.5,3.5,3.8 c0,0.2,0,0.4,0,0.5H111c0,1.3,1,2.2,2.2,2.2c1.2,0,1.8-0.6,2-1.5L116.4,17.1z M115,14.8c0-1-0.7-1.8-2-1.8c-1.2,0-1.9,0.9-2,1.8 H115zM123,13.4c-0.2,0-0.4,0-0.6,0c-1.2,0-2,0.6-2,2.2v3.6H119v-7.2h1.4v1.3c0.5-1.1,1.4-1.4,2.2-1.4 c0.2,0,0.4,0,0.5,0V13.4zM126.1,8.4c0.6,0,1.1,0.5,1.1,1.3c0,1.9-1.2,2.6-2.1,2.7v-0.7c0.7-0.2,1.1-0.8,1.2-1.5c0,0-0.2,0.1-0.3,0.1 c-0.5,0-0.9-0.4-0.9-1C125.1,8.8,125.5,8.4,126.1,8.4zM129.6,16.8c0.1,0.8,0.7,1.3,1.7,1.3c0.8,0,1.2-0.5,1.2-1c0-0.4-0.3-0.8-0.9-0.9l-1.2-0.3 c-1.1-0.2-1.8-1-1.8-2c0-1.2,1.2-2.3,2.6-2.3c2,0,2.6,1.3,2.7,1.9l-1.2,0.5c-0.1-0.4-0.4-1.2-1.5-1.2c-0.7,0-1.2,0.5-1.2,1 c0,0.4,0.3,0.8,0.8,0.9l1.2,0.3c1.3,0.3,2,1.1,2,2.1c0,1-0.9,2.2-2.6,2.2c-2,0-2.8-1.3-2.9-2.1L129.6,16.8zM42.2,26.5c2,0,3.2,1.2,3.2,2.9c0,1.1-0.7,2-1.6,2.3c1.2,0.3,1.9,1.4,1.9,2.6c0,1.7-1.3,2.9-3.3,2.9h-3.7 V26.5H42.2z M42.1,31.2c1.2,0,1.9-0.7,1.9-1.7c0-1-0.7-1.7-1.9-1.7h-1.8v3.4H42.1z M42.3,35.9c1.2,0,2-0.7,2-1.7 c0-1-0.6-1.7-1.9-1.7h-2.1v3.4H42.3zM49.1,26.2c0.6,0,1,0.5,1,1c0,0.6-0.4,1-1,1c-0.6,0-1-0.5-1-1C48.1,26.6,48.5,26.2,49.1,26.2z M48.4,37.2 v-7.2h1.4v7.2H48.4zM54.8,29.9h1.6v1.3h-1.6V35c0,0.7,0.3,1,1,1c0.2,0,0.4,0,0.6-0.1v1.2c-0.1,0-0.5,0.1-1,0.1 c-1.2,0-2-0.8-2-2.1v-4H52v-1.3h0.4c0.8,0,1.1-0.5,1.1-1.1v-1.2h1.3V29.9zM59,37.2V26.3h1.4V31c0.3-0.6,1.2-1.2,2.4-1.2c2.2,0,3.3,1.7,3.3,3.8c0,2.1-1.2,3.8-3.4,3.8 c-1.1,0-1.9-0.5-2.3-1.2v1H59z M62.5,31c-1.2,0-2.1,1-2.1,2.5c0,1.6,0.9,2.6,2.1,2.6c1.3,0,2.1-1,2.1-2.6 C64.7,32,63.8,31,62.5,31zM71.2,37.4c-1.7,0-2.7-1.3-2.7-2.9v-4.5h1.4v4.3c0,1,0.4,1.9,1.6,1.9c1.1,0,1.7-0.8,1.7-1.8v-4.3h1.4v5.9 c0,0.6,0,1.1,0.1,1.3h-1.4c0-0.2-0.1-0.6-0.1-0.9C72.9,37,72,37.4,71.2,37.4zM78.6,33.5c0,1.7,1,2.5,2.2,2.5c1.3,0,1.8-0.9,2-1.5l1.2,0.5c-0.3,1-1.4,2.2-3.3,2.2c-2.1,0-3.6-1.6-3.6-3.8 c0-2.2,1.6-3.8,3.6-3.8c1.9,0,2.9,1.2,3.2,2.3l-1.3,0.5C82.5,31.8,82,31,80.8,31C79.6,31,78.6,31.9,78.6,33.5zM89.8,33l3.1,4.2h-1.8L88.8,34l-1,1v2.2h-1.4V26.3h1.4v6.8l3.1-3.2h1.9L89.8,33zM101,35.1c-0.4,1.3-1.6,2.3-3.2,2.3c-1.9,0-3.6-1.4-3.6-3.9c0-2.3,1.6-3.8,3.4-3.8c2.2,0,3.5,1.5,3.5,3.8 c0,0.2,0,0.4,0,0.5h-5.4c0,1.3,1,2.2,2.2,2.2c1.2,0,1.8-0.6,2-1.5L101,35.1z M99.6,32.8c0-1-0.7-1.8-2-1.8c-1.2,0-1.9,0.9-2,1.8 H99.6zM105.5,29.9h1.6v1.3h-1.6V35c0,0.7,0.3,1,1,1c0.2,0,0.4,0,0.6-0.1v1.2c-0.1,0-0.5,0.1-1,0.1 c-1.2,0-2-0.8-2-2.1v-4h-1.4v-1.3h0.4c0.8,0,1.1-0.5,1.1-1.1v-1.2h1.3V29.9zM117.4,32.8h-1.6v4.3h-1.5V26.5h4c2,0,3.3,1.4,3.3,3.2c0,1.5-1,2.7-2.6,3l2.5,4.5h-1.7L117.4,32.8z M118,31.5c1.2,0,2-0.7,2-1.8c0-1.1-0.8-1.8-2-1.8h-2.2v3.6H118zM130.2,35.1c-0.4,1.3-1.6,2.3-3.2,2.3c-1.9,0-3.6-1.4-3.6-3.9c0-2.3,1.6-3.8,3.4-3.8c2.2,0,3.5,1.5,3.5,3.8 c0,0.2,0,0.4,0,0.5h-5.4c0,1.3,1,2.2,2.2,2.2c1.2,0,1.8-0.6,2-1.5L130.2,35.1z M128.7,32.8c0-1-0.7-1.8-2-1.8 c-1.2,0-1.9,0.9-2,1.8H128.7zM132.8,40V29.9h1.4v1.1c0.4-0.7,1.2-1.3,2.4-1.3c2.2,0,3.3,1.7,3.3,3.8c0,2.1-1.2,3.8-3.4,3.8 c-1.1,0-1.9-0.5-2.3-1.2V40H132.8z M136.3,31c-1.3,0-2.1,1.1-2.1,2.5c0,1.5,0.9,2.6,2.1,2.6c1.3,0,2.1-1.1,2.1-2.6 C138.4,32.1,137.6,31,136.3,31zM149.2,33.5c0,2.2-1.5,3.8-3.7,3.8s-3.7-1.6-3.7-3.8c0-2.2,1.5-3.8,3.7-3.8S149.2,31.4,149.2,33.5z M147.7,33.5c0-1.7-1.1-2.6-2.2-2.6s-2.2,0.9-2.2,2.6c0,1.7,1.1,2.6,2.2,2.6S147.7,35.2,147.7,33.5zM686.1,8.3c2.7,0,5.3,2,5.3,5.5c0,3.6-2.7,5.5-5.3,5.5c-2.7,0-5.3-2-5.3-5.5C680.8,10.3,683.4,8.3,686.1,8.3 z M686.1,18c2,0,3.8-1.4,3.8-4.2c0-2.8-1.9-4.2-3.8-4.2c-2,0-3.8,1.4-3.8,4.2C682.3,16.6,684.1,18,686.1,18zM694.5,10.7c0-1.6,1.1-2.5,2.4-2.5c0.5,0,0.8,0.1,0.8,0.2v1.3c-0.1,0-0.3-0.1-0.6-0.1 c-0.5,0-1.1,0.2-1.1,1.2v1.1h3.3v-1.2c0-1.6,1.1-2.5,2.4-2.5c0.5,0,0.8,0.1,0.8,0.2v1.3c-0.1,0-0.3-0.1-0.6-0.1 c-0.5,0-1.1,0.2-1.1,1.2v1.1h4.8v7.2h-1.4v-5.9h-3.4v5.9h-1.5v-5.9h-3.3v5.9h-1.5v-5.9h-1.3v-1.3h1.3V10.7z M704.8,8.2 c0.6,0,1,0.4,1,1c0,0.6-0.4,1-1,1c-0.6,0-1-0.5-1-1C703.7,8.6,704.2,8.2,704.8,8.2zM709.4,15.5c0,1.7,1,2.5,2.2,2.5c1.3,0,1.8-0.9,2-1.5l1.2,0.5c-0.3,1-1.4,2.2-3.3,2.2 c-2.1,0-3.6-1.6-3.6-3.8c0-2.2,1.6-3.8,3.6-3.8c1.9,0,2.9,1.2,3.2,2.3l-1.3,0.5c-0.2-0.7-0.7-1.5-1.9-1.5 C710.5,13,709.4,13.9,709.4,15.5zM718,8.2c0.6,0,1,0.5,1,1c0,0.6-0.4,1-1,1c-0.6,0-1-0.5-1-1C717,8.6,717.4,8.2,718,8.2z M717.3,19.2v-7.2 h1.4v7.2H717.3zM723.6,15l1.9-0.3c0.4-0.1,0.6-0.3,0.6-0.5c0-0.7-0.5-1.3-1.6-1.3c-1,0-1.5,0.6-1.6,1.5l-1.4-0.3 c0.2-1.4,1.4-2.3,3-2.3c2.2,0,3,1.2,3,2.6V18c0,0.6,0.1,1,0.1,1.2h-1.4c0-0.2-0.1-0.5-0.1-1c-0.3,0.5-1,1.2-2.3,1.2 c-1.5,0-2.4-1-2.4-2.2C721.4,15.9,722.3,15.2,723.6,15z M726.1,16.1v-0.3l-2.2,0.3c-0.6,0.1-1,0.4-1,1.1c0,0.5,0.4,1,1.2,1 C725.2,18.2,726.1,17.6,726.1,16.1zM730.4,19.2V8.3h1.4v10.9H730.4zM662.1,32.8v4.3h-1.5V26.5h3.9c2,0,3.3,1.4,3.3,3.2c0,1.8-1.3,3.1-3.3,3.1H662.1z M664.2,31.5 c1.3,0,2.1-0.7,2.1-1.8c0-1.1-0.8-1.8-2.1-1.8h-2.1v3.6H664.2zM674,31.4c-0.2,0-0.4,0-0.6,0c-1.2,0-2,0.6-2,2.2v3.6H670v-7.2h1.4v1.3c0.5-1.1,1.4-1.4,2.2-1.4 c0.2,0,0.4,0,0.5,0V31.4zM682.9,33.5c0,2.2-1.5,3.8-3.7,3.8s-3.7-1.6-3.7-3.8c0-2.2,1.5-3.8,3.7-3.8S682.9,31.4,682.9,33.5z M681.5,33.5c0-1.7-1.1-2.6-2.2-2.6s-2.2,0.9-2.2,2.6c0,1.7,1,2.6,2.2,2.6S681.5,35.2,681.5,33.5zM685.5,29.9h1.4V38c0,1.3-0.8,2.2-2,2.2c-0.5,0-0.8-0.1-0.8-0.1v-1.2c0.1,0,0.2,0,0.5,0c0.7,0,1-0.4,1-1.1 V29.9z M686.2,26.2c0.6,0,1,0.4,1,1c0,0.6-0.4,1-1,1c-0.6,0-1-0.5-1-1C685.2,26.6,685.6,26.2,686.2,26.2zM696.3,35.1c-0.4,1.3-1.6,2.3-3.2,2.3c-1.9,0-3.6-1.4-3.6-3.9c0-2.3,1.6-3.8,3.4-3.8c2.2,0,3.5,1.5,3.5,3.8 c0,0.2,0,0.4,0,0.5h-5.4c0,1.3,1,2.2,2.2,2.2c1.2,0,1.8-0.6,2-1.5L696.3,35.1z M694.9,32.8c0-1-0.7-1.8-2-1.8 c-1.2,0-1.9,0.9-2,1.8H694.9zM699.8,33.5c0,1.7,1,2.5,2.2,2.5c1.3,0,1.8-0.9,2-1.5l1.2,0.5c-0.3,1-1.4,2.2-3.3,2.2 c-2.1,0-3.6-1.6-3.6-3.8c0-2.2,1.6-3.8,3.6-3.8c1.9,0,2.9,1.2,3.2,2.3l-1.3,0.5c-0.2-0.7-0.7-1.5-1.9-1.5 C700.8,31,699.8,31.9,699.8,33.5zM709.5,29.9h1.6v1.3h-1.6V35c0,0.7,0.3,1,1,1c0.2,0,0.4,0,0.6-0.1v1.2c-0.1,0-0.5,0.1-1,0.1 c-1.2,0-2-0.8-2-2.1v-4h-1.4v-1.3h0.4c0.8,0,1.1-0.5,1.1-1.1v-1.2h1.3V29.9zM721.4,32.8h-1.6v4.3h-1.5V26.5h4c2,0,3.3,1.4,3.3,3.2c0,1.5-1,2.7-2.6,3l2.5,4.5h-1.7L721.4,32.8z M722.1,31.5c1.2,0,2-0.7,2-1.8c0-1.1-0.8-1.8-2-1.8h-2.2v3.6H722.1zM734.2,35.1c-0.4,1.3-1.6,2.3-3.2,2.3c-1.9,0-3.6-1.4-3.6-3.9c0-2.3,1.6-3.8,3.4-3.8c2.2,0,3.5,1.5,3.5,3.8 c0,0.2,0,0.4,0,0.5h-5.4c0,1.3,1,2.2,2.2,2.2c1.2,0,1.8-0.6,2-1.5L734.2,35.1z M732.8,32.8c0-1-0.7-1.8-2-1.8 c-1.2,0-1.9,0.9-2,1.8H732.8zM736.8,40V29.9h1.4v1.1c0.4-0.7,1.2-1.3,2.4-1.3c2.2,0,3.3,1.7,3.3,3.8c0,2.1-1.2,3.8-3.4,3.8 c-1.1,0-1.9-0.5-2.3-1.2V40H736.8z M740.3,31c-1.3,0-2.1,1.1-2.1,2.5c0,1.5,0.9,2.6,2.1,2.6c1.3,0,2.1-1.1,2.1-2.6 C742.5,32.1,741.7,31,740.3,31zM753.2,33.5c0,2.2-1.5,3.8-3.7,3.8s-3.7-1.6-3.7-3.8c0-2.2,1.5-3.8,3.7-3.8S753.2,31.4,753.2,33.5z M751.8,33.5c0-1.7-1.1-2.6-2.2-2.6s-2.2,0.9-2.2,2.6c0,1.7,1.1,2.6,2.2,2.6S751.8,35.2,751.8,33.5z"/><path class="st6" d="M193.8,191.1h-79.2c-11.6,0-21-9.4-21-21v-38.9M510.3,191.1h-79.2c-11.6,0-21-9.4-21-21v-38.9M289.4,191.1h79.2c11.6,0,21-9.4,21-21v-38.9"/><path id="repo1_191_" class="st4" d="M61.8,103.3C61.8,97.1,76,92,93.6,92s31.8,5.1,31.8,11.3 M61.8,103.3v14.1 c0,1.5,0.9,3,2.4,4.3c4.8,4.1,16.2,7,29.5,7c13.3,0,24.7-2.9,29.5-7c1.5-1.3,2.4-2.8,2.4-4.3v-14.1"/><path class="st26" d="M125.4,103.3c0,6.3-14.2,11.3-31.8,11.3s-31.8-5.1-31.8-11.3C61.8,97.1,76,92,93.6,92S125.4,97.1,125.4,103.3 z"/><path id="repo1_190_" class="st4" d="M61.8,89.2c0-6.3,14.3-11.3,31.8-11.3s31.8,5.1,31.8,11.3 M61.8,89.2v14.1 c0,1.5,0.9,3,2.4,4.3c4.8,4.1,16.2,7,29.5,7c13.3,0,24.7-2.9,29.5-7c1.5-1.3,2.4-2.8,2.4-4.3V89.2"/><path class="st26" d="M125.4,89.2c0,6.3-14.2,11.3-31.8,11.3s-31.8-5.1-31.8-11.3c0-6.3,14.3-11.3,31.8-11.3S125.4,83,125.4,89.2z"/><path id="repo1_189_" class="st4" d="M61.8,75.1c0-6.3,14.3-11.3,31.8-11.3s31.8,5.1,31.8,11.3 M61.8,75.1v14.1 c0,1.5,0.9,3,2.4,4.3c4.8,4.1,16.2,7,29.5,7c13.3,0,24.7-2.9,29.5-7c1.5-1.3,2.4-2.8,2.4-4.3V75.1"/><path class="st5" d="M125.4,75.1c0,6.3-14.2,11.3-31.8,11.3s-31.8-5.1-31.8-11.3c0-6.3,14.3-11.3,31.8-11.3S125.4,68.9,125.4,75.1z"/><path class="st7" d="M193.8 166.1H289.8V216.1H193.8z"/><path class="st8" d="M215.4,197.1v-10.6h6.5v1.4h-5v3.4h4.5v1.4h-4.5v4.5H215.4zM230,195.1c-0.4,1.3-1.6,2.3-3.2,2.3c-1.9,0-3.6-1.4-3.6-3.9c0-2.3,1.6-3.8,3.4-3.8c2.2,0,3.5,1.5,3.5,3.8 c0,0.2,0,0.4,0,0.4h-5.4c0,1.3,1,2.2,2.2,2.2c1.2,0,1.8-0.6,2-1.5L230,195.1z M228.6,192.8c0-1-0.7-1.8-2-1.8 c-1.2,0-1.9,0.9-2,1.8H228.6zM234.4,193l1.9-0.3c0.4-0.1,0.6-0.3,0.6-0.5c0-0.7-0.5-1.3-1.6-1.3c-1,0-1.5,0.6-1.6,1.5l-1.4-0.3 c0.2-1.4,1.4-2.3,3-2.3c2.2,0,3,1.2,3,2.6v3.6c0,0.6,0.1,1,0.1,1.2H237c0-0.2-0.1-0.5-0.1-1c-0.3,0.5-1,1.2-2.3,1.2 c-1.5,0-2.4-1-2.4-2.2C232.2,193.9,233.1,193.2,234.4,193z M236.9,194v-0.3l-2.2,0.3c-0.6,0.1-1.1,0.4-1.1,1.1c0,0.5,0.4,1,1.2,1 C235.9,196.2,236.9,195.6,236.9,194zM243.1,189.9h1.6v1.3h-1.6v3.8c0,0.7,0.3,1,1,1c0.2,0,0.4,0,0.6-0.1v1.2c-0.1,0-0.5,0.1-1,0.1 c-1.2,0-2-0.8-2-2.1v-4h-1.4v-1.3h0.4c0.8,0,1.1-0.5,1.1-1.1v-1.2h1.3V189.9zM249.9,197.4c-1.7,0-2.7-1.3-2.7-2.9v-4.5h1.4v4.3c0,1,0.4,1.9,1.6,1.9c1.1,0,1.7-0.8,1.7-1.8v-4.4h1.4v5.9 c0,0.6,0,1.1,0.1,1.3h-1.4c0-0.2-0.1-0.6-0.1-0.9C251.7,197,250.8,197.4,249.9,197.4zM260.5,191.3c-0.2,0-0.4,0-0.6,0c-1.2,0-2,0.6-2,2.2v3.6h-1.4v-7.2h1.4v1.3c0.5-1.1,1.4-1.4,2.2-1.4 c0.2,0,0.4,0,0.5,0V191.3zM269,195.1c-0.4,1.3-1.6,2.3-3.2,2.3c-1.9,0-3.6-1.4-3.6-3.9c0-2.3,1.6-3.8,3.4-3.8c2.2,0,3.5,1.5,3.5,3.8 c0,0.2,0,0.4,0,0.4h-5.4c0,1.3,1,2.2,2.2,2.2c1.2,0,1.8-0.6,2-1.5L269,195.1z M267.6,192.8c0-1-0.7-1.8-2-1.8 c-1.2,0-1.9,0.9-2,1.8H267.6z"/><path class="st6" d="M331.9,192.5M606.3,191.1h79.2c11.6,0,21-9.4,21-21v-38.9M648.8,192.5M520.9,192.5M520.9,192.5"/><path id="repo1_188_" class="st4" d="M674.7,103.5c0-6.3,14.2-11.3,31.8-11.3c17.6,0,31.8,5.1,31.8,11.3 M674.7,103.5v14.1 c0,1.5,0.9,3,2.4,4.3c4.8,4.1,16.1,7,29.5,7c13.3,0,24.7-2.9,29.5-7c1.5-1.3,2.4-2.8,2.4-4.3v-14.1"/><path class="st26" d="M674.7,103.5c0,6.3,14.2,11.3,31.8,11.3c17.6,0,31.8-5.1,31.8-11.3c0-6.3-14.2-11.3-31.8-11.3 C689,92.2,674.7,97.3,674.7,103.5z"/><path id="repo1_187_" class="st4" d="M674.7,89.5c0-6.3,14.2-11.3,31.8-11.3c17.6,0,31.8,5.1,31.8,11.3 M674.7,89.5v14.1 c0,1.5,0.9,3,2.4,4.3c4.8,4.1,16.1,7,29.5,7c13.3,0,24.7-2.9,29.5-7c1.5-1.3,2.4-2.8,2.4-4.3V89.5"/><path class="st26" d="M674.7,89.5c0,6.3,14.2,11.3,31.8,11.3c17.6,0,31.8-5.1,31.8-11.3c0-6.3-14.2-11.3-31.8-11.3 C689,78.1,674.7,83.2,674.7,89.5z"/><path id="repo1_186_" class="st4" d="M674.7,75.4c0-6.3,14.2-11.3,31.8-11.3c17.6,0,31.8,5.1,31.8,11.3 M674.7,75.4v14.1 c0,1.5,0.9,3,2.4,4.3c4.8,4.1,16.1,7,29.5,7c13.3,0,24.7-2.9,29.5-7c1.5-1.3,2.4-2.8,2.4-4.3V75.4"/><path class="st5" d="M674.7,75.4c0,6.3,14.2,11.3,31.8,11.3c17.6,0,31.8-5.1,31.8-11.3c0-6.3-14.2-11.3-31.8-11.3 C689,64,674.7,69.1,674.7,75.4z"/><path class="st27" d="M510.3 167.5H606.3V217.5H510.3z"/><path class="st8" d="M544,198.5v-8.3l-3.6,8.3H539l-3.6-8.3v8.3H534v-10.6h2l3.7,8.7l3.8-8.7h2v10.6H544zM550.4,194.3l1.9-0.3c0.4-0.1,0.6-0.3,0.6-0.5c0-0.7-0.5-1.3-1.6-1.3c-1,0-1.5,0.6-1.6,1.5l-1.4-0.3 c0.2-1.4,1.4-2.3,3-2.3c2.2,0,3,1.2,3,2.6v3.6c0,0.6,0.1,1,0.1,1.2h-1.4c0-0.2-0.1-0.5-0.1-1c-0.3,0.5-1,1.2-2.3,1.2 c-1.5,0-2.4-1-2.4-2.2C548.3,195.2,549.2,194.5,550.4,194.3z M552.9,195.4v-0.3l-2.2,0.3c-0.6,0.1-1,0.4-1,1.1c0,0.5,0.4,1,1.2,1 C552,197.5,552.9,197,552.9,195.4zM557.9,196.1c0.1,0.8,0.7,1.3,1.7,1.3c0.8,0,1.2-0.4,1.2-1c0-0.5-0.3-0.8-0.9-0.9l-1.2-0.3 c-1.1-0.2-1.8-1-1.8-2c0-1.2,1.2-2.3,2.6-2.3c2,0,2.6,1.3,2.7,1.9l-1.2,0.5c-0.1-0.4-0.4-1.2-1.5-1.2c-0.7,0-1.2,0.5-1.2,1 c0,0.4,0.3,0.8,0.8,0.9l1.2,0.3c1.3,0.3,2,1.1,2,2.1c0,1-0.9,2.2-2.6,2.2c-2,0-2.8-1.3-2.9-2.1L557.9,196.1zM566.7,191.3h1.6v1.3h-1.6v3.8c0,0.7,0.3,1,1,1c0.2,0,0.4,0,0.6-0.1v1.2c-0.1,0-0.5,0.1-1,0.1 c-1.2,0-2-0.8-2-2.1v-4h-1.4v-1.3h0.4c0.8,0,1.1-0.5,1.1-1.1V189h1.3V191.3zM577.1,196.4c-0.4,1.3-1.6,2.3-3.2,2.3c-1.9,0-3.6-1.4-3.6-3.9c0-2.3,1.6-3.8,3.4-3.8c2.2,0,3.5,1.5,3.5,3.8 c0,0.2,0,0.4,0,0.4h-5.4c0,1.3,1,2.2,2.2,2.2c1.2,0,1.8-0.6,2-1.5L577.1,196.4z M575.7,194.1c0-1-0.7-1.8-2-1.8 c-1.2,0-1.9,0.9-2,1.8H575.7zM583.7,192.7c-0.2,0-0.4,0-0.6,0c-1.2,0-2,0.6-2,2.2v3.6h-1.4v-7.2h1.4v1.3c0.5-1.1,1.4-1.4,2.2-1.4 c0.2,0,0.4,0,0.5,0V192.7z"/><circle class="st18" cx="400.4" cy="82.4" r="49.5"/><path class="st6" d="M400.4 89.6L400.4 64.4M390.9 70.3L400.4 60.8 410 70.3M389.8,78.5h-11c-1.7,0-3.1,1.4-3.1,3.1v13.9c0,1.7,1.4,3.1,3.1,3.1h43.3c1.7,0,3.1-1.4,3.1-3.1V81.7 c0-1.7-1.4-3.1-3.1-3.1h-11"/></g></svg>