<svg xmlns="http://www.w3.org/2000/svg" viewBox="0 0 800 156"><style>.st0{display:none;} .st1{display:inline;} .st2{fill:#FFFFFF;} .st3{fill:none;stroke:#9882CE;stroke-width:4;stroke-miterlimit:10;} .st4{fill:#FFFFFF;stroke:#404040;stroke-width:4;stroke-linecap:round;stroke-linejoin:round;stroke-miterlimit:10;} .st5{fill:#FFFFFF;stroke:#404040;stroke-width:4;stroke-miterlimit:10;} .st6{fill:#B3E3FF;stroke:#404040;stroke-width:4;stroke-miterlimit:10;} .st7{fill:#B18BE8;stroke:#404040;stroke-width:4;stroke-miterlimit:10;} .st8{fill:#FFFFFF;stroke:#404040;stroke-width:6;stroke-miterlimit:10;} .st9{fill:#B3E3FF;stroke:#404040;stroke-width:6;stroke-miterlimit:10;} .st10{fill:#404040;} .st11{fill:none;stroke:#404040;stroke-width:4;stroke-linecap:round;stroke-linejoin:round;stroke-miterlimit:10;} .st12{fill:#B18BE8;stroke:#404040;stroke-width:4;stroke-linecap:round;stroke-linejoin:round;stroke-miterlimit:10;} .st13{fill:#444444;} .st14{fill:none;stroke:#404040;stroke-width:4;stroke-miterlimit:10;} .st15{fill:#4ED1A1;stroke:#404040;stroke-width:4;stroke-miterlimit:10;} .st16{fill:none;stroke:#CCCCCC;stroke-width:7;stroke-linecap:round;stroke-linejoin:round;stroke-miterlimit:10;} .st17{fill:#FFFFFF;stroke:#CCCCCC;stroke-width:7;stroke-linecap:round;stroke-linejoin:round;stroke-miterlimit:10;} .st18{fill:none;stroke:#404040;stroke-width:7;stroke-miterlimit:10;} .st19{fill:#B3E3FF;stroke:#404040;stroke-width:7;stroke-miterlimit:10;} .st20{fill:none;stroke:#CCCCCC;stroke-width:8;stroke-linecap:round;stroke-miterlimit:10;} .st21{fill:none;stroke:#404040;stroke-width:8;stroke-linecap:round;stroke-miterlimit:10;} .st22{fill:#FFFFFF;stroke:#404040;stroke-width:4;stroke-linejoin:round;stroke-miterlimit:10;} .st23{fill:#B3E3FF;stroke:#404040;stroke-width:4;stroke-linejoin:round;stroke-miterlimit:10;} .st24{fill:none;stroke:#CCCCCC;stroke-linecap:round;stroke-linejoin:round;stroke-miterlimit:10;} .st25{fill:#999999;} .st26{fill:#4ED1A1;stroke:#404040;stroke-width:4;stroke-linecap:round;stroke-linejoin:round;stroke-miterlimit:10;} .st27{fill:#4CD3D6;stroke:#404040;stroke-width:4;stroke-linejoin:round;stroke-miterlimit:10;} .st28{fill:none;stroke:#59AFE1;stroke-width:4;stroke-miterlimit:10;} .st29{fill:#59AFE1;stroke:#404040;stroke-width:4;stroke-linejoin:round;stroke-miterlimit:10;} .st30{fill:none;stroke:#404040;stroke-width:8;stroke-linecap:round;stroke-linejoin:round;stroke-miterlimit:10;stroke-dasharray:0,30;} .st31{fill:#FFFFFF;stroke:#59AFE1;stroke-width:4;stroke-miterlimit:10;} .st32{fill:#FC8363;stroke:#404040;stroke-width:4;stroke-linecap:round;stroke-linejoin:round;stroke-miterlimit:10;} .st33{fill:#CCCCCC;stroke:#404040;stroke-width:4;stroke-miterlimit:10;} .st34{fill:#FFFFFF;stroke:#6693ED;stroke-width:4;stroke-miterlimit:10;} .st35{fill:none;stroke:#A97CDD;stroke-width:4;stroke-linecap:round;stroke-linejoin:round;stroke-miterlimit:10;} .st36{fill:none;stroke:#B3E3FF;stroke-width:4;stroke-linecap:round;stroke-linejoin:round;stroke-miterlimit:10;} .st37{fill:none;stroke:#4ED1A1;stroke-width:4;stroke-linecap:round;stroke-miterlimit:10;} .st38{fill:none;stroke:#4ED1A1;stroke-width:4;stroke-linecap:round;stroke-linejoin:round;stroke-miterlimit:10;} .st39{fill:#E24B88;stroke:#404040;stroke-width:4;stroke-linecap:round;stroke-linejoin:round;stroke-miterlimit:10;} .st40{fill:none;stroke:#DEEFF8;stroke-width:4;stroke-miterlimit:10;} .st41{fill:none;stroke:#CCCCCC;stroke-width:4;stroke-linecap:round;stroke-linejoin:round;} .st42{fill:none;stroke:#CCCCCC;stroke-width:4;stroke-linecap:round;stroke-linejoin:round;stroke-dasharray:0,14.3051;} .st43{fill:none;stroke:#CCCCCC;stroke-width:4;stroke-linecap:round;stroke-linejoin:round;stroke-dasharray:0,14.1689;} .st44{fill:none;stroke:#CCCCCC;stroke-width:4;stroke-linecap:round;stroke-linejoin:round;stroke-dasharray:0,13.9788;} .st45{fill:none;stroke:#CCCCCC;stroke-width:4;stroke-linecap:round;stroke-linejoin:round;stroke-dasharray:0,14.7877;} .st46{fill:none;stroke:#CCCCCC;stroke-width:4;stroke-linecap:round;stroke-linejoin:round;stroke-dasharray:0,14.9632;} .st47{fill:#B3E3FF;stroke:#404040;stroke-width:4;stroke-linecap:round;stroke-linejoin:round;stroke-miterlimit:10;} .st48{fill:none;stroke:#CCCCCC;stroke-width:4;stroke-linecap:round;stroke-linejoin:round;stroke-dasharray:0,12.543;} .st49{fill:none;stroke:#CCCCCC;stroke-width:4;stroke-linecap:round;stroke-linejoin:round;stroke-dasharray:0,13.6844;} .st50{fill:none;stroke:#CCCCCC;stroke-width:4;stroke-linecap:round;stroke-linejoin:round;stroke-dasharray:0,13.7717;} .st51{fill:none;stroke:#CCCCCC;stroke-width:4;stroke-linecap:round;stroke-linejoin:round;stroke-dasharray:0,13.6492;} .st52{fill:none;stroke:#CCCCCC;stroke-width:4;stroke-linecap:round;stroke-linejoin:round;stroke-dasharray:0,13.907;} .st53{fill:#4CD3D6;stroke:#404040;stroke-width:4;stroke-linecap:round;stroke-linejoin:round;stroke-miterlimit:10;} .st54{fill:none;stroke:#CCCCCC;stroke-width:4;stroke-linecap:round;stroke-linejoin:round;stroke-dasharray:0,14.9858;} .st55{fill:none;stroke:#CCCCCC;stroke-width:4;stroke-linecap:round;stroke-linejoin:round;stroke-dasharray:0,14.0118;} .st56{fill:none;stroke:#CCCCCC;stroke-width:4;stroke-linecap:round;stroke-linejoin:round;stroke-dasharray:0,14.1243;} .st57{fill:none;} .st58{fill:#FFFFFF;stroke:#404040;stroke-width:7;stroke-linecap:round;stroke-linejoin:round;stroke-miterlimit:10;} .st59{fill:#59AFE1;stroke:#404040;stroke-width:7;stroke-linejoin:round;stroke-miterlimit:10;} .st60{fill:#E24B88;stroke:#404040;stroke-width:7;stroke-linecap:round;stroke-linejoin:round;stroke-miterlimit:10;} .st61{fill:none;stroke:#404040;stroke-width:7;stroke-linecap:round;stroke-linejoin:round;stroke-miterlimit:10;} .st62{fill:none;stroke:#CCCCCC;stroke-width:4;stroke-linecap:round;stroke-linejoin:round;stroke-miterlimit:10;} .st63{fill:#FFFFFF;stroke:#CCCCCC;stroke-width:4;stroke-linecap:round;stroke-linejoin:round;stroke-miterlimit:10;} .st64{fill:#F5F5F5;} .st65{fill:#3873AE;} .st66{fill:#75706C;} .st67{fill:none;stroke:#B3E3FF;stroke-width:4;stroke-miterlimit:10;} .st68{fill:#6F6F6F;} .st69{fill:none;stroke:#6F6F6F;stroke-width:2;stroke-miterlimit:10;} .st70{fill:none;stroke:#6F6F6F;stroke-width:3;stroke-miterlimit:10;}</style><g id="workflow_x5F_9"><path class="st11" d="M505.1 54.5c3.1 6.8 9.9 11.2 17.3 11.2 7.5 0 14.3-4.4 17.4-11.3"/><path class="st26" d="M522 98.8s27.4.8 37.7-5.2c17-9.9-.3-30.2-13.7-33.6-4.1 7.7-13.3 13-24 13h.3c-10.7 0-19.8-5.4-24-13-13.4 3.4-30.7 23.8-13.7 33.6 10.3 6 37.7 5.2 37.7 5.2"/><circle class="st26" cx="522.4" cy="29.1" r="23"/><path class="st5" d="M533 16.9c2.6 20 7.9 2.4 11.8 17-2.2 10.4-11.4 18.2-22.5 18.2-12.7 0-23-10.3-23-23 0-1.3.1-2.6.3-3.9 1.2 0 26.3 11 33.4-8.3z"/><path class="st11" d="M534.9 49.3v10.6m-24.6 0v-10.2"/><path class="st4" d="M260.8 54.7c3.1 6.8 9.9 11.2 17.3 11.2 7.5 0 14.3-4.4 17.4-11.3"/><path class="st7" d="M278.3 98.9s27.4.8 37.7-5.2c17-9.9-.3-30.2-13.7-33.6-4.1 7.7-13.3 13-24 13h.3c-10.7 0-19.8-5.4-24-13-13.4 3.4-30.7 23.8-13.7 33.6 10.3 6 37.7 5.2 37.7 5.2"/><circle class="st7" cx="278.2" cy="29.2" r="23"/><path class="st4" d="M288.2 8.6c-6.7 17.2-19.4.5-32.6 25.5 2.2 10.4 11.4 18.2 22.5 18.2 12.7 0 23-10.3 23-23 .1-1.4-11-6-12.9-20.7zm2.5 39.9v11.6m-24.6 0v-11.3"/><path class="st7" d="M255.2 29.8s0 10.6 4.6 14.5c-3.6 1.7-11.6-.9-10.5-1.7 4.4-3.2 5.9-12.8 5.9-12.8zm46-.6s-.2 11.1-4.8 15c3.6 1.7 11.6-.9 10.5-1.7-4.5-3.1-5.7-13.3-5.7-13.3z"/><path class="st10" d="M263.3 128.9v-8.3l-3.6 8.3h-1.3l-3.6-8.3v8.3h-1.5v-10.6h2l3.7 8.7 3.8-8.7h2v10.6h-1.5zm6.4-4.2l1.9-.3c.4-.1.6-.3.6-.5 0-.7-.5-1.3-1.6-1.3-1 0-1.5.6-1.6 1.5l-1.4-.3c.2-1.4 1.4-2.3 3-2.3 2.2 0 3 1.2 3 2.6v3.6c0 .6.1 1 .1 1.2h-1.4c0-.2-.1-.5-.1-1-.3.5-1 1.2-2.3 1.2-1.5 0-2.4-1-2.4-2.2 0-1.3.9-2 2.2-2.2zm2.5 1.1v-.3l-2.2.3c-.6.1-1 .4-1 1.1 0 .5.4 1 1.2 1 1 0 2-.5 2-2.1zm8.3-2.7h-.6c-1.2 0-2 .6-2 2.2v3.6h-1.4v-7.2h1.4v1.3c.5-1.1 1.4-1.4 2.2-1.4h.5v1.5zm2.8 8.8l1.8-3.8-3.1-6.4h1.6l2.2 5 2.2-5h1.5l-4.7 10.2h-1.5zm8.7-13.8c.6 0 1.1.5 1.1 1.3 0 1.9-1.2 2.6-2.1 2.7v-.7c.7-.2 1.1-.8 1.2-1.5 0 0-.2.1-.3.1-.5 0-.9-.4-.9-1 0-.5.4-.9 1-.9zm3.5 8.4c.1.8.7 1.3 1.7 1.3.8 0 1.2-.4 1.2-1 0-.4-.3-.8-.9-.9l-1.2-.3c-1.1-.2-1.8-1-1.8-2 0-1.2 1.2-2.3 2.6-2.3 2 0 2.6 1.3 2.7 1.9l-1.2.5c-.1-.4-.4-1.2-1.5-1.2-.7 0-1.2.5-1.2 1 0 .4.3.8.8.9l1.2.3c1.3.3 2 1.1 2 2.1s-.9 2.2-2.6 2.2c-2 0-2.8-1.3-2.9-2.1l1.1-.4zm-68.5 9.7c2 0 3.2 1.2 3.2 2.9 0 1.1-.7 2-1.6 2.3 1.2.3 1.9 1.4 1.9 2.6 0 1.7-1.3 2.9-3.3 2.9h-3.7v-10.6h3.5zm-.1 4.7c1.2 0 1.9-.7 1.9-1.7s-.7-1.7-1.9-1.7h-1.9v3.4h1.9zm.2 4.7c1.2 0 2-.7 2-1.7s-.6-1.7-1.9-1.7h-2.2v3.4h2.1zm6.8-9.7c.6 0 1 .4 1 1s-.4 1-1 1-1-.5-1-1 .4-1 1-1zm-.7 11v-7.2h1.4v7.2h-1.4zm6.4-7.2h1.6v1.3h-1.6v3.8c0 .7.3 1 1 1 .2 0 .4 0 .6-.1v1.2c-.1 0-.5.1-1 .1-1.2 0-2-.8-2-2.1v-4h-1.4v-1.3h.4c.8 0 1.1-.5 1.1-1.1v-1.2h1.3v2.4zm4.2 7.2v-10.9h1.4v4.7c.3-.6 1.2-1.2 2.4-1.2 2.2 0 3.3 1.7 3.3 3.8 0 2.1-1.2 3.8-3.4 3.8-1.1 0-1.9-.5-2.3-1.2v1h-1.4zm3.6-6.2c-1.2 0-2.1 1-2.1 2.5 0 1.6.9 2.6 2.1 2.6 1.3 0 2.1-1 2.1-2.6 0-1.5-.8-2.5-2.1-2.5zm8.6 6.4c-1.7 0-2.7-1.3-2.7-2.9v-4.5h1.4v4.3c0 1 .4 1.9 1.6 1.9 1.1 0 1.7-.8 1.7-1.8v-4.4h1.4v5.9c0 .6 0 1.1.1 1.3h-1.4c0-.2-.1-.6-.1-.9-.2.8-1.1 1.1-2 1.1zm7.4-3.8c0 1.6 1 2.5 2.2 2.5 1.3 0 1.8-.9 2-1.5l1.2.5c-.3 1-1.4 2.2-3.3 2.2-2.1 0-3.6-1.6-3.6-3.8 0-2.2 1.6-3.8 3.6-3.8 1.9 0 2.9 1.2 3.2 2.3l-1.3.5c-.2-.7-.7-1.5-1.9-1.5-1 0-2.1.9-2.1 2.6zm11.3-.6l3.1 4.2h-1.8l-2.4-3.2-1 1v2.2h-1.4v-10.9h1.4v6.8l3.1-3.2h1.9l-2.9 3.1zm11.1 2.1c-.4 1.3-1.6 2.3-3.2 2.3-1.9 0-3.6-1.4-3.6-3.9 0-2.3 1.6-3.8 3.4-3.8 2.2 0 3.5 1.5 3.5 3.8v.4h-5.4c0 1.3 1 2.2 2.2 2.2 1.2 0 1.8-.6 2-1.5l1.1.5zm-1.4-2.3c0-1-.7-1.8-2-1.8-1.2 0-1.9.9-2 1.8h4zm5.9-2.8h1.6v1.3h-1.6v3.8c0 .7.3 1 1 1 .2 0 .4 0 .6-.1v1.2c-.1 0-.5.1-1 .1-1.2 0-2-.8-2-2.1v-4h-1.4v-1.3h.4c.8 0 1.1-.5 1.1-1.1v-1.2h1.3v2.4zm11.9 2.8h-1.6v4.3h-1.5v-10.6h4c2 0 3.3 1.4 3.3 3.2 0 1.5-1 2.7-2.6 3l2.5 4.5h-1.7l-2.4-4.4zm.7-1.3c1.2 0 2-.7 2-1.8s-.8-1.8-2-1.8h-2.2v3.6h2.2zm12.1 3.6c-.4 1.3-1.6 2.3-3.2 2.3-1.9 0-3.6-1.4-3.6-3.9 0-2.3 1.6-3.8 3.4-3.8 2.2 0 3.5 1.5 3.5 3.8v.4h-5.4c0 1.3 1 2.2 2.2 2.2 1.2 0 1.8-.6 2-1.5l1.1.5zm-1.4-2.3c0-1-.7-1.8-2-1.8-1.2 0-1.9.9-2 1.8h4zm4 7.2v-10.1h1.4v1.1c.4-.7 1.2-1.3 2.4-1.3 2.2 0 3.3 1.7 3.3 3.8 0 2.1-1.2 3.8-3.4 3.8-1.1 0-1.9-.5-2.3-1.2v3.8h-1.4zm3.5-9c-1.3 0-2.1 1.1-2.1 2.5 0 1.5.9 2.5 2.1 2.5 1.3 0 2.1-1.1 2.1-2.5s-.8-2.5-2.1-2.5zm12.9 2.6c0 2.2-1.5 3.8-3.7 3.8s-3.7-1.6-3.7-3.8c0-2.2 1.5-3.8 3.7-3.8s3.7 1.6 3.7 3.8zm-1.4 0c0-1.7-1.1-2.6-2.2-2.6s-2.2.9-2.2 2.6c0 1.7 1.1 2.6 2.2 2.6s2.2-1 2.2-2.6zm165-18.1l1.5-.3v1c0 1.4.8 2 1.8 2 1.1 0 1.7-.7 1.7-1.9v-7.6h1.5v7.5c0 1.9-1.2 3.4-3.2 3.4-2.1 0-3.3-1.4-3.3-3.4v-.7zm16.4.2c0 2.2-1.5 3.8-3.7 3.8s-3.7-1.6-3.7-3.8c0-2.2 1.5-3.8 3.7-3.8 2.1 0 3.7 1.7 3.7 3.8zm-1.5 0c0-1.7-1.1-2.6-2.3-2.6s-2.2.9-2.2 2.6c0 1.7 1.1 2.6 2.2 2.6s2.3-.9 2.3-2.6zm5.4 3.7h-1.4v-10.9h1.4v4.5c.5-.8 1.4-1.1 2.2-1.1 1.7 0 2.6 1.2 2.6 2.9v4.6h-1.4v-4.3c0-1-.4-1.8-1.7-1.8-1.1 0-1.6.8-1.7 1.9v4.2zm9.2 0h-1.4v-7.2h1.4v1c.5-.9 1.4-1.2 2.2-1.2 1.7 0 2.6 1.2 2.6 2.9v4.6h-1.4v-4.3c0-1-.4-1.8-1.7-1.8-1.1 0-1.7.9-1.7 2v4zm7.4-10.8c.6 0 1.1.5 1.1 1.3 0 1.9-1.2 2.6-2.1 2.7v-.7c.7-.2 1.1-.8 1.2-1.5 0 0-.2.1-.3.1-.5 0-.9-.4-.9-1 0-.5.5-.9 1-.9zm3.5 8.4c.1.8.7 1.3 1.7 1.3.8 0 1.2-.4 1.2-1 0-.4-.3-.8-.9-.9l-1.2-.3c-1.1-.2-1.8-1-1.8-2 0-1.2 1.2-2.3 2.6-2.3 2 0 2.6 1.3 2.7 1.9l-1.3.6c-.1-.4-.4-1.2-1.5-1.2-.7 0-1.2.5-1.2 1 0 .4.3.8.8.9l1.2.3c1.3.3 2 1.1 2 2.1s-.9 2.2-2.6 2.2c-2 0-2.8-1.3-2.9-2.1l1.2-.5zm-67 9.7c2 0 3.2 1.2 3.2 2.9 0 1.1-.7 2-1.6 2.3 1.2.3 1.9 1.4 1.9 2.6 0 1.7-1.3 2.9-3.3 2.9h-3.7v-10.6h3.5zm-.1 4.7c1.2 0 1.9-.7 1.9-1.7s-.7-1.7-1.9-1.7h-1.9v3.4h1.9zm.2 4.7c1.2 0 2-.7 2-1.7s-.6-1.7-1.9-1.7h-2.2v3.4h2.1zm6.8-9.7c.6 0 1 .4 1 1s-.4 1-1 1-1-.5-1-1c0-.6.4-1 1-1zm-.7 11v-7.2h1.4v7.2h-1.4zm6.4-7.3h1.6v1.3h-1.6v3.8c0 .7.3 1 1 1 .2 0 .4 0 .6-.1v1.2c-.1 0-.5.1-1 .1-1.2 0-2-.8-2-2.1v-4h-1.4v-1.3h.4c.8 0 1.1-.5 1.1-1.1v-1.2h1.3v2.4zm4.2 7.3v-10.9h1.4v4.7c.3-.6 1.2-1.2 2.4-1.2 2.2 0 3.3 1.7 3.3 3.8 0 2.1-1.2 3.8-3.4 3.8-1.1 0-1.9-.5-2.3-1.2v1h-1.4zm3.5-6.2c-1.2 0-2.1 1-2.1 2.5 0 1.6.9 2.6 2.1 2.6 1.3 0 2.1-1 2.1-2.6.1-1.5-.8-2.5-2.1-2.5zm8.7 6.4c-1.7 0-2.7-1.3-2.7-2.9v-4.5h1.4v4.3c0 1 .4 1.9 1.6 1.9 1.1 0 1.7-.8 1.7-1.8v-4.4h1.4v5.9c0 .6 0 1.1.1 1.3h-1.4c0-.2-.1-.6-.1-.9-.3.7-1.2 1.1-2 1.1zm7.4-3.9c0 1.6 1 2.5 2.2 2.5 1.3 0 1.8-.9 2-1.5l1.2.5c-.3 1-1.4 2.2-3.3 2.2-2.1 0-3.6-1.6-3.6-3.8 0-2.2 1.6-3.8 3.6-3.8 1.9 0 2.9 1.2 3.2 2.3l-1.3.5c-.2-.7-.7-1.5-1.9-1.5-1.1.1-2.1 1-2.1 2.6zm11.2-.5l3.1 4.2h-1.7l-2.4-3.2-1 1v2.2h-1.4v-10.9h1.4v6.8l3.1-3.2h1.9l-3 3.1zm11.2 2.1c-.4 1.3-1.6 2.3-3.2 2.3-1.9 0-3.6-1.4-3.6-3.9 0-2.3 1.6-3.8 3.4-3.8 2.2 0 3.5 1.5 3.5 3.8v.4h-5.4c0 1.3 1 2.2 2.2 2.2 1.2 0 1.8-.6 2-1.5l1.1.5zm-1.5-2.3c0-1-.7-1.8-2-1.8-1.2 0-1.9.9-2 1.8h4zm6-2.9h1.6v1.3h-1.6v3.8c0 .7.3 1 1 1 .2 0 .4 0 .6-.1v1.2c-.1 0-.5.1-1 .1-1.2 0-2-.8-2-2.1v-4h-1.4v-1.3h.4c.8 0 1.1-.5 1.1-1.1v-1.2h1.3v2.4zm11.9 2.9h-1.6v4.3h-1.5v-10.6h4c2 0 3.3 1.4 3.3 3.2 0 1.5-1 2.7-2.6 3l2.5 4.5h-1.7l-2.4-4.4zm.6-1.3c1.2 0 2-.7 2-1.8s-.8-1.8-2-1.8h-2.2v3.6h2.2zm12.2 3.6c-.4 1.3-1.6 2.3-3.2 2.3-1.9 0-3.6-1.4-3.6-3.9 0-2.3 1.6-3.8 3.4-3.8 2.2 0 3.5 1.5 3.5 3.8v.4h-5.4c0 1.3 1 2.2 2.2 2.2 1.2 0 1.8-.6 2-1.5l1.1.5zm-1.5-2.3c0-1-.7-1.8-2-1.8-1.2 0-1.9.9-2 1.8h4zm4.1 7.2v-10.1h1.4v1.1c.4-.7 1.2-1.3 2.4-1.3 2.2 0 3.3 1.7 3.3 3.8 0 2.1-1.2 3.8-3.4 3.8-1.1 0-1.9-.5-2.3-1.2v3.8h-1.4zm3.5-9c-1.3 0-2.1 1.1-2.1 2.5 0 1.5.9 2.5 2.1 2.5 1.3 0 2.1-1.1 2.1-2.5s-.8-2.5-2.1-2.5zm12.9 2.5c0 2.2-1.5 3.8-3.7 3.8s-3.7-1.6-3.7-3.8c0-2.2 1.5-3.8 3.7-3.8s3.7 1.7 3.7 3.8zm-1.5 0c0-1.7-1.1-2.6-2.2-2.6s-2.2.9-2.2 2.6c0 1.7 1.1 2.6 2.2 2.6s2.2-.9 2.2-2.6z"/><path id="repo1_200_" class="st7" d="M126.6 63c0-6.3 14.2-11.3 31.8-11.3s31.8 5.1 31.8 11.3m-63.6 0v14.1c0 1.5.9 3 2.4 4.3 4.8 4.1 16.2 7 29.5 7s24.7-2.9 29.5-7c1.5-1.3 2.4-2.8 2.4-4.3v-14.1"/><path class="st31" d="M190.3 63c0 6.3-14.2 11.3-31.8 11.3s-31.8-5.1-31.8-11.3c0-6.3 14.2-11.3 31.8-11.3s31.8 5.1 31.8 11.3z"/><path id="repo1_199_" class="st7" d="M126.6 48.9c0-6.3 14.2-11.3 31.8-11.3s31.8 5.1 31.8 11.3m-63.6 0v14.1c0 1.5.9 3 2.4 4.3 4.8 4.1 16.2 7 29.5 7s24.7-2.9 29.5-7c1.5-1.3 2.4-2.8 2.4-4.3v-14.1"/><path class="st31" d="M190.3 48.9c0 6.3-14.2 11.3-31.8 11.3s-31.8-5.1-31.8-11.3c0-6.3 14.2-11.3 31.8-11.3s31.8 5.1 31.8 11.3z"/><path id="repo1_198_" class="st7" d="M126.6 34.8c0-6.3 14.2-11.3 31.8-11.3s31.8 5.1 31.8 11.3m-63.6 0v14.1c0 1.5.9 3 2.4 4.3 4.8 4.1 16.2 7 29.5 7s24.7-2.9 29.5-7c1.5-1.3 2.4-2.8 2.4-4.3v-14.1"/><path class="st5" d="M190.3 34.8c0 6.3-14.2 11.3-31.8 11.3s-31.8-5.1-31.8-11.3c0-6.3 14.2-11.3 31.8-11.3s31.8 5.1 31.8 11.3z"/><path id="repo1_157_" class="st26" d="M609.7 63c0-6.3 14.2-11.3 31.8-11.3s31.8 5.1 31.8 11.3m-63.6 0v14.1c0 1.5.9 3 2.4 4.3 4.8 4.1 16.2 7 29.5 7s24.7-2.9 29.5-7c1.5-1.3 2.4-2.8 2.4-4.3v-14.1"/><path class="st31" d="M673.4 63c0 6.3-14.2 11.3-31.8 11.3s-31.8-5.1-31.8-11.3c0-6.3 14.2-11.3 31.8-11.3s31.8 5.1 31.8 11.3z"/><path id="repo1_156_" class="st26" d="M609.7 48.9c0-6.3 14.2-11.3 31.8-11.3s31.8 5.1 31.8 11.3m-63.6 0v14.1c0 1.5.9 3 2.4 4.3 4.8 4.1 16.2 7 29.5 7s24.7-2.9 29.5-7c1.5-1.3 2.4-2.8 2.4-4.3v-14.1"/><path class="st31" d="M673.4 48.9c0 6.3-14.2 11.3-31.8 11.3s-31.8-5.1-31.8-11.3c0-6.3 14.2-11.3 31.8-11.3s31.8 5.1 31.8 11.3z"/><path id="repo1_155_" class="st26" d="M609.7 34.8c0-6.3 14.2-11.3 31.8-11.3s31.8 5.1 31.8 11.3m-63.6 0v14.1c0 1.5.9 3 2.4 4.3 4.8 4.1 16.2 7 29.5 7s24.7-2.9 29.5-7c1.5-1.3 2.4-2.8 2.4-4.3v-14.1"/><path class="st5" d="M673.4 34.8c0 6.3-14.2 11.3-31.8 11.3s-31.8-5.1-31.8-11.3c0-6.3 14.2-11.3 31.8-11.3s31.8 5.1 31.8 11.3z"/><path class="st11" d="M368.8 65.7h65.5m-56.8 10.9l-10.8-10.9 10.8-10.9"/></g></svg>