<svg xmlns="http://www.w3.org/2000/svg" viewBox="0 0 800 222"><style>.st0{display:none;} .st1{display:inline;} .st2{fill:#FFFFFF;} .st3{fill:none;stroke:#9882CE;stroke-width:4;stroke-miterlimit:10;} .st4{fill:#B3E3FF;stroke:#404040;stroke-width:4;stroke-miterlimit:10;} .st5{fill:#FFFFFF;stroke:#404040;stroke-width:4;stroke-miterlimit:10;} .st6{fill:none;stroke:#404040;stroke-width:4;stroke-linecap:round;stroke-linejoin:round;stroke-miterlimit:10;} .st7{fill:#B18BE8;stroke:#404040;stroke-width:4;stroke-linecap:round;stroke-linejoin:round;stroke-miterlimit:10;} .st8{fill:#404040;} .st9{fill:none;stroke:#404040;stroke-width:4;stroke-miterlimit:10;} .st10{fill:#B18BE8;stroke:#404040;stroke-width:4;stroke-miterlimit:10;} .st11{fill:#4ED1A1;stroke:#404040;stroke-width:4;stroke-miterlimit:10;} .st12{fill:none;stroke:#CCCCCC;stroke-width:7;stroke-linecap:round;stroke-linejoin:round;stroke-miterlimit:10;} .st13{fill:#FFFFFF;stroke:#CCCCCC;stroke-width:7;stroke-linecap:round;stroke-linejoin:round;stroke-miterlimit:10;} .st14{fill:none;stroke:#404040;stroke-width:7;stroke-miterlimit:10;} .st15{fill:#B3E3FF;stroke:#404040;stroke-width:7;stroke-miterlimit:10;} .st16{fill:#CCCCCC;} .st17{fill:#FFFFFF;stroke:#404040;stroke-width:4;stroke-linejoin:round;stroke-miterlimit:10;} .st18{fill:#FFFFFF;stroke:#404040;stroke-width:4;stroke-linecap:round;stroke-linejoin:round;stroke-miterlimit:10;} .st19{fill:#B3E3FF;stroke:#404040;stroke-width:4;stroke-linejoin:round;stroke-miterlimit:10;} .st20{fill:none;stroke:#CCCCCC;stroke-linecap:round;stroke-linejoin:round;stroke-miterlimit:10;} .st21{fill:#999999;} .st22{fill:#4ED1A1;stroke:#404040;stroke-width:4;stroke-linecap:round;stroke-linejoin:round;stroke-miterlimit:10;} .st23{fill:#4CD3D6;stroke:#404040;stroke-width:4;stroke-linejoin:round;stroke-miterlimit:10;} .st24{fill:none;stroke:#59AFE1;stroke-width:4;stroke-miterlimit:10;} .st25{fill:#59AFE1;stroke:#404040;stroke-width:4;stroke-linejoin:round;stroke-miterlimit:10;} .st26{fill:#FFFFFF;stroke:#59AFE1;stroke-width:4;stroke-miterlimit:10;} .st27{fill:#B3E3FF;stroke:#404040;stroke-width:4;stroke-linecap:round;stroke-linejoin:round;stroke-miterlimit:10;} .st28{fill:#FC8363;stroke:#404040;stroke-width:4;stroke-linecap:round;stroke-linejoin:round;stroke-miterlimit:10;} .st29{fill:#CCCCCC;stroke:#404040;stroke-width:4;stroke-miterlimit:10;} .st30{fill:#FFFFFF;stroke:#6693ED;stroke-width:4;stroke-miterlimit:10;} .st31{fill:none;stroke:#A97CDD;stroke-width:4;stroke-linecap:round;stroke-linejoin:round;stroke-miterlimit:10;} .st32{fill:none;stroke:#B3E3FF;stroke-width:4;stroke-linecap:round;stroke-linejoin:round;stroke-miterlimit:10;} .st33{fill:none;stroke:#4ED1A1;stroke-width:4;stroke-linecap:round;stroke-miterlimit:10;} .st34{fill:none;stroke:#4ED1A1;stroke-width:4;stroke-linecap:round;stroke-linejoin:round;stroke-miterlimit:10;} .st35{fill:#E24B88;stroke:#404040;stroke-width:4;stroke-linecap:round;stroke-linejoin:round;stroke-miterlimit:10;} .st36{fill:none;stroke:#DEEFF8;stroke-width:4;stroke-miterlimit:10;} .st37{fill:none;stroke:#CCCCCC;stroke-width:4;stroke-linecap:round;stroke-linejoin:round;} .st38{fill:none;stroke:#CCCCCC;stroke-width:4;stroke-linecap:round;stroke-linejoin:round;stroke-dasharray:0,14.3051;} .st39{fill:none;stroke:#CCCCCC;stroke-width:4;stroke-linecap:round;stroke-linejoin:round;stroke-dasharray:0,14.1689;} .st40{fill:none;stroke:#CCCCCC;stroke-width:4;stroke-linecap:round;stroke-linejoin:round;stroke-dasharray:0,13.9788;} .st41{fill:none;stroke:#CCCCCC;stroke-width:4;stroke-linecap:round;stroke-linejoin:round;stroke-dasharray:0,14.7877;} .st42{fill:none;stroke:#CCCCCC;stroke-width:4;stroke-linecap:round;stroke-linejoin:round;stroke-dasharray:0,14.9632;} .st43{fill:none;stroke:#CCCCCC;stroke-width:4;stroke-linecap:round;stroke-linejoin:round;stroke-dasharray:0,12.543;} .st44{fill:none;stroke:#CCCCCC;stroke-width:4;stroke-linecap:round;stroke-linejoin:round;stroke-dasharray:0,13.6844;} .st45{fill:none;stroke:#CCCCCC;stroke-width:4;stroke-linecap:round;stroke-linejoin:round;stroke-dasharray:0,13.7717;} .st46{fill:none;stroke:#CCCCCC;stroke-width:4;stroke-linecap:round;stroke-linejoin:round;stroke-dasharray:0,13.6492;} .st47{fill:none;stroke:#CCCCCC;stroke-width:4;stroke-linecap:round;stroke-linejoin:round;stroke-dasharray:0,13.907;} .st48{fill:#4CD3D6;stroke:#404040;stroke-width:4;stroke-linecap:round;stroke-linejoin:round;stroke-miterlimit:10;} .st49{fill:none;stroke:#CCCCCC;stroke-width:4;stroke-linecap:round;stroke-linejoin:round;stroke-dasharray:0,14.9858;} .st50{fill:none;stroke:#CCCCCC;stroke-width:4;stroke-linecap:round;stroke-linejoin:round;stroke-dasharray:0,14.0118;} .st51{fill:none;stroke:#CCCCCC;stroke-width:4;stroke-linecap:round;stroke-linejoin:round;stroke-dasharray:0,14.1243;} .st52{fill:none;} .st53{fill:#FFFFFF;stroke:#404040;stroke-width:7;stroke-linecap:round;stroke-linejoin:round;stroke-miterlimit:10;} .st54{fill:#59AFE1;stroke:#404040;stroke-width:7;stroke-linejoin:round;stroke-miterlimit:10;} .st55{fill:#E24B88;stroke:#404040;stroke-width:7;stroke-linecap:round;stroke-linejoin:round;stroke-miterlimit:10;} .st56{fill:none;stroke:#404040;stroke-width:7;stroke-linecap:round;stroke-linejoin:round;stroke-miterlimit:10;} .st57{fill:none;stroke:#CCCCCC;stroke-width:4;stroke-linecap:round;stroke-linejoin:round;stroke-miterlimit:10;} .st58{fill:#FFFFFF;stroke:#CCCCCC;stroke-width:4;stroke-linecap:round;stroke-linejoin:round;stroke-miterlimit:10;} .st59{fill:#F5F5F5;} .st60{fill:#3873AE;} .st61{fill:#75706C;} .st62{fill:none;stroke:#B3E3FF;stroke-width:4;stroke-miterlimit:10;} .st63{fill:#6F6F6F;} .st64{fill:none;stroke:#6F6F6F;stroke-width:2;stroke-miterlimit:10;} .st65{fill:none;stroke:#6F6F6F;stroke-width:3;stroke-miterlimit:10;} .st66{fill:#FFFFFF;stroke:#404040;stroke-width:6;stroke-miterlimit:10;} .st67{fill:#B3E3FF;stroke:#404040;stroke-width:6;stroke-miterlimit:10;}</style><g id="workflow_x5F_8"><path class="st8" d="M49.9,16.6V6h3.7c2.7,0,5.1,1.8,5.1,5.3c0,3.5-2.4,5.3-5.1,5.3H49.9z M53.5,15.3c2,0,3.6-1.3,3.6-4 c0-2.7-1.6-4-3.6-4h-2.2v8H53.5zM67.6,14.6c-0.4,1.3-1.6,2.3-3.2,2.3c-1.9,0-3.6-1.4-3.6-3.9c0-2.3,1.6-3.8,3.4-3.8c2.2,0,3.5,1.5,3.5,3.8 c0,0.2,0,0.4,0,0.5h-5.4c0,1.3,1,2.2,2.2,2.2c1.2,0,1.8-0.6,2-1.5L67.6,14.6z M66.1,12.3c0-1-0.7-1.8-2-1.8c-1.2,0-1.9,0.9-2,1.8 H66.1zM73.3,16.6h-1.4L69,9.4h1.6l2.1,5.6l2.1-5.6h1.5L73.3,16.6zM84.3,14.6c-0.4,1.3-1.6,2.3-3.2,2.3c-1.9,0-3.6-1.4-3.6-3.9c0-2.3,1.6-3.8,3.4-3.8c2.2,0,3.5,1.5,3.5,3.8 c0,0.2,0,0.4,0,0.5h-5.4c0,1.3,1,2.2,2.2,2.2c1.2,0,1.8-0.6,2-1.5L84.3,14.6z M82.9,12.3c0-1-0.7-1.8-2-1.8c-1.2,0-1.9,0.9-2,1.8 H82.9zM86.9,16.6V5.8h1.4v10.9H86.9zM98.3,13c0,2.2-1.5,3.8-3.7,3.8s-3.7-1.6-3.7-3.8c0-2.2,1.5-3.8,3.7-3.8S98.3,10.8,98.3,13z M96.8,13 c0-1.7-1.1-2.6-2.2-2.6s-2.2,0.9-2.2,2.6c0,1.7,1,2.6,2.2,2.6S96.8,14.7,96.8,13zM100.8,19.5V9.4h1.4v1.1c0.4-0.7,1.2-1.3,2.4-1.3c2.2,0,3.3,1.7,3.3,3.8c0,2.1-1.2,3.8-3.4,3.8 c-1.1,0-1.9-0.5-2.3-1.2v3.8H100.8z M104.3,10.5c-1.3,0-2.1,1.1-2.1,2.5c0,1.5,0.9,2.5,2.1,2.5c1.3,0,2.1-1.1,2.1-2.5 C106.5,11.6,105.7,10.5,104.3,10.5zM116.8,14.6c-0.4,1.3-1.6,2.3-3.2,2.3c-1.9,0-3.6-1.4-3.6-3.9c0-2.3,1.6-3.8,3.4-3.8c2.2,0,3.5,1.5,3.5,3.8 c0,0.2,0,0.4,0,0.5h-5.4c0,1.3,1,2.2,2.2,2.2c1.2,0,1.8-0.6,2-1.5L116.8,14.6z M115.3,12.3c0-1-0.7-1.8-2-1.8 c-1.2,0-1.9,0.9-2,1.8H115.3zM123.4,10.8c-0.2,0-0.4,0-0.6,0c-1.2,0-2,0.6-2,2.2v3.6h-1.4V9.4h1.4v1.3c0.5-1.1,1.4-1.4,2.2-1.4 c0.2,0,0.4,0,0.5,0V10.8zM126.5,5.9c0.6,0,1.1,0.5,1.1,1.3c0,1.9-1.2,2.6-2.1,2.7V9.2c0.7-0.2,1.1-0.8,1.2-1.5c0,0-0.2,0.1-0.3,0.1 c-0.5,0-0.9-0.4-0.9-1C125.5,6.3,125.9,5.9,126.5,5.9zM129.9,14.3c0.1,0.8,0.7,1.3,1.7,1.3c0.8,0,1.2-0.4,1.2-1c0-0.5-0.3-0.8-0.9-0.9l-1.2-0.3 c-1.1-0.2-1.8-1-1.8-2c0-1.2,1.2-2.3,2.6-2.3c2,0,2.6,1.3,2.7,1.9l-1.2,0.5c-0.1-0.4-0.4-1.2-1.5-1.2c-0.7,0-1.2,0.5-1.2,1 c0,0.4,0.3,0.8,0.8,0.9l1.2,0.3c1.3,0.3,2,1.1,2,2.1c0,1-0.9,2.2-2.6,2.2c-2,0-2.8-1.3-2.9-2.1L129.9,14.3zM42.6,24c2,0,3.2,1.2,3.2,2.9c0,1.1-0.7,1.9-1.6,2.3c1.2,0.3,1.9,1.4,1.9,2.6c0,1.7-1.3,2.9-3.3,2.9h-3.7V24 H42.6z M42.4,28.6c1.2,0,1.9-0.7,1.9-1.7c0-1-0.7-1.7-1.9-1.7h-1.8v3.4H42.4z M42.6,33.3c1.2,0,2-0.7,2-1.7c0-1-0.6-1.7-1.9-1.7 h-2.1v3.4H42.6zM49.5,23.7c0.6,0,1,0.5,1,1c0,0.6-0.4,1-1,1c-0.6,0-1-0.4-1-1C48.4,24.1,48.9,23.7,49.5,23.7z M48.8,34.6 v-7.2h1.4v7.2H48.8zM55.2,27.4h1.6v1.3h-1.6v3.7c0,0.7,0.3,1,1,1c0.2,0,0.4,0,0.6-0.1v1.2c-0.1,0-0.5,0.1-1,0.1 c-1.2,0-2-0.8-2-2.1v-4h-1.4v-1.3h0.4c0.8,0,1.1-0.5,1.1-1.1v-1.2h1.3V27.4zM59.4,34.6V23.8h1.4v4.7c0.3-0.6,1.2-1.2,2.4-1.2c2.2,0,3.3,1.7,3.3,3.8c0,2.1-1.2,3.8-3.4,3.8 c-1.1,0-1.9-0.5-2.3-1.2v1H59.4z M62.9,28.5c-1.2,0-2.1,1-2.1,2.5c0,1.6,0.9,2.6,2.1,2.6c1.3,0,2.1-1,2.1-2.6 C65,29.4,64.2,28.5,62.9,28.5zM71.6,34.9c-1.7,0-2.7-1.3-2.7-2.9v-4.5h1.4v4.3c0,1,0.4,1.9,1.6,1.9c1.1,0,1.7-0.8,1.7-1.8v-4.4H75v5.9 c0,0.6,0,1.1,0.1,1.3h-1.4c0-0.2-0.1-0.6-0.1-0.9C73.3,34.5,72.4,34.9,71.6,34.9zM79,31c0,1.6,1,2.5,2.2,2.5c1.3,0,1.8-0.9,2-1.5l1.2,0.5c-0.3,1-1.4,2.2-3.3,2.2c-2.1,0-3.6-1.6-3.6-3.8 c0-2.2,1.6-3.8,3.6-3.8c1.9,0,2.9,1.2,3.2,2.3L83.1,30c-0.2-0.7-0.7-1.5-1.9-1.5C80,28.5,79,29.3,79,31zM90.2,30.5l3.1,4.2h-1.8l-2.4-3.2l-1,1v2.2h-1.4V23.8h1.4v6.8l3.1-3.2h1.9L90.2,30.5zM101.3,32.6c-0.4,1.3-1.6,2.3-3.2,2.3c-1.9,0-3.6-1.4-3.6-3.9c0-2.3,1.6-3.8,3.4-3.8c2.2,0,3.5,1.5,3.5,3.8 c0,0.2,0,0.4,0,0.5h-5.4c0,1.3,1,2.2,2.2,2.2c1.2,0,1.8-0.6,2-1.5L101.3,32.6z M99.9,30.3c0-1-0.7-1.8-2-1.8 c-1.2,0-1.9,0.9-2,1.8H99.9zM105.8,27.4h1.6v1.3h-1.6v3.7c0,0.7,0.3,1,1,1c0.2,0,0.4,0,0.6-0.1v1.2c-0.1,0-0.5,0.1-1,0.1 c-1.2,0-2-0.8-2-2.1v-4H103v-1.3h0.4c0.8,0,1.1-0.5,1.1-1.1v-1.2h1.3V27.4zM117.7,30.3h-1.6v4.3h-1.5V24h4c2,0,3.3,1.4,3.3,3.2c0,1.5-1,2.7-2.6,3l2.5,4.5h-1.7L117.7,30.3z M118.4,29 c1.2,0,2-0.7,2-1.8c0-1.1-0.8-1.8-2-1.8h-2.2V29H118.4zM130.5,32.6c-0.4,1.3-1.6,2.3-3.2,2.3c-1.9,0-3.6-1.4-3.6-3.9c0-2.3,1.6-3.8,3.4-3.8c2.2,0,3.5,1.5,3.5,3.8 c0,0.2,0,0.4,0,0.5h-5.4c0,1.3,1,2.2,2.2,2.2c1.2,0,1.8-0.6,2-1.5L130.5,32.6z M129.1,30.3c0-1-0.7-1.8-2-1.8 c-1.2,0-1.9,0.9-2,1.8H129.1zM133.1,37.5V27.4h1.4v1.1c0.4-0.7,1.2-1.3,2.4-1.3c2.2,0,3.3,1.7,3.3,3.8c0,2.1-1.2,3.8-3.4,3.8 c-1.1,0-1.9-0.5-2.3-1.2v3.8H133.1z M136.7,28.5c-1.3,0-2.1,1.1-2.1,2.5c0,1.5,0.9,2.5,2.1,2.5c1.3,0,2.1-1.1,2.1-2.5 C138.8,29.6,138,28.5,136.7,28.5zM149.6,31c0,2.2-1.5,3.8-3.7,3.8s-3.7-1.6-3.7-3.8c0-2.2,1.5-3.8,3.7-3.8S149.6,28.8,149.6,31z M148.1,31 c0-1.7-1.1-2.6-2.2-2.6s-2.2,0.9-2.2,2.6c0,1.7,1.1,2.6,2.2,2.6S148.1,32.7,148.1,31zM669.2,7.4v9.3h-1.5V7.4h-3.6V6h8.6v1.4H669.2zM679.7,14.6c-0.4,1.3-1.6,2.3-3.2,2.3c-1.9,0-3.6-1.4-3.6-3.9c0-2.3,1.6-3.8,3.4-3.8c2.2,0,3.5,1.5,3.5,3.8 c0,0.2,0,0.4,0,0.5h-5.4c0,1.3,1,2.2,2.2,2.2c1.2,0,1.8-0.6,2-1.5L679.7,14.6z M678.3,12.3c0-1-0.7-1.8-2-1.8 c-1.2,0-1.9,0.9-2,1.8H678.3zM684.1,12.5l1.9-0.3c0.4-0.1,0.6-0.3,0.6-0.5c0-0.7-0.5-1.3-1.6-1.3c-1,0-1.5,0.6-1.6,1.5l-1.4-0.3 c0.2-1.4,1.4-2.3,3-2.3c2.2,0,3,1.2,3,2.6v3.6c0,0.6,0.1,1,0.1,1.2h-1.4c0-0.2-0.1-0.4-0.1-1c-0.3,0.5-1,1.2-2.3,1.2 c-1.5,0-2.4-1-2.4-2.2C681.9,13.4,682.8,12.7,684.1,12.5z M686.6,13.5v-0.3l-2.2,0.3c-0.6,0.1-1.1,0.4-1.1,1.1 c0,0.5,0.4,1.1,1.2,1.1C685.6,15.7,686.6,15.1,686.6,13.5zM690.9,16.6V9.4h1.3v1c0.5-0.8,1.4-1.2,2.2-1.2c0.9,0,1.8,0.4,2.2,1.4c0.6-1,1.5-1.4,2.4-1.4 c1.3,0,2.5,0.9,2.5,2.7v4.7h-1.4v-4.5c0-0.9-0.5-1.7-1.5-1.7c-1,0-1.7,0.8-1.7,1.8v4.4h-1.4v-4.5c0-0.9-0.4-1.7-1.5-1.7 c-1,0-1.7,0.8-1.7,1.8v4.3H690.9zM704.5,16.6V9.4h1.3v1c0.5-0.8,1.4-1.2,2.2-1.2c0.9,0,1.8,0.4,2.2,1.4c0.6-1,1.5-1.4,2.4-1.4 c1.3,0,2.5,0.9,2.5,2.7v4.7h-1.4v-4.5c0-0.9-0.5-1.7-1.5-1.7c-1,0-1.7,0.8-1.7,1.8v4.4h-1.4v-4.5c0-0.9-0.4-1.7-1.5-1.7 c-1,0-1.7,0.8-1.7,1.8v4.3H704.5zM719.9,12.5l1.9-0.3c0.4-0.1,0.6-0.3,0.6-0.5c0-0.7-0.5-1.3-1.6-1.3c-1,0-1.5,0.6-1.6,1.5l-1.4-0.3 c0.2-1.4,1.4-2.3,3-2.3c2.2,0,3,1.2,3,2.6v3.6c0,0.6,0.1,1,0.1,1.2h-1.4c0-0.2-0.1-0.4-0.1-1c-0.3,0.5-1,1.2-2.3,1.2 c-1.5,0-2.4-1-2.4-2.2C717.7,13.4,718.6,12.7,719.9,12.5z M722.4,13.5v-0.3l-2.2,0.3c-0.6,0.1-1,0.4-1,1.1c0,0.5,0.4,1.1,1.2,1.1 C721.4,15.7,722.4,15.1,722.4,13.5zM728.6,9.4h1.6v1.3h-1.6v3.8c0,0.7,0.3,1,1,1c0.2,0,0.4,0,0.6-0.1v1.2c-0.1,0-0.5,0.1-1,0.1 c-1.2,0-2-0.8-2-2.1v-4h-1.4V9.4h0.4c0.8,0,1.1-0.5,1.1-1.1V7.1h1.3V9.4zM739,14.6c-0.4,1.3-1.6,2.3-3.2,2.3c-1.9,0-3.6-1.4-3.6-3.9c0-2.3,1.6-3.8,3.4-3.8c2.2,0,3.5,1.5,3.5,3.8 c0,0.2,0,0.4,0,0.5h-5.4c0,1.3,1,2.2,2.2,2.2c1.2,0,1.8-0.6,2-1.5L739,14.6z M737.6,12.3c0-1-0.7-1.8-2-1.8c-1.2,0-1.9,0.9-2,1.8 H737.6zM741.4,5.9c0.6,0,1.1,0.5,1.1,1.3c0,1.9-1.2,2.6-2.1,2.7V9.2c0.7-0.2,1.1-0.8,1.2-1.5c0,0-0.2,0.1-0.3,0.1 c-0.5,0-0.9-0.4-0.9-1C740.4,6.3,740.8,5.9,741.4,5.9zM744.9,14.3c0.1,0.8,0.7,1.3,1.7,1.3c0.8,0,1.2-0.4,1.2-1c0-0.5-0.3-0.8-0.9-0.9l-1.2-0.3 c-1.1-0.2-1.8-1-1.8-2c0-1.2,1.2-2.3,2.6-2.3c2,0,2.6,1.3,2.7,1.9l-1.2,0.5c-0.1-0.4-0.4-1.2-1.5-1.2c-0.7,0-1.2,0.5-1.2,1 c0,0.4,0.3,0.8,0.8,0.9l1.2,0.3c1.3,0.3,2,1.1,2,2.1c0,1-0.9,2.2-2.6,2.2c-2,0-2.8-1.3-2.9-2.1L744.9,14.3zM655.6,24c2,0,3.2,1.2,3.2,2.9c0,1.1-0.7,1.9-1.6,2.3c1.2,0.3,1.9,1.4,1.9,2.6c0,1.7-1.3,2.9-3.3,2.9h-3.7 V24H655.6z M655.4,28.6c1.2,0,1.9-0.7,1.9-1.7c0-1-0.7-1.7-1.9-1.7h-1.8v3.4H655.4z M655.6,33.3c1.2,0,2-0.7,2-1.7 c0-1-0.6-1.7-1.9-1.7h-2.1v3.4H655.6zM662.4,23.7c0.6,0,1,0.5,1,1c0,0.6-0.4,1-1,1c-0.6,0-1-0.4-1-1C661.4,24.1,661.9,23.7,662.4,23.7z M661.7,34.6v-7.2h1.4v7.2H661.7zM668.2,27.4h1.6v1.3h-1.6v3.7c0,0.7,0.3,1,1,1c0.2,0,0.4,0,0.6-0.1v1.2c-0.1,0-0.5,0.1-1,0.1 c-1.2,0-2-0.8-2-2.1v-4h-1.4v-1.3h0.4c0.8,0,1.1-0.5,1.1-1.1v-1.2h1.3V27.4zM672.4,34.6V23.8h1.4v4.7c0.3-0.6,1.2-1.2,2.4-1.2c2.2,0,3.3,1.7,3.3,3.8c0,2.1-1.2,3.8-3.4,3.8 c-1.1,0-1.9-0.5-2.3-1.2v1H672.4z M675.9,28.5c-1.2,0-2.1,1-2.1,2.5c0,1.6,0.9,2.6,2.1,2.6c1.3,0,2.1-1,2.1-2.6 C678,29.4,677.2,28.5,675.9,28.5zM684.5,34.9c-1.7,0-2.7-1.3-2.7-2.9v-4.5h1.4v4.3c0,1,0.4,1.9,1.6,1.9c1.1,0,1.7-0.8,1.7-1.8v-4.4h1.4v5.9 c0,0.6,0,1.1,0.1,1.3h-1.4c0-0.2-0.1-0.6-0.1-0.9C686.3,34.5,685.4,34.9,684.5,34.9zM691.9,31c0,1.6,1,2.5,2.2,2.5c1.3,0,1.8-0.9,2-1.5l1.2,0.5c-0.3,1-1.4,2.2-3.3,2.2c-2.1,0-3.6-1.6-3.6-3.8 c0-2.2,1.6-3.8,3.6-3.8c1.9,0,2.9,1.2,3.2,2.3l-1.3,0.5c-0.2-0.7-0.7-1.5-1.9-1.5C693,28.5,691.9,29.3,691.9,31zM703.2,30.5l3.1,4.2h-1.8l-2.4-3.2l-1,1v2.2h-1.4V23.8h1.4v6.8l3.1-3.2h1.9L703.2,30.5zM714.3,32.6c-0.4,1.3-1.6,2.3-3.2,2.3c-1.9,0-3.6-1.4-3.6-3.9c0-2.3,1.6-3.8,3.4-3.8c2.2,0,3.5,1.5,3.5,3.8 c0,0.2,0,0.4,0,0.5h-5.4c0,1.3,1,2.2,2.2,2.2c1.2,0,1.8-0.6,2-1.5L714.3,32.6z M712.9,30.3c0-1-0.7-1.8-2-1.8 c-1.2,0-1.9,0.9-2,1.8H712.9zM718.8,27.4h1.6v1.3h-1.6v3.7c0,0.7,0.3,1,1,1c0.2,0,0.4,0,0.6-0.1v1.2c-0.1,0-0.5,0.1-1,0.1 c-1.2,0-2-0.8-2-2.1v-4H716v-1.3h0.4c0.8,0,1.1-0.5,1.1-1.1v-1.2h1.3V27.4zM730.7,30.3h-1.6v4.3h-1.5V24h4c2,0,3.3,1.4,3.3,3.2c0,1.5-1,2.7-2.6,3l2.5,4.5h-1.7L730.7,30.3z M731.4,29 c1.2,0,2-0.7,2-1.8c0-1.1-0.8-1.8-2-1.8h-2.2V29H731.4zM743.5,32.6c-0.4,1.3-1.6,2.3-3.2,2.3c-1.9,0-3.6-1.4-3.6-3.9c0-2.3,1.6-3.8,3.4-3.8c2.2,0,3.5,1.5,3.5,3.8 c0,0.2,0,0.4,0,0.5h-5.4c0,1.3,1,2.2,2.2,2.2c1.2,0,1.8-0.6,2-1.5L743.5,32.6z M742.1,30.3c0-1-0.7-1.8-2-1.8 c-1.2,0-1.9,0.9-2,1.8H742.1zM746.1,37.5V27.4h1.4v1.1c0.4-0.7,1.2-1.3,2.4-1.3c2.2,0,3.3,1.7,3.3,3.8c0,2.1-1.2,3.8-3.4,3.8 c-1.1,0-1.9-0.5-2.3-1.2v3.8H746.1z M749.6,28.5c-1.3,0-2.1,1.1-2.1,2.5c0,1.5,0.9,2.5,2.1,2.5c1.3,0,2.1-1.1,2.1-2.5 C751.8,29.6,750.9,28.5,749.6,28.5zM762.5,31c0,2.2-1.5,3.8-3.7,3.8s-3.7-1.6-3.7-3.8c0-2.2,1.5-3.8,3.7-3.8S762.5,28.8,762.5,31z M761.1,31 c0-1.7-1.1-2.6-2.2-2.6s-2.2,0.9-2.2,2.6c0,1.7,1.1,2.6,2.2,2.6S761.1,32.7,761.1,31z"/><path class="st6" d="M194.2,188.6H115c-11.6,0-21-9.4-21-21v-38.9M510.7,188.6h-79.2c-11.6,0-21-9.4-21-21v-38.9M289.8,188.6H369c11.6,0,21-9.4,21-21v-38.9"/><path id="repo1_197_" class="st4" d="M62.1,100.8c0-6.3,14.2-11.3,31.8-11.3s31.8,5.1,31.8,11.3 M62.1,100.8v14.1 c0,1.5,0.9,3,2.4,4.3c4.8,4.1,16.2,7,29.5,7c13.3,0,24.7-2.9,29.5-7c1.5-1.3,2.4-2.8,2.4-4.3v-14.1"/><path class="st26" d="M125.8,100.8c0,6.3-14.2,11.3-31.8,11.3s-31.8-5.1-31.8-11.3c0-6.3,14.2-11.3,31.8-11.3 S125.8,94.5,125.8,100.8z"/><path id="repo1_196_" class="st4" d="M62.1,86.7c0-6.3,14.2-11.3,31.8-11.3s31.8,5.1,31.8,11.3 M62.1,86.7v14.1 c0,1.5,0.9,3,2.4,4.3c4.8,4.1,16.2,7,29.5,7c13.3,0,24.7-2.9,29.5-7c1.5-1.3,2.4-2.8,2.4-4.3V86.7"/><path class="st26" d="M125.8,86.7C125.8,93,111.6,98,94,98S62.1,93,62.1,86.7c0-6.3,14.2-11.3,31.8-11.3S125.8,80.4,125.8,86.7z"/><path id="repo1_195_" class="st4" d="M62.1,72.6c0-6.3,14.2-11.3,31.8-11.3s31.8,5.1,31.8,11.3 M62.1,72.6v14.1 c0,1.5,0.9,3,2.4,4.3c4.8,4.1,16.2,7,29.5,7c13.3,0,24.7-2.9,29.5-7c1.5-1.3,2.4-2.8,2.4-4.3V72.6"/><path class="st5" d="M125.8,72.6c0,6.3-14.2,11.3-31.8,11.3s-31.8-5.1-31.8-11.3c0-6.3,14.2-11.3,31.8-11.3S125.8,66.3,125.8,72.6z"/><path class="st7" d="M194.2 163.6H290.2V213.6H194.2z"/><path class="st8" d="M215.8,194.6V184h6.5v1.4h-5v3.4h4.5v1.4h-4.5v4.5H215.8zM230.4,192.5c-0.4,1.3-1.6,2.3-3.2,2.3c-1.9,0-3.6-1.4-3.6-3.9c0-2.3,1.6-3.8,3.4-3.8c2.2,0,3.5,1.5,3.5,3.8 c0,0.2,0,0.4,0,0.4H225c0,1.3,1,2.2,2.2,2.2c1.2,0,1.8-0.6,2-1.5L230.4,192.5z M229,190.3c0-1-0.7-1.8-2-1.8 c-1.2,0-1.9,0.9-2,1.8H229zM234.7,190.5l1.9-0.3c0.4-0.1,0.6-0.3,0.6-0.5c0-0.7-0.5-1.3-1.6-1.3c-1,0-1.5,0.6-1.6,1.5l-1.4-0.3 c0.2-1.4,1.4-2.3,3-2.3c2.2,0,3,1.2,3,2.6v3.6c0,0.6,0.1,1,0.1,1.2h-1.4c0-0.2-0.1-0.5-0.1-1c-0.3,0.5-1,1.2-2.3,1.2 c-1.5,0-2.4-1-2.4-2.2C232.5,191.4,233.5,190.7,234.7,190.5z M237.2,191.5v-0.3l-2.2,0.3c-0.6,0.1-1.1,0.4-1.1,1.1 c0,0.5,0.4,1,1.2,1C236.3,193.6,237.2,193.1,237.2,191.5zM243.5,187.4h1.6v1.3h-1.6v3.8c0,0.7,0.3,1,1,1c0.2,0,0.4,0,0.6-0.1v1.2c-0.1,0-0.5,0.1-1,0.1 c-1.2,0-2-0.8-2-2.1v-4h-1.4v-1.3h0.4c0.8,0,1.1-0.5,1.1-1.1v-1.2h1.3V187.4zM250.3,194.8c-1.7,0-2.7-1.3-2.7-2.9v-4.5h1.4v4.3c0,1,0.4,1.9,1.6,1.9c1.1,0,1.7-0.8,1.7-1.8v-4.3h1.4v5.9 c0,0.6,0,1.1,0.1,1.3h-1.4c0-0.2-0.1-0.6-0.1-0.9C252,194.5,251.1,194.8,250.3,194.8zM260.9,188.8c-0.2,0-0.4,0-0.6,0c-1.2,0-2,0.6-2,2.2v3.6h-1.4v-7.2h1.4v1.3c0.5-1.1,1.4-1.4,2.2-1.4 c0.2,0,0.4,0,0.5,0V188.8zM269.4,192.5c-0.4,1.3-1.6,2.3-3.2,2.3c-1.9,0-3.6-1.4-3.6-3.9c0-2.3,1.6-3.8,3.4-3.8c2.2,0,3.5,1.5,3.5,3.8 c0,0.2,0,0.4,0,0.4h-5.4c0,1.3,1,2.2,2.2,2.2c1.2,0,1.8-0.6,2-1.5L269.4,192.5z M267.9,190.3c0-1-0.7-1.8-2-1.8 c-1.2,0-1.9,0.9-2,1.8H267.9z"/><path class="st6" d="M332.2,189.9M606.7,188.6h79.2c11.6,0,21-9.4,21-21v-38.9M649.2,189.9M521.2,189.9M521.2,189.9"/><path id="repo1_194_" class="st4" d="M675.1,101c0-6.3,14.2-11.3,31.8-11.3c17.6,0,31.8,5.1,31.8,11.3 M675.1,101v14.1 c0,1.5,0.9,3,2.4,4.3c4.8,4.1,16.1,7,29.5,7c13.3,0,24.7-2.9,29.5-7c1.5-1.3,2.4-2.8,2.4-4.3V101"/><path class="st26" d="M675.1,101c0,6.3,14.2,11.3,31.8,11.3c17.6,0,31.8-5.1,31.8-11.3c0-6.3-14.2-11.3-31.8-11.3 C689.4,89.7,675.1,94.8,675.1,101z"/><path id="repo1_193_" class="st4" d="M675.1,86.9c0-6.3,14.2-11.3,31.8-11.3c17.6,0,31.8,5.1,31.8,11.3 M675.1,86.9V101 c0,1.5,0.9,3,2.4,4.3c4.8,4.1,16.1,7,29.5,7c13.3,0,24.7-2.9,29.5-7c1.5-1.3,2.4-2.8,2.4-4.3V86.9"/><path class="st26" d="M675.1,86.9c0,6.3,14.2,11.3,31.8,11.3c17.6,0,31.8-5.1,31.8-11.3c0-6.3-14.2-11.3-31.8-11.3 C689.4,75.6,675.1,80.7,675.1,86.9z"/><path id="repo1_192_" class="st4" d="M675.1,72.8c0-6.3,14.2-11.3,31.8-11.3c17.6,0,31.8,5.1,31.8,11.3 M675.1,72.8v14.1 c0,1.5,0.9,3,2.4,4.3c4.8,4.1,16.1,7,29.5,7c13.3,0,24.7-2.9,29.5-7c1.5-1.3,2.4-2.8,2.4-4.3V72.8"/><path class="st5" d="M675.1,72.8c0,6.3,14.2,11.3,31.8,11.3c17.6,0,31.8-5.1,31.8-11.3c0-6.3-14.2-11.3-31.8-11.3 C689.4,61.5,675.1,66.6,675.1,72.8z"/><path class="st7" d="M510.7 164.9H606.7V214.9H510.7z"/><path class="st8" d="M532.3,195.9v-10.6h6.5v1.4h-5v3.4h4.5v1.4h-4.5v4.5H532.3zM546.9,193.9c-0.4,1.3-1.6,2.3-3.2,2.3c-1.9,0-3.6-1.4-3.6-3.9c0-2.3,1.6-3.8,3.4-3.8c2.2,0,3.5,1.5,3.5,3.8 c0,0.2,0,0.4,0,0.4h-5.4c0,1.3,1,2.2,2.2,2.2c1.2,0,1.8-0.6,2-1.5L546.9,193.9z M545.5,191.6c0-1-0.7-1.8-2-1.8 c-1.2,0-1.9,0.9-2,1.8H545.5zM551.2,191.8l1.9-0.3c0.4-0.1,0.6-0.3,0.6-0.5c0-0.7-0.5-1.3-1.6-1.3c-1,0-1.5,0.6-1.6,1.5l-1.4-0.3 c0.2-1.4,1.4-2.3,3-2.3c2.2,0,3,1.2,3,2.6v3.6c0,0.6,0.1,1,0.1,1.2h-1.4c0-0.2-0.1-0.5-0.1-1c-0.3,0.5-1,1.2-2.3,1.2 c-1.5,0-2.4-1-2.4-2.2C549,192.7,550,192,551.2,191.8z M553.7,192.9v-0.3l-2.2,0.3c-0.6,0.1-1.1,0.4-1.1,1.1c0,0.5,0.4,1,1.2,1 C552.8,195,553.7,194.4,553.7,192.9zM560,188.7h1.6v1.3H560v3.8c0,0.7,0.3,1,1,1c0.2,0,0.4,0,0.6-0.1v1.2c-0.1,0-0.5,0.1-1,0.1 c-1.2,0-2-0.8-2-2.1v-4h-1.4v-1.3h0.4c0.8,0,1.1-0.5,1.1-1.1v-1.2h1.3V188.7zM566.8,196.2c-1.7,0-2.7-1.3-2.7-2.9v-4.5h1.4v4.3c0,1,0.4,1.9,1.6,1.9c1.1,0,1.7-0.8,1.7-1.8v-4.3h1.4v5.9 c0,0.6,0,1.1,0.1,1.3H569c0-0.2-0.1-0.6-0.1-0.9C568.5,195.8,567.6,196.2,566.8,196.2zM577.4,190.2c-0.2,0-0.4,0-0.6,0c-1.2,0-2,0.6-2,2.2v3.6h-1.4v-7.2h1.4v1.3c0.5-1.1,1.4-1.4,2.2-1.4 c0.2,0,0.4,0,0.5,0V190.2zM585.8,193.9c-0.4,1.3-1.6,2.3-3.2,2.3c-1.9,0-3.6-1.4-3.6-3.9c0-2.3,1.6-3.8,3.4-3.8c2.2,0,3.5,1.5,3.5,3.8 c0,0.2,0,0.4,0,0.4h-5.4c0,1.3,1,2.2,2.2,2.2c1.2,0,1.8-0.6,2-1.5L585.8,193.9z M584.4,191.6c0-1-0.7-1.8-2-1.8 c-1.2,0-1.9,0.9-2,1.8H584.4z"/><circle class="st18" cx="400.8" cy="79.9" r="49.5"/><path class="st6" d="M400.8 87L400.8 61.9M391.3 67.8L400.8 58.2 410.4 67.8M390.2,76h-11c-1.7,0-3.1,1.4-3.1,3.1V93c0,1.7,1.4,3.1,3.1,3.1h43.3c1.7,0,3.1-1.4,3.1-3.1V79.1 c0-1.7-1.4-3.1-3.1-3.1h-11"/></g></svg>