<svg xmlns="http://www.w3.org/2000/svg" viewBox="0 0 800 501"><style>.st0{display:none;} .st1{display:inline;} .st2{fill:#FFFFFF;} .st3{fill:none;stroke:#9882CE;stroke-width:4;stroke-miterlimit:10;} .st4{fill:#FFFFFF;stroke:#404040;stroke-width:4;stroke-linecap:round;stroke-linejoin:round;stroke-miterlimit:10;} .st5{fill:#FFFFFF;stroke:#404040;stroke-width:4;stroke-miterlimit:10;} .st6{fill:#B3E3FF;stroke:#404040;stroke-width:4;stroke-miterlimit:10;} .st7{fill:#B18BE8;stroke:#404040;stroke-width:4;stroke-miterlimit:10;} .st8{fill:#FFFFFF;stroke:#404040;stroke-width:6;stroke-miterlimit:10;} .st9{fill:#B3E3FF;stroke:#404040;stroke-width:6;stroke-miterlimit:10;} .st10{fill:#404040;} .st11{fill:none;stroke:#404040;stroke-width:4;stroke-linecap:round;stroke-linejoin:round;stroke-miterlimit:10;} .st12{fill:#B18BE8;stroke:#404040;stroke-width:4;stroke-linecap:round;stroke-linejoin:round;stroke-miterlimit:10;} .st13{fill:#444444;} .st14{fill:none;stroke:#404040;stroke-width:4;stroke-miterlimit:10;} .st15{fill:#4ED1A1;stroke:#404040;stroke-width:4;stroke-miterlimit:10;} .st16{fill:none;stroke:#CCCCCC;stroke-width:7;stroke-linecap:round;stroke-linejoin:round;stroke-miterlimit:10;} .st17{fill:#FFFFFF;stroke:#CCCCCC;stroke-width:7;stroke-linecap:round;stroke-linejoin:round;stroke-miterlimit:10;} .st18{fill:none;stroke:#404040;stroke-width:7;stroke-miterlimit:10;} .st19{fill:#B3E3FF;stroke:#404040;stroke-width:7;stroke-miterlimit:10;} .st20{fill:none;stroke:#CCCCCC;stroke-width:8;stroke-linecap:round;stroke-miterlimit:10;} .st21{fill:none;stroke:#404040;stroke-width:8;stroke-linecap:round;stroke-miterlimit:10;} .st22{fill:#FFFFFF;stroke:#404040;stroke-width:4;stroke-linejoin:round;stroke-miterlimit:10;} .st23{fill:#B3E3FF;stroke:#404040;stroke-width:4;stroke-linejoin:round;stroke-miterlimit:10;} .st24{fill:none;stroke:#CCCCCC;stroke-linecap:round;stroke-linejoin:round;stroke-miterlimit:10;} .st25{fill:#999999;} .st26{fill:#4ED1A1;stroke:#404040;stroke-width:4;stroke-linecap:round;stroke-linejoin:round;stroke-miterlimit:10;} .st27{fill:#4CD3D6;stroke:#404040;stroke-width:4;stroke-linejoin:round;stroke-miterlimit:10;} .st28{fill:none;stroke:#59AFE1;stroke-width:4;stroke-miterlimit:10;} .st29{fill:#59AFE1;stroke:#404040;stroke-width:4;stroke-linejoin:round;stroke-miterlimit:10;} .st30{fill:none;stroke:#404040;stroke-width:8;stroke-linecap:round;stroke-linejoin:round;stroke-miterlimit:10;stroke-dasharray:0,30;} .st31{fill:#FFFFFF;stroke:#59AFE1;stroke-width:4;stroke-miterlimit:10;} .st32{fill:#FC8363;stroke:#404040;stroke-width:4;stroke-linecap:round;stroke-linejoin:round;stroke-miterlimit:10;} .st33{fill:#CCCCCC;stroke:#404040;stroke-width:4;stroke-miterlimit:10;} .st34{fill:#FFFFFF;stroke:#6693ED;stroke-width:4;stroke-miterlimit:10;} .st35{fill:none;stroke:#A97CDD;stroke-width:4;stroke-linecap:round;stroke-linejoin:round;stroke-miterlimit:10;} .st36{fill:none;stroke:#B3E3FF;stroke-width:4;stroke-linecap:round;stroke-linejoin:round;stroke-miterlimit:10;} .st37{fill:none;stroke:#4ED1A1;stroke-width:4;stroke-linecap:round;stroke-miterlimit:10;} .st38{fill:none;stroke:#4ED1A1;stroke-width:4;stroke-linecap:round;stroke-linejoin:round;stroke-miterlimit:10;} .st39{fill:#E24B88;stroke:#404040;stroke-width:4;stroke-linecap:round;stroke-linejoin:round;stroke-miterlimit:10;} .st40{fill:none;stroke:#DEEFF8;stroke-width:4;stroke-miterlimit:10;} .st41{fill:none;stroke:#CCCCCC;stroke-width:4;stroke-linecap:round;stroke-linejoin:round;} .st42{fill:none;stroke:#CCCCCC;stroke-width:4;stroke-linecap:round;stroke-linejoin:round;stroke-dasharray:0,14.3051;} .st43{fill:none;stroke:#CCCCCC;stroke-width:4;stroke-linecap:round;stroke-linejoin:round;stroke-dasharray:0,14.1689;} .st44{fill:none;stroke:#CCCCCC;stroke-width:4;stroke-linecap:round;stroke-linejoin:round;stroke-dasharray:0,13.9788;} .st45{fill:none;stroke:#CCCCCC;stroke-width:4;stroke-linecap:round;stroke-linejoin:round;stroke-dasharray:0,14.7877;} .st46{fill:none;stroke:#CCCCCC;stroke-width:4;stroke-linecap:round;stroke-linejoin:round;stroke-dasharray:0,14.9632;} .st47{fill:#B3E3FF;stroke:#404040;stroke-width:4;stroke-linecap:round;stroke-linejoin:round;stroke-miterlimit:10;} .st48{fill:none;stroke:#CCCCCC;stroke-width:4;stroke-linecap:round;stroke-linejoin:round;stroke-dasharray:0,12.543;} .st49{fill:none;stroke:#CCCCCC;stroke-width:4;stroke-linecap:round;stroke-linejoin:round;stroke-dasharray:0,13.6844;} .st50{fill:none;stroke:#CCCCCC;stroke-width:4;stroke-linecap:round;stroke-linejoin:round;stroke-dasharray:0,13.7717;} .st51{fill:none;stroke:#CCCCCC;stroke-width:4;stroke-linecap:round;stroke-linejoin:round;stroke-dasharray:0,13.6492;} .st52{fill:none;stroke:#CCCCCC;stroke-width:4;stroke-linecap:round;stroke-linejoin:round;stroke-dasharray:0,13.907;} .st53{fill:#4CD3D6;stroke:#404040;stroke-width:4;stroke-linecap:round;stroke-linejoin:round;stroke-miterlimit:10;} .st54{fill:none;stroke:#CCCCCC;stroke-width:4;stroke-linecap:round;stroke-linejoin:round;stroke-dasharray:0,14.9858;} .st55{fill:none;stroke:#CCCCCC;stroke-width:4;stroke-linecap:round;stroke-linejoin:round;stroke-dasharray:0,14.0118;} .st56{fill:none;stroke:#CCCCCC;stroke-width:4;stroke-linecap:round;stroke-linejoin:round;stroke-dasharray:0,14.1243;} .st57{fill:none;} .st58{fill:#FFFFFF;stroke:#404040;stroke-width:7;stroke-linecap:round;stroke-linejoin:round;stroke-miterlimit:10;} .st59{fill:#59AFE1;stroke:#404040;stroke-width:7;stroke-linejoin:round;stroke-miterlimit:10;} .st60{fill:#E24B88;stroke:#404040;stroke-width:7;stroke-linecap:round;stroke-linejoin:round;stroke-miterlimit:10;} .st61{fill:none;stroke:#404040;stroke-width:7;stroke-linecap:round;stroke-linejoin:round;stroke-miterlimit:10;} .st62{fill:none;stroke:#CCCCCC;stroke-width:4;stroke-linecap:round;stroke-linejoin:round;stroke-miterlimit:10;} .st63{fill:#FFFFFF;stroke:#CCCCCC;stroke-width:4;stroke-linecap:round;stroke-linejoin:round;stroke-miterlimit:10;} .st64{fill:#F5F5F5;} .st65{fill:#3873AE;} .st66{fill:#75706C;} .st67{fill:none;stroke:#B3E3FF;stroke-width:4;stroke-miterlimit:10;} .st68{fill:#6F6F6F;} .st69{fill:none;stroke:#6F6F6F;stroke-width:2;stroke-miterlimit:10;} .st70{fill:none;stroke:#6F6F6F;stroke-width:3;stroke-miterlimit:10;}</style><path class="st64" d="M4 2.9h483.6v494.9h-483.6z"/><path class="st65" d="M160.2 141.5c-.1-.6-.4-1.1-.6-1.6-.3-.5-.6-.9-1-1.3s-.9-.6-1.4-.8c-.6-.2-1.2-.3-1.9-.3-1.1 0-2 .2-2.8.6-.8.4-1.4 1-1.9 1.7s-.8 1.5-1.1 2.5c-.2.9-.4 1.8-.4 2.8s.1 1.9.4 2.8c.2.9.6 1.7 1.1 2.4.5.7 1.1 1.3 1.9 1.7.8.4 1.7.6 2.8.6.8 0 1.5-.1 2.1-.4.6-.3 1.1-.6 1.5-1.1.4-.5.8-1 1-1.7.2-.6.4-1.3.5-2h3.4c-.1 1.2-.3 2.3-.8 3.3-.4 1-1 1.8-1.8 2.6-.7.7-1.6 1.3-2.6 1.7-1 .4-2.1.6-3.3.6-1.5 0-2.8-.3-4-.8-1.2-.6-2.2-1.3-3-2.3-.8-1-1.5-2.1-1.9-3.3-.4-1.3-.7-2.6-.7-4.1 0-1.4.2-2.8.7-4 .4-1.3 1.1-2.4 1.9-3.3.8-1 1.8-1.7 3-2.3 1.2-.6 2.5-.8 4-.8 1.1 0 2.2.2 3.2.5s1.9.8 2.6 1.3c.8.6 1.4 1.3 1.8 2.1.5.8.8 1.8.9 2.9h-3.6zm6.4-6.4h3.2v20h-3.2v-20zm13.3 20.4c-1.2 0-2.2-.2-3.1-.6-.9-.4-1.7-.9-2.3-1.6-.6-.7-1.1-1.5-1.4-2.4-.3-.9-.5-2-.5-3.1s.2-2.1.5-3.1c.3-.9.8-1.7 1.4-2.4.6-.7 1.4-1.2 2.3-1.6.9-.4 1.9-.6 3.1-.6 1.2 0 2.2.2 3.1.6.9.4 1.7.9 2.3 1.6.6.7 1.1 1.5 1.4 2.4.3.9.5 2 .5 3.1s-.2 2.1-.5 3.1c-.3.9-.8 1.7-1.4 2.4-.6.7-1.4 1.2-2.3 1.6-.9.4-2 .6-3.1.6zm0-2.5c.7 0 1.3-.1 1.8-.4.5-.3 1-.7 1.3-1.2.3-.5.6-1 .7-1.6.2-.6.2-1.2.2-1.9 0-.6-.1-1.2-.2-1.8-.2-.6-.4-1.2-.7-1.6-.3-.5-.8-.9-1.3-1.2-.5-.3-1.1-.4-1.8-.4s-1.3.1-1.8.4c-.5.3-1 .7-1.3 1.2-.3.5-.6 1-.7 1.6-.2.6-.2 1.2-.2 1.8 0 .6.1 1.3.2 1.9.2.6.4 1.2.7 1.6.3.5.8.9 1.3 1.2.4.3 1.1.4 1.8.4zm9.9-12.3h3v2.1l.1.1c.5-.8 1.1-1.4 1.9-1.9.8-.5 1.7-.7 2.6-.7 1.6 0 2.8.4 3.8 1.2.9.8 1.4 2.1 1.4 3.7v9.9h-3.2v-9.1c0-1.1-.3-2-.7-2.5-.4-.5-1.1-.8-2.1-.8-.5 0-1 .1-1.5.3-.4.2-.8.5-1.1.8-.3.3-.5.8-.7 1.2-.2.5-.3 1-.3 1.5v8.5h-3.2v-14.3zm18.6 8c0 .6.1 1.1.2 1.6.2.5.4 1 .7 1.4.3.4.7.7 1.2.9.5.2 1.1.4 1.7.4.9 0 1.7-.2 2.3-.6.6-.4 1-1 1.3-1.8h3c-.2.8-.5 1.5-.9 2.1-.4.6-.9 1.1-1.5 1.6-.6.4-1.2.7-1.9 1-.7.2-1.5.3-2.3.3-1.1 0-2.1-.2-3-.6-.9-.4-1.6-.9-2.2-1.6-.6-.7-1.1-1.5-1.4-2.4-.3-.9-.5-2-.5-3.1 0-1 .2-2 .5-2.9.3-.9.8-1.7 1.4-2.4.6-.7 1.3-1.3 2.2-1.7.9-.4 1.8-.6 2.9-.6 1.1 0 2.2.2 3.1.7.9.5 1.7 1.1 2.3 1.9.6.8 1 1.7 1.3 2.7.3 1 .3 2.1.2 3.1h-10.6zm7.5-2.1c0-.5-.1-1-.3-1.5-.2-.5-.4-.9-.7-1.2-.3-.3-.7-.6-1.1-.8-.4-.2-.9-.3-1.5-.3s-1.1.1-1.5.3c-.5.2-.8.5-1.2.8-.3.3-.6.8-.8 1.2-.2.5-.3 1-.3 1.5h7.4z"/><path class="st66" d="M84.6 73.2l6.4 17.1h-3.9l-1.3-3.8h-6.4l-1.3 3.8h-3.8l6.5-17.1h3.8zm.2 10.5l-2.2-6.3-2.2 6.3h4.4zm18.7-6c-.2-.4-.5-.7-.8-.9-.3-.3-.7-.5-1.1-.6-.4-.2-.9-.2-1.3-.2-.8 0-1.6.2-2.2.5-.6.3-1.1.8-1.4 1.3-.4.6-.6 1.2-.8 1.9-.2.7-.3 1.4-.3 2.2 0 .7.1 1.4.3 2.1.2.7.4 1.3.8 1.8s.8 1 1.4 1.3c.6.3 1.3.5 2.2.5 1.2 0 2.1-.4 2.7-1.1.6-.7 1-1.6 1.2-2.8h3.6c-.1 1.1-.3 2-.7 2.9-.4.9-.9 1.6-1.6 2.2-.7.6-1.4 1.1-2.3 1.4-.9.3-1.8.5-2.9.5-1.3 0-2.5-.2-3.5-.7-1-.5-1.9-1.1-2.7-1.9-.7-.8-1.3-1.7-1.7-2.8s-.6-2.2-.6-3.5c0-1.3.2-2.5.6-3.6.4-1.1.9-2.1 1.7-2.9.7-.8 1.6-1.5 2.7-1.9 1-.5 2.2-.7 3.5-.7.9 0 1.8.1 2.7.4.8.3 1.6.7 2.3 1.2.7.5 1.2 1.2 1.6 1.9.4.8.7 1.6.8 2.6h-3.6c-.2-.3-.4-.7-.6-1.1zm5.5-1.4v-3.2h14v3.2h-5.1v14h-3.8v-14h-5.1zm19.7-3.1v17.1h-3.7v-17.1h3.7zm3.2 5c.4-1.1.9-2.1 1.7-2.9.7-.8 1.6-1.5 2.7-1.9 1-.5 2.2-.7 3.5-.7 1.3 0 2.5.2 3.6.7 1 .5 1.9 1.1 2.6 1.9.7.8 1.3 1.8 1.7 2.9.4 1.1.6 2.3.6 3.6 0 1.2-.2 2.4-.6 3.5s-.9 2-1.7 2.8c-.7.8-1.6 1.4-2.6 1.9s-2.2.7-3.6.7c-1.3 0-2.5-.2-3.5-.7-1-.5-1.9-1.1-2.7-1.9-.7-.8-1.3-1.7-1.7-2.8s-.6-2.2-.6-3.5c0-1.3.2-2.5.6-3.6zm3.4 5.7c.2.7.4 1.3.8 1.8s.8 1 1.4 1.3c.6.3 1.3.5 2.2.5.8 0 1.6-.2 2.2-.5.6-.3 1.1-.8 1.4-1.3.4-.5.6-1.2.8-1.8.2-.7.3-1.4.3-2.1 0-.8-.1-1.5-.3-2.2-.2-.7-.4-1.3-.8-1.9-.4-.6-.8-1-1.4-1.3-.6-.3-1.3-.5-2.2-.5-.8 0-1.6.2-2.2.5-.6.3-1.1.8-1.4 1.3-.4.6-.6 1.2-.8 1.9-.2.7-.3 1.4-.3 2.2l.3 2.1zm19.2-10.7l7.2 11.5v-11.5h3.5v17.1h-3.8l-7.1-11.5v11.5h-3.5v-17.1h3.7zm16.9 12.9c.2.4.5.7.8 1 .3.2.7.4 1.2.6.5.1.9.2 1.4.2.3 0 .7 0 1.1-.1l1.1-.3c.3-.2.6-.4.8-.7.2-.3.3-.6.3-1.1 0-.5-.1-.8-.4-1.1-.3-.3-.7-.5-1.2-.7-.5-.2-1-.4-1.6-.5-.6-.1-1.2-.3-1.8-.5l-1.9-.6c-.6-.2-1.2-.5-1.6-.9-.5-.4-.9-.8-1.2-1.4-.3-.6-.4-1.2-.4-2 0-.9.2-1.6.6-2.3.4-.6.9-1.2 1.5-1.6.6-.4 1.3-.8 2.1-1 .8-.2 1.5-.3 2.3-.3.9 0 1.8.1 2.6.3.8.2 1.6.5 2.2 1 .6.4 1.1 1 1.5 1.7.4.7.6 1.5.6 2.5h-3.6c0-.5-.1-.9-.3-1.3-.2-.3-.4-.6-.7-.8-.3-.2-.7-.3-1-.4-.4-.1-.8-.1-1.3-.1-.3 0-.6 0-.9.1-.3.1-.6.2-.8.3-.2.2-.5.4-.6.6-.2.2-.2.5-.2.9 0 .3.1.6.2.8.1.2.4.4.8.6.4.2.9.4 1.6.5.7.2 1.5.4 2.6.7.3.1.8.2 1.3.3.6.2 1.1.4 1.7.8.6.4 1 .9 1.5 1.5.4.6.6 1.4.6 2.4 0 .8-.2 1.5-.5 2.2-.3.7-.8 1.3-1.4 1.7-.6.5-1.3.9-2.2 1.1s-1.9.4-3.1.4c-.9 0-1.9-.1-2.7-.3-.9-.2-1.7-.6-2.4-1.1-.7-.5-1.2-1.1-1.6-1.9-.4-.8-.6-1.7-.6-2.7h3.6c-.3.6-.2 1.1 0 1.5z"/><path class="st65" d="M160.2 209.2c-.1-.6-.4-1.1-.6-1.6-.3-.5-.6-.9-1-1.3s-.9-.6-1.4-.8c-.6-.2-1.2-.3-1.9-.3-1.1 0-2 .2-2.8.6-.8.4-1.4 1-1.9 1.7s-.8 1.5-1.1 2.5c-.2.9-.4 1.8-.4 2.8s.1 1.9.4 2.8c.2.9.6 1.7 1.1 2.4.5.7 1.1 1.3 1.9 1.7.8.4 1.7.6 2.8.6.8 0 1.5-.1 2.1-.4.6-.3 1.1-.6 1.5-1.1.4-.5.8-1 1-1.7.2-.6.4-1.3.5-2h3.4c-.1 1.2-.3 2.3-.8 3.3-.4 1-1 1.8-1.8 2.6-.7.7-1.6 1.3-2.6 1.7-1 .4-2.1.6-3.3.6-1.5 0-2.8-.3-4-.8-1.2-.6-2.2-1.3-3-2.3-.8-1-1.5-2.1-1.9-3.3-.4-1.3-.7-2.6-.7-4.1 0-1.4.2-2.8.7-4 .4-1.3 1.1-2.4 1.9-3.3.8-1 1.8-1.7 3-2.3 1.2-.6 2.5-.8 4-.8 1.1 0 2.2.2 3.2.5s1.9.8 2.6 1.3c.8.6 1.4 1.3 1.8 2.1.5.8.8 1.8.9 2.9h-3.6zm6.3-.9h3v2.8h.1c.1-.4.3-.8.5-1.1.3-.4.6-.7 1-1 .4-.3.8-.6 1.3-.7.5-.2.9-.3 1.4-.3h.8c.1 0 .3 0 .4.1v3.1l-.7-.1h-.7c-.5 0-1.1.1-1.5.3-.5.2-.9.5-1.2 1-.4.4-.6.9-.8 1.6-.2.6-.3 1.3-.3 2.1v6.9h-3.2v-14.7zm11.8 8.1c0 .6.1 1.1.2 1.6.2.5.4 1 .7 1.4.3.4.7.7 1.2.9.5.2 1.1.4 1.7.4.9 0 1.7-.2 2.3-.6.6-.4 1-1 1.3-1.8h3c-.2.8-.5 1.5-.9 2.1-.4.6-.9 1.1-1.5 1.6-.6.4-1.2.7-1.9 1-.7.2-1.5.3-2.3.3-1.1 0-2.1-.2-3-.6-.9-.4-1.6-.9-2.2-1.6-.6-.7-1.1-1.5-1.4-2.4-.3-.9-.5-2-.5-3.1 0-1 .2-2 .5-2.9.3-.9.8-1.7 1.4-2.4.6-.7 1.3-1.3 2.2-1.7.9-.4 1.8-.6 2.9-.6 1.1 0 2.2.2 3.1.7.9.5 1.7 1.1 2.3 1.9.6.8 1 1.7 1.3 2.7.3 1 .3 2.1.2 3.1h-10.6zm7.5-2.1c0-.5-.1-1-.3-1.5-.2-.5-.4-.9-.7-1.2-.3-.3-.7-.6-1.1-.8-.4-.2-.9-.3-1.5-.3s-1.1.1-1.5.3c-.5.2-.8.5-1.2.8-.3.3-.6.8-.8 1.2-.2.5-.3 1-.3 1.5h7.4zm17.7 5.3c0 .4.1.7.2.8.1.2.3.3.6.3h.3c.1 0 .3 0 .4-.1v2.2l-.4.1c-.2 0-.4.1-.5.1l-.6.1h-.5c-.7 0-1.2-.1-1.6-.4-.4-.3-.7-.7-.8-1.4-.6.6-1.4 1.1-2.3 1.3-.9.3-1.8.4-2.7.4-.7 0-1.3-.1-1.9-.3-.6-.2-1.1-.4-1.6-.8-.5-.3-.8-.8-1.1-1.3-.3-.5-.4-1.2-.4-1.9 0-.9.2-1.6.5-2.2.3-.6.8-1 1.3-1.3s1.1-.5 1.8-.7l2-.3c.6-.1 1.1-.2 1.7-.2.5 0 1-.1 1.4-.2.4-.1.7-.3 1-.5.2-.2.4-.6.4-1.1 0-.4-.1-.7-.3-1-.2-.3-.4-.5-.7-.6-.3-.1-.6-.2-1-.3-.4 0-.7-.1-1-.1-.9 0-1.6.2-2.2.6-.6.4-.9 1-1 1.7h-3.2c.1-.9.3-1.7.7-2.3.4-.6.9-1.1 1.5-1.5.6-.4 1.3-.6 2.1-.8.8-.1 1.5-.2 2.4-.2.7 0 1.4.1 2.1.2.7.1 1.3.4 1.9.7.6.3 1 .8 1.3 1.3.3.5.5 1.2.5 1.9v7.8zm-3.2-4.1c-.5.3-1.1.5-1.8.6l-2.1.3-1 .2c-.3.1-.6.2-.8.4-.2.2-.4.4-.6.7-.1.3-.2.6-.2 1s.1.7.3.9l.7.6c.3.1.6.2 1 .3.3.1.7.1.9.1.4 0 .7 0 1.1-.1.4-.1.8-.3 1.2-.5.4-.2.7-.5.9-.9.2-.3.4-.8.4-1.3v-2.3zm5.2-7.2h2.4v-4.3h3.2v4.3h2.9v2.4h-2.9v8.6c0 .2.1.4.2.6.1.2.3.3.5.4.2.1.5.1.8.1h.7c.2 0 .4 0 .7-.1v2.5c-.4 0-.7.1-1 .1l-1 .1c-.8 0-1.5-.1-2-.2-.5-.2-.9-.4-1.2-.7-.3-.3-.5-.7-.6-1.2-.1-.5-.2-1-.2-1.6v-8.5h-2.4v-2.5zm13.3 8.1c0 .6.1 1.1.2 1.6.2.5.4 1 .7 1.4.3.4.7.7 1.2.9.5.2 1.1.4 1.7.4.9 0 1.7-.2 2.3-.6.6-.4 1-1 1.3-1.8h3c-.2.8-.5 1.5-.9 2.1-.4.6-.9 1.1-1.5 1.6-.6.4-1.2.7-1.9 1-.7.2-1.5.3-2.3.3-1.1 0-2.1-.2-3-.6-.9-.4-1.6-.9-2.2-1.6-.6-.7-1.1-1.5-1.4-2.4-.3-.9-.5-2-.5-3.1 0-1 .2-2 .5-2.9.3-.9.8-1.7 1.4-2.4.6-.7 1.3-1.3 2.2-1.7.9-.4 1.8-.6 2.9-.6 1.1 0 2.2.2 3.1.7.9.5 1.7 1.1 2.3 1.9.6.8 1 1.7 1.3 2.7.3 1 .3 2.1.2 3.1h-10.6zm7.4-2.1c0-.5-.1-1-.3-1.5-.2-.5-.4-.9-.7-1.2-.3-.3-.7-.6-1.1-.8-.4-.2-.9-.3-1.5-.3s-1.1.1-1.5.3c-.5.2-.8.5-1.2.8-.3.3-.6.8-.8 1.2-.2.5-.3 1-.3 1.5h7.4zm13.5-11.5h3.2v7.4h.1c.2-.4.5-.7.8-1 .3-.3.7-.5 1.1-.7.4-.2.8-.3 1.2-.4.4-.1.8-.2 1.2-.2 1.1 0 2.1.2 3 .6.8.4 1.6 1 2.1 1.7.6.7 1 1.5 1.3 2.4.3.9.4 1.9.4 3 0 1-.1 1.9-.4 2.8-.3.9-.6 1.7-1.1 2.4-.5.7-1.2 1.3-1.9 1.7-.8.4-1.7.6-2.8.6-.5 0-1 0-1.5-.1s-1-.2-1.4-.4-.9-.4-1.2-.7c-.4-.3-.7-.7-.9-1.2h-.1v2h-3v-19.9zm11.2 12.8c0-.7-.1-1.3-.3-1.9-.2-.6-.4-1.2-.8-1.6-.3-.5-.8-.9-1.3-1.1-.5-.3-1.1-.4-1.7-.4-1.3 0-2.4.5-3 1.4-.7.9-1 2.2-1 3.7 0 .7.1 1.4.3 2 .2.6.4 1.2.8 1.6.4.4.8.8 1.3 1.1.5.3 1.1.4 1.7.4.7 0 1.3-.1 1.8-.4.5-.3.9-.7 1.2-1.2.3-.5.6-1 .7-1.6s.3-1.4.3-2zm5.9-7.3h3v2.8h.1c.1-.4.3-.8.5-1.1.3-.4.6-.7 1-1 .4-.3.8-.6 1.3-.7.5-.2.9-.3 1.4-.3h.8c.1 0 .3 0 .4.1v3.1l-.7-.1h-.7c-.5 0-1.1.1-1.5.3-.5.2-.9.5-1.2 1-.4.4-.6.9-.8 1.6-.2.6-.3 1.3-.3 2.1v6.9h-3.2v-14.7zm21.9 11.3c0 .4.1.7.2.8.1.2.3.3.6.3h.3c.1 0 .3 0 .4-.1v2.2l-.4.1c-.2 0-.4.1-.5.1l-.6.1h-.5c-.7 0-1.2-.1-1.6-.4-.4-.3-.7-.7-.8-1.4-.6.6-1.4 1.1-2.3 1.3-.9.3-1.8.4-2.7.4-.7 0-1.3-.1-1.9-.3-.6-.2-1.1-.4-1.6-.8-.5-.3-.8-.8-1.1-1.3-.3-.5-.4-1.2-.4-1.9 0-.9.2-1.6.5-2.2.3-.6.8-1 1.3-1.3s1.1-.5 1.8-.7l2-.3c.6-.1 1.1-.2 1.7-.2.5 0 1-.1 1.4-.2.4-.1.7-.3 1-.5.2-.2.4-.6.4-1.1 0-.4-.1-.7-.3-1-.2-.3-.4-.5-.7-.6-.3-.1-.6-.2-1-.3-.4 0-.7-.1-1-.1-.9 0-1.6.2-2.2.6-.6.4-.9 1-1 1.7h-3.2c.1-.9.3-1.7.7-2.3.4-.6.9-1.1 1.5-1.5.6-.4 1.3-.6 2.1-.8.8-.1 1.5-.2 2.4-.2.7 0 1.4.1 2.1.2.7.1 1.3.4 1.9.7.6.3 1 .8 1.3 1.3.3.5.5 1.2.5 1.9v7.8zm-3.2-4.1c-.5.3-1.1.5-1.8.6l-2.1.3-1 .2c-.3.1-.6.2-.8.4-.2.2-.4.4-.6.7-.1.3-.2.6-.2 1s.1.7.3.9l.7.6c.3.1.6.2 1 .3.3.1.7.1.9.1.4 0 .7 0 1.1-.1.4-.1.8-.3 1.2-.5.4-.2.7-.5.9-.9.2-.3.4-.8.4-1.3v-2.3zm6.7-7.2h3v2.1l.1.1c.5-.8 1.1-1.4 1.9-1.9.8-.5 1.7-.7 2.6-.7 1.6 0 2.8.4 3.8 1.2.9.8 1.4 2.1 1.4 3.7v9.9h-3.2v-9.1c0-1.1-.3-2-.7-2.5-.4-.5-1.1-.8-2.1-.8-.5 0-1 .1-1.5.3-.4.2-.8.5-1.1.8-.3.3-.5.8-.7 1.2-.2.5-.3 1-.3 1.5v8.5h-3.2v-14.3zm25.8 4.9c-.1-.9-.5-1.6-1.1-2-.6-.5-1.3-.7-2.2-.7-.4 0-.8.1-1.3.2s-.9.4-1.3.8-.7.9-1 1.6c-.3.7-.4 1.6-.4 2.7 0 .6.1 1.2.2 1.8.1.6.4 1.1.7 1.6.3.5.7.8 1.2 1.1.5.3 1.1.4 1.8.4.9 0 1.7-.3 2.3-.9.6-.6 1-1.4 1.1-2.4h3.2c-.3 1.9-1 3.3-2.1 4.3s-2.6 1.5-4.5 1.5c-1.1 0-2.1-.2-3-.6-.9-.4-1.6-.9-2.2-1.6-.6-.7-1.1-1.5-1.4-2.4-.3-.9-.5-1.9-.5-3s.1-2.1.4-3.1c.3-1 .7-1.8 1.3-2.5.6-.7 1.3-1.3 2.2-1.7.9-.4 1.9-.6 3.1-.6.8 0 1.6.1 2.4.3.8.2 1.4.5 2 1 .6.4 1.1 1 1.4 1.6.4.7.6 1.4.7 2.3h-3zm5.8-10.4h3.2v7.4h.1c.4-.7 1-1.2 1.8-1.6.8-.4 1.6-.7 2.6-.7 1.6 0 2.8.4 3.8 1.2.9.8 1.4 2.1 1.4 3.7v9.9h-3.2v-9.1c0-1.1-.3-2-.7-2.5-.4-.5-1.1-.8-2.1-.8-.5 0-1 .1-1.5.3-.4.2-.8.5-1.1.8-.3.3-.5.8-.7 1.2-.2.5-.3 1-.3 1.5v8.5h-3.2v-19.8zm-153.6 74.9c-.1-.6-.4-1.1-.6-1.6-.3-.5-.6-.9-1-1.3s-.9-.6-1.4-.8c-.6-.2-1.2-.3-1.9-.3-1.1 0-2 .2-2.8.6-.8.4-1.4 1-1.9 1.7s-.8 1.5-1.1 2.5c-.2.9-.4 1.8-.4 2.8s.1 1.9.4 2.8c.2.9.6 1.7 1.1 2.4.5.7 1.1 1.3 1.9 1.7.8.4 1.7.6 2.8.6.8 0 1.5-.1 2.1-.4.6-.3 1.1-.6 1.5-1.1.4-.5.8-1 1-1.7.2-.6.4-1.3.5-2h3.4c-.1 1.2-.3 2.3-.8 3.3-.4 1-1 1.8-1.8 2.6-.7.7-1.6 1.3-2.6 1.7-1 .4-2.1.6-3.3.6-1.5 0-2.8-.3-4-.8-1.2-.6-2.2-1.3-3-2.3-.8-1-1.5-2.1-1.9-3.3-.4-1.3-.7-2.6-.7-4.1 0-1.4.2-2.8.7-4 .4-1.3 1.1-2.4 1.9-3.3.8-1 1.8-1.7 3-2.3 1.2-.6 2.5-.8 4-.8 1.1 0 2.2.2 3.2.5s1.9.8 2.6 1.3c.8.6 1.4 1.3 1.8 2.1.5.8.8 1.8.9 2.9h-3.6zm6.3-.9h3v2.8h.1c.1-.4.3-.8.5-1.1.3-.4.6-.7 1-1 .4-.3.8-.6 1.3-.7.5-.2.9-.3 1.4-.3h.8c.1 0 .3 0 .4.1v3.1l-.7-.1h-.7c-.5 0-1.1.1-1.5.3-.5.2-.9.5-1.2 1-.4.4-.6.9-.8 1.6-.2.6-.3 1.3-.3 2.1v6.9h-3.2v-14.7zm11.8 8.1c0 .6.1 1.1.2 1.6.2.5.4 1 .7 1.4.3.4.7.7 1.2.9.5.2 1.1.4 1.7.4.9 0 1.7-.2 2.3-.6.6-.4 1-1 1.3-1.8h3c-.2.8-.5 1.5-.9 2.1-.4.6-.9 1.1-1.5 1.6-.6.4-1.2.7-1.9 1-.7.2-1.5.3-2.3.3-1.1 0-2.1-.2-3-.6-.9-.4-1.6-.9-2.2-1.6-.6-.7-1.1-1.5-1.4-2.4-.3-.9-.5-2-.5-3.1 0-1 .2-2 .5-2.9.3-.9.8-1.7 1.4-2.4.6-.7 1.3-1.3 2.2-1.7.9-.4 1.8-.6 2.9-.6 1.1 0 2.2.2 3.1.7.9.5 1.7 1.1 2.3 1.9.6.8 1 1.7 1.3 2.7.3 1 .3 2.1.2 3.1h-10.6zm7.5-2.1c0-.5-.1-1-.3-1.5-.2-.5-.4-.9-.7-1.2-.3-.3-.7-.6-1.1-.8-.4-.2-.9-.3-1.5-.3s-1.1.1-1.5.3c-.5.2-.8.5-1.2.8-.3.3-.6.8-.8 1.2-.2.5-.3 1-.3 1.5h7.4zm17.7 5.3c0 .4.1.7.2.8.1.2.3.3.6.3h.3c.1 0 .3 0 .4-.1v2.2l-.4.1c-.2 0-.4.1-.5.1l-.6.1h-.5c-.7 0-1.2-.1-1.6-.4-.4-.3-.7-.7-.8-1.4-.6.6-1.4 1.1-2.3 1.3-.9.3-1.8.4-2.7.4-.7 0-1.3-.1-1.9-.3-.6-.2-1.1-.4-1.6-.8-.5-.3-.8-.8-1.1-1.3-.3-.5-.4-1.2-.4-1.9 0-.9.2-1.6.5-2.2.3-.6.8-1 1.3-1.3s1.1-.5 1.8-.7l2-.3c.6-.1 1.1-.2 1.7-.2.5 0 1-.1 1.4-.2.4-.1.7-.3 1-.5.2-.2.4-.6.4-1.1 0-.4-.1-.7-.3-1-.2-.3-.4-.5-.7-.6-.3-.1-.6-.2-1-.3-.4 0-.7-.1-1-.1-.9 0-1.6.2-2.2.6-.6.4-.9 1-1 1.7h-3.2c.1-.9.3-1.7.7-2.3.4-.6.9-1.1 1.5-1.5.6-.4 1.3-.6 2.1-.8.8-.1 1.5-.2 2.4-.2.7 0 1.4.1 2.1.2.7.1 1.3.4 1.9.7.6.3 1 .8 1.3 1.3.3.5.5 1.2.5 1.9v7.8zm-3.2-4.1c-.5.3-1.1.5-1.8.6l-2.1.3-1 .2c-.3.1-.6.2-.8.4-.2.2-.4.4-.6.7-.1.3-.2.6-.2 1s.1.7.3.9l.7.6c.3.1.6.2 1 .3.3.1.7.1.9.1.4 0 .7 0 1.1-.1.4-.1.8-.3 1.2-.5.4-.2.7-.5.9-.9.2-.3.4-.8.4-1.3v-2.3zm5.2-7.2h2.4v-4.3h3.2v4.3h2.9v2.4h-2.9v8.6c0 .2.1.4.2.6.1.2.3.3.5.4.2.1.5.1.8.1h.7c.2 0 .4 0 .7-.1v2.5c-.4 0-.7.1-1 .1l-1 .1c-.8 0-1.5-.1-2-.2-.5-.2-.9-.4-1.2-.7-.3-.3-.5-.7-.6-1.2-.1-.5-.2-1-.2-1.6v-8.5h-2.4v-2.5zm13.3 8.1c0 .6.1 1.1.2 1.6.2.5.4 1 .7 1.4.3.4.7.7 1.2.9.5.2 1.1.4 1.7.4.9 0 1.7-.2 2.3-.6.6-.4 1-1 1.3-1.8h3c-.2.8-.5 1.5-.9 2.1-.4.6-.9 1.1-1.5 1.6-.6.4-1.2.7-1.9 1-.7.2-1.5.3-2.3.3-1.1 0-2.1-.2-3-.6-.9-.4-1.6-.9-2.2-1.6-.6-.7-1.1-1.5-1.4-2.4-.3-.9-.5-2-.5-3.1 0-1 .2-2 .5-2.9.3-.9.8-1.7 1.4-2.4.6-.7 1.3-1.3 2.2-1.7.9-.4 1.8-.6 2.9-.6 1.1 0 2.2.2 3.1.7.9.5 1.7 1.1 2.3 1.9.6.8 1 1.7 1.3 2.7.3 1 .3 2.1.2 3.1h-10.6zm7.4-2.1c0-.5-.1-1-.3-1.5-.2-.5-.4-.9-.7-1.2-.3-.3-.7-.6-1.1-.8-.4-.2-.9-.3-1.5-.3s-1.1.1-1.5.3c-.5.2-.8.5-1.2.8-.3.3-.6.8-.8 1.2-.2.5-.3 1-.3 1.5h7.4zm13.5-6h3v2h.1c.4-.8 1.1-1.4 1.9-1.8.8-.4 1.7-.5 2.6-.5 1.1 0 2.1.2 3 .6.8.4 1.6 1 2.1 1.7.6.7 1 1.5 1.3 2.4.3.9.4 1.9.4 3 0 1-.1 1.9-.4 2.8-.3.9-.6 1.7-1.1 2.4-.5.7-1.2 1.3-1.9 1.7-.8.4-1.7.6-2.8.6-.5 0-.9 0-1.4-.1-.5-.1-.9-.2-1.3-.4s-.8-.4-1.2-.7c-.4-.3-.7-.6-.9-1h-.1v7.2h-3.2v-19.9zm11.2 7.3c0-.7-.1-1.3-.3-1.9-.2-.6-.4-1.2-.8-1.6-.3-.5-.8-.9-1.3-1.1-.5-.3-1.1-.4-1.7-.4-1.3 0-2.4.5-3 1.4-.7.9-1 2.2-1 3.7 0 .7.1 1.4.3 2 .2.6.4 1.2.8 1.6.4.4.8.8 1.3 1.1.5.3 1.1.4 1.7.4.7 0 1.3-.1 1.8-.4.5-.3.9-.7 1.2-1.2.3-.5.6-1 .7-1.6s.3-1.4.3-2zm18.6 7.2h-3.1v-2h-.1c-.4.7-1 1.3-1.8 1.8-.8.4-1.6.7-2.4.7-1.9 0-3.3-.5-4.1-1.4-.8-.9-1.3-2.4-1.3-4.3v-9.2h3.2v8.9c0 1.3.2 2.2.7 2.7.5.5 1.2.8 2 .8.7 0 1.2-.1 1.7-.3.4-.2.8-.5 1.1-.8.3-.3.5-.8.6-1.2.1-.5.2-1 .2-1.6v-8.4h3.2v14.3zm3.4-20h3.2v20h-3.2v-20zm6.8 0h3.2v20h-3.2v-20zm14.4 5.5h3v2.8h.1c.1-.4.3-.8.5-1.1.3-.4.6-.7 1-1 .4-.3.8-.6 1.3-.7.5-.2.9-.3 1.4-.3h.8c.1 0 .3 0 .4.1v3.1l-.7-.1h-.7c-.5 0-1.1.1-1.5.3-.5.2-.9.5-1.2 1-.4.4-.6.9-.8 1.6-.2.6-.3 1.3-.3 2.1v6.9h-3.2v-14.7zm11.9 8.1c0 .6.1 1.1.2 1.6.2.5.4 1 .7 1.4.3.4.7.7 1.2.9.5.2 1.1.4 1.7.4.9 0 1.7-.2 2.3-.6.6-.4 1-1 1.3-1.8h3c-.2.8-.5 1.5-.9 2.1-.4.6-.9 1.1-1.5 1.6-.6.4-1.2.7-1.9 1-.7.2-1.5.3-2.3.3-1.1 0-2.1-.2-3-.6-.9-.4-1.6-.9-2.2-1.6-.6-.7-1.1-1.5-1.4-2.4-.3-.9-.5-2-.5-3.1 0-1 .2-2 .5-2.9.3-.9.8-1.7 1.4-2.4.6-.7 1.3-1.3 2.2-1.7.9-.4 1.8-.6 2.9-.6 1.1 0 2.2.2 3.1.7.9.5 1.7 1.1 2.3 1.9.6.8 1 1.7 1.3 2.7.3 1 .3 2.1.2 3.1h-10.6zm7.4-2.1c0-.5-.1-1-.3-1.5-.2-.5-.4-.9-.7-1.2-.3-.3-.7-.6-1.1-.8-.4-.2-.9-.3-1.5-.3s-1.1.1-1.5.3c-.5.2-.8.5-1.2.8-.3.3-.6.8-.8 1.2-.2.5-.3 1-.3 1.5h7.4zm19.3 13.8h-3.2v-7.2h-.1c-.3.4-.6.7-.9 1-.4.3-.7.5-1.2.7-.4.2-.9.3-1.3.4-.5.1-.9.1-1.4.1-1.1 0-2-.2-2.8-.6-.8-.4-1.4-1-1.9-1.7s-.9-1.5-1.1-2.4c-.3-.9-.4-1.9-.4-2.8 0-1.1.1-2.1.4-3 .3-.9.7-1.8 1.3-2.4.6-.7 1.3-1.3 2.1-1.7.8-.4 1.8-.6 3-.6.9 0 1.8.2 2.6.5.8.4 1.4 1 1.9 1.8h.1v-2h3v19.9zm-11.2-12.5c0 .6.1 1.3.2 1.9.1.6.4 1.1.7 1.6.3.5.7.9 1.2 1.2.5.3 1.1.4 1.8.4 1.4 0 2.4-.5 3.1-1.4.7-.9 1-2.2 1-3.7 0-1.6-.3-2.8-1-3.8-.7-.9-1.7-1.4-3-1.4-.7 0-1.2.1-1.7.4-.5.3-.9.7-1.3 1.1-.3.5-.6 1-.8 1.6-.1.8-.2 1.4-.2 2.1zm27.4 7.2h-3.1v-2h-.1c-.4.7-1 1.3-1.8 1.8-.8.4-1.6.7-2.4.7-1.9 0-3.3-.5-4.1-1.4-.8-.9-1.3-2.4-1.3-4.3v-9.2h3.2v8.9c0 1.3.2 2.2.7 2.7.5.5 1.2.8 2 .8.7 0 1.2-.1 1.7-.3.4-.2.8-.5 1.1-.8.3-.3.5-.8.6-1.2.1-.5.2-1 .2-1.6v-8.4h3.2v14.3zm5.8-6.4c0 .6.1 1.1.2 1.6.2.5.4 1 .7 1.4.3.4.7.7 1.2.9.5.2 1.1.4 1.7.4.9 0 1.7-.2 2.3-.6.6-.4 1-1 1.3-1.8h3c-.2.8-.5 1.5-.9 2.1-.4.6-.9 1.1-1.5 1.6-.6.4-1.2.7-1.9 1-.7.2-1.5.3-2.3.3-1.1 0-2.1-.2-3-.6-.9-.4-1.6-.9-2.2-1.6-.6-.7-1.1-1.5-1.4-2.4-.3-.9-.5-2-.5-3.1 0-1 .2-2 .5-2.9.3-.9.8-1.7 1.4-2.4.6-.7 1.3-1.3 2.2-1.7.9-.4 1.8-.6 2.9-.6 1.1 0 2.2.2 3.1.7.9.5 1.7 1.1 2.3 1.9.6.8 1 1.7 1.3 2.7.3 1 .3 2.1.2 3.1h-10.6zm7.5-2.1c0-.5-.1-1-.3-1.5-.2-.5-.4-.9-.7-1.2-.3-.3-.7-.6-1.1-.8-.4-.2-.9-.3-1.5-.3s-1.1.1-1.5.3c-.5.2-.8.5-1.2.8-.3.3-.6.8-.8 1.2-.2.5-.3 1-.3 1.5h7.4zm8 3.8c.1.9.4 1.6 1.1 2 .6.4 1.4.6 2.2.6.3 0 .6 0 1-.1.4 0 .7-.1 1.1-.3.3-.1.6-.3.8-.6.2-.3.3-.6.3-1s-.2-.7-.4-1c-.3-.3-.6-.5-1.1-.6-.4-.2-.9-.3-1.5-.4-.6-.1-1.1-.2-1.7-.4-.6-.1-1.2-.3-1.7-.5-.6-.2-1-.4-1.5-.8-.4-.3-.8-.7-1.1-1.2-.3-.5-.4-1.1-.4-1.8 0-.8.2-1.4.6-2 .4-.5.9-1 1.5-1.3.6-.3 1.2-.6 2-.7.7-.1 1.4-.2 2.1-.2.7 0 1.5.1 2.1.2.7.2 1.3.4 1.8.8.6.4 1 .8 1.4 1.4.4.6.6 1.3.7 2.1h-3.3c-.1-.8-.5-1.3-1.1-1.5-.6-.3-1.2-.4-1.9-.4-.2 0-.5 0-.8.1-.3 0-.6.1-.9.2-.3.1-.5.3-.7.4-.2.2-.3.5-.3.8 0 .4.1.7.4 1 .3.2.6.4 1.1.6.4.2.9.3 1.5.4.6.1 1.1.2 1.7.4.6.1 1.1.3 1.7.5.6.2 1.1.4 1.5.8.4.3.8.7 1.1 1.2.3.5.4 1.1.4 1.8 0 .9-.2 1.6-.6 2.2-.4.6-.9 1.1-1.5 1.5-.6.4-1.3.6-2.1.8-.8.2-1.5.3-2.3.3-.9 0-1.8-.1-2.5-.3-.8-.2-1.4-.5-2-.9-.6-.4-1-.9-1.3-1.6-.3-.6-.5-1.4-.5-2.2h3.1zm10.7-9.8h2.4v-4.3h3.2v4.3h2.9v2.4h-2.9v8.6c0 .2.1.4.2.6.1.2.3.3.5.4.2.1.5.1.8.1h.7c.2 0 .4 0 .7-.1v2.5c-.4 0-.7.1-1 .1l-1 .1c-.8 0-1.5-.1-2-.2-.5-.2-.9-.4-1.2-.7-.3-.3-.5-.7-.6-1.2-.1-.5-.2-1-.2-1.6v-8.5h-2.4v-2.5zm-220.7 68.2c-.1-.6-.4-1.1-.6-1.6-.3-.5-.6-.9-1-1.3s-.9-.6-1.4-.8c-.6-.2-1.2-.3-1.9-.3-1.1 0-2 .2-2.8.6-.8.4-1.4 1-1.9 1.7s-.8 1.5-1.1 2.5c-.2.9-.4 1.8-.4 2.8s.1 1.9.4 2.8c.2.9.6 1.7 1.1 2.4.5.7 1.1 1.3 1.9 1.7.8.4 1.7.6 2.8.6.8 0 1.5-.1 2.1-.4.6-.3 1.1-.6 1.5-1.1.4-.5.8-1 1-1.7.2-.6.4-1.3.5-2h3.4c-.1 1.2-.3 2.3-.8 3.3-.4 1-1 1.8-1.8 2.6-.7.7-1.6 1.3-2.6 1.7-1 .4-2.1.6-3.3.6-1.5 0-2.8-.3-4-.8-1.2-.6-2.2-1.3-3-2.3-.8-1-1.5-2.1-1.9-3.3-.4-1.3-.7-2.6-.7-4.1 0-1.4.2-2.8.7-4 .4-1.3 1.1-2.4 1.9-3.3.8-1 1.8-1.7 3-2.3 1.2-.6 2.5-.8 4-.8 1.1 0 2.2.2 3.2.5s1.9.8 2.6 1.3c.8.6 1.4 1.3 1.8 2.1.5.8.8 1.8.9 2.9h-3.6zm12.9 14c-1.2 0-2.2-.2-3.1-.6-.9-.4-1.7-.9-2.3-1.6-.6-.7-1.1-1.5-1.4-2.4-.3-.9-.5-2-.5-3.1s.2-2.1.5-3.1c.3-.9.8-1.7 1.4-2.4.6-.7 1.4-1.2 2.3-1.6.9-.4 1.9-.6 3.1-.6 1.2 0 2.2.2 3.1.6.9.4 1.7.9 2.3 1.6.6.7 1.1 1.5 1.4 2.4.3.9.5 2 .5 3.1s-.2 2.1-.5 3.1c-.3.9-.8 1.7-1.4 2.4-.6.7-1.4 1.2-2.3 1.6-.9.4-1.9.6-3.1.6zm0-2.5c.7 0 1.3-.1 1.8-.4.5-.3 1-.7 1.3-1.2.3-.5.6-1 .7-1.6.2-.6.2-1.2.2-1.9 0-.6-.1-1.2-.2-1.8-.2-.6-.4-1.2-.7-1.6-.3-.5-.8-.9-1.3-1.2-.5-.3-1.1-.4-1.8-.4s-1.3.1-1.8.4c-.5.3-1 .7-1.3 1.2-.3.5-.6 1-.7 1.6-.2.6-.2 1.2-.2 1.8 0 .6.1 1.3.2 1.9.2.6.4 1.2.7 1.6.3.5.8.9 1.3 1.2.5.3 1.1.4 1.8.4zm10-12.3h3v2h.1c.2-.4.5-.7.8-1 .3-.3.6-.6.9-.8.3-.2.7-.4 1.2-.5.4-.1 1-.2 1.5-.2.9 0 1.7.2 2.4.6.8.4 1.3 1 1.6 1.8.5-.7 1.2-1.3 1.9-1.8.7-.4 1.6-.6 2.7-.6 1.5 0 2.7.4 3.6 1.1.8.7 1.3 2 1.3 3.8v10h-3.2v-8.5c0-.6 0-1.1-.1-1.6 0-.5-.1-.9-.3-1.2-.2-.3-.4-.6-.8-.8-.4-.2-.8-.3-1.5-.3-1.1 0-1.9.3-2.4 1s-.7 1.6-.7 2.9v8.5h-3.1v-9.3c0-1-.2-1.8-.5-2.3-.4-.5-1-.8-2-.8-.4 0-.8.1-1.2.3-.4.2-.7.4-1 .7-.3.3-.5.7-.7 1.2-.2.5-.3 1-.3 1.6v8.6h-3.2v-14.4zm24.4 0h3v2h.1c.4-.8 1.1-1.4 1.9-1.8.8-.4 1.7-.5 2.6-.5 1.1 0 2.1.2 3 .6.8.4 1.6 1 2.1 1.7.6.7 1 1.5 1.3 2.4.3.9.4 1.9.4 3 0 1-.1 1.9-.4 2.8-.3.9-.6 1.7-1.1 2.4-.5.7-1.2 1.3-1.9 1.7-.8.4-1.7.6-2.8.6-.5 0-.9 0-1.4-.1-.5-.1-.9-.2-1.3-.4s-.8-.4-1.2-.7c-.4-.3-.7-.6-.9-1h-.1v7.2h-3.2v-19.9zm11.2 7.2c0-.7-.1-1.3-.3-1.9-.2-.6-.4-1.2-.8-1.6-.3-.5-.8-.9-1.3-1.1-.5-.3-1.1-.4-1.7-.4-1.3 0-2.4.5-3 1.4-.7.9-1 2.2-1 3.7 0 .7.1 1.4.3 2 .2.6.4 1.2.8 1.6.4.4.8.8 1.3 1.1.5.3 1.1.4 1.7.4.7 0 1.3-.1 1.8-.4.5-.3.9-.7 1.2-1.2.3-.5.6-1 .7-1.6s.3-1.4.3-2zm18 4c0 .4.1.7.2.8.1.2.3.3.6.3h.3c.1 0 .3 0 .4-.1v2.2l-.4.1c-.2 0-.4.1-.5.1l-.6.1h-.5c-.7 0-1.2-.1-1.6-.4-.4-.3-.7-.7-.8-1.4-.6.6-1.4 1.1-2.3 1.3-.9.3-1.8.4-2.7.4-.7 0-1.3-.1-1.9-.3-.6-.2-1.1-.4-1.6-.8-.5-.3-.8-.8-1.1-1.3-.3-.5-.4-1.2-.4-1.9 0-.9.2-1.6.5-2.2.3-.6.8-1 1.3-1.3s1.1-.5 1.8-.7l2-.3c.6-.1 1.1-.2 1.7-.2.5 0 1-.1 1.4-.2.4-.1.7-.3 1-.5.2-.2.4-.6.4-1.1 0-.4-.1-.7-.3-1-.2-.3-.4-.5-.7-.6-.3-.1-.6-.2-1-.3-.4 0-.7-.1-1-.1-.9 0-1.6.2-2.2.6-.6.4-.9 1-1 1.7h-3.2c.1-.9.3-1.7.7-2.3.4-.6.9-1.1 1.5-1.5.6-.4 1.3-.6 2.1-.8.8-.1 1.5-.2 2.4-.2.7 0 1.4.1 2.1.2.7.1 1.3.4 1.9.7.6.3 1 .8 1.3 1.3.3.5.5 1.2.5 1.9v7.8zm-3.2-4c-.5.3-1.1.5-1.8.6l-2.1.3-1 .2c-.3.1-.6.2-.8.4-.2.2-.4.4-.6.7-.1.3-.2.6-.2 1s.1.7.3.9l.7.6c.3.1.6.2 1 .3.3.1.7.1.9.1.4 0 .7 0 1.1-.1.4-.1.8-.3 1.2-.5.4-.2.7-.5.9-.9.2-.3.4-.8.4-1.3v-2.3zm6.6-7.2h3v2.8h.1c.1-.4.3-.8.5-1.1.3-.4.6-.7 1-1 .4-.3.8-.6 1.3-.7.5-.2.9-.3 1.4-.3h.8c.1 0 .3 0 .4.1v3.1l-.7-.1h-.7c-.5 0-1.1.1-1.5.3-.5.2-.9.5-1.2 1-.4.4-.6.9-.8 1.6-.2.6-.3 1.3-.3 2.1v6.9h-3.2v-14.7zm11.9 8c0 .6.1 1.1.2 1.6.2.5.4 1 .7 1.4.3.4.7.7 1.2.9.5.2 1.1.4 1.7.4.9 0 1.7-.2 2.3-.6.6-.4 1-1 1.3-1.8h3c-.2.8-.5 1.5-.9 2.1-.4.6-.9 1.1-1.5 1.6-.6.4-1.2.7-1.9 1-.7.2-1.5.3-2.3.3-1.1 0-2.1-.2-3-.6-.9-.4-1.6-.9-2.2-1.6-.6-.7-1.1-1.5-1.4-2.4-.3-.9-.5-2-.5-3.1 0-1 .2-2 .5-2.9.3-.9.8-1.7 1.4-2.4.6-.7 1.3-1.3 2.2-1.7.9-.4 1.8-.6 2.9-.6 1.1 0 2.2.2 3.1.7.9.5 1.7 1.1 2.3 1.9.6.8 1 1.7 1.3 2.7.3 1 .3 2.1.2 3.1h-10.6zm7.4-2.1c0-.5-.1-1-.3-1.5-.2-.5-.4-.9-.7-1.2-.3-.3-.7-.6-1.1-.8-.4-.2-.9-.3-1.5-.3s-1.1.1-1.5.3c-.5.2-.8.5-1.2.8-.3.3-.6.8-.8 1.2-.2.5-.3 1-.3 1.5h7.4zm-112.7 57.4h13.8v3h-10.3v5.2h9v2.9h-9v8.9h-3.5v-20zm22.8 20.4c-1.2 0-2.2-.2-3.1-.6-.9-.4-1.7-.9-2.3-1.6-.6-.7-1.1-1.5-1.4-2.4-.3-.9-.5-2-.5-3.1s.2-2.1.5-3.1c.3-.9.8-1.7 1.4-2.4.6-.7 1.4-1.2 2.3-1.6.9-.4 1.9-.6 3.1-.6 1.2 0 2.2.2 3.1.6.9.4 1.7.9 2.3 1.6.6.7 1.1 1.5 1.4 2.4.3.9.5 2 .5 3.1s-.2 2.1-.5 3.1c-.3.9-.8 1.7-1.4 2.4-.6.7-1.4 1.2-2.3 1.6-.9.4-1.9.6-3.1.6zm0-2.6c.7 0 1.3-.1 1.8-.4.5-.3 1-.7 1.3-1.2.3-.5.6-1 .7-1.6.2-.6.2-1.2.2-1.9 0-.6-.1-1.2-.2-1.8-.2-.6-.4-1.2-.7-1.6-.3-.5-.8-.9-1.3-1.2-.5-.3-1.1-.4-1.8-.4s-1.3.1-1.8.4c-.5.3-1 .7-1.3 1.2-.3.5-.6 1-.7 1.6-.2.6-.2 1.2-.2 1.8 0 .6.1 1.3.2 1.9.2.6.4 1.2.7 1.6.3.5.8.9 1.3 1.2.5.3 1.1.4 1.8.4zm10-12.3h3v2.8h.1c.1-.4.3-.8.5-1.1.3-.4.6-.7 1-1 .4-.3.8-.6 1.3-.7.5-.2.9-.3 1.4-.3h.8c.1 0 .3 0 .4.1v3.1l-.7-.1h-.7c-.5 0-1.1.1-1.5.3-.5.2-.9.5-1.2 1-.4.4-.6.9-.8 1.6-.2.6-.3 1.3-.3 2.1v6.9h-3.2v-14.7zm9.9-5.5h3.2v11.4l5.8-5.9h3.9l-5.5 5.3 6.1 9.2h-3.9l-4.4-7-1.9 1.8v5.2h-3.2v-20z"/><path class="st67" d="M413.6 455h-356.2c-1.1 0-2-.9-2-2v-67c0-1.1.9-2 2-2h356.2c1.1 0 2 .9 2 2v67c0 1.1-.9 2-2 2z"/><path class="st68" d="M108.1 151.6v8h-28.3v-8h-3.9v11.9h36v-11.9zm-12.3-6v-14h-3.8v14h-6.9l8.8 9.4 8.9-9.4zm4.9 133.8l-8.9-9.4-8.8 9.4h6.9v14h3.9v-14zm7.2 62l-5.8-5.6v3.7h-6.4l-10.7 16.1h-7.2v3.9h8.2l10.7-16.2h5.4v3.6zm-30.1-1.9v3.8h7.2l2.5 3.9 2.2-3.9-2.7-3.8zm30.1 18l-5.8-5.5v3.6h-5.1.1l-2.8-3.8-2 3.8 2.4 3.8v.1h7.4v3.6zm-4.8 68.1h-7.6l-4-4v-4.3l4-4h7.6v3.6l5.8-5.5-5.8-5.6v3.6h-9.2l-6.2 6.3h-11.7v7.8h12-.1l6 6h9.2v3.6l5.8-5.6-5.8-5.5z"/><circle class="st69" cx="102.1" cy="209.5" r="9"/><path class="st68" d="M107.9 207.7h-4v-4h-3.7v4h-4v3.8h4v4h3.7v-4h4zm5.9 60h-4v-4h-3.7v4h-4v3.8h4v4h3.7v-4h4zm-15.4-49l-2.3-3.3-11.2 7.9c-.3-.2-.7-.4-1-.5v-16.5c2-.8 3.5-2.8 3.5-5.1 0-3-2.5-5.5-5.5-5.5s-5.5 2.5-5.5 5.5c0 2.3 1.5 4.3 3.5 5.1v16.5c-2 .8-3.5 2.8-3.5 5.1 0 3 2.5 5.5 5.5 5.5s5.5-2.5 5.5-5.5c0-.5-.1-.9-.2-1.3l11.2-7.9z"/><path class="st70" d="M86.1 285.6h-6.7c-2.8 0-5 2.2-5 5v6.6c0 2.8 2.2 5 5 5h25c2.8 0 5-2.2 5-5v-6.6c0-2.8-2.2-5-5-5h-6.6"/></svg>