<svg xmlns="http://www.w3.org/2000/svg" viewBox="0 0 800 248"><style>.st0{display:none;} .st1{display:inline;} .st2{fill:#FFFFFF;} .st3{fill:none;stroke:#9882CE;stroke-width:4;stroke-miterlimit:10;} .st4{fill:#B3E3FF;stroke:#404040;stroke-width:4;stroke-miterlimit:10;} .st5{fill:#FFFFFF;stroke:#404040;stroke-width:4;stroke-miterlimit:10;} .st6{fill:none;stroke:#404040;stroke-width:4;stroke-linecap:round;stroke-linejoin:round;stroke-miterlimit:10;} .st7{fill:#B18BE8;stroke:#404040;stroke-width:4;stroke-linecap:round;stroke-linejoin:round;stroke-miterlimit:10;} .st8{fill:#404040;} .st9{fill:none;stroke:#404040;stroke-width:4;stroke-miterlimit:10;} .st10{fill:#B18BE8;stroke:#404040;stroke-width:4;stroke-miterlimit:10;} .st11{fill:#4ED1A1;stroke:#404040;stroke-width:4;stroke-miterlimit:10;} .st12{fill:none;stroke:#CCCCCC;stroke-width:7;stroke-linecap:round;stroke-linejoin:round;stroke-miterlimit:10;} .st13{fill:#FFFFFF;stroke:#CCCCCC;stroke-width:7;stroke-linecap:round;stroke-linejoin:round;stroke-miterlimit:10;} .st14{fill:none;stroke:#404040;stroke-width:7;stroke-miterlimit:10;} .st15{fill:#B3E3FF;stroke:#404040;stroke-width:7;stroke-miterlimit:10;} .st16{fill:#CCCCCC;} .st17{fill:none;stroke:#404040;stroke-width:8;stroke-linecap:round;stroke-miterlimit:10;} .st18{fill:#FFFFFF;stroke:#404040;stroke-width:4;stroke-linejoin:round;stroke-miterlimit:10;} .st19{fill:#FFFFFF;stroke:#404040;stroke-width:4;stroke-linecap:round;stroke-linejoin:round;stroke-miterlimit:10;} .st20{fill:#B3E3FF;stroke:#404040;stroke-width:4;stroke-linejoin:round;stroke-miterlimit:10;} .st21{fill:none;stroke:#CCCCCC;stroke-linecap:round;stroke-linejoin:round;stroke-miterlimit:10;} .st22{fill:#999999;} .st23{fill:#4ED1A1;stroke:#404040;stroke-width:4;stroke-linecap:round;stroke-linejoin:round;stroke-miterlimit:10;} .st24{fill:#4CD3D6;stroke:#404040;stroke-width:4;stroke-linejoin:round;stroke-miterlimit:10;} .st25{fill:none;stroke:#59AFE1;stroke-width:4;stroke-miterlimit:10;} .st26{fill:#59AFE1;stroke:#404040;stroke-width:4;stroke-linejoin:round;stroke-miterlimit:10;} .st27{fill:#FFFFFF;stroke:#59AFE1;stroke-width:4;stroke-miterlimit:10;} .st28{fill:#B3E3FF;stroke:#404040;stroke-width:4;stroke-linecap:round;stroke-linejoin:round;stroke-miterlimit:10;} .st29{fill:#FC8363;stroke:#404040;stroke-width:4;stroke-linecap:round;stroke-linejoin:round;stroke-miterlimit:10;} .st30{fill:#CCCCCC;stroke:#404040;stroke-width:4;stroke-miterlimit:10;} .st31{fill:#FFFFFF;stroke:#6693ED;stroke-width:4;stroke-miterlimit:10;} .st32{fill:none;stroke:#A97CDD;stroke-width:4;stroke-linecap:round;stroke-linejoin:round;stroke-miterlimit:10;} .st33{fill:none;stroke:#B3E3FF;stroke-width:4;stroke-linecap:round;stroke-linejoin:round;stroke-miterlimit:10;} .st34{fill:none;stroke:#4ED1A1;stroke-width:4;stroke-linecap:round;stroke-miterlimit:10;} .st35{fill:none;stroke:#4ED1A1;stroke-width:4;stroke-linecap:round;stroke-linejoin:round;stroke-miterlimit:10;} .st36{fill:#E24B88;stroke:#404040;stroke-width:4;stroke-linecap:round;stroke-linejoin:round;stroke-miterlimit:10;} .st37{fill:none;stroke:#DEEFF8;stroke-width:4;stroke-miterlimit:10;} .st38{fill:none;stroke:#CCCCCC;stroke-width:4;stroke-linecap:round;stroke-linejoin:round;} .st39{fill:none;stroke:#CCCCCC;stroke-width:4;stroke-linecap:round;stroke-linejoin:round;stroke-dasharray:0,14.3051;} .st40{fill:none;stroke:#CCCCCC;stroke-width:4;stroke-linecap:round;stroke-linejoin:round;stroke-dasharray:0,14.1689;} .st41{fill:none;stroke:#CCCCCC;stroke-width:4;stroke-linecap:round;stroke-linejoin:round;stroke-dasharray:0,13.9788;} .st42{fill:none;stroke:#CCCCCC;stroke-width:4;stroke-linecap:round;stroke-linejoin:round;stroke-dasharray:0,14.7877;} .st43{fill:none;stroke:#CCCCCC;stroke-width:4;stroke-linecap:round;stroke-linejoin:round;stroke-dasharray:0,14.9632;} .st44{fill:none;stroke:#CCCCCC;stroke-width:4;stroke-linecap:round;stroke-linejoin:round;stroke-dasharray:0,12.543;} .st45{fill:none;stroke:#CCCCCC;stroke-width:4;stroke-linecap:round;stroke-linejoin:round;stroke-dasharray:0,13.6844;} .st46{fill:none;stroke:#CCCCCC;stroke-width:4;stroke-linecap:round;stroke-linejoin:round;stroke-dasharray:0,13.7717;} .st47{fill:none;stroke:#CCCCCC;stroke-width:4;stroke-linecap:round;stroke-linejoin:round;stroke-dasharray:0,13.6492;} .st48{fill:none;stroke:#CCCCCC;stroke-width:4;stroke-linecap:round;stroke-linejoin:round;stroke-dasharray:0,13.907;} .st49{fill:#4CD3D6;stroke:#404040;stroke-width:4;stroke-linecap:round;stroke-linejoin:round;stroke-miterlimit:10;} .st50{fill:none;stroke:#CCCCCC;stroke-width:4;stroke-linecap:round;stroke-linejoin:round;stroke-dasharray:0,14.9858;} .st51{fill:none;stroke:#CCCCCC;stroke-width:4;stroke-linecap:round;stroke-linejoin:round;stroke-dasharray:0,14.0118;} .st52{fill:none;stroke:#CCCCCC;stroke-width:4;stroke-linecap:round;stroke-linejoin:round;stroke-dasharray:0,14.1243;} .st53{fill:none;} .st54{fill:#FFFFFF;stroke:#404040;stroke-width:7;stroke-linecap:round;stroke-linejoin:round;stroke-miterlimit:10;} .st55{fill:#59AFE1;stroke:#404040;stroke-width:7;stroke-linejoin:round;stroke-miterlimit:10;} .st56{fill:#E24B88;stroke:#404040;stroke-width:7;stroke-linecap:round;stroke-linejoin:round;stroke-miterlimit:10;} .st57{fill:none;stroke:#404040;stroke-width:7;stroke-linecap:round;stroke-linejoin:round;stroke-miterlimit:10;} .st58{fill:none;stroke:#CCCCCC;stroke-width:4;stroke-linecap:round;stroke-linejoin:round;stroke-miterlimit:10;} .st59{fill:#FFFFFF;stroke:#CCCCCC;stroke-width:4;stroke-linecap:round;stroke-linejoin:round;stroke-miterlimit:10;} .st60{fill:#F5F5F5;} .st61{fill:#3873AE;} .st62{fill:#75706C;} .st63{fill:none;stroke:#B3E3FF;stroke-width:4;stroke-miterlimit:10;} .st64{fill:#6F6F6F;} .st65{fill:none;stroke:#6F6F6F;stroke-width:2;stroke-miterlimit:10;} .st66{fill:none;stroke:#6F6F6F;stroke-width:3;stroke-miterlimit:10;} .st67{fill:#FFFFFF;stroke:#404040;stroke-width:6;stroke-miterlimit:10;} .st68{fill:#B3E3FF;stroke:#404040;stroke-width:6;stroke-miterlimit:10;}</style><path class="st19" d="M421.8 36.8h171v110.2h-168.3m-132.2 0h-85.1v-110.2h88.6"/><path class="st5" d="M273.3 91.9h272.4"/><circle class="st4" cx="273.3" cy="91.9" r="19"/><circle class="st4" cx="442.2" cy="91.9" r="19"/><circle class="st4" cx="526.7" cy="91.9" r="19"/><path class="st10" d="M409 25.3c-37.9-27.7-91.1-19.5-118.8 18.4-27.7 37.9-19.5 91.1 18.4 118.8 37.9 27.7 91.1 19.5 118.8-18.4 27.7-37.9 19.5-91.1-18.4-118.8zm-.2 105.2c-20.2 27.6-59 33.6-86.6 13.4s-33.6-59-13.4-86.6c20.2-27.6 59-33.6 86.6-13.4 27.6 20.2 33.6 59 13.4 86.6zm-100.2 32c-4.1-3-7.9-6.4-11.3-10l-50.7 69.2 24.3 17.8 50.7-69.2c-4.5-2.2-8.9-4.8-13-7.8z"/><path class="st67" d="M298.8 92.9h119.9"/><circle class="st68" cx="349.8" cy="92.9" r="29.8"/><path class="st8" d="M339.8 95.9l-2.5-7h1.3l1.5 4.4c.3.8.3.9.5 1.7.3-.9.3-.9.6-1.9l1.5-4.2h1.2l-2.7 7h-1.4zm13.7 0h-5.8v-.2c0-.9.2-1.6.7-2.2.4-.5 1-1 2.2-1.7 1.3-.7 1.7-1.3 1.7-2.1 0-.9-.7-1.6-1.7-1.6-.6 0-1.2.3-1.4.8-.2.3-.2.6-.3 1.2h-1.1c0-1 .2-1.5.5-2 .5-.8 1.3-1.2 2.4-1.2 1.7 0 2.8 1.1 2.8 2.6 0 .6-.2 1.2-.5 1.6-.4.5-.8.9-2 1.5-1.5.9-1.9 1.3-2.1 2.1h4.6v1.2zm2.7 0h-1.3v-1.4h1.3v1.4zm.6-6.1v-.8c1.8-.1 2.2-.4 2.4-1.8h.8v8.8h-1.1v-6.1h-2.1z"/></svg>