<svg id="Layer_1" data-name="Layer 1" xmlns="http://www.w3.org/2000/svg" viewBox="0 0 658.47 480.54"><defs><style>.cls-1,.cls-8,.cls-9{fill:#fff;}.cls-1{stroke:#ccc;}.cls-1,.cls-2,.cls-3,.cls-9{stroke-linecap:round;}.cls-1,.cls-2,.cls-3,.cls-7,.cls-9{stroke-linejoin:round;}.cls-1,.cls-10,.cls-11,.cls-2,.cls-3,.cls-5,.cls-6,.cls-7,.cls-8,.cls-9{stroke-width:4px;}.cls-2,.cls-6{fill:#b18be8;}.cls-10,.cls-11,.cls-2,.cls-3,.cls-5,.cls-6,.cls-7,.cls-8,.cls-9{stroke:#404040;}.cls-3,.cls-5{fill:none;}.cls-4{fill:#404040;}.cls-10,.cls-11,.cls-5,.cls-6,.cls-8{stroke-miterlimit:10;}.cls-7{fill:#4cd3d6;}.cls-10{fill:#4ed1a1;}.cls-11{fill:#ffbd17;}</style></defs><title>icons</title><path class="cls-1" d="M97.88,265.75h252"/><circle class="cls-1" cx="254.28" cy="265.75" r="21"/><circle class="cls-1" cx="351.28" cy="265.75" r="21"/><path class="cls-2" d="M299.33,42.55H403.14v50H299.33v-50Z"/><path class="cls-1" d="M304.38,354.42h93.8v50h-93.8v-50Z"/><path class="cls-3" d="M351.28 138.25L351.28 114.75"/><path class="cls-3" d="M362.08 129.55L351.28 140.35 340.38 129.55"/><path class="cls-3" d="M351.28 333.62L351.28 310.12"/><path class="cls-3" d="M340.38 318.82L351.28 308.02 362.18 318.82"/><path class="cls-4" d="M325.07,73.85V62.95h6.63v1.4h-5.12v3.51h4.65v1.41h-4.65v4.58h-1.51Z"/><path class="cls-4" d="M339.88,71.75a3.35,3.35,0,0,1-3.32,2.34,3.94,3.94,0,0,1-.18-7.86c2.28,0,3.55,1.57,3.55,3.88a3.24,3.24,0,0,1,0,.46h-5.57a2.2,2.2,0,0,0,2.23,2.25,2,2,0,0,0,2.08-1.49Zm-1.46-2.35a1.86,1.86,0,0,0-2-1.89,2,2,0,0,0-2,1.89h4Z"/><path class="cls-4" d="M344.15,69.63l2-.29a0.54,0.54,0,0,0,.57-0.55,1.35,1.35,0,0,0-1.6-1.32,1.57,1.57,0,0,0-1.68,1.49l-1.38-.32a2.85,2.85,0,0,1,3-2.4c2.21,0,3.08,1.26,3.08,2.71v3.71a7,7,0,0,0,.09,1.21h-1.42a5.48,5.48,0,0,1-.08-1,2.7,2.7,0,0,1-2.38,1.23A2.24,2.24,0,1,1,344.15,69.63Zm2.57,1.06V70.35l-2.26.34a1.11,1.11,0,0,0-1.08,1.11,1.12,1.12,0,0,0,1.2,1.08A1.94,1.94,0,0,0,346.72,70.69Z"/><path class="cls-4" d="M352.93,66.46h1.6v1.31h-1.6v3.84a0.88,0.88,0,0,0,1,1,3,3,0,0,0,.57-0.06v1.23a3.17,3.17,0,0,1-1,.14,1.92,1.92,0,0,1-2.06-2.11V67.76h-1.42V66.46h0.4a1,1,0,0,0,1.14-1.14v-1.2h1.32v2.34Z"/><path class="cls-4" d="M359.73,74.09a2.74,2.74,0,0,1-2.77-3V66.46h1.45V70.9a1.65,1.65,0,0,0,1.68,1.91,1.67,1.67,0,0,0,1.75-1.89V66.46h1.45v6a12.62,12.62,0,0,0,.08,1.37H362a6.46,6.46,0,0,1-.06-0.89A2.41,2.41,0,0,1,359.73,74.09Z"/><path class="cls-4" d="M370.44,67.92a4.58,4.58,0,0,0-.63,0c-1.22,0-2,.65-2,2.28v3.71h-1.45v-7.4h1.42v1.29A2.32,2.32,0,0,1,370,66.33a2.68,2.68,0,0,1,.48,0v1.54Z"/><path class="cls-4" d="M378.94,71.75a3.35,3.35,0,0,1-3.32,2.34,3.94,3.94,0,0,1-.18-7.86c2.28,0,3.55,1.57,3.55,3.88a3.21,3.21,0,0,1,0,.46h-5.57a2.2,2.2,0,0,0,2.23,2.25,2,2,0,0,0,2.08-1.49Zm-1.46-2.35a1.86,1.86,0,0,0-2-1.89,2,2,0,0,0-2,1.89h4Z"/><path class="cls-5" d="M170.88,224.75a41.06,41.06,0,0,1-41,41h-32m73-41a41.06,41.06,0,0,1,41-41h22.4"/><circle class="cls-6" cx="255.28" cy="183.75" r="21"/><circle class="cls-6" cx="351.28" cy="183.75" r="21"/><path class="cls-5" d="M276.28 183.75L330.28 183.75"/><circle class="cls-1" cx="76.88" cy="265.75" r="21"/><path class="cls-4" d="M337.36,386.34v-8.49l-3.72,8.49h-1.38l-3.69-8.49v8.49h-1.49V375.44h2l3.85,8.88,3.88-8.87h2v10.91h-1.49Z"/><path class="cls-4" d="M343.76,382.11l2-.29a0.54,0.54,0,0,0,.57-0.55,1.35,1.35,0,0,0-1.6-1.32,1.57,1.57,0,0,0-1.68,1.49l-1.38-.32a2.85,2.85,0,0,1,3-2.4c2.21,0,3.08,1.26,3.08,2.71v3.71a7,7,0,0,0,.09,1.21h-1.42a5.45,5.45,0,0,1-.08-1,2.69,2.69,0,0,1-2.38,1.23A2.24,2.24,0,1,1,343.76,382.11Zm2.57,1.06v-0.34l-2.26.34a1.1,1.1,0,0,0-1.08,1.11,1.12,1.12,0,0,0,1.2,1.08A1.94,1.94,0,0,0,346.33,383.18Z"/><path class="cls-4" d="M351.22,384a1.58,1.58,0,0,0,1.72,1.38,1.09,1.09,0,0,0,1.26-1,1,1,0,0,0-1-1l-1.26-.28a2.1,2.1,0,0,1-1.85-2.08,2.52,2.52,0,0,1,2.63-2.34,2.62,2.62,0,0,1,2.81,2l-1.28.48a1.43,1.43,0,0,0-1.54-1.23,1.12,1.12,0,0,0-1.23,1,0.91,0.91,0,0,0,.85.89l1.2,0.26a2.25,2.25,0,0,1,2,2.2,2.45,2.45,0,0,1-2.71,2.29,2.79,2.79,0,0,1-3-2.15Z"/><path class="cls-4" d="M360.09,378.95h1.6v1.31h-1.6v3.84a0.88,0.88,0,0,0,1,1,3,3,0,0,0,.57-0.06v1.23a3.17,3.17,0,0,1-1,.14,1.92,1.92,0,0,1-2.06-2.11v-4.06h-1.42v-1.31h0.4a1,1,0,0,0,1.14-1.14v-1.2h1.32v2.34Z"/><path class="cls-4" d="M370.56,384.24a3.35,3.35,0,0,1-3.32,2.34,3.94,3.94,0,0,1-.18-7.86c2.28,0,3.55,1.57,3.55,3.88a3.21,3.21,0,0,1,0,.46H365a2.2,2.2,0,0,0,2.23,2.25,2,2,0,0,0,2.08-1.49Zm-1.46-2.35a1.86,1.86,0,0,0-2-1.89,2,2,0,0,0-2,1.89h4Z"/><path class="cls-4" d="M377.15,380.41a4.58,4.58,0,0,0-.63,0c-1.22,0-2,.65-2,2.28v3.71H373v-7.4h1.42v1.29a2.32,2.32,0,0,1,2.21-1.42,2.68,2.68,0,0,1,.48,0v1.54Z"/><path class="cls-3" d="M403.14 70.7L500.52 70.7"/><path class="cls-3" d="M517.49,410.38A15.62,15.62,0,0,0,546,410.3"/><path class="cls-7" d="M531.38,446.79s22.52,0.66,31-4.27c14-8.14-.25-24.82-11.26-27.62-3.37,6.33-10.93,10.69-19.73,10.69h0.25c-8.8,0-16.28-4.44-19.73-10.69-11,2.79-25.24,19.56-11.26,27.62,8.47,4.93,31,4.27,31,4.27"/><circle class="cls-7" cx="531.71" cy="389.5" r="18.91"/><path class="cls-8" d="M540.5,379.47c2.14,16.44,6.49,2,9.7,14a18.91,18.91,0,0,1-37.4-3.95,21.05,21.05,0,0,1,.25-3.21c0.9,0.08,21.62,9.12,27.46-6.82h0Z"/><path class="cls-3" d="M542.06,406.19v8.63m-20.22.08v-8.47"/><path class="cls-9" d="M516.75,296.92a15.62,15.62,0,0,0,28.52-.08"/><path class="cls-6" d="M531.05,333.25s22.52,0.66,31-4.27c14-8.14-.25-24.82-11.26-27.62-3.37,6.33-10.93,10.69-19.73,10.69h0.25c-8.8,0-16.28-4.44-19.73-10.69-11,2.79-25.24,19.56-11.26,27.62,8.47,4.93,31,4.27,31,4.27"/><circle class="cls-6" cx="530.97" cy="275.96" r="18.91"/><path class="cls-9" d="M539.27,258.94c-5.51,14.14-15.95.41-26.8,21a18.91,18.91,0,0,0,37.4-3.95C549.87,274.89,540.75,271.11,539.27,258.94Zm2.06,32.88v9.54m-20.22,0v-9.29"/><path class="cls-6" d="M512.06,276.37s0,8.71,3.78,11.92c-3,1.4-9.54-.74-8.63-1.4C510.91,284.34,512.06,276.37,512.06,276.37Zm37.81-.41s-0.16,9.12-3.95,12.33c3,1.4,9.54-.74,8.63-1.4C550.86,284.34,549.87,276,549.87,276Z"/><path class="cls-3" d="M517.24,80.33a15.62,15.62,0,0,0,28.52-.08"/><path class="cls-10" d="M531.13,116.66s22.52,0.66,31-4.27c14-8.14-.25-24.82-11.26-27.62-3.37,6.33-10.93,10.69-19.73,10.69h0.25c-8.8,0-16.28-4.44-19.73-10.69-11,2.79-25.24,19.56-11.26,27.62,8.47,4.93,31,4.27,31,4.27"/><circle class="cls-10" cx="531.46" cy="59.37" r="18.91"/><path class="cls-8" d="M518.64,45.47c2.14,16.44,28,5.92,31.24,17.92a18.91,18.91,0,0,1-37.4-3.95,21.05,21.05,0,0,1,.25-3.21C513.71,56.24,519.38,59.37,518.64,45.47Z"/><path class="cls-3" d="M541.74 76.05L541.74 84.77"/><path class="cls-3" d="M521.51 84.77L521.51 76.3"/><path class="cls-9" d="M516.54,189.43a15.62,15.62,0,0,0,28.52-.08"/><path class="cls-11" d="M530.84,225.76s22.52,0.66,31-4.27c14-8.14-.25-24.82-11.26-27.62-3.37,6.33-10.93,10.69-19.73,10.69h0.25c-8.8,0-16.28-4.44-19.73-10.69-11,2.79-25.24,19.56-11.26,27.62,8.47,4.93,31,4.27,31,4.27"/><circle class="cls-11" cx="530.76" cy="168.46" r="18.91"/><path class="cls-9" d="M539.06,151.45c-5.51,14.14-15.95.41-26.8,21a18.91,18.91,0,0,0,37.4-3.95C549.67,167.4,540.54,163.61,539.06,151.45Zm2.06,32.88v9.54m-20.22,0v-9.29"/><path class="cls-6" d="M511.86,168.88s0,8.71,3.78,11.92c-3,1.4-9.54-.74-8.63-1.4C510.71,176.85,511.86,168.88,511.86,168.88Zm37.81-.41s-0.16,9.12-3.95,12.33c3,1.4,9.54-.74,8.63-1.4C550.65,176.85,549.67,168.46,549.67,168.46Z"/><path class="cls-3" d="M530.76 124.68L530.76 138.6"/><path class="cls-3" d="M530.76 234.68L530.76 248.6"/><path class="cls-3" d="M530.76 344.68L530.76 358.6"/></svg>