<svg id="Layer_1" data-name="Layer 1" xmlns="http://www.w3.org/2000/svg" viewBox="0 0 644.54 525.05"><defs><style>.cls-1,.cls-5{fill:none;}.cls-1,.cls-10,.cls-11,.cls-12,.cls-2,.cls-3,.cls-4,.cls-5,.cls-6,.cls-7,.cls-8{stroke:#404040;stroke-width:4px;}.cls-1,.cls-12,.cls-2,.cls-4,.cls-6{stroke-linecap:round;}.cls-1,.cls-11,.cls-12,.cls-2,.cls-4,.cls-6{stroke-linejoin:round;}.cls-2,.cls-8{fill:#b18be8;}.cls-11,.cls-3,.cls-6{fill:#fff;}.cls-10,.cls-3,.cls-5,.cls-7,.cls-8{stroke-miterlimit:10;}.cls-4{fill:#dce1e5;}.cls-7{fill:#4ed1a1;}.cls-9{fill:#404040;}.cls-10{fill:#b3e3ff;}.cls-12{fill:#fc8363;}.cls-13{fill:#ccc;}</style></defs><title>icons</title><path class="cls-1" d="M55.9,248.57a15.62,15.62,0,0,0,28.52-.08"/><path class="cls-2" d="M69.79,284.91s22.52,0.66,31-4.27c14-8.14-.25-24.82-11.26-27.62-3.37,6.33-10.93,10.69-19.73,10.69H70c-8.8,0-16.28-4.44-19.73-10.69-11,2.79-25.24,19.56-11.26,27.62,8.47,4.93,31,4.27,31,4.27"/><circle class="cls-2" cx="70.12" cy="227.61" r="18.91"/><path class="cls-3" d="M57.29,213.72c2.14,16.44,28,5.92,31.24,17.92a18.91,18.91,0,0,1-37.4-3.95,21.05,21.05,0,0,1,.25-3.21C52.36,224.49,58,227.61,57.29,213.72Z"/><path class="cls-1" d="M79.39 244.3L79.39 253.01"/><path class="cls-1" d="M507.37,249.82a15.62,15.62,0,0,0,28.52-.08"/><path class="cls-4" d="M521.27,286.24s22.52,0.66,31-4.27c14-8.14-.25-24.82-11.26-27.62-3.37,6.33-10.93,10.69-19.73,10.69h0.25c-8.8,0-16.28-4.44-19.73-10.69-11,2.79-25.24,19.56-11.26,27.62,8.47,4.93,31,4.27,31,4.27"/><circle class="cls-4" cx="521.59" cy="223.95" r="18.91"/><path class="cls-3" d="M530.39,213.92c2.14,16.44,6.49,2,9.7,14a18.91,18.91,0,0,1-37.4-3.95,21.05,21.05,0,0,1,.25-3.21c0.9,0.08,21.62,9.12,27.46-6.82h0Z"/><path class="cls-1" d="M532,244.63v8.63m-20.22.08v-8.47"/><path class="cls-5" d="M428,106.14h69.73a21,21,0,0,1,21,21V166"/><path class="cls-5" d="M390.45,408.14h107.2a21,21,0,0,0,21-21v-38.9"/><path class="cls-5" d="M126.9,166v-38.9a21,21,0,0,1,21-21h66.65"/><path class="cls-5" d="M127,348.24v38.9a21,21,0,0,0,21,21h107.2"/><path class="cls-1" d="M556.62,254.09a15.62,15.62,0,0,0,28.52-.08"/><path class="cls-4" d="M570.51,290.42s22.52,0.66,31-4.27c14-8.14-.25-24.82-11.26-27.62-3.37,6.33-10.93,10.69-19.73,10.69h0.25c-8.8,0-16.28-4.44-19.73-10.69-11,2.79-25.24,19.56-11.26,27.62,8.47,4.93,31,4.27,31,4.27"/><circle class="cls-4" cx="570.84" cy="233.13" r="18.91"/><path class="cls-3" d="M558,219.24c2.14,16.44,28,5.92,31.24,17.92a18.91,18.91,0,0,1-37.4-3.95,21.05,21.05,0,0,1,.25-3.21C553.08,230,558.75,233.13,558,219.24Z"/><path class="cls-1" d="M581.11 249.82L581.11 258.53"/><path class="cls-1" d="M560.89 258.53L560.89 250.06"/><path class="cls-1" d="M457.24,254.95a15.62,15.62,0,0,0,28.52-.08"/><path class="cls-4" d="M471.55,291.28s22.52,0.66,31-4.27c14-8.14-.25-24.82-11.26-27.62-3.37,6.33-10.93,10.69-19.73,10.69h0.25c-8.8,0-16.28-4.44-19.73-10.69-11,2.79-25.24,19.56-11.26,27.62,8.47,4.93,31,4.27,31,4.27"/><circle class="cls-4" cx="471.46" cy="233.99" r="18.91"/><path class="cls-6" d="M479.77,217c-5.51,14.14-15.95.41-26.8,21a18.91,18.91,0,0,0,37.4-3.95C490.37,232.92,481.24,229.14,479.77,217Zm2.06,32.88v9.54m-20.22,0V250.1"/><path class="cls-4" d="M452.56,234.4s0,8.71,3.78,11.92c-3,1.4-9.54-.74-8.63-1.4C451.41,242.37,452.56,234.4,452.56,234.4Zm37.81-.41s-0.16,9.12-3.95,12.33c3,1.4,9.54-.74,8.63-1.4C491.36,242.37,490.37,234,490.37,234Z"/><path class="cls-1" d="M171.09,248.57a15.62,15.62,0,0,0,28.52-.08"/><path class="cls-2" d="M185,284.91s22.52,0.66,31-4.27c14-8.14-.25-24.82-11.26-27.62-3.37,6.33-10.93,10.69-19.73,10.69h0.25c-8.8,0-16.28-4.44-19.73-10.69-11,2.79-25.24,19.56-11.26,27.62,8.47,4.93,31,4.27,31,4.27"/><circle class="cls-2" cx="185.31" cy="227.61" r="18.91"/><path class="cls-3" d="M172.48,213.72c2.14,16.44,28,5.92,31.24,17.92a18.91,18.91,0,0,1-37.4-3.95,21.05,21.05,0,0,1,.25-3.21C167.55,224.49,173.22,227.61,172.48,213.72Z"/><path class="cls-1" d="M195.58 244.3L195.58 253.01"/><path class="cls-1" d="M175.36 253.01L175.36 244.55"/><path class="cls-6" d="M112.75,248.57a15.62,15.62,0,0,0,28.52-.08"/><path class="cls-7" d="M127,284.91s22.52,0.66,31-4.27c14-8.14-.25-24.82-11.26-27.62-3.37,6.33-10.93,10.69-19.73,10.69h0.25c-8.8,0-16.28-4.44-19.73-10.69-11,2.79-25.24,19.56-11.26,27.62,8.47,4.93,31,4.27,31,4.27"/><circle class="cls-7" cx="126.97" cy="227.61" r="18.91"/><path class="cls-6" d="M135.27,210.6c-5.51,14.14-15.95.41-26.8,21a18.91,18.91,0,0,0,37.4-3.95C145.87,226.54,136.75,222.76,135.27,210.6Zm2.06,32.88V253m-20.22,0v-9.29"/><path class="cls-8" d="M108.06,228s0,8.71,3.78,11.92c-3,1.4-9.54-.74-8.63-1.4C106.91,236,108.06,228,108.06,228Zm37.81-.41s-0.16,9.12-3.95,12.33c3,1.4,9.54-.74,8.63-1.4C146.86,236,145.87,227.61,145.87,227.61Z"/><path class="cls-9" d="M114.26,310.13h1.81L118.9,315l2.83-4.86h1.72l-3.85,6.24V321H118.1v-4.66Z"/><path class="cls-9" d="M131,317.33a3.79,3.79,0,1,1-3.78-3.92A3.73,3.73,0,0,1,131,317.33Zm-1.48,0a2.33,2.33,0,1,0-2.31,2.65A2.36,2.36,0,0,0,129.52,317.33Z"/><path class="cls-9" d="M136,321.26a2.73,2.73,0,0,1-2.77-3v-4.66h1.45v4.45A1.65,1.65,0,0,0,136.4,320a1.67,1.67,0,0,0,1.75-1.89v-4.46h1.45v6a12.24,12.24,0,0,0,.08,1.37h-1.38a6.48,6.48,0,0,1-.06-0.89A2.42,2.42,0,0,1,136,321.26Z"/><path class="cls-9" d="M485.4,315.57a5.4,5.4,0,0,1,5.41-5.68,4.63,4.63,0,0,1,4.8,3.46l-1.4.49a3.23,3.23,0,0,0-3.4-2.57c-2,0-3.88,1.45-3.88,4.29s1.89,4.31,3.88,4.31a3.47,3.47,0,0,0,3.48-2.62l1.34,0.49a4.76,4.76,0,0,1-4.81,3.51A5.36,5.36,0,0,1,485.4,315.57Z"/><path class="cls-9" d="M500.45,321.26a2.74,2.74,0,0,1-2.77-3v-4.66h1.45v4.45A1.65,1.65,0,0,0,500.8,320a1.67,1.67,0,0,0,1.75-1.89v-4.46H504v6a12.54,12.54,0,0,0,.08,1.37H502.7a6.45,6.45,0,0,1-.06-0.89A2.41,2.41,0,0,1,500.45,321.26Z"/><path class="cls-9" d="M507.67,318.65a1.58,1.58,0,0,0,1.72,1.38,1.09,1.09,0,0,0,1.26-1,1,1,0,0,0-1-1l-1.26-.28a2.1,2.1,0,0,1-1.85-2.08,2.52,2.52,0,0,1,2.63-2.34,2.62,2.62,0,0,1,2.81,2l-1.28.48a1.43,1.43,0,0,0-1.54-1.23,1.12,1.12,0,0,0-1.23,1,0.91,0.91,0,0,0,.85.89l1.2,0.26a2.25,2.25,0,0,1,2,2.2,2.45,2.45,0,0,1-2.71,2.29,2.79,2.79,0,0,1-3-2.15Z"/><path class="cls-9" d="M516.53,313.63h1.6v1.31h-1.6v3.84a0.88,0.88,0,0,0,1,1,3,3,0,0,0,.57-0.06V321a3.2,3.2,0,0,1-1,.14,1.92,1.92,0,0,1-2.06-2.11v-4.06h-1.42v-1.31h0.4a1,1,0,0,0,1.14-1.14v-1.2h1.32v2.34Z"/><path class="cls-9" d="M527.52,317.33a3.79,3.79,0,1,1-3.78-3.92A3.73,3.73,0,0,1,527.52,317.33Zm-1.48,0a2.33,2.33,0,1,0-2.31,2.65A2.36,2.36,0,0,0,526,317.33Z"/><path class="cls-9" d="M529.95,321v-7.4h1.38v1a2.55,2.55,0,0,1,2.25-1.2,2.31,2.31,0,0,1,2.21,1.4,2.65,2.65,0,0,1,2.48-1.4,2.54,2.54,0,0,1,2.55,2.81V321h-1.43v-4.64a1.49,1.49,0,0,0-1.57-1.69,1.72,1.72,0,0,0-1.71,1.86V321h-1.45v-4.64a1.49,1.49,0,0,0-1.57-1.69,1.71,1.71,0,0,0-1.72,1.88V321h-1.43Z"/><path class="cls-9" d="M550.17,318.93a3.35,3.35,0,0,1-3.32,2.34,3.94,3.94,0,0,1-.18-7.86c2.28,0,3.55,1.57,3.55,3.88a3.22,3.22,0,0,1,0,.46h-5.57a2.2,2.2,0,0,0,2.23,2.25,2,2,0,0,0,2.08-1.49Zm-1.46-2.35a1.86,1.86,0,0,0-2-1.89,2,2,0,0,0-2,1.89h4Z"/><path class="cls-9" d="M556.75,315.1a4.73,4.73,0,0,0-.63,0c-1.21,0-2,.65-2,2.28V321h-1.45v-7.4h1.42v1.29a2.32,2.32,0,0,1,2.21-1.42,2.67,2.67,0,0,1,.48,0v1.54Z"/><path class="cls-9" d="M559.49,318.65a1.58,1.58,0,0,0,1.72,1.38,1.09,1.09,0,0,0,1.26-1,1,1,0,0,0-1-1l-1.26-.28a2.1,2.1,0,0,1-1.85-2.08A2.52,2.52,0,0,1,561,313.4a2.62,2.62,0,0,1,2.81,2l-1.28.48a1.43,1.43,0,0,0-1.54-1.23,1.12,1.12,0,0,0-1.23,1,0.91,0.91,0,0,0,.85.89l1.2,0.26a2.25,2.25,0,0,1,2,2.2,2.45,2.45,0,0,1-2.71,2.29,2.79,2.79,0,0,1-3-2.15Z"/><path class="cls-10" d="M344,370.44a30.43,30.43,0,0,1,14.8,57l2.3,13.9-14-10.3c-1,.1-2,0.1-3,0.1a30.35,30.35,0,0,1-.1-60.7h0Z"/><path class="cls-2" d="M304.28,374.94a30.43,30.43,0,0,0-14.8,57l-2.3,13.9,14-10.3c1,0.1,2,.1,3,0.1a30.35,30.35,0,0,0,.1-60.7h0Z"/><path class="cls-11" d="M233.8,45.64h176v121h-176v-121Z"/><path class="cls-12" d="M233.8,45.64h176v29h-176v-29Z"/><path class="cls-13" d="M251.3,106.14h39.35v45.3H251.3v-45.3Z"/><path class="cls-13" d="M251.3,91.34H389.9v7.2H251.3v-7.2Z"/><path class="cls-13" d="M301.56,106.14h39.35v45.3H301.56v-45.3Z"/><path class="cls-13" d="M350.55,106.14H389.9v45.3H350.55v-45.3Z"/><path class="cls-9" d="M292.71,191.57V196H291.2v-10.9h4a3.22,3.22,0,1,1,0,6.44h-2.46Zm2.18-1.35a1.88,1.88,0,1,0,0-3.74h-2.18v3.74h2.18Z"/><path class="cls-9" d="M304.69,190.1a4.73,4.73,0,0,0-.63,0c-1.21,0-2,.65-2,2.28V196h-1.45v-7.4H302v1.29a2.32,2.32,0,0,1,2.21-1.42,2.67,2.67,0,0,1,.48,0v1.54Z"/><path class="cls-9" d="M313.69,192.33a3.79,3.79,0,1,1-3.78-3.92A3.73,3.73,0,0,1,313.69,192.33Zm-1.48,0a2.33,2.33,0,1,0-2.31,2.65A2.36,2.36,0,0,0,312.22,192.33Z"/><path class="cls-9" d="M321.31,194.91a2.48,2.48,0,0,1-2.29,1.32c-2.17,0-3.51-1.72-3.51-3.92a3.63,3.63,0,0,1,3.51-3.87,2.27,2.27,0,0,1,2.26,1.25V184.9h1.43v9.77a11.6,11.6,0,0,0,.08,1.37h-1.4a6.26,6.26,0,0,1-.08-1v-0.12Zm-2.15,0c1.32,0,2.14-1.15,2.14-2.68s-0.8-2.57-2.12-2.57-2.18,1.08-2.18,2.6S317.77,195,319.16,195Z"/><path class="cls-9" d="M328.38,196.26a2.74,2.74,0,0,1-2.77-3v-4.66h1.45v4.45a1.65,1.65,0,0,0,1.68,1.91,1.67,1.67,0,0,0,1.75-1.89v-4.46h1.45v6A12.6,12.6,0,0,0,332,196h-1.38a6.45,6.45,0,0,1-.06-0.89A2.41,2.41,0,0,1,328.38,196.26Z"/><path class="cls-9" d="M335.76,192.33a2.33,2.33,0,0,0,2.26,2.6,2,2,0,0,0,2.06-1.52l1.28,0.55a3.4,3.4,0,0,1-3.34,2.31,3.94,3.94,0,0,1,0-7.86,3.22,3.22,0,0,1,3.29,2.35l-1.31.55a1.94,1.94,0,0,0-2-1.57A2.3,2.3,0,0,0,335.76,192.33Z"/><path class="cls-9" d="M345.58,188.63h1.6v1.31h-1.6v3.84a0.88,0.88,0,0,0,1,1,3,3,0,0,0,.57-0.06V196a3.2,3.2,0,0,1-1,.14,1.92,1.92,0,0,1-2.06-2.11v-4.06h-1.42v-1.31h0.4a1,1,0,0,0,1.14-1.14v-1.2h1.32v2.34Z"/><path class="cls-9" d="M291.2,480v-10.9h6.63v1.4h-5.12V474h4.65v1.41h-4.65V480H291.2Z"/><path class="cls-9" d="M306,477.93a3.35,3.35,0,0,1-3.32,2.34,3.94,3.94,0,0,1-.18-7.86c2.28,0,3.55,1.57,3.55,3.88a3.22,3.22,0,0,1,0,.46h-5.57a2.2,2.2,0,0,0,2.23,2.25,2,2,0,0,0,2.08-1.49Zm-1.46-2.35a1.86,1.86,0,0,0-2-1.89,2,2,0,0,0-2,1.89h4Z"/><path class="cls-9" d="M314.94,477.93a3.35,3.35,0,0,1-3.32,2.34,3.94,3.94,0,0,1-.18-7.86c2.28,0,3.55,1.57,3.55,3.88a3.2,3.2,0,0,1,0,.46h-5.57a2.2,2.2,0,0,0,2.23,2.25,2,2,0,0,0,2.08-1.49Zm-1.46-2.35a1.86,1.86,0,0,0-2-1.89,2,2,0,0,0-2,1.89h4Z"/><path class="cls-9" d="M322.61,478.91a2.48,2.48,0,0,1-2.29,1.32c-2.17,0-3.51-1.72-3.51-3.92a3.63,3.63,0,0,1,3.51-3.87,2.27,2.27,0,0,1,2.26,1.25V468.9H324v9.77a11.6,11.6,0,0,0,.08,1.37h-1.4a6.26,6.26,0,0,1-.08-1v-0.12Zm-2.15,0c1.32,0,2.14-1.15,2.14-2.68s-0.8-2.57-2.12-2.57-2.18,1.08-2.18,2.6S319.07,479,320.45,479Z"/><path class="cls-9" d="M327.05,480V468.9h1.43v4.78a2.7,2.7,0,0,1,2.45-1.26c2.25,0,3.4,1.72,3.4,3.88s-1.25,3.94-3.45,3.94a2.64,2.64,0,0,1-2.4-1.28V480h-1.43Zm3.61-6.34c-1.28,0-2.2,1-2.2,2.6s0.92,2.64,2.2,2.64,2.18-1,2.18-2.64S332,473.7,330.67,473.7Z"/><path class="cls-9" d="M338.55,475.8l2-.29a0.54,0.54,0,0,0,.57-0.55,1.35,1.35,0,0,0-1.6-1.32,1.57,1.57,0,0,0-1.68,1.49l-1.38-.32a2.85,2.85,0,0,1,3-2.4c2.21,0,3.08,1.26,3.08,2.71v3.71a7,7,0,0,0,.09,1.21h-1.42a5.44,5.44,0,0,1-.08-1,2.69,2.69,0,0,1-2.38,1.23A2.24,2.24,0,1,1,338.55,475.8Zm2.57,1.06v-0.34l-2.26.34a1.1,1.1,0,0,0-1.08,1.11A1.12,1.12,0,0,0,339,479,1.94,1.94,0,0,0,341.12,476.87Z"/><path class="cls-9" d="M346.26,476.33a2.33,2.33,0,0,0,2.26,2.6,2,2,0,0,0,2.06-1.52l1.28,0.55a3.4,3.4,0,0,1-3.34,2.31,3.94,3.94,0,0,1,0-7.86,3.22,3.22,0,0,1,3.29,2.35l-1.31.55a1.94,1.94,0,0,0-2-1.57A2.3,2.3,0,0,0,346.26,476.33Z"/><path class="cls-9" d="M357.61,475.76l3.21,4.28H359l-2.42-3.26-1,1V480h-1.43V468.9h1.43v7l3.2-3.28h2Z"/></svg>