<svg id="Layer_1" data-name="Layer 1" xmlns="http://www.w3.org/2000/svg" viewBox="0 0 1109.94 577.73"><defs><style>.cls-1,.cls-12,.cls-3{fill:none;}.cls-1,.cls-10,.cls-11,.cls-2,.cls-3,.cls-4,.cls-6,.cls-8,.cls-9{stroke:#404040;}.cls-1,.cls-10,.cls-11,.cls-6{stroke-miterlimit:10;}.cls-1,.cls-10,.cls-11,.cls-2,.cls-3,.cls-4,.cls-6,.cls-7,.cls-8,.cls-9{stroke-width:4px;}.cls-10,.cls-2{fill:#b18be8;}.cls-12,.cls-2,.cls-3,.cls-7,.cls-8,.cls-9{stroke-linecap:round;}.cls-12,.cls-2,.cls-3,.cls-4,.cls-7,.cls-8,.cls-9{stroke-linejoin:round;}.cls-4{fill:#4cd3d6;}.cls-5{fill:#404040;}.cls-6{fill:#4ed1a1;}.cls-11,.cls-7,.cls-8{fill:#fff;}.cls-12,.cls-7{stroke:#ccc;}.cls-9{fill:#dce1e5;}</style></defs><title>icons</title><path class="cls-1" d="M436,208.61H328.82a21,21,0,0,0-21,21v38.9"/><path class="cls-2" d="M282.82,268.51V150.81"/><path class="cls-1" d="M129.62,208.61h107.2a21,21,0,0,1,21,21v38.9"/><path class="cls-3" d="M436,208.61a21,21,0,0,0,21-21v-36.9m-327.4,57.9a21,21,0,0,1-21-21v-36.9"/><path class="cls-4" d="M56.72,106.71H160.52v50H56.72v-50Z"/><path class="cls-5" d="M74.14,137.49V126.59h6.63V128H75.64v3.51h4.65v1.41H75.64v4.58H74.14Z"/><path class="cls-5" d="M89,135.39a3.35,3.35,0,0,1-3.32,2.34,3.94,3.94,0,0,1-.18-7.86c2.28,0,3.55,1.57,3.55,3.88a3.24,3.24,0,0,1,0,.46H83.4a2.2,2.2,0,0,0,2.23,2.25A2,2,0,0,0,87.71,135ZM87.49,133a1.86,1.86,0,0,0-2-1.89,2,2,0,0,0-2,1.89h4Z"/><path class="cls-5" d="M93.22,133.26l2-.29a0.54,0.54,0,0,0,.57-0.55,1.35,1.35,0,0,0-1.6-1.32,1.57,1.57,0,0,0-1.68,1.49l-1.38-.32a2.85,2.85,0,0,1,3-2.4c2.21,0,3.08,1.26,3.08,2.71v3.71a7,7,0,0,0,.09,1.21H95.91a5.48,5.48,0,0,1-.08-1,2.7,2.7,0,0,1-2.38,1.23A2.24,2.24,0,1,1,93.22,133.26Zm2.57,1.06V134l-2.26.34a1.11,1.11,0,0,0-1.08,1.11,1.12,1.12,0,0,0,1.2,1.08A1.94,1.94,0,0,0,95.78,134.33Z"/><path class="cls-5" d="M102,130.1h1.6v1.31H102v3.84a0.88,0.88,0,0,0,1,1,3,3,0,0,0,.57-0.06v1.23a3.17,3.17,0,0,1-1,.14,1.92,1.92,0,0,1-2.06-2.11V131.4H99.14V130.1h0.4a1,1,0,0,0,1.14-1.14v-1.2H102v2.34Z"/><path class="cls-5" d="M108.8,137.72a2.74,2.74,0,0,1-2.77-3V130.1h1.45v4.45a1.65,1.65,0,0,0,1.68,1.91,1.67,1.67,0,0,0,1.75-1.89V130.1h1.45v6a12.62,12.62,0,0,0,.08,1.37H111a6.46,6.46,0,0,1-.06-0.89A2.41,2.41,0,0,1,108.8,137.72Z"/><path class="cls-5" d="M119.51,131.56a4.58,4.58,0,0,0-.63,0c-1.22,0-2,.65-2,2.28v3.71h-1.45v-7.4h1.42v1.29A2.32,2.32,0,0,1,119,130a2.68,2.68,0,0,1,.48,0v1.54Z"/><path class="cls-5" d="M128,135.39a3.35,3.35,0,0,1-3.32,2.34,3.94,3.94,0,0,1-.18-7.86c2.28,0,3.55,1.57,3.55,3.88a3.21,3.21,0,0,1,0,.46h-5.57a2.2,2.2,0,0,0,2.23,2.25,2,2,0,0,0,2.08-1.49ZM126.54,133a1.86,1.86,0,0,0-2-1.89,2,2,0,0,0-2,1.89h4Z"/><path class="cls-5" d="M141.44,134.45h-4.83l-1.15,3h-1.61l4.34-10.91h1.74l4.34,10.91h-1.63Zm-4.29-1.4h3.75L139,128.16Z"/><path class="cls-6" d="M231.78,106.49H335.59v50H231.78v-50Z"/><path class="cls-5" d="M249.2,137.28V126.37h6.63v1.4h-5.12v3.51h4.65v1.41h-4.65v4.58H249.2Z"/><path class="cls-5" d="M264,135.17a3.35,3.35,0,0,1-3.32,2.34,3.94,3.94,0,0,1-.18-7.86c2.28,0,3.55,1.57,3.55,3.88a3.24,3.24,0,0,1,0,.46h-5.57a2.2,2.2,0,0,0,2.23,2.25,2,2,0,0,0,2.08-1.49Zm-1.46-2.35a1.86,1.86,0,0,0-2-1.89,2,2,0,0,0-2,1.89h4Z"/><path class="cls-5" d="M268.28,133l2-.29a0.54,0.54,0,0,0,.57-0.55,1.35,1.35,0,0,0-1.6-1.32,1.57,1.57,0,0,0-1.68,1.49l-1.38-.32a2.85,2.85,0,0,1,3-2.4c2.21,0,3.08,1.26,3.08,2.71v3.71a7,7,0,0,0,.09,1.21H271a5.48,5.48,0,0,1-.08-1,2.7,2.7,0,0,1-2.38,1.23A2.24,2.24,0,1,1,268.28,133Zm2.57,1.06v-0.34l-2.26.34a1.11,1.11,0,0,0-1.08,1.11,1.12,1.12,0,0,0,1.2,1.08A1.94,1.94,0,0,0,270.85,134.11Z"/><path class="cls-5" d="M277.07,129.88h1.6v1.31h-1.6V135a0.88,0.88,0,0,0,1,1,3,3,0,0,0,.57-0.06v1.23a3.17,3.17,0,0,1-1,.14,1.92,1.92,0,0,1-2.06-2.11v-4.06h-1.42v-1.31h0.4a1,1,0,0,0,1.14-1.14v-1.2h1.32v2.34Z"/><path class="cls-5" d="M283.87,137.51a2.74,2.74,0,0,1-2.77-3v-4.66h1.45v4.45a1.65,1.65,0,0,0,1.68,1.91,1.67,1.67,0,0,0,1.75-1.89v-4.46h1.45v6a12.62,12.62,0,0,0,.08,1.37h-1.38a6.46,6.46,0,0,1-.06-0.89A2.41,2.41,0,0,1,283.87,137.51Z"/><path class="cls-5" d="M294.58,131.34a4.58,4.58,0,0,0-.63,0c-1.22,0-2,.65-2,2.28v3.71h-1.45v-7.4h1.42v1.29a2.32,2.32,0,0,1,2.21-1.42,2.68,2.68,0,0,1,.48,0v1.54Z"/><path class="cls-5" d="M303.07,135.17a3.35,3.35,0,0,1-3.32,2.34,3.94,3.94,0,0,1-.18-7.86c2.28,0,3.55,1.57,3.55,3.88a3.21,3.21,0,0,1,0,.46h-5.57a2.2,2.2,0,0,0,2.23,2.25,2,2,0,0,0,2.08-1.49Zm-1.46-2.35a1.86,1.86,0,0,0-2-1.89,2,2,0,0,0-2,1.89h4Z"/><path class="cls-5" d="M313.69,126.37c2.08,0,3.29,1.23,3.29,3a2.42,2.42,0,0,1-1.63,2.35,2.62,2.62,0,0,1,2,2.63c0,1.72-1.37,3-3.37,3h-3.81V126.37h3.55Zm-0.17,4.77a1.74,1.74,0,1,0-.06-3.45h-1.82v3.45h1.88Zm0.22,4.81a1.8,1.8,0,0,0,2-1.74,1.73,1.73,0,0,0-2-1.78h-2.15V136h2.09Z"/><path class="cls-2" d="M405.12,106.49H508.92v50H405.12v-50Z"/><path class="cls-5" d="M422.54,137.28V126.37h6.63v1.4H424v3.51h4.65v1.41H424v4.58h-1.51Z"/><path class="cls-5" d="M437.35,135.17a3.35,3.35,0,0,1-3.32,2.34,3.94,3.94,0,0,1-.18-7.86c2.28,0,3.55,1.57,3.55,3.88a3.24,3.24,0,0,1,0,.46H431.8a2.2,2.2,0,0,0,2.23,2.25,2,2,0,0,0,2.08-1.49Zm-1.46-2.35a1.86,1.86,0,0,0-2-1.89,2,2,0,0,0-2,1.89h4Z"/><path class="cls-5" d="M441.62,133l2-.29a0.54,0.54,0,0,0,.57-0.55,1.35,1.35,0,0,0-1.6-1.32,1.57,1.57,0,0,0-1.68,1.49l-1.38-.32a2.85,2.85,0,0,1,3-2.4c2.21,0,3.08,1.26,3.08,2.71v3.71a7,7,0,0,0,.09,1.21h-1.42a5.48,5.48,0,0,1-.08-1,2.7,2.7,0,0,1-2.38,1.23A2.24,2.24,0,1,1,441.62,133Zm2.57,1.06v-0.34l-2.26.34a1.11,1.11,0,0,0-1.08,1.11,1.12,1.12,0,0,0,1.2,1.08A1.94,1.94,0,0,0,444.18,134.11Z"/><path class="cls-5" d="M450.4,129.88H452v1.31h-1.6V135a0.88,0.88,0,0,0,1,1A3,3,0,0,0,452,136v1.23a3.17,3.17,0,0,1-1,.14,1.92,1.92,0,0,1-2.06-2.11v-4.06h-1.42v-1.31h0.4a1,1,0,0,0,1.14-1.14v-1.2h1.32v2.34Z"/><path class="cls-5" d="M457.2,137.51a2.74,2.74,0,0,1-2.77-3v-4.66h1.45v4.45a1.65,1.65,0,0,0,1.68,1.91,1.67,1.67,0,0,0,1.75-1.89v-4.46h1.45v6a12.62,12.62,0,0,0,.08,1.37h-1.38a6.46,6.46,0,0,1-.06-0.89A2.41,2.41,0,0,1,457.2,137.51Z"/><path class="cls-5" d="M467.91,131.34a4.58,4.58,0,0,0-.63,0c-1.22,0-2,.65-2,2.28v3.71H463.8v-7.4h1.42v1.29a2.32,2.32,0,0,1,2.21-1.42,2.68,2.68,0,0,1,.48,0v1.54Z"/><path class="cls-5" d="M476.4,135.17a3.35,3.35,0,0,1-3.32,2.34,3.94,3.94,0,0,1-.18-7.86c2.28,0,3.55,1.57,3.55,3.88a3.21,3.21,0,0,1,0,.46h-5.57a2.2,2.2,0,0,0,2.23,2.25,2,2,0,0,0,2.08-1.49Zm-1.46-2.35a1.86,1.86,0,0,0-2-1.89,2,2,0,0,0-2,1.89h4Z"/><path class="cls-5" d="M482.78,131.82a5.4,5.4,0,0,1,5.41-5.68,4.63,4.63,0,0,1,4.8,3.46l-1.4.49a3.23,3.23,0,0,0-3.4-2.57c-2,0-3.88,1.45-3.88,4.29s1.89,4.31,3.88,4.31a3.47,3.47,0,0,0,3.48-2.62L493,134a4.76,4.76,0,0,1-4.81,3.51A5.36,5.36,0,0,1,482.78,131.82Z"/><path class="cls-1" d="M129.48,328.61h107.2a21,21,0,0,0,21-21v-38.9"/><path class="cls-2" d="M282.68,268.71v117.7"/><path class="cls-1" d="M435.88,328.61H328.68a21,21,0,0,1-21-21v-38.9"/><path class="cls-3" d="M129.48,328.61a21,21,0,0,0-21,21v36.9m327.4-57.9a21,21,0,0,1,21,21v36.9"/><path class="cls-7" d="M185.38,241.25H384v50H185.38v-50Z"/><path class="cls-5" d="M259.35,270.15h-1.63v4.46H256.2V263.7h4.11a3.16,3.16,0,0,1,3.34,3.25A3.05,3.05,0,0,1,261,270l2.6,4.57h-1.75Zm0.68-1.35a1.88,1.88,0,1,0,0-3.74h-2.31v3.74H260Z"/><path class="cls-5" d="M272.29,272.5a3.35,3.35,0,0,1-3.32,2.34,3.94,3.94,0,0,1-.18-7.86c2.28,0,3.55,1.57,3.55,3.88a3.21,3.21,0,0,1,0,.46h-5.57a2.2,2.2,0,0,0,2.23,2.25,2,2,0,0,0,2.08-1.49Zm-1.46-2.35a1.86,1.86,0,0,0-2-1.89,2,2,0,0,0-2,1.89h4Z"/><path class="cls-5" d="M274.77,274.61V263.47h1.45v11.14h-1.45Z"/><path class="cls-5" d="M285.71,272.5a3.35,3.35,0,0,1-3.32,2.34,3.94,3.94,0,0,1-.18-7.86c2.28,0,3.55,1.57,3.55,3.88a3.21,3.21,0,0,1,0,.46h-5.57a2.2,2.2,0,0,0,2.23,2.25,2,2,0,0,0,2.08-1.49Zm-1.46-2.35a1.86,1.86,0,0,0-2-1.89,2,2,0,0,0-2,1.89h4Z"/><path class="cls-5" d="M290,270.38l2-.29a0.54,0.54,0,0,0,.57-0.55,1.35,1.35,0,0,0-1.6-1.32,1.57,1.57,0,0,0-1.68,1.49l-1.38-.32a2.85,2.85,0,0,1,3-2.4c2.21,0,3.08,1.26,3.08,2.71v3.71a7,7,0,0,0,.09,1.21h-1.42a5.45,5.45,0,0,1-.08-1,2.69,2.69,0,0,1-2.38,1.23A2.24,2.24,0,1,1,290,270.38Zm2.57,1.06V271.1l-2.26.34a1.1,1.1,0,0,0-1.08,1.11,1.12,1.12,0,0,0,1.2,1.08A1.94,1.94,0,0,0,292.54,271.44Z"/><path class="cls-5" d="M297.44,272.22a1.58,1.58,0,0,0,1.72,1.38,1.09,1.09,0,0,0,1.26-1,1,1,0,0,0-1-1l-1.26-.28a2.1,2.1,0,0,1-1.85-2.08A2.52,2.52,0,0,1,299,267a2.62,2.62,0,0,1,2.81,2l-1.28.48a1.43,1.43,0,0,0-1.54-1.23,1.12,1.12,0,0,0-1.23,1,0.91,0.91,0,0,0,.85.89l1.2,0.26a2.25,2.25,0,0,1,2,2.2,2.45,2.45,0,0,1-2.71,2.29,2.79,2.79,0,0,1-3-2.15Z"/><path class="cls-5" d="M310.73,272.5a3.35,3.35,0,0,1-3.32,2.34,3.94,3.94,0,0,1-.18-7.86c2.28,0,3.55,1.57,3.55,3.88a3.24,3.24,0,0,1,0,.46h-5.57a2.2,2.2,0,0,0,2.23,2.25,2,2,0,0,0,2.08-1.49Zm-1.46-2.35a1.86,1.86,0,0,0-2-1.89,2,2,0,0,0-2,1.89h4Z"/><path class="cls-8" d="M94.06,445a15.62,15.62,0,0,0,28.52-.08"/><path class="cls-9" d="M108.36,481.38s22.52,0.66,31-4.27c14-8.14-.25-24.82-11.26-27.62-3.37,6.33-10.93,10.69-19.73,10.69h0.25c-8.8,0-16.28-4.44-19.73-10.69-11,2.79-25.24,19.56-11.26,27.62,8.47,4.93,31,4.27,31,4.27"/><circle class="cls-9" cx="108.28" cy="424.08" r="18.91"/><path class="cls-8" d="M116.58,407.07c-5.51,14.14-15.95.41-26.8,21a18.91,18.91,0,0,0,37.4-3.95C127.19,423,118.06,419.23,116.58,407.07Zm2.06,32.88v9.54m-20.22,0v-9.29"/><path class="cls-10" d="M89.37,424.49s0,8.71,3.78,11.92c-3,1.4-9.54-.74-8.63-1.4C88.22,432.47,89.37,424.49,89.37,424.49Zm37.81-.41s-0.16,9.12-3.95,12.33c3,1.4,9.54-.74,8.63-1.4C128.17,432.47,127.19,424.08,127.19,424.08Z"/><path class="cls-3" d="M442.87,445.56a15.62,15.62,0,0,0,28.52-.08"/><path class="cls-9" d="M456.76,481.9s22.52,0.66,31-4.27c14-8.14-.25-24.82-11.26-27.62-3.37,6.33-10.93,10.69-19.73,10.69H457c-8.8,0-16.28-4.44-19.73-10.69-11,2.79-25.24,19.56-11.26,27.62,8.47,4.93,31,4.27,31,4.27"/><circle class="cls-9" cx="457.09" cy="424.6" r="18.91"/><path class="cls-11" d="M444.27,410.71c2.14,16.44,28,5.92,31.24,17.92a18.91,18.91,0,0,1-37.4-3.95,21.05,21.05,0,0,1,.25-3.21C439.33,421.48,445,424.6,444.27,410.71Z"/><path class="cls-3" d="M467.37 441.29L467.37 450"/><path class="cls-3" d="M447.14 450L447.14 441.54"/><path class="cls-8" d="M268.39,445.34a15.62,15.62,0,0,0,28.52-.08"/><path class="cls-9" d="M282.7,481.68s22.52,0.66,31-4.27c14-8.14-.25-24.82-11.26-27.62-3.37,6.33-10.93,10.69-19.73,10.69h0.25c-8.8,0-16.28-4.44-19.73-10.69-11,2.79-25.24,19.56-11.26,27.62,8.47,4.93,31,4.27,31,4.27"/><circle class="cls-9" cx="282.61" cy="424.38" r="18.91"/><path class="cls-8" d="M290.92,407.37c-5.51,14.14-15.95.41-26.8,21a18.91,18.91,0,0,0,37.4-3.95C301.52,423.31,292.4,419.53,290.92,407.37ZM293,440.25v9.54m-20.22,0v-9.29"/><path class="cls-10" d="M263.71,424.79s0,8.71,3.78,11.92c-3,1.4-9.54-.74-8.63-1.4C262.56,432.77,263.71,424.79,263.71,424.79Zm37.81-.41s-0.16,9.12-3.95,12.33c3,1.4,9.54-.74,8.63-1.4C302.51,432.77,301.52,424.38,301.52,424.38Z"/><path class="cls-5" d="M75.56,517.43H70.73l-1.15,3H68l4.34-10.91H74l4.34,10.91H76.74ZM71.27,516H75l-1.89-4.89Z"/><path class="cls-5" d="M82.65,520.7a2.74,2.74,0,0,1-2.77-3v-4.66h1.45v4.45A1.65,1.65,0,0,0,83,519.43a1.67,1.67,0,0,0,1.75-1.89v-4.46h1.45v6a12.88,12.88,0,0,0,.08,1.37H84.9a6.44,6.44,0,0,1-.06-0.89A2.41,2.41,0,0,1,82.65,520.7Z"/><path class="cls-5" d="M94.36,519.35a2.48,2.48,0,0,1-2.29,1.32c-2.17,0-3.51-1.72-3.51-3.92a3.63,3.63,0,0,1,3.51-3.87,2.27,2.27,0,0,1,2.26,1.25v-4.78h1.43v9.77a11.52,11.52,0,0,0,.08,1.37h-1.4a6.16,6.16,0,0,1-.08-1v-0.12Zm-2.15,0c1.32,0,2.14-1.15,2.14-2.68s-0.8-2.57-2.12-2.57S90,515.23,90,516.75,90.82,519.4,92.21,519.4Z"/><path class="cls-5" d="M99.52,509.23a1,1,0,1,1-1,1A1,1,0,0,1,99.52,509.23Zm-0.71,11.24v-7.4h1.43v7.4H98.81Z"/><path class="cls-5" d="M109.73,518.36a3.35,3.35,0,0,1-3.32,2.34,3.94,3.94,0,0,1-.19-7.86c2.28,0,3.55,1.57,3.55,3.88a3.21,3.21,0,0,1,0,.46h-5.57a2.2,2.2,0,0,0,2.23,2.25,2,2,0,0,0,2.08-1.49ZM108.27,516a1.86,1.86,0,0,0-2-1.89,2,2,0,0,0-2,1.89h4Z"/><path class="cls-5" d="M113.66,520.47h-1.45v-7.4h1.41v1.06a2.54,2.54,0,0,1,2.28-1.28c1.77,0,2.64,1.28,2.64,2.92v4.69H117.1V516a1.61,1.61,0,0,0-1.72-1.86,1.78,1.78,0,0,0-1.72,2v4.28Z"/><path class="cls-5" d="M122.31,516.76a2.33,2.33,0,0,0,2.26,2.6,2,2,0,0,0,2.06-1.52l1.28,0.55a3.4,3.4,0,0,1-3.34,2.31,3.94,3.94,0,0,1,0-7.86,3.22,3.22,0,0,1,3.29,2.35l-1.31.55a1.94,1.94,0,0,0-2-1.57A2.3,2.3,0,0,0,122.31,516.76Z"/><path class="cls-5" d="M136.55,518.36a3.35,3.35,0,0,1-3.32,2.34,3.94,3.94,0,0,1-.18-7.86c2.28,0,3.55,1.57,3.55,3.88a3.21,3.21,0,0,1,0,.46H131a2.2,2.2,0,0,0,2.23,2.25,2,2,0,0,0,2.08-1.49ZM135.09,516a1.86,1.86,0,0,0-2-1.89,2,2,0,0,0-2,1.89h4Z"/><path class="cls-5" d="M150,517.43h-4.83l-1.15,3h-1.62l4.34-10.91h1.74l4.34,10.91h-1.63ZM145.7,516h3.75l-1.89-4.89Z"/><path class="cls-5" d="M248.57,517.43h-4.83l-1.15,3H241l4.34-10.91H247l4.34,10.91h-1.63Zm-4.29-1.4H248l-1.89-4.89Z"/><path class="cls-5" d="M255.66,520.7a2.74,2.74,0,0,1-2.77-3v-4.66h1.45v4.45a1.65,1.65,0,0,0,1.68,1.91,1.67,1.67,0,0,0,1.75-1.89v-4.46h1.45v6a12.56,12.56,0,0,0,.08,1.37h-1.38a6.46,6.46,0,0,1-.06-0.89A2.41,2.41,0,0,1,255.66,520.7Z"/><path class="cls-5" d="M267.37,519.35a2.48,2.48,0,0,1-2.29,1.32c-2.17,0-3.51-1.72-3.51-3.92a3.63,3.63,0,0,1,3.51-3.87,2.27,2.27,0,0,1,2.26,1.25v-4.78h1.43v9.77a11.62,11.62,0,0,0,.08,1.37h-1.4a6.28,6.28,0,0,1-.08-1v-0.12Zm-2.15,0c1.32,0,2.14-1.15,2.14-2.68s-0.8-2.57-2.12-2.57-2.18,1.08-2.18,2.6S263.84,519.4,265.22,519.4Z"/><path class="cls-5" d="M272.53,509.23a1,1,0,1,1-1,1A1,1,0,0,1,272.53,509.23Zm-0.71,11.24v-7.4h1.43v7.4h-1.43Z"/><path class="cls-5" d="M282.74,518.36a3.35,3.35,0,0,1-3.32,2.34,3.94,3.94,0,0,1-.18-7.86c2.28,0,3.55,1.57,3.55,3.88a3.21,3.21,0,0,1,0,.46h-5.57a2.2,2.2,0,0,0,2.23,2.25,2,2,0,0,0,2.08-1.49ZM281.28,516a1.86,1.86,0,0,0-2-1.89,2,2,0,0,0-2,1.89h4Z"/><path class="cls-5" d="M286.67,520.47h-1.45v-7.4h1.42v1.06a2.53,2.53,0,0,1,2.28-1.28c1.77,0,2.65,1.28,2.65,2.92v4.69h-1.45V516a1.61,1.61,0,0,0-1.72-1.86,1.78,1.78,0,0,0-1.72,2v4.28Z"/><path class="cls-5" d="M295.32,516.76a2.33,2.33,0,0,0,2.26,2.6,2,2,0,0,0,2.06-1.52l1.28,0.55a3.4,3.4,0,0,1-3.34,2.31,3.94,3.94,0,0,1,0-7.86,3.22,3.22,0,0,1,3.29,2.35l-1.31.55a1.94,1.94,0,0,0-2-1.57A2.3,2.3,0,0,0,295.32,516.76Z"/><path class="cls-5" d="M309.57,518.36a3.35,3.35,0,0,1-3.32,2.34,3.94,3.94,0,0,1-.18-7.86c2.28,0,3.55,1.57,3.55,3.88a3.24,3.24,0,0,1,0,.46H304a2.2,2.2,0,0,0,2.23,2.25,2,2,0,0,0,2.08-1.49ZM308.1,516a1.86,1.86,0,0,0-2-1.89,2,2,0,0,0-2,1.89h4Z"/><path class="cls-5" d="M320.18,509.57c2.08,0,3.29,1.23,3.29,3a2.42,2.42,0,0,1-1.63,2.35,2.62,2.62,0,0,1,2,2.63c0,1.72-1.37,3-3.37,3h-3.81V509.57h3.55ZM320,514.34a1.74,1.74,0,1,0-.06-3.45h-1.81v3.45H320Zm0.21,4.81a1.8,1.8,0,0,0,2-1.74,1.73,1.73,0,0,0-2-1.78h-2.15v3.52h2.09Z"/><path class="cls-5" d="M421.9,517.43h-4.83l-1.15,3h-1.61l4.34-10.91h1.74l4.34,10.91h-1.63Zm-4.29-1.4h3.75l-1.89-4.89Z"/><path class="cls-5" d="M429,520.7a2.74,2.74,0,0,1-2.77-3v-4.66h1.45v4.45a1.65,1.65,0,0,0,1.68,1.91,1.67,1.67,0,0,0,1.75-1.89v-4.46h1.45v6a12.88,12.88,0,0,0,.08,1.37h-1.38a6.44,6.44,0,0,1-.06-0.89A2.41,2.41,0,0,1,429,520.7Z"/><path class="cls-5" d="M440.71,519.35a2.48,2.48,0,0,1-2.29,1.32c-2.17,0-3.51-1.72-3.51-3.92a3.63,3.63,0,0,1,3.51-3.87,2.27,2.27,0,0,1,2.26,1.25v-4.78h1.43v9.77a11.52,11.52,0,0,0,.08,1.37h-1.4a6.16,6.16,0,0,1-.08-1v-0.12Zm-2.15,0c1.32,0,2.14-1.15,2.14-2.68s-0.8-2.57-2.12-2.57-2.18,1.08-2.18,2.6S437.17,519.4,438.55,519.4Z"/><path class="cls-5" d="M445.86,509.23a1,1,0,1,1-1,1A1,1,0,0,1,445.86,509.23Zm-0.71,11.24v-7.4h1.43v7.4h-1.43Z"/><path class="cls-5" d="M456.08,518.37a3.35,3.35,0,0,1-3.32,2.34,3.94,3.94,0,0,1-.19-7.86c2.28,0,3.55,1.57,3.55,3.88a3.21,3.21,0,0,1,0,.46h-5.57a2.2,2.2,0,0,0,2.23,2.25,2,2,0,0,0,2.08-1.49ZM454.62,516a1.86,1.86,0,0,0-2-1.89,2,2,0,0,0-2,1.89h4Z"/><path class="cls-5" d="M460,520.47h-1.45v-7.4H460v1.06a2.54,2.54,0,0,1,2.28-1.28c1.77,0,2.64,1.28,2.64,2.92v4.69h-1.45V516a1.61,1.61,0,0,0-1.72-1.86,1.78,1.78,0,0,0-1.72,2v4.28Z"/><path class="cls-5" d="M468.65,516.77a2.33,2.33,0,0,0,2.26,2.6,2,2,0,0,0,2.06-1.52l1.28,0.55a3.4,3.4,0,0,1-3.34,2.31,3.94,3.94,0,0,1,0-7.86,3.22,3.22,0,0,1,3.29,2.35l-1.31.55a1.94,1.94,0,0,0-2-1.57A2.3,2.3,0,0,0,468.65,516.77Z"/><path class="cls-5" d="M482.9,518.37a3.35,3.35,0,0,1-3.32,2.34,3.94,3.94,0,0,1-.18-7.86c2.28,0,3.55,1.57,3.55,3.88a3.21,3.21,0,0,1,0,.46h-5.57a2.2,2.2,0,0,0,2.23,2.25,2,2,0,0,0,2.08-1.49ZM481.44,516a1.86,1.86,0,0,0-2-1.89,2,2,0,0,0-2,1.89h4Z"/><path class="cls-5" d="M489.27,515a5.4,5.4,0,0,1,5.41-5.68,4.63,4.63,0,0,1,4.8,3.46l-1.4.49a3.23,3.23,0,0,0-3.4-2.57c-2,0-3.88,1.45-3.88,4.29s1.89,4.31,3.88,4.31a3.46,3.46,0,0,0,3.47-2.62l1.34,0.49a4.76,4.76,0,0,1-4.81,3.51A5.36,5.36,0,0,1,489.27,515Z"/><path class="cls-2" d="M842.92,245.51V127.81"/><path class="cls-8" d="M654.16,464a15.62,15.62,0,0,0,28.52-.08"/><path class="cls-4" d="M668.46,500.38s22.52,0.66,31-4.27c14-8.14-.25-24.82-11.26-27.62-3.37,6.33-10.93,10.69-19.73,10.69h0.25c-8.8,0-16.28-4.44-19.73-10.69-11,2.79-25.24,19.56-11.26,27.62,8.47,4.93,31,4.27,31,4.27"/><circle class="cls-4" cx="668.38" cy="443.08" r="18.91"/><path class="cls-8" d="M676.68,426.07c-5.51,14.14-15.95.41-26.8,21a18.91,18.91,0,0,0,37.4-3.95C687.28,442,678.16,438.23,676.68,426.07Zm2.06,32.88v9.54m-20.22,0v-9.29"/><path class="cls-10" d="M649.47,443.49s0,8.71,3.78,11.92c-3,1.4-9.54-.74-8.63-1.4C648.32,451.47,649.47,443.49,649.47,443.49Zm37.81-.41s-0.16,9.12-3.95,12.33c3,1.4,9.54-.74,8.63-1.4C688.27,451.47,687.28,443.08,687.28,443.08Z"/><path class="cls-3" d="M1003,464.56a15.62,15.62,0,0,0,28.52-.08"/><path class="cls-2" d="M1016.86,500.9s22.52,0.66,31-4.27c14-8.14-.25-24.82-11.26-27.62-3.37,6.33-10.93,10.69-19.73,10.69h0.25c-8.8,0-16.28-4.44-19.73-10.69-11,2.79-25.24,19.56-11.26,27.62,8.47,4.93,31,4.27,31,4.27"/><circle class="cls-2" cx="1017.19" cy="443.6" r="18.91"/><path class="cls-11" d="M1004.37,429.71c2.14,16.44,28,5.92,31.24,17.92a18.91,18.91,0,0,1-37.4-3.95,21.05,21.05,0,0,1,.25-3.21C999.43,440.48,1005.11,443.6,1004.37,429.71Z"/><path class="cls-3" d="M1027.46 460.29L1027.46 469"/><path class="cls-3" d="M1007.24 469L1007.24 460.54"/><path class="cls-8" d="M828.49,464.34a15.62,15.62,0,0,0,28.52-.08"/><path class="cls-6" d="M842.79,500.68s22.52,0.66,31-4.27c14-8.14-.25-24.82-11.26-27.62-3.37,6.33-10.93,10.69-19.73,10.69H843c-8.8,0-16.28-4.44-19.73-10.69-11,2.79-25.24,19.56-11.26,27.62,8.47,4.93,31,4.27,31,4.27"/><circle class="cls-6" cx="842.71" cy="443.38" r="18.91"/><path class="cls-8" d="M851,426.37c-5.51,14.14-15.95.41-26.8,21a18.91,18.91,0,0,0,37.4-3.95C861.62,442.31,852.49,438.53,851,426.37Zm2.06,32.88v9.54m-20.22,0v-9.29"/><path class="cls-10" d="M823.81,443.79s0,8.71,3.78,11.92c-3,1.4-9.54-.74-8.63-1.4C822.65,451.77,823.81,443.79,823.81,443.79Zm37.81-.41s-0.16,9.12-3.95,12.33c3,1.4,9.54-.74,8.63-1.4C862.6,451.77,861.62,443.38,861.62,443.38Z"/><path class="cls-5" d="M634.27,536.43h-4.83l-1.15,3h-1.61L631,528.57h1.74l4.34,10.91h-1.63ZM630,535h3.75l-1.89-4.89Z"/><path class="cls-5" d="M641.36,539.7a2.74,2.74,0,0,1-2.77-3v-4.66H640v4.45a1.65,1.65,0,0,0,1.68,1.91,1.67,1.67,0,0,0,1.75-1.89v-4.46h1.45v6a12.56,12.56,0,0,0,.08,1.37h-1.38a6.46,6.46,0,0,1-.06-0.89A2.41,2.41,0,0,1,641.36,539.7Z"/><path class="cls-5" d="M653.07,538.35a2.48,2.48,0,0,1-2.29,1.32c-2.17,0-3.51-1.72-3.51-3.92a3.63,3.63,0,0,1,3.51-3.87,2.27,2.27,0,0,1,2.26,1.25v-4.78h1.43v9.77a11.62,11.62,0,0,0,.08,1.37h-1.4a6.28,6.28,0,0,1-.08-1v-0.12Zm-2.15,0c1.32,0,2.14-1.15,2.14-2.68s-0.8-2.57-2.12-2.57-2.18,1.08-2.18,2.6S649.53,538.4,650.92,538.4Z"/><path class="cls-5" d="M658.23,528.23a1,1,0,1,1-1,1A1,1,0,0,1,658.23,528.23Zm-0.71,11.24v-7.4H659v7.4h-1.43Z"/><path class="cls-5" d="M668.44,537.36a3.35,3.35,0,0,1-3.32,2.34,3.94,3.94,0,0,1-.18-7.86c2.28,0,3.55,1.57,3.55,3.88a3.21,3.21,0,0,1,0,.46h-5.57a2.2,2.2,0,0,0,2.23,2.25,2,2,0,0,0,2.08-1.49ZM667,535a1.86,1.86,0,0,0-2-1.89,2,2,0,0,0-2,1.89h4Z"/><path class="cls-5" d="M672.37,539.47h-1.45v-7.4h1.42v1.06a2.53,2.53,0,0,1,2.28-1.28c1.77,0,2.65,1.28,2.65,2.92v4.69h-1.45V535a1.61,1.61,0,0,0-1.72-1.86,1.78,1.78,0,0,0-1.72,2v4.28Z"/><path class="cls-5" d="M681,535.76a2.33,2.33,0,0,0,2.26,2.6,2,2,0,0,0,2.06-1.52l1.28,0.55a3.4,3.4,0,0,1-3.34,2.31,3.94,3.94,0,0,1,0-7.86,3.22,3.22,0,0,1,3.29,2.35l-1.31.55a1.94,1.94,0,0,0-2-1.57A2.3,2.3,0,0,0,681,535.76Z"/><path class="cls-5" d="M695.26,537.36a3.35,3.35,0,0,1-3.32,2.34,3.94,3.94,0,0,1-.18-7.86c2.28,0,3.55,1.57,3.55,3.88a3.24,3.24,0,0,1,0,.46h-5.57a2.2,2.2,0,0,0,2.23,2.25,2,2,0,0,0,2.08-1.49ZM693.8,535a1.86,1.86,0,0,0-2-1.89,2,2,0,0,0-2,1.89h4Z"/><path class="cls-5" d="M708.7,536.43h-4.83l-1.15,3H701.1l4.34-10.91h1.74l4.34,10.91h-1.63Zm-4.29-1.4h3.75l-1.89-4.89Z"/><path class="cls-5" d="M811,536.43h-4.83l-1.15,3H803.4l4.34-10.91h1.74l4.34,10.91h-1.63Zm-4.29-1.4h3.75l-1.89-4.89Z"/><path class="cls-5" d="M818.1,539.7a2.74,2.74,0,0,1-2.77-3v-4.66h1.45v4.45a1.65,1.65,0,0,0,1.68,1.91,1.67,1.67,0,0,0,1.75-1.89v-4.46h1.45v6a12.56,12.56,0,0,0,.08,1.37h-1.38a6.46,6.46,0,0,1-.06-0.89A2.41,2.41,0,0,1,818.1,539.7Z"/><path class="cls-5" d="M829.8,538.35a2.48,2.48,0,0,1-2.29,1.32c-2.17,0-3.51-1.72-3.51-3.92a3.63,3.63,0,0,1,3.51-3.87,2.27,2.27,0,0,1,2.26,1.25v-4.78h1.43v9.77a11.62,11.62,0,0,0,.08,1.37h-1.4a6.28,6.28,0,0,1-.08-1v-0.12Zm-2.15,0c1.32,0,2.14-1.15,2.14-2.68s-0.8-2.57-2.12-2.57-2.18,1.08-2.18,2.6S826.27,538.4,827.65,538.4Z"/><path class="cls-5" d="M835,528.23a1,1,0,1,1-1,1A1,1,0,0,1,835,528.23Zm-0.71,11.24v-7.4h1.43v7.4h-1.43Z"/><path class="cls-5" d="M845.18,537.36a3.35,3.35,0,0,1-3.32,2.34,3.94,3.94,0,0,1-.18-7.86c2.28,0,3.55,1.57,3.55,3.88a3.21,3.21,0,0,1,0,.46h-5.57a2.2,2.2,0,0,0,2.23,2.25,2,2,0,0,0,2.08-1.49ZM843.72,535a1.86,1.86,0,0,0-2-1.89,2,2,0,0,0-2,1.89h4Z"/><path class="cls-5" d="M849.1,539.47h-1.45v-7.4h1.42v1.06a2.53,2.53,0,0,1,2.28-1.28c1.77,0,2.65,1.28,2.65,2.92v4.69h-1.45V535a1.61,1.61,0,0,0-1.72-1.86,1.78,1.78,0,0,0-1.72,2v4.28Z"/><path class="cls-5" d="M857.75,535.76a2.33,2.33,0,0,0,2.26,2.6,2,2,0,0,0,2.06-1.52l1.28,0.55A3.4,3.4,0,0,1,860,539.7a3.94,3.94,0,0,1,0-7.86,3.22,3.22,0,0,1,3.29,2.35l-1.31.55a1.94,1.94,0,0,0-2-1.57A2.3,2.3,0,0,0,857.75,535.76Z"/><path class="cls-5" d="M872,537.36a3.35,3.35,0,0,1-3.32,2.34,3.94,3.94,0,0,1-.18-7.86c2.28,0,3.55,1.57,3.55,3.88a3.24,3.24,0,0,1,0,.46h-5.57a2.2,2.2,0,0,0,2.23,2.25,2,2,0,0,0,2.08-1.49ZM870.54,535a1.86,1.86,0,0,0-2-1.89,2,2,0,0,0-2,1.89h4Z"/><path class="cls-5" d="M882.62,528.57c2.08,0,3.29,1.23,3.29,3a2.42,2.42,0,0,1-1.63,2.35,2.62,2.62,0,0,1,2,2.63c0,1.72-1.37,3-3.37,3h-3.81V528.57h3.55Zm-0.17,4.77a1.74,1.74,0,1,0-.06-3.45h-1.81v3.45h1.88Zm0.21,4.81a1.8,1.8,0,0,0,2-1.74,1.73,1.73,0,0,0-2-1.78h-2.15v3.52h2.09Z"/><path class="cls-5" d="M981,536.43h-4.83l-1.15,3H973.4l4.34-10.91h1.74l4.34,10.91h-1.63Zm-4.29-1.4h3.75l-1.89-4.89Z"/><path class="cls-5" d="M988.1,539.7a2.74,2.74,0,0,1-2.77-3v-4.66h1.45v4.45a1.65,1.65,0,0,0,1.68,1.91,1.67,1.67,0,0,0,1.75-1.89v-4.46h1.45v6a12.56,12.56,0,0,0,.08,1.37h-1.38a6.46,6.46,0,0,1-.06-0.89A2.41,2.41,0,0,1,988.1,539.7Z"/><path class="cls-5" d="M999.81,538.35a2.48,2.48,0,0,1-2.29,1.32c-2.17,0-3.51-1.72-3.51-3.92a3.63,3.63,0,0,1,3.51-3.87,2.27,2.27,0,0,1,2.26,1.25v-4.78h1.43v9.77a11.62,11.62,0,0,0,.08,1.37h-1.4a6.28,6.28,0,0,1-.08-1v-0.12Zm-2.15,0c1.32,0,2.14-1.15,2.14-2.68s-0.8-2.57-2.12-2.57-2.18,1.08-2.18,2.6S996.27,538.4,997.65,538.4Z"/><path class="cls-5" d="M1005,528.23a1,1,0,1,1-1,1A1,1,0,0,1,1005,528.23Zm-0.71,11.24v-7.4h1.43v7.4h-1.43Z"/><path class="cls-5" d="M1015.18,537.36a3.35,3.35,0,0,1-3.32,2.34,3.94,3.94,0,0,1-.18-7.86c2.28,0,3.55,1.57,3.55,3.88a3.21,3.21,0,0,1,0,.46h-5.57a2.2,2.2,0,0,0,2.23,2.25,2,2,0,0,0,2.08-1.49Zm-1.46-2.35a1.86,1.86,0,0,0-2-1.89,2,2,0,0,0-2,1.89h4Z"/><path class="cls-5" d="M1019.1,539.47h-1.45v-7.4h1.42v1.06a2.53,2.53,0,0,1,2.28-1.28c1.77,0,2.65,1.28,2.65,2.92v4.69h-1.45V535a1.61,1.61,0,0,0-1.72-1.86,1.78,1.78,0,0,0-1.72,2v4.28Z"/><path class="cls-5" d="M1027.75,535.76a2.33,2.33,0,0,0,2.26,2.6,2,2,0,0,0,2.06-1.52l1.28,0.55a3.4,3.4,0,0,1-3.34,2.31,3.94,3.94,0,0,1,0-7.86,3.22,3.22,0,0,1,3.29,2.35l-1.31.55a1.94,1.94,0,0,0-2-1.57A2.3,2.3,0,0,0,1027.75,535.76Z"/><path class="cls-5" d="M1042,537.36a3.35,3.35,0,0,1-3.32,2.34,3.94,3.94,0,0,1-.18-7.86c2.28,0,3.55,1.57,3.55,3.88a3.24,3.24,0,0,1,0,.46h-5.57a2.2,2.2,0,0,0,2.23,2.25,2,2,0,0,0,2.08-1.49Zm-1.46-2.35a1.86,1.86,0,0,0-2-1.89,2,2,0,0,0-2,1.89h4Z"/><path class="cls-5" d="M1048.37,534a5.4,5.4,0,0,1,5.41-5.68,4.63,4.63,0,0,1,4.8,3.46l-1.4.49a3.23,3.23,0,0,0-3.4-2.57c-2,0-3.88,1.45-3.88,4.29s1.89,4.31,3.88,4.31a3.47,3.47,0,0,0,3.48-2.62l1.34,0.49a4.76,4.76,0,0,1-4.81,3.51A5.36,5.36,0,0,1,1048.37,534Z"/><path class="cls-2" d="M842.92,405.41V287.71"/><path class="cls-2" d="M668.38,245.51V127.81"/><path class="cls-2" d="M668.38,405.41V287.71"/><path class="cls-2" d="M1017.23,245.51V127.81"/><path class="cls-2" d="M1017.23,405.41V287.71"/><path class="cls-4" d="M616.81,83.71H720.62v50H616.81v-50Z"/><path class="cls-5" d="M634.23,114.49V103.59h6.63V105h-5.12v3.51h4.65v1.41h-4.65v4.58h-1.51Z"/><path class="cls-5" d="M649,112.39a3.35,3.35,0,0,1-3.32,2.34,3.94,3.94,0,0,1-.18-7.86c2.28,0,3.55,1.57,3.55,3.88a3.24,3.24,0,0,1,0,.46H643.5a2.2,2.2,0,0,0,2.23,2.25A2,2,0,0,0,647.8,112ZM647.59,110a1.86,1.86,0,0,0-2-1.89,2,2,0,0,0-2,1.89h4Z"/><path class="cls-5" d="M653.31,110.26l2-.29a0.54,0.54,0,0,0,.57-0.55,1.35,1.35,0,0,0-1.6-1.32,1.57,1.57,0,0,0-1.68,1.49l-1.38-.32a2.85,2.85,0,0,1,3-2.4c2.21,0,3.08,1.26,3.08,2.71v3.71a7,7,0,0,0,.09,1.21H656a5.48,5.48,0,0,1-.08-1,2.7,2.7,0,0,1-2.38,1.23A2.24,2.24,0,1,1,653.31,110.26Zm2.57,1.06V111l-2.26.34a1.11,1.11,0,0,0-1.08,1.11,1.12,1.12,0,0,0,1.2,1.08A1.94,1.94,0,0,0,655.88,111.33Z"/><path class="cls-5" d="M662.1,107.1h1.6v1.31h-1.6v3.84a0.88,0.88,0,0,0,1,1,3,3,0,0,0,.57-0.06v1.23a3.17,3.17,0,0,1-1,.14,1.92,1.92,0,0,1-2.06-2.11V108.4h-1.42V107.1h0.4a1,1,0,0,0,1.14-1.14v-1.2h1.32v2.34Z"/><path class="cls-5" d="M668.9,114.72a2.74,2.74,0,0,1-2.77-3V107.1h1.45v4.45a1.65,1.65,0,0,0,1.68,1.91,1.67,1.67,0,0,0,1.75-1.89V107.1h1.45v6a12.62,12.62,0,0,0,.08,1.37h-1.38a6.46,6.46,0,0,1-.06-0.89A2.41,2.41,0,0,1,668.9,114.72Z"/><path class="cls-5" d="M679.61,108.56a4.58,4.58,0,0,0-.63,0c-1.22,0-2,.65-2,2.28v3.71H675.5v-7.4h1.42v1.29a2.32,2.32,0,0,1,2.21-1.42,2.68,2.68,0,0,1,.48,0v1.54Z"/><path class="cls-5" d="M688.1,112.39a3.35,3.35,0,0,1-3.32,2.34,3.94,3.94,0,0,1-.18-7.86c2.28,0,3.55,1.57,3.55,3.88a3.21,3.21,0,0,1,0,.46h-5.57a2.2,2.2,0,0,0,2.23,2.25,2,2,0,0,0,2.08-1.49ZM686.64,110a1.86,1.86,0,0,0-2-1.89,2,2,0,0,0-2,1.89h4Z"/><path class="cls-5" d="M701.54,111.45h-4.83l-1.15,3h-1.61l4.34-10.91H700l4.34,10.91h-1.63Zm-4.29-1.4H701l-1.89-4.89Z"/><path class="cls-6" d="M791.88,83.49H895.69v50H791.88v-50Z"/><path class="cls-5" d="M809.3,114.28V103.37h6.63v1.4h-5.12v3.51h4.65v1.41h-4.65v4.58H809.3Z"/><path class="cls-5" d="M824.12,112.17a3.35,3.35,0,0,1-3.32,2.34,3.94,3.94,0,0,1-.18-7.86c2.28,0,3.55,1.57,3.55,3.88a3.24,3.24,0,0,1,0,.46h-5.57a2.2,2.2,0,0,0,2.23,2.25,2,2,0,0,0,2.08-1.49Zm-1.46-2.35a1.86,1.86,0,0,0-2-1.89,2,2,0,0,0-2,1.89h4Z"/><path class="cls-5" d="M828.38,110l2-.29a0.54,0.54,0,0,0,.57-0.55,1.35,1.35,0,0,0-1.6-1.32,1.57,1.57,0,0,0-1.68,1.49l-1.38-.32a2.85,2.85,0,0,1,3-2.4c2.21,0,3.08,1.26,3.08,2.71v3.71a7,7,0,0,0,.09,1.21h-1.42a5.48,5.48,0,0,1-.08-1,2.7,2.7,0,0,1-2.38,1.23A2.24,2.24,0,1,1,828.38,110Zm2.57,1.06v-0.34l-2.26.34a1.11,1.11,0,0,0-1.08,1.11,1.12,1.12,0,0,0,1.2,1.08A1.94,1.94,0,0,0,830.95,111.11Z"/><path class="cls-5" d="M837.17,106.88h1.6v1.31h-1.6V112a0.88,0.88,0,0,0,1,1,3,3,0,0,0,.57-0.06v1.23a3.17,3.17,0,0,1-1,.14,1.92,1.92,0,0,1-2.06-2.11v-4.06H834.3v-1.31h0.4a1,1,0,0,0,1.14-1.14v-1.2h1.32v2.34Z"/><path class="cls-5" d="M844,114.51a2.74,2.74,0,0,1-2.77-3v-4.66h1.45v4.45a1.65,1.65,0,0,0,1.68,1.91,1.67,1.67,0,0,0,1.75-1.89v-4.46h1.45v6a12.62,12.62,0,0,0,.08,1.37h-1.38a6.46,6.46,0,0,1-.06-0.89A2.41,2.41,0,0,1,844,114.51Z"/><path class="cls-5" d="M854.68,108.34a4.58,4.58,0,0,0-.63,0c-1.22,0-2,.65-2,2.28v3.71h-1.45v-7.4H852v1.29a2.32,2.32,0,0,1,2.21-1.42,2.68,2.68,0,0,1,.48,0v1.54Z"/><path class="cls-5" d="M863.17,112.17a3.35,3.35,0,0,1-3.32,2.34,3.94,3.94,0,0,1-.18-7.86c2.28,0,3.55,1.57,3.55,3.88a3.21,3.21,0,0,1,0,.46h-5.57a2.2,2.2,0,0,0,2.23,2.25,2,2,0,0,0,2.08-1.49Zm-1.46-2.35a1.86,1.86,0,0,0-2-1.89,2,2,0,0,0-2,1.89h4Z"/><path class="cls-5" d="M873.79,103.37c2.08,0,3.29,1.23,3.29,3a2.42,2.42,0,0,1-1.63,2.35,2.62,2.62,0,0,1,2,2.63c0,1.72-1.37,3-3.37,3h-3.81V103.37h3.55Zm-0.17,4.77a1.74,1.74,0,1,0-.06-3.45h-1.82v3.45h1.88Zm0.22,4.81a1.8,1.8,0,0,0,2-1.74,1.73,1.73,0,0,0-2-1.78h-2.15V113h2.09Z"/><path class="cls-2" d="M965.21,83.49H1069v50H965.21v-50Z"/><path class="cls-5" d="M982.63,114.28V103.37h6.63v1.4h-5.12v3.51h4.65v1.41h-4.65v4.58h-1.51Z"/><path class="cls-5" d="M997.45,112.17a3.35,3.35,0,0,1-3.32,2.34,3.94,3.94,0,0,1-.18-7.86c2.28,0,3.55,1.57,3.55,3.88a3.24,3.24,0,0,1,0,.46H991.9a2.2,2.2,0,0,0,2.23,2.25,2,2,0,0,0,2.08-1.49ZM996,109.81a1.86,1.86,0,0,0-2-1.89,2,2,0,0,0-2,1.89h4Z"/><path class="cls-5" d="M1001.71,110l2-.29a0.54,0.54,0,0,0,.57-0.55,1.35,1.35,0,0,0-1.6-1.32,1.57,1.57,0,0,0-1.68,1.49l-1.38-.32a2.85,2.85,0,0,1,3-2.4c2.21,0,3.08,1.26,3.08,2.71v3.71a7,7,0,0,0,.09,1.21h-1.42a5.48,5.48,0,0,1-.08-1,2.7,2.7,0,0,1-2.38,1.23A2.24,2.24,0,1,1,1001.71,110Zm2.57,1.06v-0.34l-2.26.34a1.11,1.11,0,0,0-1.08,1.11,1.12,1.12,0,0,0,1.2,1.08A1.94,1.94,0,0,0,1004.28,111.11Z"/><path class="cls-5" d="M1010.5,106.88h1.6v1.31h-1.6V112a0.88,0.88,0,0,0,1,1,3,3,0,0,0,.57-0.06v1.23a3.17,3.17,0,0,1-1,.14,1.92,1.92,0,0,1-2.06-2.11v-4.06h-1.42v-1.31h0.4a1,1,0,0,0,1.14-1.14v-1.2h1.32v2.34Z"/><path class="cls-5" d="M1017.3,114.51a2.74,2.74,0,0,1-2.77-3v-4.66H1016v4.45a1.65,1.65,0,0,0,1.68,1.91,1.67,1.67,0,0,0,1.75-1.89v-4.46h1.45v6a12.62,12.62,0,0,0,.08,1.37h-1.38a6.46,6.46,0,0,1-.06-0.89A2.41,2.41,0,0,1,1017.3,114.51Z"/><path class="cls-5" d="M1028,108.34a4.58,4.58,0,0,0-.63,0c-1.22,0-2,.65-2,2.28v3.71h-1.45v-7.4h1.42v1.29a2.32,2.32,0,0,1,2.21-1.42,2.68,2.68,0,0,1,.48,0v1.54Z"/><path class="cls-5" d="M1036.5,112.17a3.35,3.35,0,0,1-3.32,2.34,3.94,3.94,0,0,1-.18-7.86c2.28,0,3.55,1.57,3.55,3.88a3.21,3.21,0,0,1,0,.46H1031a2.2,2.2,0,0,0,2.23,2.25,2,2,0,0,0,2.08-1.49Zm-1.46-2.35a1.86,1.86,0,0,0-2-1.89,2,2,0,0,0-2,1.89h4Z"/><path class="cls-5" d="M1042.88,108.82a5.4,5.4,0,0,1,5.41-5.68,4.63,4.63,0,0,1,4.8,3.46l-1.4.49a3.23,3.23,0,0,0-3.4-2.57c-2,0-3.88,1.45-3.88,4.29s1.89,4.31,3.88,4.31a3.47,3.47,0,0,0,3.48-2.62l1.34,0.49a4.76,4.76,0,0,1-4.81,3.51A5.36,5.36,0,0,1,1042.88,108.82Z"/><path class="cls-4" d="M616.81,237.63H720.62v50H616.81v-50Z"/><path class="cls-5" d="M637.39,264h-1.63v4.46h-1.52V257.51h4.11a3.16,3.16,0,0,1,3.34,3.25,3.05,3.05,0,0,1-2.64,3.09l2.6,4.57h-1.75Zm0.68-1.35a1.88,1.88,0,1,0,0-3.74h-2.31v3.74h2.31Z"/><path class="cls-5" d="M650.33,266.31a3.35,3.35,0,0,1-3.32,2.34,3.94,3.94,0,0,1-.18-7.86c2.28,0,3.55,1.57,3.55,3.88a3.23,3.23,0,0,1,0,.46h-5.57a2.2,2.2,0,0,0,2.23,2.24,2,2,0,0,0,2.08-1.49ZM648.86,264a1.87,1.87,0,0,0-2-1.89,2,2,0,0,0-2,1.89h4Z"/><path class="cls-5" d="M652.81,268.42V257.28h1.45v11.14h-1.45Z"/><path class="cls-5" d="M663.74,266.31a3.35,3.35,0,0,1-3.32,2.34,3.94,3.94,0,0,1-.18-7.86c2.28,0,3.55,1.57,3.55,3.88a3.23,3.23,0,0,1,0,.46h-5.57a2.2,2.2,0,0,0,2.23,2.24,2,2,0,0,0,2.08-1.49ZM662.28,264a1.87,1.87,0,0,0-2-1.89,2,2,0,0,0-2,1.89h4Z"/><path class="cls-5" d="M668,264.18l2-.29a0.54,0.54,0,0,0,.57-0.55A1.35,1.35,0,0,0,669,262a1.57,1.57,0,0,0-1.68,1.49l-1.38-.32a2.85,2.85,0,0,1,3-2.4c2.21,0,3.08,1.26,3.08,2.71v3.71a7.05,7.05,0,0,0,.09,1.21H670.7a5.46,5.46,0,0,1-.08-1,2.69,2.69,0,0,1-2.38,1.23A2.24,2.24,0,1,1,668,264.18Zm2.57,1.06v-0.34l-2.26.34a1.1,1.1,0,0,0-1.08,1.11,1.12,1.12,0,0,0,1.2,1.08A1.94,1.94,0,0,0,670.58,265.25Z"/><path class="cls-5" d="M675.47,266a1.58,1.58,0,0,0,1.72,1.38,1.09,1.09,0,0,0,1.26-1,1,1,0,0,0-1-1l-1.26-.28a2.1,2.1,0,0,1-1.85-2.08,2.52,2.52,0,0,1,2.63-2.34,2.62,2.62,0,0,1,2.81,2l-1.28.48A1.43,1.43,0,0,0,677,262a1.12,1.12,0,0,0-1.23,1,0.91,0.91,0,0,0,.85.89l1.2,0.26a2.25,2.25,0,0,1,2,2.2,2.45,2.45,0,0,1-2.71,2.29,2.79,2.79,0,0,1-3-2.15Z"/><path class="cls-5" d="M688.76,266.31a3.35,3.35,0,0,1-3.32,2.34,3.94,3.94,0,0,1-.18-7.86c2.28,0,3.55,1.57,3.55,3.88a3.26,3.26,0,0,1,0,.46h-5.57a2.2,2.2,0,0,0,2.23,2.24,2,2,0,0,0,2.08-1.49ZM687.3,264a1.86,1.86,0,0,0-2-1.89,2,2,0,0,0-2,1.89h4Z"/><path class="cls-5" d="M702.2,265.37h-4.83l-1.15,3H694.6l4.34-10.91h1.74L705,268.42h-1.63Zm-4.29-1.4h3.75l-1.89-4.89Z"/><path class="cls-6" d="M791.88,237.41H895.69v50H791.88v-50Z"/><path class="cls-5" d="M812.45,263.74h-1.63v4.46H809.3V257.29h4.11a3.16,3.16,0,0,1,3.34,3.25,3.05,3.05,0,0,1-2.64,3.09l2.6,4.57h-1.75Zm0.68-1.35a1.88,1.88,0,1,0,0-3.74h-2.31v3.74h2.31Z"/><path class="cls-5" d="M825.39,266.09a3.35,3.35,0,0,1-3.32,2.34,3.94,3.94,0,0,1-.18-7.86c2.28,0,3.55,1.57,3.55,3.88a3.21,3.21,0,0,1,0,.46h-5.57a2.2,2.2,0,0,0,2.23,2.25,2,2,0,0,0,2.08-1.49Zm-1.46-2.35a1.86,1.86,0,0,0-2-1.89,2,2,0,0,0-2,1.89h4Z"/><path class="cls-5" d="M827.87,268.2V257.06h1.45V268.2h-1.45Z"/><path class="cls-5" d="M838.81,266.09a3.35,3.35,0,0,1-3.32,2.34,3.94,3.94,0,0,1-.18-7.86c2.28,0,3.55,1.57,3.55,3.88a3.21,3.21,0,0,1,0,.46h-5.57a2.2,2.2,0,0,0,2.23,2.25,2,2,0,0,0,2.08-1.49Zm-1.46-2.35a1.86,1.86,0,0,0-2-1.89,2,2,0,0,0-2,1.89h4Z"/><path class="cls-5" d="M843.07,264l2-.29a0.54,0.54,0,0,0,.57-0.55,1.35,1.35,0,0,0-1.6-1.32,1.57,1.57,0,0,0-1.68,1.49L841,263a2.85,2.85,0,0,1,3-2.4c2.21,0,3.08,1.26,3.08,2.71V267a7,7,0,0,0,.09,1.21h-1.42a5.45,5.45,0,0,1-.08-1,2.69,2.69,0,0,1-2.38,1.23A2.24,2.24,0,1,1,843.07,264Zm2.57,1.06v-0.34l-2.26.34a1.1,1.1,0,0,0-1.08,1.11,1.12,1.12,0,0,0,1.2,1.08A1.94,1.94,0,0,0,845.64,265Z"/><path class="cls-5" d="M850.54,265.81a1.58,1.58,0,0,0,1.72,1.38,1.09,1.09,0,0,0,1.26-1,1,1,0,0,0-1-1l-1.26-.28a2.1,2.1,0,0,1-1.85-2.08,2.52,2.52,0,0,1,2.63-2.34,2.62,2.62,0,0,1,2.81,2l-1.28.48a1.43,1.43,0,0,0-1.54-1.23,1.12,1.12,0,0,0-1.23,1,0.91,0.91,0,0,0,.85.89l1.2,0.26a2.25,2.25,0,0,1,2,2.2,2.45,2.45,0,0,1-2.71,2.29,2.79,2.79,0,0,1-3-2.15Z"/><path class="cls-5" d="M863.83,266.09a3.35,3.35,0,0,1-3.32,2.34,3.94,3.94,0,0,1-.18-7.86c2.28,0,3.55,1.57,3.55,3.88a3.24,3.24,0,0,1,0,.46h-5.57a2.2,2.2,0,0,0,2.23,2.25,2,2,0,0,0,2.08-1.49Zm-1.46-2.35a1.86,1.86,0,0,0-2-1.89,2,2,0,0,0-2,1.89h4Z"/><path class="cls-5" d="M874.45,257.29c2.08,0,3.29,1.23,3.29,3a2.42,2.42,0,0,1-1.63,2.35,2.62,2.62,0,0,1,2,2.63c0,1.72-1.37,3-3.37,3H870.9V257.29h3.55Zm-0.17,4.77a1.74,1.74,0,1,0-.06-3.45H872.4v3.45h1.88Zm0.21,4.81a1.8,1.8,0,0,0,2-1.74,1.73,1.73,0,0,0-2-1.78H872.4v3.52h2.09Z"/><path class="cls-2" d="M965.21,237.41H1069v50H965.21v-50Z"/><path class="cls-5" d="M985.79,263.74h-1.63v4.46h-1.52V257.29h4.11a3.16,3.16,0,0,1,3.34,3.25,3.05,3.05,0,0,1-2.64,3.09l2.6,4.57h-1.75Zm0.68-1.35a1.88,1.88,0,1,0,0-3.74h-2.31v3.74h2.31Z"/><path class="cls-5" d="M998.73,266.09a3.35,3.35,0,0,1-3.32,2.34,3.94,3.94,0,0,1-.18-7.86c2.28,0,3.55,1.57,3.55,3.88a3.21,3.21,0,0,1,0,.46h-5.57a2.2,2.2,0,0,0,2.23,2.25,2,2,0,0,0,2.08-1.49Zm-1.46-2.35a1.86,1.86,0,0,0-2-1.89,2,2,0,0,0-2,1.89h4Z"/><path class="cls-5" d="M1001.21,268.2V257.06h1.45V268.2h-1.45Z"/><path class="cls-5" d="M1012.14,266.09a3.35,3.35,0,0,1-3.32,2.34,3.94,3.94,0,0,1-.18-7.86c2.28,0,3.55,1.57,3.55,3.88a3.21,3.21,0,0,1,0,.46h-5.57a2.2,2.2,0,0,0,2.23,2.25,2,2,0,0,0,2.08-1.49Zm-1.46-2.35a1.86,1.86,0,0,0-2-1.89,2,2,0,0,0-2,1.89h4Z"/><path class="cls-5" d="M1016.41,264l2-.29a0.54,0.54,0,0,0,.57-0.55,1.35,1.35,0,0,0-1.6-1.32,1.57,1.57,0,0,0-1.68,1.49l-1.38-.32a2.85,2.85,0,0,1,3-2.4c2.21,0,3.08,1.26,3.08,2.71V267a7,7,0,0,0,.09,1.21h-1.42a5.45,5.45,0,0,1-.08-1,2.69,2.69,0,0,1-2.38,1.23A2.24,2.24,0,1,1,1016.41,264ZM1019,265v-0.34l-2.26.34a1.1,1.1,0,0,0-1.08,1.11,1.12,1.12,0,0,0,1.2,1.08A1.94,1.94,0,0,0,1019,265Z"/><path class="cls-5" d="M1023.87,265.81a1.58,1.58,0,0,0,1.72,1.38,1.09,1.09,0,0,0,1.26-1,1,1,0,0,0-1-1l-1.26-.28a2.1,2.1,0,0,1-1.85-2.08,2.52,2.52,0,0,1,2.63-2.34,2.62,2.62,0,0,1,2.81,2L1027,263a1.43,1.43,0,0,0-1.54-1.23,1.12,1.12,0,0,0-1.23,1,0.91,0.91,0,0,0,.85.89l1.2,0.26a2.25,2.25,0,0,1,2,2.2,2.45,2.45,0,0,1-2.71,2.29,2.79,2.79,0,0,1-3-2.15Z"/><path class="cls-5" d="M1037.16,266.09a3.35,3.35,0,0,1-3.32,2.34,3.94,3.94,0,0,1-.18-7.86c2.28,0,3.55,1.57,3.55,3.88a3.24,3.24,0,0,1,0,.46h-5.57a2.2,2.2,0,0,0,2.23,2.25,2,2,0,0,0,2.08-1.49Zm-1.46-2.35a1.86,1.86,0,0,0-2-1.89,2,2,0,0,0-2,1.89h4Z"/><path class="cls-5" d="M1043.54,262.74a5.4,5.4,0,0,1,5.41-5.68,4.63,4.63,0,0,1,4.8,3.46l-1.4.49a3.23,3.23,0,0,0-3.4-2.57c-2,0-3.88,1.45-3.88,4.29S1047,267,1049,267a3.47,3.47,0,0,0,3.48-2.62l1.34,0.49a4.76,4.76,0,0,1-4.81,3.51A5.36,5.36,0,0,1,1043.54,262.74Z"/><path class="cls-12" d="M559.45,50.38v495"/><path class="cls-5" d="M236.78,41.38V32.89l-3.72,8.49h-1.38L228,32.89v8.49h-1.49V30.47h2l3.85,8.88,3.88-8.87h2v10.9h-1.49Z"/><path class="cls-5" d="M248.43,37.67a3.79,3.79,0,1,1-7.57,0A3.79,3.79,0,1,1,248.43,37.67Zm-1.48,0a2.33,2.33,0,1,0-4.61,0A2.33,2.33,0,1,0,246.95,37.67Z"/><path class="cls-5" d="M252.31,41.38h-1.45V34h1.42V35a2.53,2.53,0,0,1,2.28-1.28c1.77,0,2.65,1.28,2.65,2.92v4.69h-1.45V36.93A1.61,1.61,0,0,0,254,35.07a1.78,1.78,0,0,0-1.72,2v4.28Z"/><path class="cls-5" d="M267,37.67a3.79,3.79,0,1,1-7.57,0A3.79,3.79,0,1,1,267,37.67Zm-1.48,0a2.33,2.33,0,1,0-4.61,0A2.33,2.33,0,1,0,265.57,37.67Z"/><path class="cls-5" d="M269.48,41.38V30.24h1.45V41.38h-1.45Z"/><path class="cls-5" d="M274.68,30.13a1,1,0,1,1-1,1A1,1,0,0,1,274.68,30.13ZM274,41.38V34h1.43v7.4H274Z"/><path class="cls-5" d="M280.39,34H282v1.31h-1.6v3.84a0.88,0.88,0,0,0,1,1,3.06,3.06,0,0,0,.57-0.06v1.23a3.2,3.2,0,0,1-1,.14,1.92,1.92,0,0,1-2.06-2.11V35.29h-1.42V34h0.4a1,1,0,0,0,1.14-1.14v-1.2h1.32V34Z"/><path class="cls-5" d="M285.94,41.38H284.5V30.24h1.45v4.6a2.62,2.62,0,0,1,2.25-1.08c1.77,0,2.65,1.28,2.65,2.92v4.69h-1.45V36.93a1.61,1.61,0,0,0-1.72-1.86,1.76,1.76,0,0,0-1.72,2v4.35Z"/><path class="cls-5" d="M294.44,30.13a1,1,0,1,1-1,1A1,1,0,0,1,294.44,30.13Zm-0.71,11.24V34h1.43v7.4h-1.43Z"/><path class="cls-5" d="M299.07,37.67a2.33,2.33,0,0,0,2.26,2.6,2,2,0,0,0,2.06-1.52l1.28,0.55a3.4,3.4,0,0,1-3.34,2.31,3.74,3.74,0,0,1-3.74-3.94,3.71,3.71,0,0,1,3.72-3.92,3.22,3.22,0,0,1,3.29,2.35l-1.31.55a1.94,1.94,0,0,0-2-1.57A2.3,2.3,0,0,0,299.07,37.67Z"/><path class="cls-5" d="M314.69,36.92h-1.63v4.46h-1.52V30.47h4.11A3.16,3.16,0,0,1,319,33.72a3.05,3.05,0,0,1-2.65,3.09l2.6,4.57h-1.75Zm0.68-1.35a1.88,1.88,0,1,0,0-3.74h-2.31v3.74h2.31Z"/><path class="cls-5" d="M327.63,39.27a3.35,3.35,0,0,1-3.32,2.34,3.69,3.69,0,0,1-3.72-4,3.69,3.69,0,0,1,3.54-3.91c2.28,0,3.55,1.57,3.55,3.88a3.22,3.22,0,0,1,0,.46h-5.57a2.2,2.2,0,0,0,2.23,2.25,2,2,0,0,0,2.08-1.49Zm-1.46-2.35a1.86,1.86,0,0,0-2-1.89,2,2,0,0,0-2,1.89h4Z"/><path class="cls-5" d="M330.11,41.38V30.24h1.45V41.38h-1.45Z"/><path class="cls-5" d="M341,39.27a3.35,3.35,0,0,1-3.32,2.34,3.69,3.69,0,0,1-3.72-4,3.69,3.69,0,0,1,3.54-3.91c2.28,0,3.55,1.57,3.55,3.88a3.22,3.22,0,0,1,0,.46h-5.57a2.2,2.2,0,0,0,2.23,2.25,2,2,0,0,0,2.08-1.49Zm-1.46-2.35a1.86,1.86,0,0,0-2-1.89,2,2,0,0,0-2,1.89h4Z"/><path class="cls-5" d="M345.31,37.15l2-.29a0.54,0.54,0,0,0,.57-0.55,1.35,1.35,0,0,0-1.6-1.32,1.57,1.57,0,0,0-1.68,1.49l-1.38-.32a2.85,2.85,0,0,1,3-2.4c2.21,0,3.08,1.26,3.08,2.71v3.71a7,7,0,0,0,.09,1.21H348a5.47,5.47,0,0,1-.08-1,2.7,2.7,0,0,1-2.38,1.23A2.24,2.24,0,1,1,345.31,37.15Zm2.57,1.06V37.87l-2.26.34a1.11,1.11,0,0,0-1.08,1.11,1.12,1.12,0,0,0,1.2,1.08A1.94,1.94,0,0,0,347.88,38.21Z"/><path class="cls-5" d="M352.77,39a1.58,1.58,0,0,0,1.72,1.38,1.09,1.09,0,0,0,1.26-1,1,1,0,0,0-1-1l-1.26-.28a2.1,2.1,0,0,1-1.85-2.08,2.52,2.52,0,0,1,2.63-2.34,2.62,2.62,0,0,1,2.81,2l-1.28.48A1.43,1.43,0,0,0,354.33,35a1.12,1.12,0,0,0-1.23,1,0.91,0.91,0,0,0,.85.89l1.2,0.26a2.25,2.25,0,0,1,2,2.2,2.45,2.45,0,0,1-2.71,2.29,2.79,2.79,0,0,1-3-2.15Z"/><path class="cls-5" d="M366.06,39.27a3.35,3.35,0,0,1-3.32,2.34,3.69,3.69,0,0,1-3.72-4,3.69,3.69,0,0,1,3.54-3.91c2.28,0,3.55,1.57,3.55,3.88a3.2,3.2,0,0,1,0,.46h-5.57a2.2,2.2,0,0,0,2.23,2.25,2,2,0,0,0,2.08-1.49Zm-1.46-2.35a1.86,1.86,0,0,0-2-1.89,2,2,0,0,0-2,1.89h4Z"/><path class="cls-5" d="M788,38.33h-4.83l-1.15,3h-1.61l4.34-10.91h1.74l4.34,10.91H789.2Zm-4.29-1.4h3.75L785.58,32Z"/><path class="cls-5" d="M793.51,41.45a2,2,0,0,0,2,1.81c1.55,0,2.26-.8,2.26-2.4V39.81A2.46,2.46,0,0,1,795.52,41a3.37,3.37,0,0,1-3.4-3.58,3.4,3.4,0,0,1,3.4-3.6A2.34,2.34,0,0,1,797.8,35V34h1.43v6.84a3.38,3.38,0,0,1-3.71,3.71,3.24,3.24,0,0,1-3.41-2.75Zm4.34-4a2.14,2.14,0,1,0-4.25,0A2.14,2.14,0,1,0,797.85,37.44Z"/><path class="cls-5" d="M802.83,30.13a1,1,0,1,1-1,1A1,1,0,0,1,802.83,30.13Zm-0.71,11.24V34h1.43v7.4h-1.43Z"/><path class="cls-5" d="M806.6,41.38V30.24H808V41.38H806.6Z"/><path class="cls-5" d="M817.54,39.27a3.35,3.35,0,0,1-3.32,2.34,3.69,3.69,0,0,1-3.72-4A3.69,3.69,0,0,1,814,33.75c2.28,0,3.55,1.57,3.55,3.88a3.26,3.26,0,0,1,0,.46H812a2.2,2.2,0,0,0,2.23,2.24,2,2,0,0,0,2.08-1.49Zm-1.46-2.35A1.86,1.86,0,0,0,814,35a2,2,0,0,0-2,1.89h4Z"/><path class="cls-5" d="M827.76,36.92h-1.63v4.46H824.6V30.47h4.11a3.16,3.16,0,0,1,3.34,3.25,3.05,3.05,0,0,1-2.65,3.09l2.6,4.57h-1.75Zm0.68-1.35a1.88,1.88,0,1,0,0-3.74h-2.31v3.74h2.31Z"/><path class="cls-5" d="M840.7,39.27a3.35,3.35,0,0,1-3.32,2.34,3.69,3.69,0,0,1-3.72-4,3.69,3.69,0,0,1,3.54-3.91c2.28,0,3.55,1.57,3.55,3.88a3.23,3.23,0,0,1,0,.46h-5.57a2.2,2.2,0,0,0,2.23,2.24,2,2,0,0,0,2.08-1.49Zm-1.46-2.35a1.87,1.87,0,0,0-2-1.89,2,2,0,0,0-2,1.89h4Z"/><path class="cls-5" d="M843.18,41.38V30.24h1.45V41.38h-1.45Z"/><path class="cls-5" d="M854.12,39.27a3.35,3.35,0,0,1-3.32,2.34,3.69,3.69,0,0,1-3.72-4,3.69,3.69,0,0,1,3.54-3.91c2.28,0,3.55,1.57,3.55,3.88a3.23,3.23,0,0,1,0,.46h-5.57a2.2,2.2,0,0,0,2.23,2.24,2,2,0,0,0,2.08-1.49Zm-1.46-2.35a1.87,1.87,0,0,0-2-1.89,2,2,0,0,0-2,1.89h4Z"/><path class="cls-5" d="M858.38,37.15l2-.29a0.54,0.54,0,0,0,.57-0.55,1.35,1.35,0,0,0-1.6-1.32,1.57,1.57,0,0,0-1.68,1.49l-1.38-.32a2.85,2.85,0,0,1,3-2.4c2.21,0,3.08,1.26,3.08,2.71v3.71a7.05,7.05,0,0,0,.09,1.21h-1.42a5.46,5.46,0,0,1-.08-1,2.69,2.69,0,0,1-2.38,1.23A2.24,2.24,0,1,1,858.38,37.15Zm2.57,1.06V37.87l-2.26.34a1.1,1.1,0,0,0-1.08,1.11,1.12,1.12,0,0,0,1.2,1.08A1.94,1.94,0,0,0,860.95,38.21Z"/><path class="cls-5" d="M865.84,39a1.58,1.58,0,0,0,1.72,1.38,1.09,1.09,0,0,0,1.26-1,1,1,0,0,0-1-1l-1.26-.28a2.11,2.11,0,0,1-1.85-2.08,2.52,2.52,0,0,1,2.63-2.34,2.62,2.62,0,0,1,2.81,2l-1.28.48A1.43,1.43,0,0,0,867.4,35a1.12,1.12,0,0,0-1.23,1,0.91,0.91,0,0,0,.85.89l1.2,0.26a2.25,2.25,0,0,1,2,2.2,2.45,2.45,0,0,1-2.71,2.29,2.79,2.79,0,0,1-3-2.15Z"/><path class="cls-5" d="M879.14,39.27a3.35,3.35,0,0,1-3.32,2.34,3.69,3.69,0,0,1-3.72-4,3.69,3.69,0,0,1,3.54-3.91c2.28,0,3.55,1.57,3.55,3.88a3.26,3.26,0,0,1,0,.46h-5.57a2.2,2.2,0,0,0,2.23,2.24,2,2,0,0,0,2.08-1.49Zm-1.46-2.35a1.86,1.86,0,0,0-2-1.89,2,2,0,0,0-2,1.89h4Z"/><path class="cls-5" d="M882.23,39A1.58,1.58,0,0,0,884,40.38a1.09,1.09,0,0,0,1.26-1,1,1,0,0,0-1-1L883,38.16a2.11,2.11,0,0,1-1.85-2.08,2.52,2.52,0,0,1,2.63-2.34,2.62,2.62,0,0,1,2.81,2l-1.28.48A1.43,1.43,0,0,0,883.79,35a1.12,1.12,0,0,0-1.23,1,0.91,0.91,0,0,0,.85.89l1.2,0.26a2.25,2.25,0,0,1,2,2.2,2.45,2.45,0,0,1-2.71,2.29,2.79,2.79,0,0,1-3-2.15Z"/></svg>