<svg id="Layer_1" data-name="Layer 1" xmlns="http://www.w3.org/2000/svg" viewBox="0 0 695.97 376.48"><defs><style>.cls-1,.cls-3,.cls-7{fill:none;}.cls-1,.cls-2{stroke:#ccc;}.cls-1,.cls-2,.cls-7{stroke-linecap:round;stroke-linejoin:round;}.cls-1,.cls-2,.cls-3,.cls-4,.cls-5,.cls-6,.cls-7{stroke-width:4px;}.cls-2{fill:#fff;}.cls-3,.cls-4,.cls-5,.cls-6,.cls-7{stroke:#404040;}.cls-3,.cls-4,.cls-5,.cls-6{stroke-miterlimit:10;}.cls-4{fill:#4ed1a1;}.cls-5{fill:#b3e3ff;}.cls-6{fill:#fcfcfc;}.cls-8{fill:#404040;}</style></defs><title>icons</title><path class="cls-1" d="M247.35,206.19a41.06,41.06,0,0,1-41,41m41-41a41.06,41.06,0,0,1,41-41h22.4"/><circle class="cls-2" cx="331.75" cy="165.19" r="21"/><path class="cls-3" d="M393,288.19a41.06,41.06,0,0,0-41-41m41,41a41.06,41.06,0,0,0,41,41H573.1"/><circle class="cls-4" cx="477.25" cy="329.19" r="21"/><circle class="cls-4" cx="573.25" cy="329.19" r="21"/><path class="cls-5" d="M77.35,247.19H352"/><circle class="cls-6" cx="153.35" cy="247.19" r="21"/><circle class="cls-6" cx="330.75" cy="247.19" r="21"/><path class="cls-2" d="M362.7,24H510.51V74H362.7V24Z"/><path class="cls-7" d="M429.3 119.69L429.3 96.19"/><path class="cls-7" d="M440.1 110.99L429.3 121.79 418.4 110.99"/><circle class="cls-6" cx="56.35" cy="247.19" r="21"/><circle class="cls-2" cx="429.25" cy="165.19" r="21"/><path class="cls-2" d="M352.75 165.19L408.25 165.19"/><path class="cls-8" d="M382.62,50.7v4.46h-1.51V44.26h4a3.23,3.23,0,1,1,0,6.44h-2.46Zm2.18-1.35a1.88,1.88,0,1,0,0-3.74h-2.18v3.74h2.18Z"/><path class="cls-8" d="M392.06,50.93l2-.29a0.54,0.54,0,0,0,.57-0.55,1.35,1.35,0,0,0-1.6-1.32,1.57,1.57,0,0,0-1.68,1.49L390,49.93a2.85,2.85,0,0,1,3-2.4c2.21,0,3.08,1.26,3.08,2.71v3.71a7,7,0,0,0,.09,1.21h-1.42a5.48,5.48,0,0,1-.08-1,2.7,2.7,0,0,1-2.38,1.23A2.24,2.24,0,1,1,392.06,50.93ZM394.63,52V51.66l-2.26.34a1.11,1.11,0,0,0-1.08,1.11,1.12,1.12,0,0,0,1.2,1.08A1.94,1.94,0,0,0,394.63,52Z"/><path class="cls-8" d="M401.44,55.39a2.74,2.74,0,0,1-2.77-3V47.77h1.45v4.45a1.65,1.65,0,0,0,1.68,1.91,1.67,1.67,0,0,0,1.75-1.89V47.77H405v6a12.62,12.62,0,0,0,.08,1.37h-1.38a6.46,6.46,0,0,1-.06-0.89A2.41,2.41,0,0,1,401.44,55.39Z"/><path class="cls-8" d="M408.66,52.78a1.58,1.58,0,0,0,1.72,1.38,1.09,1.09,0,0,0,1.26-1,1,1,0,0,0-1-1l-1.26-.28a2.1,2.1,0,0,1-1.85-2.08,2.52,2.52,0,0,1,2.63-2.34,2.62,2.62,0,0,1,2.81,2l-1.28.48a1.43,1.43,0,0,0-1.54-1.23,1.12,1.12,0,0,0-1.23,1,0.91,0.91,0,0,0,.85.89L411,50.9a2.25,2.25,0,0,1,2,2.2,2.45,2.45,0,0,1-2.71,2.29,2.79,2.79,0,0,1-3-2.15Z"/><path class="cls-8" d="M422,53.06a3.35,3.35,0,0,1-3.32,2.34,3.94,3.94,0,0,1-.18-7.86c2.28,0,3.55,1.57,3.55,3.88a3.21,3.21,0,0,1,0,.46H416.4a2.2,2.2,0,0,0,2.23,2.25,2,2,0,0,0,2.08-1.49Zm-1.46-2.35a1.86,1.86,0,0,0-2-1.89,2,2,0,0,0-2,1.89h4Z"/><path class="cls-8" d="M429.62,54a2.48,2.48,0,0,1-2.29,1.32c-2.17,0-3.51-1.72-3.51-3.92a3.63,3.63,0,0,1,3.51-3.87,2.27,2.27,0,0,1,2.26,1.25V44H431v9.77a11.62,11.62,0,0,0,.08,1.37h-1.4a6.28,6.28,0,0,1-.08-1V54Zm-2.15,0c1.32,0,2.14-1.15,2.14-2.68s-0.8-2.57-2.12-2.57-2.18,1.08-2.18,2.6S426.08,54.09,427.46,54.09Z"/><path class="cls-8" d="M438.65,55.16V44.26h6.63v1.4h-5.12v3.51h4.65v1.41h-4.65v4.58h-1.51Z"/><path class="cls-8" d="M453.47,53.06a3.35,3.35,0,0,1-3.32,2.34,3.94,3.94,0,0,1-.18-7.86c2.28,0,3.55,1.57,3.55,3.88a3.21,3.21,0,0,1,0,.46h-5.57a2.2,2.2,0,0,0,2.23,2.25,2,2,0,0,0,2.08-1.49ZM452,50.7a1.86,1.86,0,0,0-2-1.89,2,2,0,0,0-2,1.89h4Z"/><path class="cls-8" d="M457.73,50.93l2-.29a0.54,0.54,0,0,0,.57-0.55,1.35,1.35,0,0,0-1.6-1.32A1.57,1.57,0,0,0,457,50.26l-1.38-.32a2.85,2.85,0,0,1,3-2.4c2.21,0,3.08,1.26,3.08,2.71v3.71a7,7,0,0,0,.09,1.21h-1.42a5.45,5.45,0,0,1-.08-1A2.69,2.69,0,0,1,458,55.39,2.24,2.24,0,1,1,457.73,50.93ZM460.3,52V51.66L458,52A1.1,1.1,0,0,0,457,53.1a1.12,1.12,0,0,0,1.2,1.08A1.94,1.94,0,0,0,460.3,52Z"/><path class="cls-8" d="M466.52,47.77h1.6v1.31h-1.6v3.84a0.88,0.88,0,0,0,1,1,3,3,0,0,0,.57-0.06V55.1a3.17,3.17,0,0,1-1,.14,1.92,1.92,0,0,1-2.06-2.11V49.07h-1.42V47.77h0.4a1,1,0,0,0,1.14-1.14v-1.2h1.32v2.34Z"/><path class="cls-8" d="M473.32,55.39a2.74,2.74,0,0,1-2.77-3V47.77H472v4.45a1.65,1.65,0,0,0,1.68,1.91,1.67,1.67,0,0,0,1.75-1.89V47.77h1.45v6a12.56,12.56,0,0,0,.08,1.37h-1.38a6.46,6.46,0,0,1-.06-0.89A2.41,2.41,0,0,1,473.32,55.39Z"/><path class="cls-8" d="M484,49.23a4.58,4.58,0,0,0-.63,0c-1.21,0-2,.65-2,2.28v3.71h-1.45v-7.4h1.42v1.29a2.32,2.32,0,0,1,2.21-1.42,2.67,2.67,0,0,1,.48,0v1.54Z"/><path class="cls-8" d="M492.52,53.06a3.35,3.35,0,0,1-3.32,2.34,3.94,3.94,0,0,1-.18-7.86c2.28,0,3.55,1.57,3.55,3.88a3.24,3.24,0,0,1,0,.46H487a2.2,2.2,0,0,0,2.23,2.25,2,2,0,0,0,2.08-1.49Zm-1.46-2.35a1.86,1.86,0,0,0-2-1.89,2,2,0,0,0-2,1.89h4Z"/><path class="cls-4" d="M506.36,181.36H654.17v50H506.36v-50Z"/><path class="cls-7" d="M572.96 277.06L572.96 253.56"/><path class="cls-7" d="M583.76 268.36L572.96 279.16 562.06 268.36"/><path class="cls-8" d="M524.08,207.07a5.4,5.4,0,0,1,5.41-5.68,4.63,4.63,0,0,1,4.8,3.46l-1.4.49a3.23,3.23,0,0,0-3.4-2.57c-2,0-3.87,1.45-3.87,4.29s1.89,4.31,3.88,4.31a3.47,3.47,0,0,0,3.48-2.62l1.34,0.49a4.76,4.76,0,0,1-4.81,3.51A5.36,5.36,0,0,1,524.08,207.07Z"/><path class="cls-8" d="M540.62,206.59a4.57,4.57,0,0,0-.63,0c-1.22,0-2,.65-2,2.28v3.71h-1.45v-7.4h1.41v1.29a2.32,2.32,0,0,1,2.21-1.42,2.65,2.65,0,0,1,.48,0v1.54Z"/><path class="cls-8" d="M543.46,201.29a1,1,0,1,1-1,1A1,1,0,0,1,543.46,201.29Zm-0.71,11.24v-7.4h1.43v7.4h-1.43Z"/><path class="cls-8" d="M549.17,205.13h1.6v1.31h-1.6v3.84a0.88,0.88,0,0,0,1,1,3,3,0,0,0,.57-0.06v1.23a3.17,3.17,0,0,1-1,.14,1.92,1.92,0,0,1-2.06-2.11v-4.06H546.3v-1.31h0.4a1,1,0,0,0,1.14-1.14v-1.2h1.32v2.34Z"/><path class="cls-8" d="M554,201.29a1,1,0,1,1-1,1A1,1,0,0,1,554,201.29Zm-0.71,11.24v-7.4h1.43v7.4h-1.43Z"/><path class="cls-8" d="M558.61,208.82a2.33,2.33,0,0,0,2.26,2.6,2,2,0,0,0,2.06-1.52l1.28,0.55a3.4,3.4,0,0,1-3.34,2.31,3.94,3.94,0,0,1,0-7.86,3.22,3.22,0,0,1,3.29,2.35l-1.31.55a1.94,1.94,0,0,0-2-1.57A2.3,2.3,0,0,0,558.61,208.82Z"/><path class="cls-8" d="M568.2,208.3l2-.29a0.54,0.54,0,0,0,.57-0.55,1.35,1.35,0,0,0-1.6-1.32,1.57,1.57,0,0,0-1.68,1.49l-1.38-.32a2.85,2.85,0,0,1,3-2.4c2.21,0,3.08,1.26,3.08,2.71v3.71a6.93,6.93,0,0,0,.09,1.21h-1.42a5.57,5.57,0,0,1-.08-1,2.69,2.69,0,0,1-2.38,1.23A2.24,2.24,0,1,1,568.2,208.3Zm2.57,1.06V209l-2.26.34a1.1,1.1,0,0,0-1.08,1.11,1.12,1.12,0,0,0,1.2,1.08A1.94,1.94,0,0,0,570.77,209.36Z"/><path class="cls-8" d="M575,212.53V201.39h1.45v11.14H575Z"/><path class="cls-8" d="M584.13,212.53V201.62h6.63V203h-5.12v3.51h4.64v1.41h-4.64v4.58h-1.51Z"/><path class="cls-8" d="M598.94,210.42a3.35,3.35,0,0,1-3.32,2.34,3.94,3.94,0,0,1-.18-7.86c2.28,0,3.55,1.57,3.55,3.88a3.21,3.21,0,0,1,0,.46h-5.57a2.2,2.2,0,0,0,2.23,2.25A2,2,0,0,0,597.7,210Zm-1.46-2.35a1.86,1.86,0,0,0-2-1.89,2,2,0,0,0-2,1.89h4Z"/><path class="cls-8" d="M603.21,208.3l2-.29a0.54,0.54,0,0,0,.57-0.55,1.35,1.35,0,0,0-1.6-1.32,1.57,1.57,0,0,0-1.68,1.49l-1.38-.32a2.85,2.85,0,0,1,3-2.4c2.21,0,3.08,1.26,3.08,2.71v3.71a7.14,7.14,0,0,0,.09,1.21H605.9a5.39,5.39,0,0,1-.08-1,2.7,2.7,0,0,1-2.38,1.23A2.24,2.24,0,1,1,603.21,208.3Zm2.57,1.06V209l-2.26.34a1.1,1.1,0,0,0-1.08,1.11,1.12,1.12,0,0,0,1.2,1.08A1.94,1.94,0,0,0,605.77,209.36Z"/><path class="cls-8" d="M612,205.13h1.6v1.31H612v3.84a0.88,0.88,0,0,0,1,1,3,3,0,0,0,.57-0.06v1.23a3.17,3.17,0,0,1-1,.14,1.92,1.92,0,0,1-2.06-2.11v-4.06h-1.41v-1.31h0.4a1,1,0,0,0,1.14-1.14v-1.2H612v2.34Z"/><path class="cls-8" d="M618.79,212.76a2.74,2.74,0,0,1-2.77-3v-4.66h1.45v4.45a1.65,1.65,0,0,0,1.68,1.91,1.67,1.67,0,0,0,1.75-1.89v-4.46h1.45v6a12.37,12.37,0,0,0,.08,1.37H621a6.49,6.49,0,0,1-.06-0.89A2.42,2.42,0,0,1,618.79,212.76Z"/><path class="cls-8" d="M629.5,206.59a4.59,4.59,0,0,0-.63,0c-1.21,0-2,.65-2,2.28v3.71H625.4v-7.4h1.42v1.29A2.32,2.32,0,0,1,629,205a2.68,2.68,0,0,1,.48,0v1.54Z"/><path class="cls-8" d="M638,210.42a3.35,3.35,0,0,1-3.32,2.34,3.94,3.94,0,0,1-.19-7.86c2.28,0,3.55,1.57,3.55,3.88a3.21,3.21,0,0,1,0,.46h-5.57a2.2,2.2,0,0,0,2.23,2.25,2,2,0,0,0,2.08-1.49Zm-1.46-2.35a1.86,1.86,0,0,0-2-1.89,2,2,0,0,0-2,1.89h4Z"/></svg>