<svg id="Layer_1" data-name="Layer 1" xmlns="http://www.w3.org/2000/svg" viewBox="0 0 600.21 381.04"><defs><style>.cls-1{fill:none;}.cls-1,.cls-2,.cls-3,.cls-4,.cls-5{stroke:#404040;stroke-width:4px;}.cls-1,.cls-2,.cls-3,.cls-4{stroke-miterlimit:10;}.cls-2{fill:#b3e3ff;}.cls-3{fill:#ffbd17;}.cls-4{fill:#fcfcfc;}.cls-5{fill:#fff;stroke-linejoin:round;}.cls-6{fill:#ccc;}</style></defs><title>icons</title><path class="cls-1" d="M223.36,150a41.06,41.06,0,0,1-41,41m41-41a41.06,41.06,0,0,1,41-41h22.4"/><circle class="cls-2" cx="307.76" cy="109.01" r="21"/><path class="cls-1" d="M328.76 109.01L384.26 109.01"/><path class="cls-1" d="M182.36,191a41.06,41.06,0,0,1,41,41m63.4,41h-22.4a41.06,41.06,0,0,1-41-41"/><circle class="cls-3" cx="307.76" cy="273.01" r="21"/><path class="cls-1" d="M328.76 273.01L384.26 273.01"/><path class="cls-2" d="M92.36,191h76"/><circle class="cls-4" cx="168.36" cy="191.01" r="21"/><circle class="cls-4" cx="71.36" cy="191.01" r="21"/><path class="cls-5" d="M379.73,209.51h176v121h-176v-121Z"/><path class="cls-3" d="M379.73,209.51h176v29h-176v-29Z"/><path class="cls-6" d="M397.23,270h39.35v45.3H397.23V270Z"/><path class="cls-6" d="M397.23,255.21h138.6v7.2H397.23v-7.2Z"/><path class="cls-6" d="M447.49,270h39.35v45.3H447.49V270Z"/><path class="cls-6" d="M496.48,270h39.35v45.3H496.48V270Z"/><path class="cls-5" d="M379.73,48.51h176v121h-176v-121Z"/><path class="cls-2" d="M379.73,48.51h176v29h-176v-29Z"/><path class="cls-6" d="M397.23,109h39.35v45.3H397.23V109Z"/><path class="cls-6" d="M397.23,94.21h138.6v7.2H397.23v-7.2Z"/><path class="cls-6" d="M447.49,109h39.35v45.3H447.49V109Z"/><path class="cls-6" d="M496.48,109h39.35v45.3H496.48V109Z"/></svg>