<svg id="Layer_1" data-name="Layer 1" xmlns="http://www.w3.org/2000/svg" viewBox="0 0 719.96 463.97"><defs><style>.cls-1,.cls-3{fill:none;}.cls-1,.cls-2,.cls-3,.cls-4{stroke:#404040;stroke-width:4px;}.cls-1,.cls-4{stroke-miterlimit:10;}.cls-2{fill:#b18be8;}.cls-2,.cls-3{stroke-linecap:round;stroke-linejoin:round;}.cls-4{fill:#ffbd17;}.cls-5{fill:#404040;}</style></defs><title>icons</title><path class="cls-1" d="M543.44,147.73H436.24a21,21,0,0,0-21,21v38.9"/><path class="cls-2" d="M360.24,207.63V89.93"/><path class="cls-1" d="M177,147.73h107.2a21,21,0,0,1,21,21v38.9"/><path class="cls-3" d="M543.44,147.73a21,21,0,0,0,21-21V89.83"/><path class="cls-3" d="M177,147.73a21,21,0,0,1-21-21V89.83"/><path class="cls-4" d="M260.94,206.73h198.6v50H260.94v-50Z"/><path class="cls-5" d="M359.13,238.61L359,237.07a3.88,3.88,0,0,1-3.49,1.77c-2.74,0-5.29-2-5.29-5.69a5.37,5.37,0,0,1,5.4-5.68,4.85,4.85,0,0,1,4.83,3.29l-1.37.58a3.44,3.44,0,0,0-3.46-2.49c-2,0-3.86,1.4-3.86,4.29s1.85,4.32,3.8,4.32a3.1,3.1,0,0,0,3.37-2.85h-3.78v-1.35h5.21v5.34h-1.21Z"/><path class="cls-5" d="M363.81,227.37a1,1,0,1,1-1,1A1,1,0,0,1,363.81,227.37Zm-0.71,11.24v-7.4h1.43v7.4H363.1Z"/><path class="cls-5" d="M369.52,231.21h1.6v1.31h-1.6v3.85a0.88,0.88,0,0,0,1,1,2.87,2.87,0,0,0,.57-0.06v1.23a3.14,3.14,0,0,1-1,.14,1.92,1.92,0,0,1-2.06-2.11v-4.06h-1.41v-1.31h0.4a1,1,0,0,0,1.14-1.14v-1.2h1.32v2.34Z"/><path class="cls-5" d="M129.84,68.61V60.12l-3.72,8.49h-1.38L121,60.12v8.49h-1.49V57.7h2l3.85,8.88,3.88-8.87h2V68.61h-1.49Z"/><path class="cls-5" d="M136.25,64.38l2-.29a0.54,0.54,0,0,0,.57-0.55,1.35,1.35,0,0,0-1.6-1.32,1.57,1.57,0,0,0-1.68,1.49l-1.38-.32a2.85,2.85,0,0,1,3-2.4c2.21,0,3.08,1.26,3.08,2.71v3.71a7,7,0,0,0,.09,1.21h-1.42a5.45,5.45,0,0,1-.08-1,2.69,2.69,0,0,1-2.38,1.23A2.24,2.24,0,1,1,136.25,64.38Zm2.57,1.06V65.1l-2.26.34a1.1,1.1,0,0,0-1.08,1.11,1.12,1.12,0,0,0,1.2,1.08A1.94,1.94,0,0,0,138.82,65.44Z"/><path class="cls-5" d="M147.2,62.67a4.58,4.58,0,0,0-.63,0c-1.22,0-2,.65-2,2.28v3.71H143.1v-7.4h1.42V62.5a2.32,2.32,0,0,1,2.21-1.42,2.68,2.68,0,0,1,.48,0v1.54Z"/><path class="cls-5" d="M152.8,64.33L156,68.61H154.2l-2.42-3.26-1,1v2.23h-1.43V57.47h1.43v7l3.2-3.28h2Z"/><path class="cls-5" d="M164.05,66.5a3.35,3.35,0,0,1-3.32,2.34,3.94,3.94,0,0,1-.18-7.86c2.28,0,3.55,1.57,3.55,3.88a3.21,3.21,0,0,1,0,.46H158.5a2.2,2.2,0,0,0,2.23,2.25,2,2,0,0,0,2.08-1.49Zm-1.46-2.35a1.86,1.86,0,0,0-2-1.89,2,2,0,0,0-2,1.89h4Z"/><path class="cls-5" d="M168.47,61.21h1.6v1.31h-1.6v3.84a0.88,0.88,0,0,0,1,1,3,3,0,0,0,.57-0.06v1.23a3.17,3.17,0,0,1-1,.14A1.92,1.92,0,0,1,167,66.58V62.52h-1.42V61.21H166a1,1,0,0,0,1.14-1.14v-1.2h1.32v2.34Z"/><path class="cls-5" d="M173.29,57.37a1,1,0,1,1-1,1A1,1,0,0,1,173.29,57.37Zm-0.71,11.24v-7.4H174v7.4h-1.43Z"/><path class="cls-5" d="M178.5,68.61h-1.45v-7.4h1.42v1.06A2.53,2.53,0,0,1,180.75,61c1.77,0,2.65,1.28,2.65,2.92v4.69h-1.45V64.16a1.61,1.61,0,0,0-1.72-1.86,1.78,1.78,0,0,0-1.72,2v4.28Z"/><path class="cls-5" d="M187.15,68.69a2,2,0,0,0,2,1.81c1.55,0,2.26-.8,2.26-2.4V67a2.46,2.46,0,0,1-2.26,1.21,3.6,3.6,0,0,1,0-7.18,2.34,2.34,0,0,1,2.28,1.17v-1h1.43v6.84a3.38,3.38,0,0,1-3.71,3.71A3.24,3.24,0,0,1,185.75,69Zm4.34-4A2.14,2.14,0,1,0,189.38,67,2.13,2.13,0,0,0,191.49,64.67Z"/><path class="cls-5" d="M340.47,64.89V57.7H342v7.14a2.43,2.43,0,1,0,4.84,0V57.7h1.51v7.18A3.92,3.92,0,1,1,340.47,64.89Z"/><path class="cls-5" d="M355.76,63.15l3.66,5.46h-1.8l-2.75-4.26-2.81,4.26h-1.77L354,63.15l-3.69-5.45h1.82L354.88,62l2.8-4.28h1.79Z"/><path class="cls-5" d="M361.76,68.61h-1.4l5.28-10.91H367Z"/><path class="cls-5" d="M368.86,64.89V57.7h1.49v7.14a2.43,2.43,0,1,0,4.85,0V57.7h1.51v7.18A3.92,3.92,0,1,1,368.86,64.89Z"/><path class="cls-5" d="M379.91,68.61V57.7h1.54V68.61h-1.54Z"/><path class="cls-5" d="M505.44,68.61V63.76h-5.57v4.84h-1.51V57.7h1.51v4.66h5.57V57.7H507V68.61h-1.51Z"/><path class="cls-5" d="M512.85,68.84a2.74,2.74,0,0,1-2.77-3V61.21h1.45v4.45a1.65,1.65,0,0,0,1.68,1.91A1.67,1.67,0,0,0,515,65.67V61.21h1.45v6a12.62,12.62,0,0,0,.08,1.37h-1.38a6.46,6.46,0,0,1-.06-0.89A2.41,2.41,0,0,1,512.85,68.84Z"/><path class="cls-5" d="M519.45,68.61v-7.4h1.38v1a2.55,2.55,0,0,1,2.25-1.2,2.31,2.31,0,0,1,2.21,1.4,2.65,2.65,0,0,1,2.48-1.4,2.54,2.54,0,0,1,2.55,2.81v4.8h-1.43V64a1.49,1.49,0,0,0-1.57-1.69,1.72,1.72,0,0,0-1.71,1.86v4.48h-1.45V64a1.49,1.49,0,0,0-1.57-1.69,1.71,1.71,0,0,0-1.72,1.88v4.46h-1.43Z"/><path class="cls-5" d="M535,64.38l2-.29a0.54,0.54,0,0,0,.57-0.55,1.35,1.35,0,0,0-1.6-1.32,1.57,1.57,0,0,0-1.68,1.49l-1.38-.32a2.85,2.85,0,0,1,3-2.4c2.21,0,3.08,1.26,3.08,2.71v3.71a7,7,0,0,0,.09,1.21H537.7a5.48,5.48,0,0,1-.08-1,2.7,2.7,0,0,1-2.38,1.23A2.24,2.24,0,1,1,535,64.38Zm2.57,1.06V65.1l-2.26.34a1.11,1.11,0,0,0-1.08,1.11,1.12,1.12,0,0,0,1.2,1.08A1.94,1.94,0,0,0,537.57,65.44Z"/><path class="cls-5" d="M543.3,68.61h-1.45v-7.4h1.42v1.06A2.53,2.53,0,0,1,545.55,61c1.77,0,2.65,1.28,2.65,2.92v4.69h-1.45V64.16A1.61,1.61,0,0,0,545,62.3a1.78,1.78,0,0,0-1.72,2v4.28Z"/><path class="cls-5" d="M558.83,64.15H557.2v4.46h-1.52V57.7h4.11a3.16,3.16,0,0,1,3.34,3.25A3.05,3.05,0,0,1,560.47,64l2.6,4.57h-1.75Zm0.68-1.35a1.88,1.88,0,1,0,0-3.74H557.2v3.74h2.31Z"/><path class="cls-5" d="M571.76,66.5a3.35,3.35,0,0,1-3.32,2.34,3.94,3.94,0,0,1-.18-7.86c2.28,0,3.55,1.57,3.55,3.88a3.24,3.24,0,0,1,0,.46h-5.57a2.2,2.2,0,0,0,2.23,2.25,2,2,0,0,0,2.08-1.49Zm-1.46-2.35a1.86,1.86,0,0,0-2-1.89,2,2,0,0,0-2,1.89h4Z"/><path class="cls-5" d="M574.86,66.22a1.58,1.58,0,0,0,1.72,1.38,1.09,1.09,0,0,0,1.26-1,1,1,0,0,0-1-1l-1.26-.28a2.1,2.1,0,0,1-1.85-2.08A2.52,2.52,0,0,1,576.41,61a2.62,2.62,0,0,1,2.81,2l-1.28.48a1.43,1.43,0,0,0-1.54-1.23,1.12,1.12,0,0,0-1.23,1,0.91,0.91,0,0,0,.85.89l1.2,0.26a2.25,2.25,0,0,1,2,2.2,2.45,2.45,0,0,1-2.71,2.29,2.79,2.79,0,0,1-3-2.15Z"/><path class="cls-5" d="M588.66,64.9A3.79,3.79,0,1,1,584.88,61,3.73,3.73,0,0,1,588.66,64.9Zm-1.48,0a2.33,2.33,0,1,0-2.31,2.65A2.36,2.36,0,0,0,587.18,64.9Z"/><path class="cls-5" d="M593.71,68.84a2.74,2.74,0,0,1-2.77-3V61.21h1.45v4.45a1.65,1.65,0,0,0,1.68,1.91,1.67,1.67,0,0,0,1.75-1.89V61.21h1.45v6a12.62,12.62,0,0,0,.08,1.37H596a6.46,6.46,0,0,1-.06-0.89A2.41,2.41,0,0,1,593.71,68.84Z"/><path class="cls-5" d="M604.42,62.67a4.58,4.58,0,0,0-.63,0c-1.22,0-2,.65-2,2.28v3.71h-1.45v-7.4h1.42V62.5a2.32,2.32,0,0,1,2.21-1.42,2.68,2.68,0,0,1,.48,0v1.54Z"/><path class="cls-5" d="M607.33,64.9a2.33,2.33,0,0,0,2.26,2.6A2,2,0,0,0,611.65,66l1.28,0.55a3.4,3.4,0,0,1-3.34,2.31,3.94,3.94,0,0,1,0-7.86,3.22,3.22,0,0,1,3.29,2.35l-1.31.55a1.94,1.94,0,0,0-2-1.57A2.3,2.3,0,0,0,607.33,64.9Z"/><path class="cls-5" d="M621.58,66.5a3.35,3.35,0,0,1-3.32,2.34,3.94,3.94,0,0,1-.18-7.86c2.28,0,3.55,1.57,3.55,3.88a3.24,3.24,0,0,1,0,.46H616a2.2,2.2,0,0,0,2.23,2.25,2,2,0,0,0,2.08-1.49Zm-1.46-2.35a1.86,1.86,0,0,0-2-1.89,2,2,0,0,0-2,1.89h4Z"/><path class="cls-5" d="M624.67,66.22a1.58,1.58,0,0,0,1.72,1.38,1.09,1.09,0,0,0,1.26-1,1,1,0,0,0-1-1l-1.26-.28a2.1,2.1,0,0,1-1.85-2.08A2.52,2.52,0,0,1,626.22,61,2.62,2.62,0,0,1,629,63l-1.28.48a1.43,1.43,0,0,0-1.54-1.23,1.12,1.12,0,0,0-1.23,1,0.91,0.91,0,0,0,.85.89l1.2,0.26a2.25,2.25,0,0,1,2,2.2,2.45,2.45,0,0,1-2.71,2.29,2.79,2.79,0,0,1-3-2.15Z"/><path class="cls-1" d="M177,316.63h107.2a21,21,0,0,0,21-21v-38.9"/><path class="cls-2" d="M360.24,256.73v117.7"/><path class="cls-1" d="M543.44,316.63H436.24a21,21,0,0,1-21-21v-38.9"/><path class="cls-3" d="M177,316.63a21,21,0,0,0-21,21v36.9"/><path class="cls-3" d="M543.44,316.63a21,21,0,0,1,21,21v36.9"/><path class="cls-5" d="M143.55,410.59V399.69h3.81c2.77,0,5.18,1.89,5.18,5.48a5.05,5.05,0,0,1-5.21,5.43h-3.78Zm3.74-1.34c2,0,3.71-1.35,3.71-4.09s-1.66-4.14-3.68-4.14h-2.26v8.23h2.23Z"/><path class="cls-5" d="M161.51,408.48a3.35,3.35,0,0,1-3.32,2.34A3.94,3.94,0,0,1,158,403c2.28,0,3.55,1.57,3.55,3.88a3.26,3.26,0,0,1,0,.46H156a2.2,2.2,0,0,0,2.23,2.24,2,2,0,0,0,2.08-1.49ZM160,406.13a1.86,1.86,0,0,0-2-1.89,2,2,0,0,0-2,1.89h4Z"/><path class="cls-5" d="M167.22,410.59h-1.46l-3-7.4h1.63l2.11,5.71,2.12-5.71h1.55Z"/><path class="cls-5" d="M283.13,406.13v4.46h-1.51V399.69h4a3.23,3.23,0,1,1,0,6.44h-2.46Zm2.18-1.35a1.88,1.88,0,1,0,0-3.74h-2.18v3.74h2.18Z"/><path class="cls-5" d="M295.12,404.65a4.58,4.58,0,0,0-.63,0c-1.21,0-2,.65-2,2.28v3.71H291v-7.4h1.42v1.29a2.32,2.32,0,0,1,2.21-1.42,2.67,2.67,0,0,1,.48,0v1.54Z"/><path class="cls-5" d="M304.12,406.88a3.79,3.79,0,1,1-3.78-3.92A3.73,3.73,0,0,1,304.12,406.88Zm-1.48,0a2.33,2.33,0,1,0-2.31,2.65A2.36,2.36,0,0,0,302.64,406.88Z"/><path class="cls-5" d="M311.74,409.47a2.48,2.48,0,0,1-2.29,1.32c-2.17,0-3.51-1.72-3.51-3.92a3.63,3.63,0,0,1,3.51-3.87,2.27,2.27,0,0,1,2.26,1.25v-4.78h1.43v9.77a11.62,11.62,0,0,0,.08,1.37h-1.4a6.28,6.28,0,0,1-.08-1v-0.12Zm-2.15,0c1.32,0,2.14-1.15,2.14-2.68s-0.8-2.57-2.12-2.57-2.18,1.08-2.18,2.6S308.2,409.51,309.58,409.51Z"/><path class="cls-5" d="M318.8,410.82a2.74,2.74,0,0,1-2.77-3v-4.66h1.45v4.45a1.65,1.65,0,0,0,1.68,1.91,1.67,1.67,0,0,0,1.75-1.89v-4.46h1.45v6a12.62,12.62,0,0,0,.08,1.37H321a6.46,6.46,0,0,1-.06-0.89A2.41,2.41,0,0,1,318.8,410.82Z"/><path class="cls-5" d="M326.19,406.88a2.33,2.33,0,0,0,2.26,2.6,2,2,0,0,0,2.06-1.52l1.28,0.55a3.4,3.4,0,0,1-3.34,2.31,3.94,3.94,0,0,1,0-7.86,3.22,3.22,0,0,1,3.29,2.35l-1.31.55a1.94,1.94,0,0,0-2-1.57A2.3,2.3,0,0,0,326.19,406.88Z"/><path class="cls-5" d="M336,403.19h1.6v1.31H336v3.84a0.88,0.88,0,0,0,1,1,3,3,0,0,0,.57-0.06v1.23a3.17,3.17,0,0,1-1,.14,1.92,1.92,0,0,1-2.06-2.11V404.5h-1.42v-1.31h0.4a1,1,0,0,0,1.14-1.14v-1.2H336v2.34Z"/><path class="cls-5" d="M355,410.59V402.1l-3.72,8.49h-1.38l-3.69-8.49v8.49H344.7V399.69h2l3.85,8.88,3.88-8.87h2v10.91H355Z"/><path class="cls-5" d="M361.39,406.36l2-.29a0.54,0.54,0,0,0,.57-0.55,1.35,1.35,0,0,0-1.6-1.32,1.57,1.57,0,0,0-1.68,1.49l-1.38-.32a2.85,2.85,0,0,1,3-2.4c2.21,0,3.08,1.26,3.08,2.71v3.71a7,7,0,0,0,.09,1.21h-1.42a5.48,5.48,0,0,1-.08-1,2.7,2.7,0,0,1-2.38,1.23A2.24,2.24,0,1,1,361.39,406.36Zm2.57,1.06v-0.34l-2.26.34a1.11,1.11,0,0,0-1.08,1.11,1.12,1.12,0,0,0,1.2,1.08A1.94,1.94,0,0,0,364,407.42Z"/><path class="cls-5" d="M369.69,410.59h-1.45v-7.4h1.42v1.06a2.53,2.53,0,0,1,2.28-1.28c1.77,0,2.65,1.28,2.65,2.92v4.69h-1.45v-4.45a1.61,1.61,0,0,0-1.72-1.86,1.78,1.78,0,0,0-1.72,2v4.28Z"/><path class="cls-5" d="M379.26,406.36l2-.29a0.54,0.54,0,0,0,.57-0.55,1.35,1.35,0,0,0-1.6-1.32,1.57,1.57,0,0,0-1.68,1.49l-1.38-.32a2.85,2.85,0,0,1,3-2.4c2.21,0,3.08,1.26,3.08,2.71v3.71a7,7,0,0,0,.09,1.21H382a5.48,5.48,0,0,1-.08-1,2.7,2.7,0,0,1-2.38,1.23A2.24,2.24,0,1,1,379.26,406.36Zm2.57,1.06v-0.34l-2.26.34a1.11,1.11,0,0,0-1.08,1.11,1.12,1.12,0,0,0,1.2,1.08A1.94,1.94,0,0,0,381.83,407.42Z"/><path class="cls-5" d="M387,410.67a2,2,0,0,0,2,1.81c1.55,0,2.26-.8,2.26-2.4V409a2.46,2.46,0,0,1-2.26,1.21,3.6,3.6,0,0,1,0-7.18,2.34,2.34,0,0,1,2.28,1.17v-1h1.43V410a3.38,3.38,0,0,1-3.71,3.71,3.24,3.24,0,0,1-3.41-2.75Zm4.34-4A2.14,2.14,0,1,0,389.2,409,2.13,2.13,0,0,0,391.31,406.65Z"/><path class="cls-5" d="M402,408.48a3.35,3.35,0,0,1-3.32,2.34,3.94,3.94,0,0,1-.18-7.86c2.28,0,3.55,1.57,3.55,3.88a3.24,3.24,0,0,1,0,.46h-5.57a2.2,2.2,0,0,0,2.23,2.25,2,2,0,0,0,2.08-1.49Zm-1.46-2.35a1.86,1.86,0,0,0-2-1.89,2,2,0,0,0-2,1.89h4Z"/><path class="cls-5" d="M404.51,410.59v-7.4h1.38v1a2.55,2.55,0,0,1,2.25-1.2,2.31,2.31,0,0,1,2.21,1.4,2.65,2.65,0,0,1,2.48-1.4,2.54,2.54,0,0,1,2.55,2.81v4.8H414v-4.64a1.49,1.49,0,0,0-1.57-1.69,1.72,1.72,0,0,0-1.71,1.86v4.48h-1.45v-4.64a1.49,1.49,0,0,0-1.57-1.69,1.71,1.71,0,0,0-1.72,1.88v4.46h-1.43Z"/><path class="cls-5" d="M424.73,408.48a3.35,3.35,0,0,1-3.32,2.34,3.94,3.94,0,0,1-.18-7.86c2.28,0,3.55,1.57,3.55,3.88a3.24,3.24,0,0,1,0,.46h-5.57a2.2,2.2,0,0,0,2.23,2.25,2,2,0,0,0,2.08-1.49Zm-1.46-2.35a1.86,1.86,0,0,0-2-1.89,2,2,0,0,0-2,1.89h4Z"/><path class="cls-5" d="M428.65,410.59h-1.45v-7.4h1.42v1.06A2.53,2.53,0,0,1,430.9,403c1.77,0,2.65,1.28,2.65,2.92v4.69H432.1v-4.45a1.61,1.61,0,0,0-1.72-1.86,1.78,1.78,0,0,0-1.72,2v4.28Z"/><path class="cls-5" d="M438.38,403.19H440v1.31h-1.6v3.84a0.88,0.88,0,0,0,1,1,3,3,0,0,0,.57-0.06v1.23a3.17,3.17,0,0,1-1,.14,1.92,1.92,0,0,1-2.06-2.11V404.5h-1.42v-1.31h0.4a1,1,0,0,0,1.14-1.14v-1.2h1.32v2.34Z"/><path class="cls-5" d="M496.68,405.13a5.4,5.4,0,0,1,5.41-5.68,4.63,4.63,0,0,1,4.8,3.46l-1.4.49a3.23,3.23,0,0,0-3.4-2.57c-2,0-3.88,1.45-3.88,4.29s1.89,4.31,3.88,4.31a3.47,3.47,0,0,0,3.48-2.62l1.34,0.49a4.76,4.76,0,0,1-4.81,3.51A5.36,5.36,0,0,1,496.68,405.13Z"/><path class="cls-5" d="M511.72,410.82a2.74,2.74,0,0,1-2.77-3v-4.66h1.45v4.45a1.65,1.65,0,0,0,1.68,1.91,1.67,1.67,0,0,0,1.75-1.89v-4.46h1.45v6a12.56,12.56,0,0,0,.08,1.37H514a6.46,6.46,0,0,1-.06-0.89A2.41,2.41,0,0,1,511.72,410.82Z"/><path class="cls-5" d="M518.94,408.21a1.58,1.58,0,0,0,1.72,1.38,1.09,1.09,0,0,0,1.26-1,1,1,0,0,0-1-1l-1.26-.28a2.1,2.1,0,0,1-1.85-2.08A2.52,2.52,0,0,1,520.5,403a2.62,2.62,0,0,1,2.81,2l-1.28.48a1.43,1.43,0,0,0-1.54-1.23,1.12,1.12,0,0,0-1.23,1,0.91,0.91,0,0,0,.85.89l1.2,0.26a2.25,2.25,0,0,1,2,2.2,2.45,2.45,0,0,1-2.71,2.29,2.79,2.79,0,0,1-3-2.15Z"/><path class="cls-5" d="M527.8,403.19h1.6v1.31h-1.6v3.84a0.88,0.88,0,0,0,1,1,3,3,0,0,0,.57-0.06v1.23a3.17,3.17,0,0,1-1,.14,1.92,1.92,0,0,1-2.06-2.11V404.5h-1.42v-1.31h0.4a1,1,0,0,0,1.14-1.14v-1.2h1.32v2.34Z"/><path class="cls-5" d="M538.79,406.88A3.79,3.79,0,1,1,535,403,3.73,3.73,0,0,1,538.79,406.88Zm-1.48,0a2.33,2.33,0,1,0-2.31,2.65A2.36,2.36,0,0,0,537.31,406.88Z"/><path class="cls-5" d="M541.22,410.59v-7.4h1.38v1a2.55,2.55,0,0,1,2.25-1.2,2.31,2.31,0,0,1,2.21,1.4,2.65,2.65,0,0,1,2.48-1.4,2.54,2.54,0,0,1,2.55,2.81v4.8h-1.43v-4.64a1.49,1.49,0,0,0-1.57-1.69,1.72,1.72,0,0,0-1.71,1.86v4.48h-1.45v-4.64a1.49,1.49,0,0,0-1.57-1.69,1.71,1.71,0,0,0-1.72,1.88v4.46h-1.43Z"/><path class="cls-5" d="M561.44,408.48a3.35,3.35,0,0,1-3.32,2.34,3.94,3.94,0,0,1-.18-7.86c2.28,0,3.55,1.57,3.55,3.88a3.24,3.24,0,0,1,0,.46h-5.57a2.2,2.2,0,0,0,2.23,2.25,2,2,0,0,0,2.08-1.49ZM560,406.13a1.86,1.86,0,0,0-2-1.89,2,2,0,0,0-2,1.89h4Z"/><path class="cls-5" d="M568,404.65a4.58,4.58,0,0,0-.63,0c-1.21,0-2,.65-2,2.28v3.71h-1.45v-7.4h1.42v1.29a2.32,2.32,0,0,1,2.21-1.42,2.67,2.67,0,0,1,.48,0v1.54Z"/><path class="cls-5" d="M580.34,402.64a2.21,2.21,0,0,0-2.31-1.86,1.93,1.93,0,0,0-2.11,1.81,1.58,1.58,0,0,0,1.4,1.58l1.63,0.35c1.82,0.4,2.83,1.54,2.83,3.06,0,1.69-1.45,3.23-3.77,3.23a3.78,3.78,0,0,1-4.08-3.25l1.45-.46a2.48,2.48,0,0,0,2.61,2.34c1.51,0,2.25-.78,2.25-1.74a1.78,1.78,0,0,0-1.63-1.69l-1.55-.34a3,3,0,0,1-2.66-3,3.48,3.48,0,0,1,3.6-3.25,3.44,3.44,0,0,1,3.69,2.71Z"/><path class="cls-5" d="M586.6,410.82a2.74,2.74,0,0,1-2.77-3v-4.66h1.45v4.45a1.65,1.65,0,0,0,1.68,1.91,1.67,1.67,0,0,0,1.75-1.89v-4.46h1.45v6a12.62,12.62,0,0,0,.08,1.37h-1.38a6.46,6.46,0,0,1-.06-0.89A2.41,2.41,0,0,1,586.6,410.82Z"/><path class="cls-5" d="M593.2,413.51V403.19h1.4v1.15a2.73,2.73,0,0,1,2.48-1.32c2.21,0,3.4,1.71,3.4,3.86s-1.28,3.91-3.45,3.91a2.75,2.75,0,0,1-2.4-1.2v3.92H593.2Zm3.61-9.21a2.32,2.32,0,0,0-2.2,2.58c0,1.52.88,2.62,2.2,2.62s2.18-1.09,2.18-2.62S598.17,404.3,596.82,404.3Z"/><path class="cls-5" d="M602.91,413.51V403.19h1.4v1.15a2.73,2.73,0,0,1,2.48-1.32c2.21,0,3.4,1.71,3.4,3.86s-1.28,3.91-3.45,3.91a2.75,2.75,0,0,1-2.4-1.2v3.92h-1.43Zm3.61-9.21a2.32,2.32,0,0,0-2.2,2.58c0,1.52.88,2.62,2.2,2.62s2.18-1.09,2.18-2.62S607.88,404.3,606.53,404.3Z"/><path class="cls-5" d="M619.57,406.88a3.79,3.79,0,1,1-3.78-3.92A3.73,3.73,0,0,1,619.57,406.88Zm-1.48,0a2.33,2.33,0,1,0-2.31,2.65A2.36,2.36,0,0,0,618.1,406.88Z"/><path class="cls-5" d="M626.12,404.65a4.58,4.58,0,0,0-.63,0c-1.21,0-2,.65-2,2.28v3.71H622v-7.4h1.42v1.29a2.32,2.32,0,0,1,2.21-1.42,2.67,2.67,0,0,1,.48,0v1.54Z"/><path class="cls-5" d="M630.56,403.19h1.6v1.31h-1.6v3.84a0.88,0.88,0,0,0,1,1,3,3,0,0,0,.57-0.06v1.23a3.17,3.17,0,0,1-1,.14,1.92,1.92,0,0,1-2.06-2.11V404.5H627.7v-1.31h0.4a1,1,0,0,0,1.14-1.14v-1.2h1.32v2.34Z"/></svg>