<svg id="Layer_1" xmlns="http://www.w3.org/2000/svg" viewBox="0 0 800 326"><style>.st0{fill:#B3E3FF;stroke:#404040;stroke-width:3.6826;stroke-miterlimit:10;} .st1{fill:#FFFFFF;stroke:#404040;stroke-width:3.6826;stroke-miterlimit:10;} .st2{fill:#59AFE1;stroke:#404040;stroke-width:3.6826;stroke-miterlimit:10;} .st3{fill:#FFBD17;stroke:#404040;stroke-width:3.6826;stroke-miterlimit:10;}</style><path id="repo1_106_" class="st0" d="M349.3,227.7c0-11.4,26-20.6,58-20.6s58,9.2,58,20.6 M349.3,227.7v25.7c0,2.8,1.6,5.4,4.3,7.8	c8.7,7.5,29.5,12.8,53.7,12.8c24.3,0,45-5.3,53.7-12.8c2.8-2.4,4.3-5.1,4.3-7.8v-25.7"/><path class="st1" d="M465.3,227.7c0,11.4-26,20.6-58,20.6s-58-9.2-58-20.6c0-11.4,26-20.6,58-20.6S465.3,216.2,465.3,227.7	L465.3,227.7z"/><path id="repo1_105_" class="st0" d="M349.3,178.1c0-11.4,26-20.6,58-20.6s58,9.2,58,20.6 M349.3,178.1v25.7c0,2.8,1.6,5.4,4.3,7.8	c8.7,7.5,29.5,12.8,53.7,12.8c24.3,0,45-5.3,53.7-12.8c2.8-2.4,4.3-5.1,4.3-7.8v-25.7"/><path class="st1" d="M465.3,178.1c0,11.4-26,20.6-58,20.6s-58-9.2-58-20.6s26-20.6,58-20.6S465.3,166.7,465.3,178.1z"/><path class="st1" d="M576.7,131.8L559.1,108H505v131.4h167.9V131.8H576.7z"/><path class="st1" d="M533.2,156.5L505,239.4h167.9l28.2-82.9H533.2z"/><path id="repo1_104_" class="st0" d="M509.5,119.8c5-10.3,32.4-7.3,61.2,6.6s48.3,33.4,43.3,43.8 M509.5,119.8l-11.1,23.1	c-1.2,2.5-1,5.5,0.5,8.9c4.6,10.5,20.9,24.3,42.8,34.9c21.8,10.5,42.9,14.8,54,11.8c3.5-0.9,6.1-2.7,7.3-5.2l11.1-23.1"/><path class="st1" d="M570.7,126.4c28.9,13.9,48.3,33.4,43.3,43.8s-32.4,7.3-61.2-6.6c-28.9-13.9-48.3-33.4-43.3-43.8	S541.8,112.5,570.7,126.4z"/><path class="st2" d="M533.2,156.5L505,239.4h167.9l28.2-82.9H533.2z"/><path class="st1" d="M139.3,131.8v107.6h167.9V108h-54.1l-17.6,23.8H139.3z"/><path class="st3" d="M111.1,156.5l28.2,82.9h167.9L279,156.5H111.1z"/><path id="repo1_1_" class="st0" d="M316.2,96.7c-3.9-10.7,17.4-28.2,47.5-39.2c30.1-10.9,57.7-11.1,61.6-0.4 M316.2,96.7l8.8,24.1	c0.9,2.6,3.3,4.6,6.7,5.9c10.7,4.1,32.1,2,54.8-6.3c22.8-8.3,40.5-20.4,46.1-30.3c1.8-3.2,2.3-6.2,1.4-8.8l-8.8-24.1"/><path class="st1" d="M425.2,57.1c3.9,10.7-17.4,28.2-47.5,39.2s-57.7,11.1-61.6,0.4s17.4-28.2,47.5-39.2	C393.8,46.6,421.3,46.4,425.2,57.1z"/></svg>